<svg height="221.734" viewBox="0 0 539.984 221.734" width="539.984"
    xmlns="http://www.w3.org/2000/svg">
    <path
        d="m25.819 221.704c-4.697 0-6.63-.837-8.163-2.105-1.658-1.373-2.609-3.376-2.609-5.496 0-5.325-.911-33.345-2.6-61.144-.623-10.244-3.431-25.066-6.146-39.4-6.916-36.504-9.804-54.282.021-59.47 10.183-5.378 46.562-9.268 53.751-9.993 3.576-.367 6.759 2.243 7.12 5.815.36 3.572-2.243 6.759-5.815 7.12-14.983 1.512-40.464 4.979-48.054 8.122-1.809 6.088 2.717 29.979 5.75 45.986 2.791 14.732 5.677 29.966 6.349 41.032 1.405 23.127 2.257 45.818 2.529 56.542 10.85-.645 38.142-5.838 49.358-7.972 7.39-1.406 11.329-2.15 13.107-2.365 3.561-.423 6.803 2.108 7.234 5.672.432 3.564-2.107 6.803-5.671 7.234-1.425.173-6.437 1.126-12.24 2.23-31.666 6.024-46.367 8.191-53.921 8.191z" />
    <path
        d="m21.975 154.724c-1.455 0-2.188-.314-2.986-.655-3.3-1.413-4.83-5.233-3.417-8.534 1.187-2.771 4.071-4.297 6.92-3.875 5.701-.619 35.294-10.446 61.276-19.825 3.376-1.221 7.102.53 8.321 3.907s-.53 7.102-3.907 8.321c-.152.055-15.368 5.543-30.87 10.753-23.855 8.017-31.767 9.908-35.337 9.908z" />
    <path
        d="m32.068 221.344c-3.45 0-6.324-2.712-6.487-6.195-.027-.572-2.7-57.396-3.56-73.926-.835-16.043-14.484-81.081-14.622-81.735-.739-3.513 1.51-6.96 5.023-7.699 3.516-.741 6.96 1.51 7.699 5.023.571 2.715 13.995 66.69 14.882 83.735.862 16.562 3.536 73.419 3.563 73.991.169 3.586-2.602 6.629-6.188 6.798-.104.005-.208.007-.311.007z" />
    <path
        d="m154.212 210.936h-9.904c-3.001 0-5.612-2.055-6.318-4.972-1.773-7.328-21.078-160.371-21.078-167.099 0-7.665 9.407-9.229 12.499-9.744 9.95-1.657 48.777-2.604 54.131 13.039.213.622 21.166 62.455 9.764 81.996-2.656 4.552-6.347 6.093-8.975 6.584-8.903 1.663-22.655 4.024-31.877 5.588 3.134 26.218 6.258 51.654 8.208 67.304.23 1.85-.344 3.709-1.578 5.106s-3.008 2.197-4.872 2.197zm-12.104-169.778c.187 7.659 4.306 44.221 8.808 82.246 9.113-1.547 22.271-3.809 30.893-5.417.478-.582 3.729-5.464.588-26.68-1.976-13.352-6.221-30.475-11.089-44.742-1.125-1.316-7.421-4.172-20.601-5.124-3.119-.225-6.005-.303-8.6-.283z" />
    <path
        d="m200.029 194.739c-2.256 0-4.351-1.17-5.534-3.091l-37.139-60.289c-1.13-1.834-1.278-4.11-.394-6.075s2.684-3.365 4.806-3.736l12.69-2.224c2.659-.467 5.328.76 6.708 3.079 10.936 18.379 29.958 49.357 34.445 54.239 4.413 4.801 3.211 9.141 2.489 10.784-2.654 6.044-11.292 7.313-18.072 7.313z" />
    <path
        d="m250.965 197.892c-3.297 0-6.454-.859-8.597-3.015-2.207-2.219-2.92-5.381-1.944-8.407.458-4.868-1.119-34.662-4.553-75.737-3.729-44.61-7.104-71.908-8.545-76.107-.794-1.552-.934-3.366-.374-5.031.609-1.811 1.984-3.263 3.76-3.969l13.581-5.399c1.896-.754 4.036-.574 5.778.486 1.743 1.06 2.887 2.876 3.091 4.906 1.554 15.506 15.182 151.707 15.182 159.02 0 4.997-3.242 9.201-8.895 11.533-2.533 1.045-5.564 1.719-8.484 1.72zm-10.266-12.166s-.001.004-.002.007c0-.002.001-.004.002-.007zm9.96-52.922c.803 10.762 1.477 20.778 1.969 29.331.68 11.818.895 18.466.857 22.37.713-.199 1.375-.457 1.823-.734-.279-4.861-2.146-24.987-4.648-50.967zm-9.879-97.191c.233 1.232.484 2.68.755 4.391-.151-1.517-.302-3.022-.451-4.512l-.305.121zm-13.392-.868c.057.111.114.205.163.284-.057-.094-.111-.188-.163-.284z" />
    <path
        d="m304.512 191.14c-2.254 0-4.445-1.174-5.646-3.27l-39.179-68.388c-1.046-1.826-1.143-4.044-.262-5.955.882-1.911 2.633-3.276 4.701-3.665 8.994-1.69 19.328-6.502 17.485-19.83-.707-5.114-1.236-10.697-1.749-16.095-1.28-13.491-2.73-28.782-6.967-34.268-3.244-4.2-13.331-11.525-23.801-7.363-3.336 1.327-7.116-.303-8.441-3.639-1.326-3.336.303-7.115 3.639-8.441 16.846-6.698 32.488 3.207 38.892 11.497 6.535 8.462 8.033 24.26 9.62 40.987.499 5.262 1.016 10.704 1.685 15.542 2.352 17.013-7.405 27.17-19.417 31.934l35.073 61.221c1.784 3.115.706 7.086-2.409 8.871-1.019.583-2.129.861-3.225.861z" />
    <path
        d="m364.98 181.82c-9.229 0-16.984-.618-19.761-1.084-1.675-.281-4.073-1.242-5.992-4.219-1.792-2.778-7.243-11.234-8.093-82.729-.37-31.12.37-70.28 1.914-76.108 1.44-5.436 7.319-8.262 19.657-9.448 8.27-.794 18.548-.726 28.203.19 22.049 2.091 33.069 7.411 33.688 16.262.815 11.656-1.638 128.601-3.51 141.33-.33 2.246-1.532 5.511-5.382 8.314-8.212 5.977-26.274 7.491-40.724 7.491zm-15.376-13.609c5.369.578 15.646.984 26.124.304 15.326-.993 21.257-3.687 22.559-4.864 1.475-12.523 4.133-120.361 3.395-137.1-2.206-1.635-10.869-4.677-27.814-5.622-14.854-.828-24.883.546-28.459 1.737-.762 7.888-1.7 37.042-1.265 71.795.683 54.481 4.069 69.745 5.46 73.75zm-10.272-148.865h.01z" />
    <path
        d="m533.099 176.057c-5.624 0-12.573-4.486-30.306-42.667-9.107-19.608-17.029-39.562-17.108-39.761-1.322-3.337.311-7.115 3.648-8.438 3.338-1.322 7.115.311 8.438 3.648.069.175 7.021 17.684 15.317 35.828 14.033 30.692 20.003 37.197 21.505 38.469 2.889.497 5.172 2.916 5.377 5.97.241 3.582-2.467 6.681-6.049 6.921-.271.018-.545.029-.822.029z" />
    <path
        d="m352.389 181.481c-3.537 0-6.435-2.836-6.497-6.387-.006-.375-.657-37.949-.98-75.736-.666-77.837.573-80.544 1.569-82.718 1.495-3.263 5.353-4.697 8.616-3.204 3.04 1.392 4.493 4.833 3.471 7.936-1.559 8.842-.635 98.596.322 153.497.062 3.589-2.796 6.55-6.386 6.612-.039 0-.077 0-.116 0zm5.916-159.438s-.002.005-.003.008c0-.003.002-.006.003-.008z" />
    <path
        d="m458.588 176.052c-2.084 0-4.132-.501-5.876-1.758-2.508-1.806-3.729-4.744-3.284-7.877.596-6.502 1.004-129.63.082-144.718-.431-7.047-.05-11.767 3.176-15.041 3.218-3.266 7.268-3.076 10.84-2.912.544.025 1.096.051 1.663.068 4.373-3.456 11.521-3.846 15.012-3.812 9.603.102 20.931 3.726 23.93 13.592 3.746 12.325 8.973 60.927 7.019 71.724-2.613 14.429-26.065 13.124-33.19 12.38-1.516-.158-2.856-.826-3.867-1.815.109 15.58.27 33.903.492 55.422.054 5.242.092 8.925.103 10.472.033 4.97-3.051 9.541-8.251 12.226-2.266 1.17-5.088 2.048-7.847 2.048zm3.734-8.008c-.01.099-.02.182-.03.248.012-.082.022-.165.03-.248zm12.016-154.413c-.362 5.904-.605 24.644-.307 73.014 1.337-1.34 3.247-2.086 5.278-1.875 7.933.814 17.22-.17 19.086-1.992 1.313-8.554-3.366-54.424-6.703-65.401-.482-1.586-2.712-2.623-3.998-3.099-4.808-1.781-10.691-1.391-13.356-.646z" />
</svg>