<svg height="1413.74" viewBox="0 0 1048.818 1413.74" width="1048.818" xmlns="http://www.w3.org/2000/svg"><path d="m943.275 0v49.795c19.372 5.519 33.562 23.336 33.562 44.479 0 .116-.008.231-.009.347.001.14.009.278.009.419 0 25.547-20.71 46.257-46.256 46.257s-46.257-20.71-46.257-46.257c0-.141.008-.279.009-.419 0-.116-.009-.231-.009-.347 0-21.143 14.19-38.959 33.562-44.479v-49.795h-182.308v49.795c19.372 5.52 33.562 23.336 33.562 44.479 0 .116-.008.231-.009.347 0 .14.009.278.009.419 0 25.547-20.71 46.257-46.256 46.257s-46.257-20.71-46.257-46.257c0-.141.007-.279.009-.419 0-.116-.009-.231-.009-.347 0-21.143 14.19-38.959 33.562-44.479v-49.795h-179.638v49.795c19.372 5.519 33.562 23.335 33.562 44.479 0 .116-.008.231-.009.347 0 .14.009.278.009.419 0 25.547-20.71 46.257-46.256 46.257s-46.257-20.71-46.257-46.257c0-.141.007-.279.009-.419 0-.116-.009-.231-.009-.347 0-21.143 14.19-38.959 33.562-44.479v-49.795h-181.304v49.896c12.84 3.771 23.357 12.955 28.914 24.919 2.977 6.108 4.648 12.971 4.648 20.225 0 25.547-20.71 46.257-46.256 46.257-18.597 0-34.621-10.98-41.968-26.806-2.973-6.108-4.645-12.967-4.645-20.217 0-21.272 14.364-39.179 33.918-44.58v-49.694h-179.993v49.795c3.624 1.033 7.064 2.494 10.266 4.329l.051.029c2.61 1.5 5.058 3.247 7.316 5.209.073.063.146.126.219.189.389.343.772.692 1.149 1.047.101.095.2.19.3.286.368.352.731.708 1.087 1.072.077.079.151.159.227.238 1.109 1.152 2.158 2.36 3.145 3.622.117.149.237.297.352.448.254.334.501.674.747 1.015.153.212.306.425.456.641.225.325.447.652.664.982.16.243.316.49.472.736.201.319.403.638.596.962.169.284.331.572.494.859.17.3.345.596.509.9.302.56.592 1.127.871 1.701.131.27.252.543.378.816.166.358.331.716.488 1.079.123.284.239.57.356.857.149.364.294.73.434 1.1.107.282.211.565.313.85.142.397.275.798.406 1.2.085.261.172.52.252.783.161.526.31 1.057.452 1.591.038.142.082.282.118.425.173.674.328 1.354.471 2.04.045.218.083.439.125.659.093.483.182.967.26 1.455.042.261.078.523.116.785.066.461.125.925.177 1.39.03.264.059.528.083.793.047.496.083.995.114 1.495.014.23.032.459.043.691.034.73.056 1.463.056 2.202 0 25.547-20.71 46.257-46.256 46.257-25.547 0-46.257-20.71-46.257-46.257 0-.01 0-.019 0-.028 0-.727.021-1.449.055-2.167.011-.239.03-.476.045-.714.031-.493.066-.984.112-1.472.025-.271.055-.539.085-.808.051-.459.11-.917.174-1.372.038-.268.076-.536.118-.803.077-.479.164-.954.255-1.427.044-.229.083-.458.131-.686.142-.682.297-1.359.469-2.03.039-.154.086-.304.127-.458.14-.523.285-1.043.443-1.559.082-.268.17-.531.257-.797.129-.397.261-.792.401-1.184.103-.289.208-.575.317-.86.138-.366.282-.729.43-1.09.118-.29.236-.579.359-.865.155-.359.319-.713.483-1.068.127-.275.25-.553.383-.825.276-.567.563-1.129.862-1.683.169-.315.35-.623.527-.933.16-.281.317-.563.483-.839.195-.327.398-.648.601-.97.154-.245.309-.489.468-.73.219-.332.441-.661.668-.988.148-.212.299-.423.45-.632.247-.343.495-.686.751-1.021.113-.149.231-.293.346-.441.988-1.265 2.04-2.476 3.152-3.63.075-.078.148-.157.223-.234.357-.365.722-.722 1.09-1.075.099-.094.197-.189.297-.283.378-.356.76-.705 1.15-1.048.073-.064.146-.126.219-.19 2.257-1.962 4.704-3.708 7.313-5.208.019-.011.037-.021.055-.032 3.201-1.835 6.641-3.296 10.264-4.328v-49.793h-93.089v1413.74h1048.818v-1413.74z" fill="#f0efd8"/></svg>