<svg height="1629" viewBox="0 0 1197.565 1628.127" width="1198" xmlns="http://www.w3.org/2000/svg"><path d="m718.071 41.402c-10.67-8.157-57.482-31.402-57.482-31.402s-30.167 7.88-44.219 13.378c-19.174 7.501-48.482 22.32-66.849 29.769-26.52 10.756-41.344 15.946-66.916 26.641-10.441 4.367-19.77 9.71-30.155 14.073-4.88 2.05-20.036 6.096-24.913 8.146-21.929 9.218-37.765 16.488-59.976 25.724-36.549 15.199-69.17 36.656-108.473 52.031 5.305-2.075 33.169 27.147 38.723 29.324 13.175 5.167 59.916 39.088 73.09 44.256 10.612 4.161 43.904 45.895 81.78 68.286 56.173 33.208 120.528 49.957 120.528 49.957s329.563-120.7 407.023-174.83c-54.208-41.441-207.953-113.913-262.161-155.354z" fill="#d3cfff"/><path d="m573.21 381.586c-.846 0-1.691-.107-2.519-.323-2.684-.698-66.367-17.488-123.099-51.026-23.932-14.148-45.685-35.272-61.567-50.697-7.16-6.953-16.07-15.606-18.865-16.926-6.943-2.721-19.093-10.515-38.267-23.024-13.64-8.899-29.1-18.984-34.732-21.194-3.521-1.38-7.251-4.553-17.015-13.269-5.252-4.688-14.711-13.13-18.646-15.38-3.772-.225-7.256-2.59-8.724-6.342-2.013-5.143.525-10.944 5.669-12.956 20.534-8.033 39.587-17.969 58.013-27.577 16.163-8.429 32.877-17.145 50.264-24.375 11.795-4.905 22.017-9.354 31.901-13.657 8.737-3.803 17.772-7.737 28.039-12.052 2.912-1.224 8.019-2.778 13.424-4.422 4.464-1.358 9.524-2.898 11.491-3.724 4.876-2.049 9.5-4.323 14.396-6.73 5.029-2.473 10.229-5.031 15.774-7.35 14.588-6.101 25.664-10.409 37.391-14.969 8.938-3.477 18.18-7.071 29.625-11.712 8.354-3.388 19.018-8.335 30.309-13.573 12.857-5.965 26.153-12.133 36.655-16.241 14.434-5.647 44.08-13.413 45.335-13.74 2.334-.611 4.812-.355 6.975.719 4.88 2.423 47.994 23.918 59.107 32.414 26.501 20.26 79.021 49.029 129.812 76.852 51.445 28.181 104.642 57.321 132.349 78.502 2.535 1.938 3.993 4.968 3.925 8.158s-1.654 6.155-4.27 7.983c-77.634 54.252-395.806 171.077-409.312 176.023-1.108.406-2.272.61-3.439.61zm-271.298-181.629c7.099 2.908 19.138 10.636 37.909 22.882 13.64 8.898 29.1 18.984 34.732 21.193 5.808 2.278 12.344 8.476 25.405 21.16 15.162 14.725 35.929 34.891 57.812 47.828 47.609 28.145 101.867 44.376 114.994 48.073 31.55-11.641 301.73-111.942 389.684-164.785-28.54-19.4-73.972-44.286-118.1-68.459-51.443-28.179-104.642-57.322-132.351-78.503-7.493-5.728-37.795-21.337-52.491-28.71-8.323 2.24-28.947 7.928-39.492 12.054-9.93 3.885-22.942 9.921-35.525 15.759-11.52 5.344-22.4 10.392-31.21 13.964-11.577 4.696-20.888 8.316-29.892 11.818-11.605 4.514-22.567 8.777-36.923 14.781-4.982 2.084-9.687 4.397-14.666 6.845-4.941 2.43-10.051 4.943-15.474 7.221-2.912 1.223-8.015 2.776-13.417 4.419-4.466 1.359-9.529 2.899-11.495 3.726-10.15 4.267-19.126 8.174-27.807 11.952-9.959 4.336-20.258 8.819-32.204 13.787-16.587 6.898-32.184 15.031-48.695 23.642-13.543 7.062-27.414 14.296-42.116 20.93 2.947 2.509 6.21 5.402 9.873 8.671 4.053 3.617 9.555 8.528 11.448 9.75zm-39.179-10.882s0 0 0 0c-.015.006-.029.011-.043.017.015-.006.028-.011.043-.017z"/><path d="m597.071 678.637h87.542v143.296h-87.542z" fill="#fff"/><path d="m684.613 831.932h-87.542c-5.522 0-10-4.477-10-10v-143.296c0-5.523 4.478-10 10-10h87.542c5.522 0 10 4.477 10 10v143.296c0 5.523-4.478 10-10 10zm-77.542-20h67.542v-123.296h-67.542z"/><path d="m918.494 1435.971c130.701 7.456 175.039 12.807 223.989-44.144 56.001-65.154 28.992-128.285 16.964-183.752-3.244-14.953-27.107-47.047-32.656-57.166-7.889-14.387-19.823-24.219-30.79-32.087 12.732-16.87 10.55-19.861 7.464-45.537-2.16-17.968-26.157-46.084-31.723-68.986-13.752-56.583-20.414-122.56-51.878-171.833-5.294-8.291-33.233-29.398-56.154-25.672-7.396 1.203-24.987 8.125-24.987 8.125s-21.554-6.421-35.305-12.213c-31.751-13.374-87.171 18.846-87.171 18.846l-358.734 1.87s-53.361-35.373-82.455-26.035c-12.601 4.044-15.051 6.496-26.13 10.339-9.092-2.724-23.108-10.434-31.67-11.348-25.805-2.754-52.586 11.375-58.168 18.387-17.14 21.536-24.746 46.028-35.703 70.908-13.742 31.202-36.339 52.465-44.473 85.109-2.148 8.617-12.681 41.039-14.511 51.705-6.92 40.338-27.362 47.206-50.943 81.616-8.002 11.677-60.022 107.318-63.108 124.207-3.971 21.736 113.635-2.505 111.304 21.035-9.439 95.376-13.498 203.181 116.25 194.138 14.808-1.032 27.951-5.278 56.813-11.007 160.06 2.04 453.074-3.965 583.774 3.492z" fill="#d3cfff"/><path d="m263.416 1454.007c-36.351 0-64.404-9.938-83.531-29.629-37.722-38.834-34.936-106.825-28.423-173.541-1.907-.721-6.125-1.807-14.948-2.375-9.526-.613-21.318-.446-32.719-.285-32.938.47-51.968.269-60.009-9.236-2.938-3.474-4.101-7.887-3.271-12.426 3.687-20.178 58.056-118.374 64.696-128.063 8.153-11.897 15.914-20.609 22.761-28.296 13.505-15.16 22.426-25.176 26.574-49.358 1.271-7.406 5.893-22.771 9.97-36.328 2.044-6.796 3.975-13.216 4.694-16.105 5.184-20.8 15.721-37.229 25.911-53.118 6.77-10.556 13.771-21.47 19.114-33.604 2.457-5.58 4.793-11.264 7.052-16.761 7.805-18.99 15.876-38.626 29.979-56.345 7.491-9.412 37.129-25.296 67.054-22.103 6.68.713 14.551 4.055 22.162 7.287 2.979 1.264 5.841 2.48 8.333 3.408 2.948-1.122 5.208-2.137 7.567-3.196 4.047-1.817 8.232-3.697 15.621-6.068 29.837-9.577 76.056 17.699 88.436 25.541l353.183-1.842c4.876-2.658 16.645-8.749 30.934-13.866 26.085-9.342 47.196-10.759 62.745-4.209 9.999 4.211 24.622 8.87 31.049 10.859 5.778-2.185 17.384-6.389 23.757-7.425 27.598-4.489 59.316 19.401 66.188 30.16 24.845 38.907 34.609 86.659 44.053 132.838 2.997 14.655 5.828 28.496 9.113 42.015 2.396 9.859 9.166 21.654 15.713 33.06 7.651 13.333 14.88 25.926 16.222 37.094.328 2.732.646 5.205.937 7.463 2.229 17.331 2.743 24.988-4.643 37.048 9.389 7.465 18.908 16.8 25.872 29.497 1.422 2.594 4.534 7.318 8.138 12.787 12.489 18.957 23.031 35.583 25.522 47.068 1.597 7.361 3.442 14.781 5.396 22.636 6.401 25.734 13.021 52.343 11.863 80.73-1.344 32.959-13.254 62.08-36.412 89.023-24.844 28.904-48.842 43.063-82.83 48.869-32.329 5.523-72.146 3.213-132.417-.285-5.467-.317-11.097-.644-16.896-.975-82.15-4.688-226.662-4.045-366.422-3.423-80.641.358-156.838.696-215.86-.04-9.861 1.971-17.758 3.741-24.753 5.309-12.826 2.875-22.093 4.952-32.288 5.662-5.213.363-10.274.544-15.186.544zm-144.16-225.967c24.628 0 40.57 1.52 48.17 9.79 3.155 3.433 4.64 7.874 4.182 12.503-6.218 62.828-9.593 126.942 22.623 160.109 17.662 18.183 44.802 25.729 82.98 23.069 8.688-.605 16.889-2.444 29.305-5.227 7.347-1.646 15.675-3.513 26.257-5.614.683-.135 1.377-.2 2.074-.19 58.996.751 135.535.412 216.567.051 140.062-.622 284.888-1.266 367.649 3.456 5.807.332 11.442.658 16.916.976 116.219 6.745 155.368 9.017 198.92-41.654 45.053-52.417 32.474-102.986 20.309-151.89-1.904-7.655-3.873-15.57-5.533-23.225-1.903-8.771-14.908-28.51-22.679-40.304-4.001-6.073-7.161-10.869-8.974-14.174-7.002-12.769-18.008-21.709-27.851-28.77-2.189-1.57-3.652-3.958-4.057-6.621-.406-2.663.281-5.378 1.903-7.528 8.905-11.799 8.814-12.509 6.476-30.691-.297-2.308-.622-4.835-.958-7.628-.856-7.129-7.392-18.514-13.711-29.525-7.242-12.62-14.731-25.669-17.8-38.292-3.373-13.876-6.373-28.545-9.274-42.732-9.078-44.393-18.466-90.298-41.314-126.081-3.436-5.379-27.667-24.18-46.122-21.183-4.616.751-16.515 5.035-22.929 7.56-2.081.818-4.373.917-6.518.278-.901-.269-22.238-6.645-36.332-12.581-22.213-9.356-64.029 10.023-78.269 18.278-1.508.875-3.225 1.343-4.969 1.352l-358.734 1.87c-.017 0-.034 0-.052 0-1.965 0-3.887-.579-5.525-1.665-19.105-12.64-56.059-30.566-73.872-24.848-6.327 2.03-9.831 3.604-13.541 5.27-3.394 1.524-6.902 3.1-12.37 4.996-1.982.689-4.133.734-6.146.131-4.099-1.228-8.613-3.145-13.393-5.174-5.679-2.411-12.745-5.412-16.469-5.809-23.471-2.506-46.378 11.037-49.282 14.671-12.333 15.495-19.52 32.98-27.128 51.492-2.306 5.61-4.69 11.411-7.247 17.218-5.973 13.559-13.4 25.141-20.584 36.341-9.745 15.195-18.951 29.548-23.339 47.156-.836 3.354-2.741 9.691-4.948 17.029-3.522 11.711-8.346 27.75-9.41 33.949-5.116 29.827-17.274 43.475-31.353 59.279-6.766 7.595-13.762 15.449-21.196 26.299-8.345 12.176-52.805 95.096-60.485 116.807 8.264 2.097 29.151 1.801 42.288 1.615 5.593-.079 10.842-.14 15.744-.14z"/><path d="m752.4 1296.829c-75.927 0-151.832-.98-227.755-1.292-1.04-139-20.537-296.267-7.051-437.738 3.011-31.589 48.939-51.572 50.513-82.595 51.555 27.987 96.579 42.322 130.81-5.696 4.145 34.669 65.508 68.023 70.559 105.357 18.617 137.619-16.496 291.683-17.076 421.964z" fill="#fff"/><path d="m752.399 1306.829c-45.188 0-91.107-.353-135.514-.693-30.248-.232-61.525-.472-92.282-.599-5.478-.022-9.918-4.448-9.959-9.925-.364-48.774-2.963-98.848-5.713-151.862-4.963-95.653-10.095-194.563-1.293-286.899 1.817-19.07 15.211-33.315 28.163-47.091 11.165-11.874 21.71-23.09 22.317-35.063.174-3.431 2.098-6.533 5.094-8.214s6.646-1.707 9.664-.068c52.952 28.745 89.218 37.517 117.897-2.712 2.398-3.363 6.616-4.906 10.618-3.884s6.963 4.4 7.454 8.501c1.649 13.798 16.863 29.792 31.576 45.26 17.684 18.59 35.969 37.814 38.963 59.944 11.665 86.233 2.593 178.076-6.18 266.895-5.444 55.119-10.587 107.181-10.807 156.454-.024 5.505-4.494 9.956-10 9.956zm-217.858-21.248c27.593.133 55.456.347 82.498.555 41.13.316 83.557.642 125.468.688.802-47.191 5.666-96.435 10.796-148.37 8.66-87.675 17.614-178.334 6.263-262.248-2.126-15.716-18.144-32.556-33.634-48.841-11.646-12.243-23.564-24.772-30.681-38.023-15.645 15.514-34.018 22.572-55.733 21.505-21.681-1.065-44.249-10.369-64.608-20.747-4.957 12.537-14.868 23.078-24.536 33.361-11.137 11.845-21.656 23.033-22.824 35.288-8.663 90.872-3.57 189.034 1.355 283.965 2.578 49.684 5.022 96.798 5.637 142.868z"/><path d="m360.541 1326.455c-.218-11.419-.131-19.034-.081-31.381.025-6.172 5.589-19.141 5.356-26.203-.35-10.591-4.492-18.961-4.869-29.214-.376-10.253 2.565-20.289 2.163-30.709-.354-9.195-.681-17.441-1.277-27.157-.457-7.444-5.639-17.774-5.984-25.137-.764-16.347 4.492-25.024 3.124-42.389-1.613-20.468-8.532-40.382-6.888-64.252.949-13.791 1.537-27.545 1.911-46.96.358-18.647 14.135-78.956 15.658-94.429 5.119-52.018 18.337-80.132 57.305-108.248 10.841-7.822 133.162-42.87 159.611-42.237-6.496 12.621-11.831 36.01-18.612 48.307-16.38 20.29-16.763 36.739-18.593 63.082-3.051 43.903 7.806 89.212 8.004 134.324.073 16.599-2.838 33.904-1.991 52.023.705 15.08 4.291 33.512 5.507 49.761 1.166 15.593 5.705 30.892 6.732 47.189.8 12.715-2.075 27.9-1.398 40.88 1.992 38.23 3.506 75.564 3.444 113.648" fill="#f9e3ae"/><path d="m360.537 1336.455c-5.435 0-9.891-4.352-9.994-9.809-.187-9.755-.153-16.631-.107-26.148l.024-5.465c.018-4.236 1.406-9.204 2.877-14.464 1.079-3.86 2.558-9.146 2.484-11.369-.144-4.349-1.142-8.509-2.197-12.913-1.203-5.019-2.447-10.208-2.671-16.263-.217-5.901.478-11.441 1.149-16.798.609-4.867 1.186-9.465 1.016-13.894-.384-9.933-.698-17.679-1.267-26.929-.15-2.458-1.367-6.322-2.544-10.059-1.58-5.016-3.213-10.203-3.448-15.223-.412-8.816.738-15.791 1.753-21.944 1.036-6.284 2.015-12.22 1.392-20.127-.557-7.066-1.807-14.166-3.131-21.682-2.402-13.644-4.887-27.752-3.765-44.043.969-14.064 1.533-27.961 1.889-46.465.23-12.014 5.28-38.245 9.734-61.388 2.779-14.436 5.403-28.072 5.97-33.828 2.839-28.848 8.091-49.42 17.029-66.702 9.376-18.13 23.477-33.597 44.376-48.677 13.997-10.098 138.591-44.766 165.702-44.124 3.443.083 6.602 1.931 8.359 4.892 1.759 2.961 1.869 6.619.293 9.681-2.768 5.377-5.554 13.724-8.249 21.797-3.212 9.622-6.532 19.572-10.498 26.763-.282.512-.608.998-.976 1.452-13.631 16.885-14.525 30.012-16.147 53.841l-.251 3.653c-1.659 23.878.929 48.016 3.669 73.571 2.1 19.583 4.271 39.832 4.359 60.016.033 7.597-.526 15.333-1.068 22.815-.681 9.407-1.385 19.135-.934 28.785.36 7.701 1.522 16.392 2.753 25.594 1.06 7.92 2.155 16.111 2.736 23.887.522 6.987 1.789 14 3.129 21.425 1.496 8.284 3.042 16.851 3.611 25.882.45 7.148-.127 14.722-.686 22.047-.518 6.783-1.006 13.189-.706 18.94 1.747 33.524 3.524 73.307 3.458 114.185-.009 5.517-4.484 9.983-10 9.984h-.017c-5.522-.009-9.992-4.493-9.983-10.016.065-40.405-1.697-79.852-3.431-113.111-.367-7.033.194-14.388.736-21.502.529-6.948 1.03-13.51.667-19.269-.496-7.875-1.873-15.506-3.332-23.585-1.372-7.602-2.792-15.463-3.392-23.487-.538-7.195-1.594-15.091-2.615-22.727-1.233-9.217-2.508-18.749-2.908-27.312-.507-10.84.241-21.172.965-31.163.538-7.433 1.046-14.453 1.016-21.283-.084-19.159-2.199-38.89-4.245-57.972-2.712-25.294-5.517-51.449-3.734-77.089l.248-3.625c1.69-24.824 2.916-42.836 19.945-64.302 2.953-5.633 5.852-14.317 8.659-22.727.934-2.796 1.877-5.622 2.841-8.393-39.983 6.811-128.571 32.583-138.338 38.745-35.196 25.414-48.111 49.985-53.139 101.071-.657 6.673-3.241 20.102-6.234 35.65-4.09 21.248-9.18 47.691-9.378 57.992-.362 18.851-.939 33.043-1.932 47.455-.955 13.854 1.314 26.739 3.509 39.2 1.347 7.649 2.739 15.559 3.371 23.58.814 10.332-.466 18.099-1.596 24.951-.937 5.681-1.821 11.047-1.508 17.756.113 2.425 1.406 6.529 2.546 10.151 1.539 4.885 3.129 9.938 3.431 14.84.581 9.461.9 17.318 1.288 27.385.234 6.063-.473 11.7-1.155 17.151-.599 4.779-1.165 9.293-1.008 13.577.15 4.064 1.113 8.081 2.133 12.334 1.185 4.939 2.527 10.538 2.737 16.916.176 5.301-1.546 11.459-3.211 17.415-.85 3.037-2.133 7.625-2.139 9.16l-.024 5.479c-.045 9.378-.078 16.154.104 25.67.105 5.522-4.285 10.084-9.808 10.189-.064.001-.13.002-.194.002z"/><path d="m913.197 1332.682c.247-11.479.219-19.158.157-31.564-.031-6.204-5.598-19.235-5.547-26.238.078-10.504 4.138-18.889 4.288-28.967.151-10.078-3.145-19.778-3.137-29.907.006-8.938-.026-16.852.299-26.234.25-7.189 5.108-17.136 5.352-24.203.543-15.689-5.64-23.785-4.499-40.41 1.345-19.595 7.656-38.913 6.666-61.704-.572-13.166 2.969-30.805 3.954-46.633.946-15.201 1.517-34.724 2.088-51.159.477-13.703-2.993-28.29-2.633-42.105 1.209-46.44-34.665-79.413-48.317-108.082-6.188-12.994-22.526-38.226-47.782-42.322-16.796-2.724-28.89 2.872-53.243 0-21.741-2.564-55.164-11.459-75.769-12.287 9.597 24.349 48.822 85.635 51.464 113.11 4.403 45.792-10.234 91.875-11.509 138.257-.47 17.066 1.74 34.148.766 52.32-.812 15.126-4.176 32.795-5.202 48.874-.984 15.431-5.173 30.273-5.903 46.361-.569 12.553 2.563 27.65 2.138 40.538-1.253 37.96-2.38 75.713-2.211 113.589" fill="#f9e3ae"/><path d="m913.201 1342.682c-.072 0-.146 0-.219-.002-5.521-.119-9.901-4.691-9.783-10.213.242-11.226.218-18.828.155-31.298-.008-1.612-1.36-6.384-2.255-9.542-1.637-5.775-3.328-11.748-3.292-16.818.048-6.421 1.307-12.052 2.418-17.02.933-4.171 1.813-8.11 1.871-12.024.063-4.256-.664-8.733-1.434-13.472-.84-5.171-1.709-10.517-1.704-16.294v-2.434c.002-7.943.004-15.446.304-24.137.171-4.896 1.663-9.889 3.107-14.719 1.017-3.399 2.168-7.251 2.245-9.484.216-6.22-.84-10.993-2.061-16.52-1.461-6.609-3.116-14.1-2.421-24.229.557-8.104 1.906-16.141 3.213-23.913 1.966-11.696 3.998-23.79 3.438-36.671-.382-8.779.805-18.615 2.062-29.029.752-6.239 1.53-12.69 1.902-18.659.778-12.5 1.312-28.357 1.784-42.347l.29-8.538c.217-6.235-.497-12.866-1.253-19.886-.775-7.203-1.578-14.652-1.383-22.131.769-29.542-15.711-53.958-30.251-75.5-6.557-9.715-12.75-18.891-17.099-28.023-2.604-5.466-16.781-32.927-40.354-36.75-6.808-1.104-12.743-.592-20.259.056-8.826.761-18.831 1.623-32.555.004-9.534-1.125-20.74-3.323-32.604-5.65-8.593-1.686-17.348-3.403-25.349-4.668 3.018 5.884 6.537 12.462 10.155 19.224 15.328 28.648 32.702 61.117 34.616 81.03 2.698 28.057-1.429 56.118-5.42 83.256-2.722 18.504-5.535 37.637-6.047 56.233-.203 7.379.119 14.774.461 22.603.42 9.614.854 19.556.294 29.978-.434 8.094-1.563 16.866-2.655 25.348-1.019 7.905-2.07 16.079-2.553 23.628-.498 7.812-1.751 15.396-2.962 22.73-1.323 8.01-2.573 15.575-2.931 23.447-.257 5.68.36 12.193 1.014 19.089.669 7.055 1.359 14.349 1.129 21.326-1.258 38.15-2.373 75.517-2.205 113.214.024 5.522-4.433 10.02-9.955 10.044h-.046c-5.502 0-9.975-4.448-9.999-9.956-.17-38.043.951-75.615 2.217-113.963.188-5.701-.414-12.053-1.052-18.779-.689-7.278-1.402-14.803-1.081-21.882.41-9.056 1.816-17.568 3.176-25.801 1.184-7.164 2.302-13.93 2.736-20.744.522-8.191 1.617-16.69 2.675-24.908 1.094-8.493 2.127-16.515 2.521-23.865.507-9.45.095-18.898-.304-28.035-.342-7.833-.695-15.934-.473-24.024.544-19.781 3.445-39.512 6.252-58.593 3.993-27.15 7.764-52.794 5.299-78.432-1.531-15.924-19.34-49.206-32.343-73.508-8.006-14.962-14.919-27.883-18.471-36.893-1.239-3.145-.806-6.703 1.151-9.459 1.958-2.755 5.164-4.334 8.554-4.2 12.697.51 29.345 3.776 45.443 6.934 11.479 2.252 22.32 4.379 31.096 5.414 11.697 1.379 20.236.644 28.495-.068 8.189-.706 15.926-1.372 25.178.128 32.584 5.284 50.496 37.994 55.21 47.893 3.706 7.781 9.493 16.355 15.619 25.433 15.416 22.84 34.603 51.266 33.667 87.209-.16 6.145.537 12.617 1.274 19.469.798 7.407 1.622 15.066 1.356 22.723l-.29 8.516c-.476 14.124-1.015 30.132-1.812 42.917-.407 6.546-1.221 13.29-2.008 19.812-1.155 9.577-2.247 18.624-1.937 25.765.651 14.986-1.559 28.136-3.695 40.854-1.283 7.633-2.494 14.842-2.983 21.969-.498 7.256.657 12.487 1.996 18.544 1.323 5.988 2.823 12.774 2.521 21.527-.166 4.805-1.644 9.745-3.072 14.523-1.031 3.449-2.199 7.358-2.28 9.682-.288 8.346-.29 15.682-.291 23.448v2.444c-.004 4.156.699 8.488 1.444 13.073.875 5.387 1.78 10.958 1.69 16.977-.089 5.971-1.239 11.115-2.352 16.09-.979 4.38-1.904 8.517-1.936 12.802-.017 2.216 1.458 7.42 2.535 11.22 1.538 5.428 2.99 10.555 3.012 14.895.063 12.638.088 20.348-.159 31.828-.117 5.448-4.571 9.785-9.994 9.785z"/><path d="m800.691 504.912c5.61-19.868 11.997-30.243 28.912-42.884 16.915-12.642 42.746-15.909 59.545-3.126 10.89 8.287 16.389 21.961 16.587 35.304.197 13.344-4.398 26.396-10.748 38.265-9.609 17.961-23.776 34.161-42.349 43.622s-41.84 11.441-60.675 2.471" fill="#fff"/><path d="m818.703 594.291c-10.96 0-21.638-2.22-31.04-6.698-4.986-2.375-7.104-8.342-4.729-13.328s8.344-7.103 13.328-4.729c15.052 7.168 34.914 6.268 51.837-2.353 19.286-9.823 31.348-26.864 38.07-39.429 6.588-12.314 9.717-23.24 9.566-33.4-.167-11.319-4.894-21.597-12.644-27.494-13.414-10.208-34.687-6.4-47.503 3.178-14.588 10.903-20.021 18.983-25.274 37.591-1.5 5.315-7.025 8.407-12.341 6.907-5.315-1.5-8.407-7.026-6.907-12.341 6.461-22.884 14.37-34.59 32.55-48.177 10.006-7.478 22.455-12.116 35.056-13.06 13.747-1.03 26.717 2.517 36.531 9.986 12.598 9.586 20.272 25.704 20.53 43.115.201 13.639-3.7 27.747-11.93 43.13-11.578 21.642-27.702 38.176-46.627 47.816-12.113 6.17-25.491 9.286-38.475 9.286z"/><path d="m412.539 504.645c7.375 49.627 24.975 105.691 59.174 144.03s91.168 57.519 143.007 68.402c51.839 10.882 141.141-2.101 195.358-66.199 43.462-51.383 55.565-131.718 49.261-223.408-2.931-42.625-4.006-98.594-32.442-133.812-17.465-21.63-117.693-28.783-117.693-28.783s-89.332-58.866-149.628-41.246c-79.315 23.176-176.516 82.633-147.037 281.016z" fill="#fff"/><path d="m650.475 730.545c-13.281 0-26.07-1.218-37.81-3.682-70.049-14.705-118.596-38.103-148.414-71.531-41.163-46.146-56.266-113.296-61.604-149.217-13.513-90.937-1.91-162.772 34.486-213.51 26.638-37.133 65.771-62.835 119.637-78.575 59.264-17.318 140.938 31.727 155.718 41.07 7.144.581 28.007 2.457 50.64 6.189 52.203 8.609 65.837 19.011 71.55 26.088 27.986 34.663 31.27 86.518 33.907 128.185.242 3.825.479 7.573.73 11.223 7.153 104.044-10.208 181.613-51.603 230.551-25.757 30.452-61.556 52.719-103.525 64.393-20.998 5.841-42.955 8.816-63.713 8.816zm-65.952-500.246c-7.714 0-15.167.89-22.144 2.929-116.122 33.932-161.899 122.232-139.949 269.948 5.009 33.711 19.042 96.577 56.745 138.843 26.872 30.125 71.882 51.476 137.599 65.271 45.224 9.494 131.995.586 185.669-62.87 37.917-44.828 53.703-117.59 46.919-216.263-.253-3.685-.493-7.47-.737-11.332-2.459-38.838-5.519-87.172-29.508-116.884-1.996-2.472-12.157-11.14-59.108-18.896-26.485-4.375-51.271-6.177-51.519-6.195-1.709-.122-3.358-.682-4.789-1.625-.745-.49-65.959-42.927-119.178-42.927z"/><path d="m769.794 565.929c-8.282 0-17.102-1.433-26.727-4.328-33.646-10.12-60.809-32.692-84.773-52.608-4.247-3.53-4.829-9.835-1.3-14.082 3.53-4.247 9.833-4.831 14.083-1.3 22.499 18.697 47.999 39.889 77.75 48.837 10.312 3.101 19.169 4.115 27.086 3.098 8.582-1.103 16.227-4.968 20.448-10.339 4.057-5.162 4.9-12.102 2.052-16.876-2.354-3.945-7.281-7.246-12.047-10.439-8.545-5.725-17.822-11.026-26.795-16.152-18.856-10.773-38.354-21.914-54.4-38.516-3.838-3.971-3.73-10.302.241-14.14 3.969-3.838 10.302-3.731 14.14.241 14.063 14.552 31.49 24.508 49.941 35.05 9.276 5.3 18.868 10.78 28.006 16.902 5.983 4.009 13.431 8.998 18.09 16.807 7.104 11.908 5.697 27.774-3.502 39.482-7.5 9.542-19.755 16.036-33.625 17.818-2.828.364-5.715.546-8.668.546z"/><path d="m546.986 456.275c-2.236 0-4.486-.746-6.349-2.279-4.265-3.509-4.877-9.811-1.367-14.076 11.527-14.009 30.435-22.402 50.575-22.451h.159c15.171 0 30.393 5.226 46.536 15.975 4.598 3.061 5.843 9.269 2.781 13.866-3.061 4.597-9.27 5.842-13.865 2.781-12.755-8.493-24.354-12.623-35.455-12.623-.036 0-.072 0-.107 0-14.034.034-27.515 5.842-35.181 15.159-1.978 2.403-4.841 3.646-7.728 3.646z"/><path d="m819.506 456.276c-3.482 0-6.865-1.822-8.706-5.067-3.126-5.51-10.759-9.105-20.418-9.619-11.524-.613-21.511 3.329-24.5 7.495-3.219 4.487-9.466 5.516-13.955 2.295-4.487-3.22-5.515-9.467-2.295-13.955 7.57-10.551 23.98-16.757 41.813-15.807 16.75.891 30.145 8.08 36.749 19.722 2.726 4.804 1.041 10.907-3.763 13.632-1.558.884-3.254 1.304-4.926 1.304z"/><path d="m544.795 406.871c-3.346 0-6.614-1.678-8.508-4.73-2.911-4.693-1.467-10.858 3.227-13.769 32.572-20.205 73.225-28.014 111.537-21.428 5.443.936 9.097 6.107 8.161 11.55-.935 5.443-6.104 9.097-11.55 8.161-33.557-5.77-69.134 1.052-97.605 18.713-1.642 1.018-3.463 1.504-5.262 1.504z"/><path d="m816.615 397.365c-1.615 0-3.252-.392-4.771-1.218-23.53-12.803-51.316-17.894-78.241-14.336-5.478.726-10.5-3.129-11.224-8.604s3.129-10.5 8.604-11.224c31.087-4.108 63.199 1.785 90.419 16.596 4.852 2.64 6.645 8.712 4.005 13.563-1.813 3.333-5.248 5.222-8.793 5.222z"/><path d="m669.521 585.858c-29.682-2.634-48.688-18.32-59.222-18.321-15.338 0-32.381 16.19-18.747 39.624 7.367 12.662 26.723 20.977 45.014 25.564 30.452 7.636 66.772 4.829 92.603-10.651 23.461-14.06 16.239-36.215 5.965-40.476-21.05-8.73-49.272 5.711-65.613 4.261z" fill="#fff"/><path d="m670.205 646.841c-12.023 0-24.239-1.449-36.072-4.417-17.964-4.505-41.434-13.407-51.225-30.234-10.394-17.865-5.759-31.29-2.07-37.702 5.922-10.297 17.486-16.951 29.46-16.951h.002c6.353 0 12.78 2.893 20.918 6.556 10.264 4.62 23.041 10.37 39.187 11.804 4.69.415 11.999-1.196 19.741-2.902 14.646-3.229 32.874-7.247 48.819-.635 8.636 3.581 14.969 13.192 15.757 23.914.991 13.479-6.449 26.009-20.412 34.376-17.726 10.623-40.544 16.19-64.104 16.19zm-59.906-69.303c-4.795 0-9.78 2.846-12.124 6.922-3.395 5.901-.775 12.868 2.021 17.672 4.762 8.184 19.267 15.994 38.803 20.893 29.604 7.424 62.982 3.684 85.03-9.529 7.354-4.406 11.17-10.002 10.747-15.754-.289-3.936-2.439-6.478-3.473-6.906-10.127-4.2-24.327-1.07-36.852 1.691-9.288 2.047-18.062 3.981-25.814 3.293-19.51-1.731-34.605-8.526-45.629-13.488-4.744-2.136-10.649-4.794-12.709-4.794z"/><path d="m902.881 363.52c2.861 47.983-29.57 77.6-42.345 87.261.419-29.666-.339-85.085-17.14-101.309-14.098-13.614-42.582-16.268-50.356-26.667-8.711-11.653-11.739-34.856-23.604-39.562-23.035-9.136-47.027 3.123-60.781-.897-25.79 24.78-60.272-26.012-90.538-19.666-34.02 7.133-19.111 47.105-31.548 44.995-16.718-2.837-41.242 5.741-53.38-6.459-68.775 41.667-19.725 81.018-22.176 86.147-2.959 6.192-42.539 10.176-63.643-1.595 58.113 51.105 32.738 80.107 23.379 119.734-17.112 10.281-39.903 3.644-57.41-6.025-45.46-25.108-75.87-27.928-84.783-76.917-2.474-13.597 7.218-29.972 13.579-42.394 6.361-12.421 24.196-30.694 22.921-58.25-3.221-27.215 19.98-78.628 76.947-67.97 4.39-24.143 75.7-51.624 134.962-32.968 17.035-17.941 63.392-35.355 88.724-32.374s31.123 46.701 42.967 68.041c0 0 49.102-44.084 116.327-6.036 12.356 6.993 27.866 37.09 14.815 43.897 8.796 1.156 28.233 3.065 37.861 15.364 13.474 17.211 16.852 46.862 25.222 53.65z" fill="#fff"/><path d="m450.852 520.724c-16.498 0-32.42-7.011-42.348-12.494-9.3-5.137-17.833-9.258-26.086-13.244-31.146-15.043-55.748-26.925-63.701-70.637-2.828-15.54 5.642-31.741 12.447-44.758.714-1.366 1.41-2.696 2.068-3.983 1.725-3.366 4.022-6.874 6.455-10.587 7.178-10.954 16.1-24.57 15.392-42.325-1.881-17.156 4.875-43.653 24.251-61.77 10.723-10.026 28.936-20.76 56.42-17.981 3.869-6.427 10.51-12.558 19.649-18.074 26.483-15.982 74.262-27.041 118.882-15.088 21.835-18.642 66.771-34.148 92.575-31.112 24.067 2.833 33.863 29.937 41.735 51.715 1.396 3.861 2.754 7.621 4.124 11.097 6.263-3.857 15.083-8.39 25.994-11.696 20.734-6.282 53.389-9.281 91.198 12.118 12.785 7.236 25.087 28.768 24.835 43.469-.008.463-.027.921-.058 1.372 10.346 2.233 22.836 6.724 30.848 16.958 8.158 10.421 12.901 24.278 16.712 35.412 2.146 6.269 5.085 14.855 6.99 16.684 2.181 1.768 3.461 4.322 3.628 7.124 1.361 22.835-4.314 44.363-16.868 63.985-10.344 16.168-22.877 26.893-29.427 31.847-3.046 2.305-7.142 2.671-10.55.946-3.408-1.726-5.535-5.243-5.481-9.063.975-68.988-8.408-88.49-14.088-93.974-5.737-5.54-15.474-9.158-24.889-12.657-10.792-4.01-20.985-7.798-26.53-15.217-4.16-5.565-6.972-12.539-9.69-19.283-2.666-6.614-6.317-15.672-9.591-16.97-11.099-4.402-22.907-2.656-34.328-.968-6.994 1.034-13.693 2.024-19.913 1.432-18.964 13.94-40.156 1.657-57.411-8.344-12.025-6.969-24.452-14.177-33.928-12.191-13.161 2.76-15.261 11.174-17.154 24.705-1.002 7.157-1.948 13.917-7.528 18.001-2.104 1.54-5.648 3.199-10.59 2.361-4.771-.81-10.936-.431-17.465-.03-11.538.708-24.323 1.493-34.633-4.187-14.749 9.901-23.413 20.131-25.781 30.464-2.929 12.773 4.326 23.958 9.126 31.359 3.492 5.384 6.79 10.469 3.892 16.534-2.44 5.106-7.722 7.288-11.482 8.485-7.246 2.306-18.802 3.625-30.989 3.016 25.241 33.707 16.814 59.809 8.613 85.208-2.032 6.296-4.135 12.806-5.695 19.416-.619 2.623-2.272 4.885-4.582 6.274-8.015 4.814-16.607 6.65-25.048 6.651zm-23.78-258.225c-13.379 0-24.805 4.362-34.082 13.037-13.805 12.907-19.507 32.511-18.005 45.205.028.237.048.475.059.713 1.128 24.379-10.761 42.522-18.627 54.529-2.225 3.395-4.146 6.327-5.383 8.742-.684 1.335-1.405 2.716-2.146 4.133-5.387 10.305-12.092 23.13-10.494 31.912 6.133 33.706 22.682 41.698 52.723 56.208 8.099 3.911 17.278 8.345 27.058 13.746 8.405 4.642 28.622 14.129 43.993 7.915 1.521-5.697 3.272-11.119 4.978-16.399 9.601-29.737 16.538-51.222-26.378-88.962-3.839-3.376-4.514-9.104-1.563-13.279 2.949-4.175 8.573-5.454 13.038-2.963 12.561 7.006 33.464 7.138 44.804 5.362-5.916-9.494-13.753-24.626-9.521-43.084 3.907-17.047 17.528-32.742 40.483-46.649 3.944-2.39 9.015-1.772 12.271 1.5 4.661 4.685 15.475 4.021 25.928 3.379 5.507-.338 11.154-.686 16.597-.341.146-.947.284-1.934.405-2.802 1.745-12.464 4.992-35.664 32.858-41.506 16.972-3.559 33.487 6.016 48.06 14.462 19.818 11.486 29.364 15.697 37.602 7.78 2.582-2.481 6.292-3.392 9.734-2.387 3.536 1.034 10.093.064 17.036-.962 12.715-1.879 28.539-4.219 44.625 2.162 11.244 4.459 16.304 17.01 20.768 28.083 2.24 5.558 4.558 11.305 7.16 14.787 2.017 2.698 10.589 5.884 17.478 8.444 10.813 4.019 23.07 8.573 31.814 17.017 12.635 12.2 19.143 39.628 20.134 85.557 11.476-13.222 23.139-33.365 22.563-60.259-3.993-5.265-6.597-12.869-9.716-21.983-3.497-10.217-7.461-21.798-13.538-29.56-6.619-8.455-21.744-10.39-29.87-11.43l-1.42-.183c-4.326-.568-7.784-3.876-8.544-8.173-.728-4.113 1.178-8.222 4.734-10.336.3-1.561-.177-6.19-3.561-12.842-3.516-6.909-8.229-12.15-11.068-13.757-60.275-34.114-104.283 4.381-104.721 4.774-2.267 2.034-5.334 2.924-8.336 2.421-3.002-.504-5.611-2.348-7.088-5.009-3.849-6.934-6.899-15.375-10.13-24.312-6.312-17.466-13.468-37.262-25.264-38.65-21.604-2.541-65.137 13.354-80.303 29.328-2.631 2.771-6.61 3.8-10.255 2.653-38.485-12.116-83.578-3.397-108.229 11.479-9.446 5.701-13.387 10.964-13.892 13.739-.477 2.618-1.976 4.938-4.168 6.448-2.191 1.509-4.895 2.082-7.51 1.593-4.55-.851-8.916-1.276-13.091-1.276zm77.012 117.98s0 0 0 0z"/><path d="m391.607 390.166c-2.698 0-5.388-1.085-7.359-3.226-16.187-17.578-26.091-40.081-27.89-63.365-.425-5.506 3.694-10.315 9.2-10.74 5.521-.424 10.315 3.694 10.741 9.2 1.454 18.828 9.502 37.066 22.661 51.357 3.741 4.063 3.48 10.389-.583 14.13-1.921 1.769-4.35 2.644-6.771 2.644z"/><path d="m450.574 397.365c-1.632 0-3.287-.4-4.817-1.244-19.971-11.005-32.505-29.744-34.391-51.413-1.684-19.349 5.572-37.542 19.408-48.667 4.305-3.46 10.598-2.778 14.06 1.527 3.461 4.304 2.777 10.599-1.526 14.059-8.5 6.834-13.104 18.846-12.017 31.347 1.297 14.912 10.088 27.899 24.118 35.63 4.837 2.666 6.598 8.747 3.933 13.584-1.822 3.307-5.241 5.176-8.768 5.176z"/><path d="m471.379 504.912c-5.61-19.868-11.997-30.243-28.912-42.884-16.915-12.642-42.746-15.909-59.545-3.126-10.89 8.287-16.389 21.961-16.587 35.304-.197 13.344 4.398 26.396 10.748 38.265 9.609 17.961 23.776 34.161 42.349 43.622s41.84 11.441 60.675 2.471" fill="#fff"/><path d="m453.367 594.291c-12.983 0-26.359-3.116-38.474-9.286-18.927-9.641-35.05-26.175-46.627-47.816-8.229-15.381-12.131-29.489-11.93-43.13.258-17.411 7.932-33.528 20.529-43.115 9.814-7.469 22.783-11.016 36.532-9.986 12.601.944 25.05 5.582 35.056 13.06 18.179 13.586 26.088 25.292 32.55 48.177 1.5 5.315-1.592 10.84-6.906 12.341-5.317 1.5-10.841-1.592-12.342-6.906-5.255-18.609-10.688-26.69-25.274-37.592-12.815-9.578-34.088-13.387-47.504-3.178-7.749 5.897-12.476 16.176-12.643 27.494-.15 10.162 2.979 21.088 9.566 33.4 6.722 12.565 18.783 29.604 38.07 39.429 16.921 8.62 36.785 9.521 51.836 2.353 4.985-2.375 10.953-.258 13.328 4.729 2.375 4.986.258 10.953-4.729 13.328-9.4 4.477-20.081 6.698-31.04 6.698z"/><path d="m804.219 183.851c-12.733-13.565-106.846-45.056-124.735-50.167-42.126-12.035-87.451-8.728-129.858 2.28-22.106 5.738-43.616 13.522-64.724 22.198-15.48 6.363-52.371 23.475-52.371 23.475l5.533 72.668s55.117-6.039 110.995 6.052c57.96 12.542 140.676 40.86 140.676 40.86s41.958-24.273 68.022-36.261c28.58-13.145 58.867-18.703 58.867-18.703s.328-48.837-12.405-62.402z" fill="#d3cfff"/><path d="m689.734 311.216c-1.09 0-2.184-.178-3.238-.539-.821-.281-82.842-28.275-139.553-40.547-53.534-11.584-107.259-5.943-107.795-5.885-2.693.293-5.391-.519-7.474-2.25s-3.377-4.232-3.582-6.932l-5.532-72.668c-.317-4.158 1.979-8.076 5.763-9.831 1.515-.703 37.271-17.278 52.777-23.653 24.741-10.17 45.717-17.361 66.013-22.628 49.673-12.895 95.132-13.639 135.117-2.216 8.425 2.407 36.155 11.378 65.05 22.159 54.387 20.293 61.537 27.911 64.229 30.779 14.724 15.685 15.173 60.491 15.114 69.313-.032 4.801-3.473 8.902-8.195 9.769-.287.053-29.461 5.519-56.493 17.952-25.335 11.652-66.777 35.591-67.192 35.832-1.539.89-3.269 1.344-5.009 1.344zm-217.113-68.449c21.275 0 49.688 1.57 78.553 7.816 50.996 11.035 119.6 33.693 137.496 39.714 11.138-6.362 43.124-24.408 64.908-34.427 20.518-9.436 41.614-15.064 52.915-17.682-.649-17.902-3.692-41.235-9.565-47.494-1.108-1.181-9.05-7.972-56.639-25.729-28.025-10.457-55.647-19.408-63.553-21.667-36.509-10.43-78.428-9.64-124.598 2.344-19.396 5.034-39.553 11.951-63.435 21.768-11.278 4.636-34.492 15.248-45.674 20.394l4.242 55.728c6.21-.389 14.921-.766 25.349-.766z"/><path d="m996.339 449.58c-.605 0-1.219-.055-1.836-.169-5.43-1.007-9.016-6.226-8.008-11.656 3.272-17.643-.591-35.12-4.68-53.625-4.475-20.246-9.102-41.181-4.338-63.419 8.145-38.023 1.365-74.64-11.321-117.92-1.553-5.3 1.484-10.855 6.784-12.409 5.293-1.554 10.855 1.483 12.409 6.783 11.717 39.975 21.242 83.117 11.685 127.735-3.852 17.982.112 35.922 4.31 54.914 4.341 19.64 8.829 39.95 4.815 61.588-.893 4.814-5.096 8.178-9.82 8.178z"/><path d="m1024.447 618.56c12.739-14.503 9.518-52.664 2.449-70.626s-8.007-39.085-8.007-39.085 7.395-44.317.089-56.122c-7.051-11.394-23.564-14.536-35.64-8.729s-10.158 16.726-12.38 29.94-5.547 41.61-5.547 41.61-42.989 55.343-46.258 89.641" fill="#f9e3ae"/><path d="m1024.443 628.56c-2.344 0-4.696-.819-6.596-2.487-4.149-3.645-4.559-9.963-.914-14.113 8.524-9.705 7.583-42.769.657-60.365-7.593-19.293-8.65-41.373-8.691-42.304-.031-.698.012-1.398.126-2.087 3.59-21.566 4.268-44.565 1.449-49.217-4.052-6.545-14.707-8.872-22.802-4.979-4.111 1.977-4.719 4.243-5.744 13.933-.275 2.605-.588 5.557-1.108 8.653-2.155 12.819-5.443 40.834-5.477 41.115-.212 1.812-.915 3.531-2.034 4.971-11.462 14.769-41.749 58.734-44.2 84.455-.524 5.497-5.41 9.53-10.903 9.006-5.498-.524-9.53-5.406-9.007-10.904 3.152-33.078 38.259-81.485 46.604-92.58.896-7.489 3.44-28.352 5.295-39.38.419-2.492.685-5.008.942-7.441 1.077-10.184 2.418-22.858 16.965-29.853 17.316-8.328 39.063-2.731 48.477 12.479 8.348 13.489 3.479 49.432 1.457 61.904.282 4.137 1.724 20.828 7.264 34.904 7.419 18.851 12.346 62.002-4.241 80.887-1.977 2.25-4.74 3.401-7.518 3.401z"/><path d="m1018.898 518.851c-.747 0-1.506-.084-2.265-.26-12.789-2.961-26.249-3.557-42.364-1.875-5.496.568-10.41-3.415-10.984-8.908-.573-5.493 3.415-10.411 8.908-10.984 18.382-1.919 33.938-1.194 48.952 2.282 5.38 1.246 8.732 6.617 7.486 11.998-1.07 4.622-5.185 7.747-9.733 7.747z"/><path d="m988.812 626.783c-2.812 0-5.605-1.178-7.583-3.476-3.604-4.186-3.132-10.5 1.054-14.103 8.438-7.265 10.739-18.833 11.359-25.081 1.061-10.683-.716-22.078-2.434-33.099-.851-5.457 2.884-10.57 8.341-11.421 5.452-.85 10.57 2.883 11.421 8.34 1.911 12.259 3.887 24.936 2.574 38.156-1.581 15.923-8.049 29.511-18.213 38.262-1.888 1.625-4.21 2.422-6.52 2.422z"/><path d="m944.445 633.027c-2.379 0-4.766-.843-6.675-2.557-4.111-3.688-4.454-10.011-.766-14.122 12.998-14.488 22.118-32.185 26.373-51.178 1.207-5.39 6.563-8.779 11.943-7.572 5.39 1.207 8.78 6.555 7.572 11.944-5.001 22.327-15.722 43.131-31.002 60.163-1.975 2.201-4.705 3.322-7.446 3.322z"/><path d="m321.576 1001h618.413v537.038h-618.413z" fill="#72caaf"/><path d="m939.988 1548.038h-618.412c-5.522 0-10-4.477-10-10v-537.039c0-5.523 4.478-10 10-10h618.412c5.522 0 10 4.477 10 10v537.039c0 5.523-4.478 10-10 10zm-608.412-20h598.412v-517.039h-598.412z"/><path d="m981.518 1487.35c-.462-23.963-8.273-43.936-8.733-67.898-.3-15.553 3.243-33.42 2.943-48.972-.358-18.59-4.557-34.865-4.915-53.455-.465-24.161 5.353-41.087 4.889-65.248-.213-11.029-5.43-34.046-5.641-45.075-.425-22.056 6.049-39.297 5.624-61.354-.376-19.569-2.339-38.333-2.717-57.902-.317-16.487-2.612-38.37-2.929-54.857-.345-17.91-5.302-31.289-5.647-49.199 0 0-65.244-3.796-78.162-3.93-5.366-.055-15.23 3.232-20.596 3.176-6.76-.07-21.092-3.106-27.852-3.176-7.554-.078-21.848 2.663-29.402 2.586-10.138-.105-30.131-2.481-40.269-2.586-14.108-.145-42.607 1.731-56.715 1.585-8.347-.086-24.91-3.574-33.258-3.66-10.533-.109-31.729 2.99-42.262 2.882-13.92-.143-44.402-4.589-58.322-4.732-12.322-.127-34.322 3.777-46.644 3.65-8.148-.084-26.876-3.563-35.025-3.647-11.727-.121-32.751 2.948-44.479 2.827-16.694-.172-43.103-2.653-59.797-2.824-7.35-.076-29.026 1.909-36.376 1.833-10.539-.11-57.628 4.165-57.628 4.165v1.853c-.345 17.911-5.302 31.289-5.646 49.199-.317 16.488-2.613 38.371-2.93 54.857-.376 19.569-2.339 38.333-2.716 57.902-.425 22.057 6.049 39.297 5.624 61.354-.213 11.028-5.43 34.046-5.641 45.075-.465 24.161 5.353 41.087 4.888 65.248-.358 18.59-4.557 34.865-4.915 53.455-.299 15.552 3.244 33.419 2.944 48.972-.462 23.962-8.273 43.935-8.733 67.898-.506 26.276 6.339 56.541 5.833 82.817h40.237c2.769 0 8.306 1.962 11.074 1.962 6.575 0 19.725-1.962 26.3-1.962 3.576 0 12.573 1.962 16.149 1.962 6.46 0 17.533-1.962 23.993-1.962 14.764 0 42.91 1.962 57.674 1.962 8.306 0 26.301-1.962 34.605-1.962 10.612 0 33.682 1.962 44.295 1.962 14.88 0 42.795-1.962 57.675-1.962 9.458 0 28.837 1.962 38.296 1.962 6.46 0 18.917-1.962 25.377-1.962 13.612 0 38.989 1.962 52.599 1.962 3.806 0 13.265-1.962 17.072-1.962 9.689 0 29.991 1.962 39.68 1.962 10.497 0 30.568-1.962 41.065-1.962 7.728 0 22.263 1.962 29.991 1.962 8.536 0 26.53-1.962 35.066-1.962h27.223c6.921 0 21.225 1.962 28.146 1.962 2.999 0 14.534-1.962 17.533-1.962h25.321c-.506-26.276 6.339-56.541 5.833-82.817zm-50.148 30.21h-20.672c-2.449 0-54.047 1.602-56.495 1.602-5.651 0-17.328-1.602-22.979-1.602h-22.226c-6.97 0-21.661 1.602-28.63 1.602-6.31 0-18.176-1.602-24.485-1.602-8.571 0-24.957 1.602-33.527 1.602-7.912 0-24.486-1.602-32.397-1.602-3.108 0-10.831 1.602-13.938 1.602-11.113 0-31.832-1.602-42.945-1.602-5.274 0-15.445 1.602-20.719 1.602-7.722 0-23.544-1.602-31.266-1.602-12.149 0-34.94 1.602-47.088 1.602-8.664 0-27.5-1.602-36.163-1.602-6.782 0-21.473 1.602-28.253 1.602-12.054 0-35.033-1.602-47.088-1.602-5.273 0-14.315 1.602-19.588 1.602-2.92 0-10.265-1.602-13.185-1.602-5.368 0-16.104 1.602-21.472 1.602-2.261 0-6.781-1.602-9.041-1.602h-32.852c.413-21.453-5.175-55.749-4.762-77.202.375-19.564 6.754-35.871 7.13-55.434.244-12.698-2.647-27.285-2.403-39.983.291-15.178 3.72-28.465 4.012-43.643.38-19.725-4.371-33.545-3.991-53.271.173-9.005 4.433-27.798 4.606-36.801.346-18.007-4.939-32.083-4.592-50.091.307-15.977 1.91-31.297 2.217-47.274.259-13.46 2.134-31.327 2.393-44.788.281-14.622 4.328-25.545 4.61-40.168v-1.513s38.445-3.489 47.049-3.4c6.001.062 23.698-1.559 29.699-1.496 13.63.139 35.19 2.164 48.82 2.306 9.575.098 26.74-2.407 36.315-2.309 6.652.068 21.943 2.909 28.595 2.978 10.06.104 28.022-3.084 38.082-2.98 11.364.117 36.251 3.747 47.616 3.864 8.6.088 25.906-2.442 34.504-2.353 6.816.07 20.339 2.918 27.153 2.988 11.519.119 34.786-1.413 46.305-1.294 8.277.085 24.601 2.025 32.877 2.111 6.167.064 17.838-2.175 24.005-2.111 5.519.057 17.22 2.536 22.739 2.593 4.38.045 12.433-2.638 16.814-2.593 10.547.11 105.995 3.208 105.995 3.208.283 14.623 4.329 25.546 4.611 40.168.259 13.461 2.133 31.328 2.392 44.788.308 15.977 1.911 31.297 2.218 47.274.346 18.008-4.939 32.084-4.592 50.091.173 9.003 4.433 27.796 4.606 36.801.379 19.726-4.371 33.546-3.992 53.271.292 15.178 3.721 28.465 4.013 43.643.244 12.697-2.647 27.285-2.403 39.983.376 19.563 6.754 35.87 7.13 55.434.413 21.453-5.175 55.749-4.762 77.202z" fill="#f283a5"/><path d="m932.831 1582.129c-3.922 0-9.3-.497-14.993-1.023-4.992-.462-10.153-.939-13.152-.939h-27.224c-3.898 0-10.454.485-16.794.954-7.012.519-13.634 1.008-18.271 1.008-4.304 0-9.924-.495-15.874-1.02-5.257-.464-10.692-.943-14.117-.943-4.928 0-12.535.488-19.892.96-7.671.493-15.604 1.002-21.173 1.002-5.172 0-12.614-.487-20.493-1.002-7.212-.472-14.67-.96-19.188-.96-1.168 0-4.722.526-7.073.874-3.785.56-7.36 1.089-9.999 1.089-7.057 0-17.094-.505-26.801-.994-9.461-.477-19.243-.969-25.798-.969-2.713 0-7.26.472-11.657.928-5.129.532-9.973 1.035-13.72 1.035-5.069 0-12.238-.488-19.828-1.004-6.921-.471-14.079-.958-18.468-.958-7.211 0-17.973.494-28.38.971-10.632.488-21.626.992-29.296.992-5.598 0-13.919-.485-22.729-.998-8.137-.474-16.551-.964-21.565-.964-3.779 0-10.275.485-16.558.954-6.954.519-13.522 1.009-18.048 1.009-7.611 0-18.634-.504-29.294-.992-10.436-.477-21.228-.971-28.381-.971-2.672 0-6.846.467-10.884.919-4.582.513-9.321 1.043-13.109 1.043-2.563 0-5.989-.535-9.616-1.101-2.06-.321-5.505-.859-6.532-.861-2.791 0-7.554.474-12.16.932-5.325.53-10.355 1.03-14.14 1.03-2.55 0-5.237-.635-7.836-1.249-1.093-.258-2.728-.645-3.372-.713h-40.104c-2.686 0-5.258-1.08-7.139-2.997s-2.911-4.51-2.859-7.195c.24-12.483-1.334-26.523-2.856-40.102-1.594-14.219-3.242-28.921-2.977-42.715.246-12.818 2.428-24.403 4.537-35.607 2.048-10.875 3.981-21.146 4.196-32.291.139-7.197-.622-15.034-1.428-23.331-.824-8.498-1.678-17.285-1.517-25.64.189-9.85 1.385-18.991 2.54-27.832 1.135-8.682 2.207-16.882 2.375-25.624.218-11.335-1.035-20.955-2.362-31.14-1.362-10.463-2.772-21.283-2.525-34.108.119-6.211 1.491-14.815 2.944-23.925 1.28-8.03 2.604-16.333 2.697-21.15.195-10.165-1.21-19.294-2.698-28.96-1.552-10.08-3.156-20.502-2.927-32.394.192-9.99.793-19.836 1.374-29.359.569-9.323 1.157-18.964 1.342-28.543.163-8.487.836-18.364 1.486-27.915.635-9.313 1.29-18.942 1.444-26.943.187-9.698 1.597-18.024 2.961-26.075 1.295-7.639 2.518-14.856 2.683-23.028v-1.757c0-5.173 3.944-9.491 9.096-9.959 4.802-.436 46.688-4.208 58.16-4.208.166 0 .323 0 .476.002 3.321.039 10.479-.438 17.425-.895 7.661-.504 14.891-.978 18.951-.938 8.604.088 19.693.771 30.418 1.431 10.466.644 21.289 1.31 29.378 1.394 5.344.054 13.435-.671 21.24-1.374 8.296-.747 16.84-1.522 23.239-1.453 4.682.049 11.502.953 18.723 1.91 6.311.836 12.835 1.701 16.302 1.737 5.552.057 13.981-.869 22.125-1.766 8.729-.961 17.761-1.952 24.519-1.884 7.424.076 18.432 1.214 30.087 2.419 10.688 1.104 21.739 2.247 28.234 2.313 4.749.052 12.548-.686 20.093-1.397 8.425-.794 16.375-1.542 22.17-1.484 4.837.05 11.205.964 17.947 1.931 5.802.833 11.8 1.693 15.312 1.729 6.796.07 17.504-.365 27.857-.785 10.594-.43 21.546-.874 28.856-.8 5.43.056 12.922.673 20.854 1.326 7.23.595 14.707 1.211 19.416 1.26 3.125.043 8.338-.604 13.387-1.22 5.956-.726 11.558-1.413 16.016-1.366 4.061.042 9.51.845 15.279 1.694 4.628.682 9.873 1.454 12.572 1.482 1.628.012 5.205-.753 8.117-1.371 4.274-.907 8.686-1.84 12.479-1.806 13.008.135 75.966 3.791 78.64 3.946 5.214.303 9.316 4.568 9.417 9.79.158 8.211 1.386 15.454 2.686 23.123 1.364 8.052 2.774 16.378 2.962 26.077.154 8.001.81 17.631 1.443 26.944.649 9.551 1.322 19.427 1.485 27.914.185 9.57.772 19.202 1.342 28.517.581 9.531 1.183 19.386 1.375 29.385.229 11.89-1.375 22.312-2.927 32.391-1.487 9.666-2.893 18.796-2.697 28.962.093 4.82 1.417 13.125 2.698 21.158 1.452 9.106 2.823 17.707 2.943 23.916.246 12.825-1.163 23.643-2.526 34.105-1.327 10.186-2.581 19.807-2.362 31.143.168 8.742 1.24 16.942 2.375 25.625 1.155 8.84 2.35 17.982 2.539 27.831.161 8.356-.691 17.145-1.516 25.644-.805 8.296-1.565 16.132-1.427 23.328.214 11.147 2.148 21.42 4.196 32.295 2.109 11.203 4.29 22.787 4.537 35.603.265 13.794-1.383 28.497-2.978 42.715-1.522 13.579-3.096 27.619-2.856 40.102.052 2.685-.979 5.278-2.859 7.195s-4.453 2.997-7.139 2.997h-25.321c-1.012.025-4.873.546-7.428.891-4.919.664-8.038 1.071-10.104 1.071zm-55.369-21.962h27.224c3.922 0 9.3.497 14.993 1.023 4.992.462 10.153.939 13.152.939 1.012-.025 4.873-.546 7.428-.891 4.919-.664 8.038-1.071 10.104-1.071h15.44c.415-10.715 1.653-21.758 2.86-32.522 1.522-13.578 3.096-27.619 2.856-40.102-.215-11.144-2.148-21.415-4.196-32.288-2.109-11.206-4.291-22.792-4.537-35.611-.161-8.356.691-17.145 1.516-25.644.806-8.296 1.565-16.132 1.427-23.327-.168-8.742-1.24-16.942-2.375-25.625-1.155-8.84-2.35-17.982-2.539-27.831-.247-12.827 1.162-23.648 2.526-34.113 1.326-10.183 2.58-19.802 2.362-31.136-.093-4.817-1.417-13.121-2.698-21.151-1.452-9.109-2.824-17.713-2.943-23.923-.229-11.889 1.375-22.311 2.927-32.39 1.487-9.667 2.893-18.797 2.697-28.964-.185-9.582-.772-19.225-1.342-28.551-.581-9.52-1.183-19.363-1.375-29.35-.154-8-.81-17.63-1.443-26.942-.649-9.552-1.322-19.429-1.485-27.916-.158-8.21-1.386-15.453-2.686-23.121-.909-5.368-1.84-10.858-2.414-16.796-18.255-1.037-59.111-3.305-68.815-3.405-.017 0-.033 0-.051 0-1.606 0-5.187.76-8.069 1.371-4.271.906-8.66 1.838-12.475 1.805-4.062-.042-9.511-.845-15.28-1.694-4.628-.681-9.873-1.454-12.572-1.482-3.109-.031-8.338.604-13.389 1.22-5.954.726-11.547 1.413-16.013 1.366-5.429-.056-12.92-.673-20.851-1.326-7.231-.595-14.71-1.211-19.42-1.26-6.794-.073-17.494.364-27.839.785-10.603.431-21.57.874-28.876.8-4.835-.05-11.203-.964-17.944-1.931-5.802-.833-11.801-1.693-15.313-1.729-4.719-.051-12.544.686-20.087 1.397-8.427.794-16.38 1.541-22.176 1.484-7.423-.076-18.431-1.214-30.084-2.418-10.688-1.105-21.741-2.247-28.237-2.314-5.588-.058-13.982.869-22.124 1.765-8.73.961-17.771 1.95-24.521 1.885-4.682-.048-11.502-.953-18.723-1.91-6.311-.836-12.835-1.701-16.302-1.737-5.361-.054-13.435.671-21.239 1.374-8.295.747-16.836 1.525-23.24 1.453-8.6-.089-19.682-.771-30.399-1.43-10.473-.644-21.303-1.311-29.396-1.394-3.306-.036-10.482.438-17.433.896-7.657.504-14.905.98-18.943.938-6.821-.078-31.953 1.97-47.885 3.351-.542 6.77-1.586 12.932-2.604 18.94-1.3 7.667-2.526 14.909-2.685 23.119-.163 8.488-.836 18.365-1.486 27.917-.635 9.312-1.29 18.941-1.444 26.941-.192 9.996-.793 19.848-1.375 29.376-.568 9.318-1.156 18.953-1.341 28.526-.195 10.167 1.21 19.298 2.698 28.965 1.551 10.078 3.155 20.499 2.927 32.388-.12 6.209-1.491 14.809-2.943 23.915-1.281 8.033-2.605 16.34-2.698 21.159-.218 11.335 1.035 20.956 2.362 31.14 1.363 10.463 2.772 21.283 2.525 34.108-.189 9.849-1.384 18.991-2.54 27.832-1.135 8.682-2.207 16.882-2.375 25.624-.138 7.194.622 15.029 1.428 23.324.825 8.5 1.678 17.291 1.517 25.648-.246 12.817-2.428 24.402-4.537 35.606-2.048 10.875-3.981 21.146-4.196 32.292-.24 12.483 1.334 26.523 2.856 40.102 1.207 10.765 2.444 21.808 2.859 32.522h30.356c2.55 0 5.238.635 7.838 1.25 1.091.258 2.722.643 3.367.712 2.808-.014 7.494-.48 12.029-.932 5.325-.53 10.355-1.03 14.14-1.03 2.563 0 5.989.535 9.616 1.101 2.06.321 5.505.859 6.532.861 2.672 0 6.848-.467 10.885-.919 4.583-.513 9.321-1.043 13.108-1.043 7.61 0 18.634.504 29.294.992 10.436.477 21.228.971 28.381.971 3.78 0 10.277-.485 16.56-.954 6.953-.519 13.521-1.009 18.046-1.009 5.598 0 13.919.485 22.729.998 8.137.474 16.551.964 21.565.964 7.211 0 17.973-.494 28.38-.971 10.632-.487 21.626-.992 29.296-.992 5.068 0 12.237.488 19.826 1.004 6.922.471 14.08.958 18.47.958 2.712 0 7.259-.472 11.655-.928 5.13-.532 9.975-1.035 13.722-1.035 7.058 0 17.096.505 26.803.994 9.46.477 19.242.969 25.796.969 1.168 0 4.722-.526 7.073-.874 3.785-.56 7.36-1.089 9.999-1.089 5.172 0 12.614.487 20.493 1.002 7.212.472 14.67.96 19.188.96 4.928 0 12.535-.488 19.892-.96 7.671-.493 15.604-1.002 21.173-1.002 4.304 0 9.924.496 15.874 1.02 5.257.463 10.692.942 14.117.942 3.898 0 10.455-.485 16.796-.954 7.011-.519 13.633-1.008 18.27-1.008zm-23.26-31.005c-3.286 0-7.718-.41-12.41-.843-4.033-.373-8.204-.759-10.568-.759h-22.226c-3.115 0-8.435.394-13.578.774-5.759.426-11.198.828-15.052.828-3.595 0-8.222-.408-13.121-.839-4.252-.375-8.649-.763-11.364-.763-3.965 0-10.146.397-16.125.781-6.581.422-12.797.821-17.402.821-4.282 0-10.388-.399-16.852-.822-5.858-.383-11.917-.78-15.545-.78-.874.008-3.774.437-5.507.693-3.159.467-6.143.909-8.432.909-5.808 0-14.026-.414-21.975-.813-7.701-.388-15.665-.789-20.97-.789-2.12 0-5.784.38-9.327.748-4.236.439-8.237.854-11.392.854-4.201 0-10.084-.4-16.312-.824-5.62-.382-11.433-.778-14.954-.778-5.845 0-14.609.402-23.086.791-8.701.399-17.698.812-24.002.812-4.623 0-11.443-.397-18.664-.818-6.617-.386-13.459-.784-17.499-.784-3.019 0-8.288.393-13.384.773-5.712.426-11.107.829-14.87.829-6.255 0-15.276-.413-24-.812-8.5-.389-17.289-.791-23.088-.791-2.079 0-5.436.375-8.683.739-3.791.425-7.712.863-10.906.863-2.235 0-4.969-.427-8.135-.92-1.591-.249-4.255-.665-5.072-.682-2.166 0-6.008.382-9.725.752-4.395.437-8.545.85-11.725.85-2.296 0-4.596-.543-6.82-1.069-.782-.185-1.938-.458-2.453-.533h-32.619c-2.686 0-5.258-1.08-7.139-2.998-1.881-1.917-2.911-4.51-2.859-7.195.195-10.167-1.094-24.054-2.341-37.484-1.297-13.978-2.64-28.432-2.422-39.718.204-10.618 1.999-20.154 3.735-29.375 1.657-8.801 3.223-17.113 3.395-26.059.111-5.769-.505-12.115-1.157-18.834-.678-6.991-1.38-14.22-1.246-21.149.156-8.144 1.139-15.66 2.089-22.929.92-7.035 1.788-13.681 1.924-20.714.176-9.117-.839-16.905-1.914-25.15-1.121-8.609-2.281-17.512-2.077-28.12.101-5.198 1.229-12.281 2.426-19.781 1.036-6.496 2.107-13.213 2.181-17.019.156-8.141-.979-15.519-2.182-23.33-1.278-8.306-2.601-16.896-2.41-26.763.157-8.199.649-16.263 1.125-24.062.463-7.588.942-15.435 1.092-23.212.134-6.973.685-15.06 1.218-22.88.516-7.581 1.05-15.421 1.175-21.907.155-8.055 1.318-14.922 2.443-21.562 1.044-6.163 2.03-11.986 2.164-18.517v-1.41c0-5.173 3.944-9.491 9.096-9.959 3.987-.362 39.234-3.525 48.057-3.44 2.643.036 8.71-.374 14.08-.727 6.295-.414 12.256-.806 15.62-.77 7.073.073 16.155.631 24.938 1.172 8.519.524 17.326 1.066 23.881 1.134 4.274.05 10.828-.545 17.156-1.115 6.819-.614 13.875-1.248 19.157-1.194 3.936.041 9.56.786 15.514 1.575 4.858.644 10.365 1.374 13.083 1.402 4.448.053 11.248-.705 17.844-1.43 7.182-.79 14.617-1.605 20.238-1.549 6.146.063 15.173.996 24.731 1.984 8.685.898 17.665 1.826 22.884 1.879 3.797.041 10.099-.557 16.208-1.133 6.929-.653 13.459-1.271 18.298-1.22 4.069.042 9.328.796 14.896 1.595 4.459.64 9.513 1.365 12.258 1.393 5.505.056 14.217-.297 22.643-.639 8.676-.352 17.641-.715 23.662-.655 4.499.046 10.65.553 17.163 1.089 5.868.483 11.937.983 15.715 1.022 2.418.036 6.815-.51 10.688-.983 4.923-.6 9.579-1.17 13.314-1.128 3.44.036 7.949.7 12.723 1.403 3.721.548 7.938 1.169 10.018 1.19h.028c1.112 0 4.17-.649 6.2-1.08 3.586-.761 7.308-1.552 10.585-1.514 10.537.11 102.315 3.086 106.217 3.213 5.319.173 9.571 4.481 9.674 9.802.127 6.567 1.117 12.414 2.167 18.605 1.125 6.641 2.288 13.508 2.443 21.564.125 6.487.659 14.327 1.175 21.908.533 7.82 1.083 15.906 1.218 22.879.149 7.78.629 15.63 1.093 23.221.476 7.795.968 15.856 1.125 24.053.189 9.866-1.133 18.454-2.411 26.759-1.202 7.812-2.338 15.191-2.182 23.333.073 3.805 1.145 10.519 2.18 17.012 1.197 7.503 2.327 14.59 2.427 19.789.204 10.608-.956 19.51-2.078 28.12-1.074 8.245-2.089 16.033-1.914 25.151.136 7.034 1.004 13.681 1.925 20.717.95 7.268 1.933 14.782 2.089 22.926.134 6.929-.568 14.158-1.246 21.149-.652 6.719-1.269 13.065-1.157 18.834.173 8.944 1.737 17.256 3.395 26.057 1.736 9.222 3.531 18.759 3.735 29.378.218 11.286-1.124 25.739-2.422 39.717-1.246 13.43-2.535 27.317-2.34 37.484.052 2.685-.979 5.278-2.859 7.195-1.881 1.917-4.453 2.998-7.139 2.998h-20.673c-1.33.007-16.093.445-27.956.797-18.467.547-27.303.805-28.539.805zm-464.477-21.602c2.235 0 4.969.427 8.135.921 1.591.248 4.255.664 5.072.681 2.057 0 5.413-.375 8.66-.739 3.791-.424 7.712-.863 10.906-.863 6.256 0 15.277.413 24.002.812 8.499.389 17.288.791 23.086.791 3.018 0 8.287-.393 13.382-.773 5.713-.426 11.108-.829 14.872-.829 4.622 0 11.442.397 18.662.818 6.617.386 13.46.784 17.501.784 5.845 0 14.609-.402 23.086-.791 8.701-.399 17.698-.812 24.002-.812 4.201 0 10.084.4 16.312.824 5.62.382 11.433.778 14.954.778 2.12 0 5.784-.38 9.327-.748 4.236-.439 8.237-.854 11.392-.854 5.808 0 14.026.414 21.975.813 7.701.388 15.665.789 20.97.789.873-.008 3.772-.437 5.505-.693 3.159-.467 6.144-.909 8.434-.909 4.281 0 10.387.399 16.851.822 5.858.383 11.917.78 15.546.78 3.964 0 10.145-.396 16.121-.78 6.582-.423 12.8-.822 17.406-.822 3.595 0 8.222.408 13.121.84 4.252.375 8.649.762 11.364.762 3.115 0 8.434-.394 13.576-.774 5.76-.426 11.199-.828 15.054-.828h22.226c3.286 0 7.718.41 12.41.843 4.033.373 8.204.759 10.568.759 1.329-.007 16.088-.445 27.947-.796 18.472-.548 27.311-.806 28.548-.806h10.825c.384-9.186 1.339-19.479 2.271-29.525 1.246-13.43 2.535-27.317 2.34-37.484-.172-8.947-1.737-17.26-3.395-26.062-1.735-9.221-3.531-18.755-3.735-29.372-.134-6.93.568-14.16 1.246-21.151.652-6.718 1.268-13.064 1.157-18.833-.136-7.035-1.005-13.681-1.925-20.717-.95-7.268-1.933-14.782-2.089-22.926-.204-10.608.956-19.51 2.078-28.12 1.074-8.245 2.089-16.034 1.914-25.151-.073-3.808-1.145-10.526-2.181-17.023-1.196-7.498-2.325-14.581-2.426-19.776-.19-9.867 1.132-18.456 2.411-26.761 1.202-7.812 2.338-15.189 2.182-23.331-.15-7.779-.629-15.629-1.092-23.219-.477-7.795-.968-15.856-1.126-24.053-.125-6.486-.659-14.325-1.175-21.906-.532-7.821-1.083-15.907-1.218-22.881-.127-6.568-1.117-12.416-2.166-18.608-.657-3.876-1.327-7.829-1.802-12.05-24.046-.773-88.338-2.824-96.743-2.912-1.088-.031-4.181.645-6.229 1.079-3.585.761-7.284 1.545-10.585 1.514-3.441-.036-7.951-.7-12.726-1.403-3.72-.548-7.936-1.169-10.015-1.19-2.419-.028-6.813.51-10.688.982-4.925.6-9.576 1.16-13.317 1.129-4.496-.047-10.642-.553-17.147-1.088-5.874-.484-11.948-.984-15.729-1.023-5.516-.059-14.219.297-22.644.639-8.677.352-17.656.716-23.662.655-4.068-.042-9.325-.796-14.892-1.595-4.46-.64-9.515-1.365-12.261-1.393-3.822-.039-10.103.556-16.216 1.133-6.927.653-13.469 1.265-18.289 1.22-6.146-.063-15.176-.996-24.734-1.984-8.685-.897-17.664-1.825-22.882-1.879-4.428-.045-11.25.705-17.845 1.43-7.183.79-14.624 1.609-20.238 1.549-3.934-.041-9.554-.786-15.505-1.575-4.861-.645-10.371-1.375-13.09-1.403-4.296-.048-10.832.545-17.159 1.115-6.818.614-13.89 1.249-19.155 1.194-7.066-.073-16.135-.631-24.903-1.171-8.531-.525-17.354-1.068-23.917-1.135-2.605-.032-8.721.374-14.101.727-6.283.413-12.226.801-15.599.769-5.305-.065-24.386 1.479-37.381 2.596-.473 4.992-1.25 9.584-2.011 14.072-1.049 6.191-2.04 12.039-2.166 18.605-.134 6.974-.685 15.062-1.218 22.882-.516 7.581-1.05 15.42-1.175 21.906-.157 8.194-.649 16.252-1.125 24.045-.463 7.594-.942 15.446-1.092 23.228-.157 8.144.979 15.523 2.182 23.335 1.278 8.305 2.601 16.893 2.41 26.757-.1 5.198-1.229 12.283-2.426 19.785-1.036 6.494-2.107 13.21-2.181 17.016-.176 9.117.84 16.905 1.914 25.15 1.121 8.609 2.281 17.512 2.077 28.12-.156 8.142-1.139 15.656-2.089 22.922-.92 7.037-1.789 13.685-1.924 20.72-.11 5.769.505 12.115 1.157 18.833.678 6.991 1.38 14.221 1.246 21.15-.204 10.617-1.999 20.153-3.735 29.374-1.657 8.801-3.223 17.114-3.395 26.06-.195 10.167 1.094 24.055 2.341 37.484.933 10.047 1.888 20.34 2.271 29.525h23.004c2.295 0 4.595.543 6.819 1.069.777.184 1.925.455 2.445.532 2.219-.024 5.929-.393 9.521-.75 4.395-.437 8.546-.85 11.727-.85z"/><path d="m395.665 1107.68h470.669v321.433h-470.669z" fill="#fff"/><path d="m866.334 1439.112h-470.669c-5.522 0-10-4.477-10-10v-321.433c0-5.523 4.478-10 10-10h470.669c5.522 0 10 4.477 10 10v321.433c0 5.523-4.478 10-10 10zm-460.669-20h450.669v-301.433h-450.669z"/><path d="m565.27 1180.74c-5.433 0-9.889-4.351-9.994-9.807-.106-5.522 4.283-10.085 9.805-10.191l143.487-2.775c5.511-.124 10.085 4.283 10.191 9.805s-4.283 10.085-9.805 10.191l-143.487 2.775c-.065.001-.132.002-.197.002z"/><path d="m523.366 1230.123c-5.508 0-9.981-4.457-9.999-9.969-.017-5.523 4.446-10.014 9.969-10.031l227.3-.704h.032c5.508 0 9.981 4.457 9.999 9.969.017 5.523-4.446 10.014-9.969 10.031l-227.3.704z"/><path d="m805.779 1308.03c-.205 0-.41-.006-.617-.019-67.425-4.103-154.401-3.023-255.111-1.773-26.472.329-53.844.668-81.696.919-.03 0-.062 0-.092 0-5.48 0-9.948-4.418-9.998-9.91-.049-5.522 4.388-10.04 9.91-10.089 27.817-.25 55.173-.59 81.628-.918 101.101-1.255 188.417-2.34 256.574 1.809 5.513.335 9.71 5.076 9.374 10.589-.323 5.306-4.727 9.393-9.972 9.393z"/><path d="m721.394 1345.588h-168.753c-5.522 0-10-4.477-10-10s4.478-10 10-10h168.753c5.522 0 10 4.477 10 10s-4.478 10-10 10z"/><path d="m414.811 1618.127c9.4-12.223 20.156-19.104 29.555-31.327 3.212-4.177 5.747-14.071 11.01-14.333 4.987-.248 7.704 9.14 11.287 12.618 11.135 10.809 23.75 15.954 34.885 26.763-1.861-17.059-3.723-34.117-5.584-51.176-.823-7.545 1.251-15.089.428-22.634-1.485-13.614-9.782-22.81-12.006-36.424-2.137-13.082 1.797-30.582.37-43.664-15.9 1.19-31.801 2.379-47.701 3.569-8.627.645-39.57 3.506-39.57 3.506s-.545 18.862 0 25.727c.62 7.818 3.801 23.627 4.421 31.444 1.259 15.872 1.18 37.298 2.439 53.17 1.428 18.004 9.036 24.758 10.465 42.761z" fill="#85cbf8"/><path d="m414.811 1628.127c-.946 0-1.902-.135-2.841-.413-3.967-1.175-6.8-4.672-7.127-8.796-.606-7.644-2.483-12.787-4.657-18.742-2.337-6.403-4.986-13.659-5.808-24.02-.648-8.175-.953-17.78-1.247-27.068-.286-9.048-.582-18.405-1.192-26.102-.278-3.509-1.213-9.316-2.116-14.931-1.01-6.276-1.963-12.205-2.306-16.512-.57-7.198-.084-24.821-.027-26.807.146-5.054 4.041-9.204 9.075-9.669 1.268-.117 31.129-2.876 39.746-3.521l47.7-3.569c5.362-.402 10.103 3.529 10.688 8.888.764 7.006.218 14.688-.312 22.118-.531 7.474-1.081 15.202-.131 21.019.854 5.23 2.97 9.977 5.21 15.001 2.776 6.228 5.923 13.288 6.868 21.95.516 4.726.141 9.243-.189 13.228-.281 3.388-.546 6.588-.238 9.406l5.584 51.176c.457 4.191-1.764 8.219-5.552 10.069-3.788 1.852-8.331 1.126-11.354-1.81-4.925-4.78-10.331-8.412-16.055-12.256-6.204-4.168-12.62-8.477-18.831-14.507-1.58-1.534-2.849-3.351-3.958-5.138-1.009 1.996-2.085 4.003-3.448 5.774-5.177 6.733-10.59 11.863-15.824 16.825-4.89 4.634-9.508 9.011-13.729 14.5-1.925 2.503-4.875 3.905-7.928 3.905zm-7.514-153.961c-.082 5.867-.097 12.587.157 15.795.278 3.505 1.212 9.307 2.114 14.917 1.011 6.282 1.966 12.216 2.308 16.526.647 8.171.951 17.769 1.245 27.051.287 9.055.583 18.417 1.194 26.119.606 7.645 2.483 12.788 4.657 18.744.479 1.31.97 2.655 1.455 4.056.764-.729 1.524-1.45 2.281-2.168 4.89-4.634 9.509-9.012 13.729-14.502.438-.568 1.317-2.331 1.96-3.618 2.812-5.63 7.059-14.138 16.48-14.606 9.265-.464 13.976 7.536 16.788 12.314.632 1.074 1.587 2.697 2.018 3.172 4.696 4.556 9.895 8.098 15.395 11.794l-3.056-28.003c-.516-4.726-.141-9.243.189-13.228.281-3.388.546-6.588.238-9.406-.605-5.55-2.759-10.382-5.253-15.977-2.535-5.688-5.409-12.135-6.681-19.92-1.327-8.125-.693-17.04-.08-25.661.217-3.053.429-6.031.547-8.856l-37.183 2.782c-5.549.415-20.69 1.78-30.505 2.676z"/><path d="m400.157 1367.423s-28.023-11.577-36.372 11.339c-5.289 13.242 8.1 19.639 12.107 29.761 1.624 7.596-5.733 13.735-9.609 20.465-11.014 18.09 7.322 41.984 27.652 35.997 5.652 15.638 17.782 34.231 36.581 32.006 8.673-1.214 16.506-9.107 15.82-17.838 12.544 6.753 29.994 13.586 42.2 2.941 5.566-5.062 7.394-14.428 2.711-20.316 35.742 11.617 38.666-24.286 7.571-34.6 9.907-4.991 15.036-17.829 11.297-28.273-2.432-6.79-10.598-15.733-10.598-15.733s9.579-14.942 7.949-22.278c-3.974-17.885-33.498-17.033-38.04-3.123 2.928-8.967-9.773-16.438-16.465-16.465-9.463-.039-18.736 9.936-18.736 9.936s-14.194-20.724-32.316-13.91c-11.69 4.395-1.75 30.092-1.75 30.092z" fill="#85cbf8"/><path d="m427.471 1507.172c-16.26 0-30.637-11.314-39.86-31.271h-.015c-10.32 0-20.363-4.935-27.166-13.788-8.794-11.446-9.868-26.435-2.751-38.223 1.356-2.338 2.888-4.409 4.369-6.413 1.229-1.662 3.628-4.908 4.022-6.378-.946-1.734-2.513-3.666-4.153-5.69-5.195-6.409-13.038-16.084-7.476-30.212 3.092-8.385 8.701-14.566 16.229-17.881 5.315-2.34 10.903-2.973 15.96-2.794-.708-5.704-.582-11.891 1.687-16.958 2.047-4.569 5.529-7.887 10.072-9.595 14.98-5.634 28.283 1.312 36.948 9.397 4.669-3.115 10.859-6.062 17.569-6.062h.096c6.846.028 14.968 3.793 20.32 9.146 4.747-2.193 10.319-3.301 16.22-3.014 14.097.684 24.964 9.04 27.686 21.287 1.644 7.396-2.04 16.715-5.562 23.43 2.855 3.731 6.185 8.691 7.863 13.379 3.475 9.701 1.736 20.66-3.74 29.184 12.408 9.158 16.779 22.67 13.299 33.27-2.947 8.977-11.642 16.142-25.478 16.034-.913 5.727-3.739 11.283-8.346 15.471-.051.046-.103.093-.155.139-10.607 9.25-24.832 10.426-42.39 3.533-4.255 7.127-11.854 12.475-20.816 13.729-.069.01-.14.019-.21.027-1.419.168-2.828.251-4.222.251zm-33.533-52.189c4.11 0 7.938 2.552 9.401 6.603 2.315 6.407 10.99 27.148 25.886 25.488 3.786-.58 7.376-4.154 7.142-7.136-.287-3.648 1.441-7.162 4.508-9.161 3.064-1.999 6.976-2.164 10.201-.428 14.784 7.958 24.862 9.362 30.8 4.286 1.98-1.867 2.563-5.349 1.544-6.631-2.746-3.454-2.904-8.3-.389-11.925s7.109-5.173 11.307-3.809c9.711 3.156 15.054 1.596 15.747-.519 1.095-3.333-2.787-11.222-14.416-15.079-3.836-1.272-6.529-4.729-6.825-8.76-.295-4.031 1.865-7.844 5.475-9.662 5.365-2.703 8.407-10.314 6.382-15.97-1.199-3.348-5.736-9.249-8.574-12.369-3.044-3.346-3.469-8.325-1.028-12.133 3.392-5.316 6.53-12.475 6.556-14.921-1.212-4.694-7.239-5.351-9.08-5.44-5.189-.245-9.115 1.847-9.643 3.461-1.714 5.25-7.361 8.114-12.609 6.402-5.064-1.654-7.91-6.965-6.567-12.051-.99-1.556-4.901-3.845-6.853-3.921h-.017c-3.227 0-8.674 3.932-11.366 6.776-2.077 2.195-5.051 3.344-8.064 3.113-3.014-.238-5.772-1.808-7.48-4.302-.069-.099-9.475-13.329-19.619-10.504-.701 3.067.714 11.182 3.129 17.427 1.443 3.731.524 7.962-2.336 10.759-2.853 2.788-7.089 3.613-10.774 2.105-2.748-1.102-11.853-3.643-17.688-1.038-1.599.713-3.909 2.168-5.504 6.544-.034.096-.071.191-.108.285-1.149 2.877-.576 4.23 4.381 10.345 2.727 3.362 5.815 7.173 7.737 12.025.204.516.365 1.048.481 1.591 2.111 9.876-3.468 17.423-7.541 22.934-1.224 1.656-2.38 3.221-3.183 4.613-.04.07-.082.14-.124.209-3.464 5.69-1.515 11.861 1.465 15.74 2.977 3.875 8.437 7.345 14.821 5.463.94-.277 1.893-.409 2.828-.409z"/><path d="m402.21 1417.337c-1.268 9.809 1.387 20.703 9.114 26.878 7.402 5.915 17.628 6.385 27.101 6.594 6.764.149 13.665.281 20.132-1.705 8.515-2.615 15.798-8.995 19.517-17.089 3.718-8.095 3.814-17.774.261-25.942-3.374-7.758-9.827-13.957-17.323-17.878-12.023-6.288-26.682-6.536-39.184-1.503-12.877 5.184-17.865 17.086-19.618 30.646z" fill="#fff"/><path d="m443.728 1460.887c-1.891 0-3.737-.041-5.523-.08-9.065-.2-22.766-.502-33.123-8.78-9.75-7.792-14.65-21.576-12.788-35.973 2.557-19.777 11.237-32.777 25.801-38.64 15.526-6.25 33.302-5.534 47.553 1.919 9.986 5.223 17.749 13.303 21.858 22.75 4.666 10.729 4.537 23.478-.344 34.105-4.887 10.638-14.481 19.04-25.667 22.475-6.052 1.858-12.108 2.224-17.767 2.224zm-3.708-67.724c-4.863 0-9.802.93-14.457 2.804-5.16 2.077-11.351 6.529-13.436 22.651-.956 7.398 1.179 14.379 5.44 17.784 4.692 3.75 12.322 4.215 21.078 4.409 5.894.13 11.988.265 16.977-1.267 5.823-1.789 10.82-6.164 13.365-11.705 2.544-5.539 2.61-12.186.178-17.78-2.294-5.273-6.835-9.891-12.788-13.004-4.948-2.588-10.6-3.893-16.357-3.893zm-37.81 24.174h.01z"/><path d="m59.196 1223.822c-11.866 14.93-30.366 36.091-37.19 53.944-10.901 28.521-14.667 59.757-10.109 89.996 4.778 31.698 18.571 60.434 38.104 85.648 20.882 26.956 57.256 33.243 87.193 49.752 14.705 8.109 73.037 1.287 89.788-5.989 21.705-9.429 25.883-21.448 45.273-45.521 11.546-14.334 31.691-77.258 31.691-77.258s-48.298-2.121-64.205-11.381c-33.481-19.489-28.56-55.359-38.059-92.916-9.499-37.558 7.891-68.128 8.572-106.862-26.205 2.396-58.11 11.958-87.664 24.41" fill="#d3cfff"/><path d="m162.514 1516.831c-12.619 0-23.738-1.376-30.148-4.912-9.16-5.051-19.356-9.26-29.218-13.33-22.258-9.187-45.273-18.687-61.052-39.055-21.813-28.157-35.301-58.532-40.087-90.281-4.751-31.515-1.066-64.385 10.656-95.056 6.372-16.671 21.166-34.92 33.053-49.583 1.989-2.455 3.894-4.803 5.65-7.013 3.436-4.323 9.728-5.043 14.05-1.607 4.324 3.437 5.043 9.727 1.606 14.051-1.794 2.258-3.738 4.656-5.771 7.163-10.992 13.56-24.673 30.436-29.907 44.129-10.492 27.455-13.799 56.825-9.561 84.935 4.271 28.332 16.423 55.589 36.12 81.014 12.519 16.161 32.12 24.251 52.872 32.816 10.372 4.281 21.099 8.708 31.244 14.303 2.652 1.462 14.101 3.673 38.437 1.569 19.823-1.714 36.404-5.309 42.538-7.973 13.962-6.065 19.083-12.968 29.286-26.718 3.437-4.632 7.333-9.883 12.183-15.904 6.374-7.913 17.924-38.337 25.927-61.855-16.374-1.361-43.229-4.619-55.683-11.868-28.997-16.879-33.344-44.728-37.548-71.659-1.401-8.973-2.85-18.251-5.175-27.448-6.322-24.992-1.808-47.087 2.558-68.455 1.948-9.533 3.943-19.301 4.988-29.417-21.41 3.443-46.864 11.145-73.061 22.182-5.086 2.144-10.953-.242-13.099-5.333-2.144-5.09.243-10.954 5.333-13.098 32.967-13.89 65.155-22.823 90.636-25.153 2.827-.256 5.635.698 7.717 2.632s3.243 4.662 3.192 7.502c-.284 16.166-3.246 30.665-6.111 44.687-4.097 20.048-7.965 38.985-2.765 59.547 2.555 10.098 4.075 19.843 5.547 29.268 3.957 25.349 7.082 45.371 27.848 57.458 10.021 5.833 41.884 9.25 59.615 10.033 3.112.138 5.983 1.718 7.765 4.275 1.78 2.557 2.269 5.797 1.318 8.765-2.12 6.622-21.069 65.141-33.427 80.481-4.602 5.712-8.371 10.793-11.697 15.276-10.746 14.483-18.511 24.948-37.379 33.145-11.092 4.818-42.854 10.485-68.452 10.486z"/><path d="m193.931 1279.563c6.855 55.451 52.518 101.538 83.802 97.671 31.283-3.867 36.34-56.224 29.485-111.675s-32.341-115.58-63.624-111.713c-17.091 2.113-47.845 8.378-55.086 35.107-6.012 22.196 2.313 65.453 5.423 90.609z" fill="#fff"/><path d="m274.093 1387.452c-17.471 0-37.6-10.96-54.853-30.118-18.984-21.08-31.826-48.979-35.234-76.545-.573-4.637-1.34-9.996-2.152-15.668-3.751-26.184-8.418-58.771-2.998-78.782 6.429-23.731 27.797-38.002 63.512-42.417 13.241-1.636 32.852 3.789 51.077 38.933 11.37 21.927 20.008 51.624 23.698 81.478 2.69 21.764 4.773 53.045-.58 78.468-7.097 33.697-24.366 42.721-37.604 44.357-1.595.197-3.22.295-4.866.295zm-70.238-109.116c2.916 23.593 13.94 47.508 30.246 65.614 14.295 15.874 30.542 24.824 42.404 23.359 9.849-1.218 16.741-10.85 20.485-28.629 3.788-17.988 3.893-42.849.302-71.894-3.41-27.588-11.284-54.823-21.604-74.724-9.943-19.174-21.199-29.494-30.869-28.291-26.865 3.321-42.563 12.673-46.66 27.797-4.342 16.029.186 47.638 3.491 70.718.826 5.771 1.607 11.222 2.204 16.051z"/><path d="m231.677 1155.815c30.316-6.08 78.128-7.884 107.573 2.682 9.242 3.316 17.439 14.934 19.326 24.57 1.763 9.002-4.654 18.002-12.789 22.241-8.135 4.24-17.619 4.806-26.779 5.288-10.752.565-63.59.773-73.179-1.484" fill="#fff"/><path d="m292.626 1220.972c-19.081 0-42.028-.466-49.088-2.127-5.376-1.265-8.708-6.649-7.443-12.025 1.266-5.376 6.653-8.708 12.025-7.443 7.614 1.792 58.076 1.877 70.363 1.231 8.028-.422 16.33-.859 22.683-4.169 4.924-2.566 8.331-7.703 7.598-11.452-1.349-6.885-7.613-15.186-12.891-17.079-26.465-9.496-72.423-8.267-102.229-2.289-5.414 1.085-10.685-2.423-11.771-7.838s2.423-10.685 7.838-11.771c32.238-6.466 81.325-8.262 112.917 3.074 13.611 4.884 23.432 20.163 25.763 32.06 2.476 12.642-4.919 26.224-17.98 33.032-10.206 5.319-21.667 5.922-30.876 6.406-3.68.194-14.475.391-26.908.391z"/><path d="m248.686 1274.373c29.421 4.185 63.151 1.481 93.659-10.468 9.576-3.75 17.807-16.161 19.492-26.305 1.574-9.478-5.415-18.706-14.059-22.899s-18.59-4.501-28.195-4.729c-11.274-.268-63.783-3.512-73.754-.86" fill="#fff"/><path d="m275.214 1286.233c-9.353 0-18.709-.648-27.936-1.96-5.468-.778-9.27-5.841-8.492-11.309s5.839-9.27 11.309-8.492c29.984 4.264 61.448.756 88.604-9.879 5.597-2.192 12.048-11.247 13.273-18.632.781-4.699-3.738-9.926-8.559-12.264-6.843-3.32-15.6-3.528-24.068-3.729-2.569-.061-7.009-.262-12.629-.517-14.192-.643-51.895-2.35-58.318-.677-5.335 1.39-10.812-1.795-12.215-7.126s1.748-10.786 7.075-12.203c7.802-2.075 28.638-1.592 64.362.026 5.5.249 9.845.446 12.199.502 9.61.228 21.57.512 32.323 5.729 13.692 6.642 21.735 20.432 19.56 33.535-2.059 12.396-11.77 28.517-25.71 33.978-21.927 8.587-46.335 13.018-70.779 13.018z"/><path d="m251.549 1332.933c28.335 6.877 67.371.186 94.002-12.558 8.359-4 14.94-15.693 15.788-24.921.792-8.621-6.457-20.945-14.501-24.145s-17.002-2.822-25.649-2.396c-10.149.5-62.972 8.718-72.504 5.459" fill="#fff"/><path d="m276.694 1345.625c-9.87 0-19.229-.966-27.503-2.974-5.367-1.303-8.662-6.709-7.359-12.076 1.303-5.368 6.708-8.663 12.076-7.359 24.043 5.834 60.77.847 87.327-11.86 4.625-2.213 9.556-10.385 10.146-16.815.396-4.325-4.378-12.402-8.239-13.938-6.168-2.453-13.939-2.071-21.46-1.7-2.579.127-9.455.963-16.735 1.848-34.251 4.161-51.889 5.686-59.496 3.086-5.226-1.787-8.014-7.471-6.227-12.697 1.771-5.181 7.374-7.965 12.563-6.272 6.19 1.441 37.398-2.349 50.746-3.971 8.632-1.049 14.869-1.807 18.164-1.969 8.747-.431 19.632-.968 29.837 3.092 12.075 4.804 21.972 21.176 20.763 34.35-1.061 11.548-8.932 27.047-21.43 33.027-21.839 10.45-49.034 16.229-73.174 16.229zm-24.83-80.734c.019.006.038.013.058.02-.02-.006-.038-.013-.058-.02z"/><path d="m267.228 1376.798c21.78 3.568 58.125-6.009 77.495-17.151 6.08-3.497 10.378-12.7 10.489-19.713.104-6.552-5.543-12.07-11.797-14.025s-12.994-1.157-19.496-.34c-7.631.959-48.562 10.712-57.568 9.688" fill="#fff"/><path d="m277.38 1387.539c-4.176 0-8.134-.277-11.77-.872-5.45-.893-9.145-6.035-8.251-11.485.893-5.45 6.029-9.143 11.485-8.252 19.218 3.149 53.286-5.823 70.893-15.951 2.357-1.356 5.408-6.903 5.477-11.203.021-1.3-2.063-3.472-4.782-4.322-4.291-1.341-9.869-.64-15.266.037-2.021.254-8.012 1.487-14.354 2.793-25.642 5.278-39.008 7.655-45.589 6.909-5.487-.624-9.43-5.578-8.806-11.066s5.589-9.427 11.065-8.806c4.917.462 28.134-4.328 39.296-6.626 8.366-1.722 13.229-2.713 15.895-3.048 6.812-.855 15.29-1.92 23.726.718 11.242 3.514 18.979 13.271 18.813 23.728-.15 9.445-5.634 22.545-15.501 28.223-17.855 10.271-48.591 19.224-72.331 19.224z"/><path d="m1177.141 1261.315c-5.925-16.913-21.988-36.959-32.289-51.103l-55.04-34.272c-25.66-11.796-53.361-20.854-76.112-23.123.592 36.692 15.69 65.651 7.443 101.23-8.248 35.578-3.975 69.558-33.044 88.02-13.811 8.772-55.744 10.782-55.744 10.782s17.49 59.609 27.515 73.187c16.835 22.805 20.462 34.191 39.307 43.123 14.543 6.893 65.189 13.355 77.956 5.674 25.992-15.639 57.572-21.595 75.703-47.13 16.959-23.885 28.934-51.107 33.082-81.135 3.958-28.645.688-58.235-8.777-85.253z" fill="#d3cfff"/><path d="m1054.863 1488.359c-22.503 0-49.977-5.428-59.971-10.164-16.708-7.919-23.511-17.922-32.925-31.766-2.886-4.243-6.155-9.051-10.144-14.454-10.766-14.582-27.224-70.035-29.065-76.31-.863-2.941-.328-6.117 1.449-8.614 1.778-2.498 4.604-4.042 7.666-4.189 16.324-.789 42.896-4.175 50.863-9.235 17.716-11.252 20.423-30.174 23.852-54.131 1.276-8.923 2.597-18.15 4.812-27.706 4.528-19.536 1.163-37.504-2.398-56.527-2.485-13.272-5.056-26.996-5.302-42.284-.046-2.853 1.129-5.589 3.229-7.52 2.101-1.931 4.929-2.873 7.763-2.591 22.329 2.227 50.49 10.746 79.296 23.988.382.176.752.375 1.109.597l55.04 34.272c1.091.679 2.04 1.562 2.797 2.601 1.526 2.095 3.18 4.32 4.908 6.647 10.334 13.91 23.195 31.221 28.736 47.036 10.167 29.024 13.363 60.121 9.245 89.928-4.154 30.064-15.874 58.849-34.834 85.555-13.857 19.516-34.013 28.593-53.505 37.371-8.909 4.012-17.325 7.802-25.197 12.539-5.932 3.569-16.044 4.958-27.425 4.958zm-109.305-126.436c6.938 22.218 16.875 50.749 22.356 58.173 4.219 5.714 7.604 10.693 10.592 15.086 8.761 12.883 13.158 19.35 24.953 24.939 5.181 2.456 19.313 5.78 36.301 7.383 21.384 2.019 30.507-.211 32.218-1.241 8.889-5.348 18.246-9.562 27.296-13.638 17.843-8.035 34.695-15.625 45.409-30.713 17.079-24.057 27.62-49.867 31.329-76.714 3.687-26.676.813-54.539-8.308-80.578-4.535-12.943-16.39-28.9-25.916-41.722-1.34-1.804-2.636-3.549-3.864-5.22l-52.858-32.914c-21.703-9.931-42.767-16.953-60.662-20.296.926 9.318 2.611 18.32 4.258 27.112 3.784 20.21 7.697 41.108 2.224 64.725-2.022 8.721-3.281 17.517-4.498 26.022-3.657 25.562-7.439 51.993-32.927 68.181-10.881 6.91-33.245 10.05-47.902 11.414z"/><path d="m1073.121 1266.863c-5.772 55.574-50.528 102.543-81.881 99.286-31.353-3.256-37.429-55.504-31.657-111.078s30.081-116.188 61.434-112.932c17.129 1.779 48 7.443 55.76 34.026 6.444 22.074-1.037 65.486-3.655 90.698z" fill="#fff"/><path d="m994.27 1376.304c-1.372 0-2.726-.069-4.063-.208-13.267-1.378-30.709-10.063-38.46-43.615-5.849-25.314-4.376-56.63-2.11-78.443 3.107-29.919 11.164-59.779 22.104-81.924 17.537-35.494 37.035-41.298 50.309-39.922 35.794 3.718 57.437 17.57 64.326 41.171 5.81 19.901 1.778 52.572-1.46 78.824-.702 5.688-1.365 11.061-1.848 15.708-2.869 27.627-15.165 55.772-33.734 77.218-17.136 19.79-37.405 31.19-55.063 31.19zm24.429-224.284c-9.379 0-19.879 10.437-29.028 28.954-9.929 20.098-17.271 47.482-20.143 75.131-3.022 29.11-2.434 53.964 1.704 71.875 4.09 17.703 11.169 27.199 21.04 28.225 23.485 2.429 65.454-37.932 70.902-90.374.502-4.839 1.177-10.305 1.891-16.091 2.854-23.139 6.765-54.83 2.11-70.771-4.391-15.042-20.269-24.086-47.193-26.882-.425-.044-.854-.066-1.283-.066zm54.422 114.843h.01z"/><path d="m1032.968 1143.875c-30.429-5.488-78.267-6.358-107.501 4.779-9.175 3.496-17.145 15.271-18.843 24.942-1.587 9.035 5.004 17.907 13.22 21.988 8.216 4.08 17.709 4.462 26.877 4.764 10.761.356 63.593-.467 73.136-2.911" fill="#fff"/><path d="m953.794 1210.418c-3.36 0-5.94-.027-7.402-.075-9.217-.305-20.688-.684-30.995-5.803-13.192-6.552-20.85-19.988-18.622-32.674 2.099-11.941 11.62-27.409 25.134-32.557 31.364-11.95 80.479-11.111 112.834-5.275 5.436.98 9.047 6.181 8.066 11.616-.979 5.436-6.192 9.046-11.615 8.066-29.918-5.395-75.89-5.728-102.165 4.282-5.239 1.996-11.341 10.417-12.556 17.328-.66 3.762 2.848 8.831 7.82 11.301 6.415 3.186 14.724 3.461 22.759 3.726 12.302.406 62.747-.663 70.326-2.604 5.356-1.37 10.798 1.858 12.168 7.207 1.37 5.35-1.856 10.798-7.207 12.168-9.788 2.506-50.45 3.293-68.545 3.293z"/><path d="m1018.274 1262.742c-29.334 4.758-63.11 2.712-93.846-8.639-9.647-3.563-18.119-15.81-20.002-25.92-1.759-9.445 5.049-18.808 13.61-23.169s18.499-4.862 28.098-5.278c11.266-.488 63.702-4.755 73.723-2.298" fill="#fff"/><path d="m988.033 1275.157c-23.122 0-46.17-3.955-67.069-11.673-14.044-5.188-24.067-21.116-26.368-33.47-2.432-13.057 5.342-27.002 18.902-33.911 10.648-5.425 22.601-5.942 32.204-6.358 2.354-.102 6.697-.383 12.195-.74 35.68-2.313 56.502-3.202 64.342-1.28 5.364 1.315 8.646 6.73 7.331 12.094-1.313 5.364-6.727 8.647-12.093 7.331-6.457-1.547-44.11.894-58.286 1.813-5.618.364-10.056.652-12.624.763-8.463.366-17.215.745-23.991 4.197-4.773 2.432-9.19 7.746-8.318 12.428 1.371 7.36 7.997 16.288 13.636 18.37 27.356 10.103 58.886 12.998 88.78 8.149 5.451-.887 10.588 2.819 11.472 8.27.884 5.452-2.818 10.588-8.271 11.472-10.494 1.702-21.176 2.543-31.842 2.543z"/><path d="m1016.554 1321.347c-28.196 7.428-67.355 1.499-94.229-10.722-8.435-3.836-15.243-15.399-16.271-24.608-.96-8.604 6.047-21.067 14.027-24.423s16.944-3.153 25.597-2.896c10.156.302 63.13 7.488 72.596 4.044" fill="#fff"/><path d="m988.656 1334.556c-23.376 0-49.342-5.22-70.472-14.828-12.612-5.736-20.783-21.079-22.069-32.602-1.467-13.147 8.108-29.71 20.089-34.75 10.124-4.258 21.017-3.934 29.771-3.673 3.298.098 9.549.734 18.2 1.615 13.376 1.361 44.646 4.543 50.812 2.98 5.158-1.795 10.812.88 12.684 6.026 1.889 5.19-.788 10.928-5.979 12.816-7.549 2.747-25.217 1.568-59.542-1.925-7.298-.743-14.189-1.444-16.771-1.521-7.523-.224-15.304-.456-21.422 2.118-3.832 1.612-8.447 9.78-7.966 14.097.716 6.417 5.805 14.492 10.472 16.614 26.8 12.188 63.617 16.459 87.542 10.155 5.335-1.407 10.812 1.781 12.218 7.122 1.407 5.341-1.781 10.811-7.122 12.218-9.064 2.388-19.47 3.539-30.445 3.539zm26.253-81.231c-.019.007-.036.013-.054.02.018-.006.036-.013.054-.02z"/><path d="m1001.734 1365.51c-21.706 3.992-58.231-4.874-77.815-15.637-6.147-3.378-10.624-12.495-10.872-19.505-.232-6.549 5.307-12.176 11.522-14.252s12.969-1.41 19.485-.72c7.648.81 48.762 9.763 57.746 8.564" fill="#fff"/><path d="m989.888 1376.465c-23.463 0-53.212-8.171-70.785-17.829-9.977-5.482-15.715-18.474-16.05-27.915-.369-10.452 7.175-20.357 18.347-24.09 8.386-2.802 16.882-1.903 23.706-1.18 2.674.283 7.557 1.179 15.958 2.738 11.203 2.08 34.518 6.41 39.427 5.856 5.473-.725 10.497 3.115 11.229 8.589.73 5.474-3.122 10.506-8.597 11.237-6.566.876-19.975-1.242-45.709-6.018-6.369-1.182-12.386-2.299-14.412-2.514-5.407-.572-11.001-1.164-15.264.261-2.701.902-4.742 3.114-4.696 4.415.151 4.298 3.311 9.784 5.693 11.093 17.802 9.783 52.028 18.09 71.19 14.566 5.428-.999 10.644 2.594 11.644 8.026.999 5.432-2.595 10.645-8.026 11.644-4.168.767-8.776 1.12-13.654 1.12z"/></svg>