<svg xmlns="http://www.w3.org/2000/svg" viewBox="180 -100 2700 2086">
    <g
        transform="translate(1968.2608695652175 105.65217391304348) rotate(0.0 453.91304347826076 392.60869565217394) scale(1.3042316445324145 1.3041961753688904)">
        <svg width="696.062" height="602.07" viewBox="0 0 696.062 602.07">
            <path
                d="M100.13 602.075c-5.707 0-11.07-1.814-15.813-5.397-16.174-12.218-21.141-43.688-22.615-64.877-4.537 2.08-8.615 5.695-11.771 8.749a117.994 117.994 0 0 0-30.393 49.158c-1.661 5.269-7.28 8.191-12.545 6.529-5.267-1.661-8.19-7.277-6.529-12.545 6.863-21.761 19.159-41.65 35.561-57.517 5.177-5.008 12.303-11.149 21.541-14.213a37.249 37.249 0 0 1 3.587-.992c.65-26.762 8.125-49.504 21.67-65.872a71.818 71.818 0 0 1 15.796-14.181c-3.531-10.239-5.452-22.877-2.388-36.926 1.691-7.751 2.338-17.998 3.021-28.846 1.298-20.6 2.64-41.899 11.269-56.839 11.373-19.69 28.731-27.081 45.52-34.229 7.726-3.289 15.714-6.69 23.286-11.346 4.704-2.892 10.863-1.425 13.756 3.281 2.893 4.705 1.424 10.863-3.281 13.756-8.841 5.436-17.526 9.134-25.926 12.71-15.646 6.662-28.003 11.924-36.036 25.832-6.281 10.876-7.527 30.647-8.627 48.093-.732 11.629-1.425 22.613-3.44 31.852-1.949 8.93-.99 17.167 1.111 24.138 12.039-3.549 24.649-3.486 35.96.777 18.178 6.849 23.368 22.038 20.498 33.252-2.863 11.186-14.195 21.271-33.037 18.604-9.914-1.405-22.276-10.88-31.495-24.137a84.318 84.318 0 0 1-1.201-1.776c-3.566 2.584-6.75 5.561-9.377 8.734-13.313 16.09-16.691 37.693-17.083 53.593 8.896 2.259 17.461 7.144 24.252 14.238.296.31 29.493 31.692 22.952 56.352-1.695 6.392-6.488 14.833-19.693 18.754-2.902.862-5.756 1.29-8.527 1.29zm-18.313-69.219c1.746 21.363 6.666 41.903 14.556 47.863 1.406 1.062 3.18 1.905 6.592.894 5.217-1.55 5.804-3.765 6.055-4.71 2.312-8.717-9.344-28.28-18.068-37.395a32.047 32.047 0 0 0-9.134-6.652zm44.274-92.173c6.97 9.542 14.445 14.177 17.019 14.541 5.8.825 10.06-.654 10.854-3.761.73-2.854-1.516-7.069-8.174-9.578-6.412-2.415-13.181-2.593-19.699-1.202z" />
            <path
                d="M650.52 14.182c21.189 12.13 24.458 38.79 32.128 61.969 6.973 21.074 3.386 44.473-11.893 63.516-12.991 16.19-81.784 53.941-74.86 49.605 41.157-25.775-109.296 67.74-153.853 87.054-69.726 30.224-100.8 37.658-158.193 42.731-20.42 1.805-64.378-9.509-78.27-23.894-14.241-14.746-27.216-28.414-32.168-48.306 44.748-20.408 156.443-28.687 158.95-25.837 7.807 8.876 20.869 11.572 32.552 9.773s43.329-14.676 54.281-19.125c55.134-22.395 80.484-43.113 127.065-72.444 4.492-2.828 9.724-5.329 11.768-10.227 4.565-10.938-8.52-21.342-9.802-33.125-1.333-12.248 76.434-63.823 102.297-81.689z"
                fill="#d3cfff" />
            <path
                d="M279.391 329.234c-23.553 0-65.31-10.873-81.005-27.125-14.258-14.763-29.002-30.029-34.68-52.837a10.001 10.001 0 0 1 5.555-11.515c26.584-12.124 72.945-19.277 98.214-22.463 15.682-1.977 31.551-3.501 44.684-4.292 21.165-1.275 24.326-.437 27.71 3.411 5.776 6.57 15.934 7.668 23.522 6.495 6.932-1.067 24.366-7.264 51.816-18.415l.223-.091c41.591-16.895 65.621-32.653 96.043-52.604 9.194-6.029 18.701-12.264 29.457-19.036a139.11 139.11 0 0 1 2.245-1.375c2.173-1.312 5.149-3.107 5.623-4.243.833-1.996-1.529-6.311-3.814-10.483-2.793-5.1-5.958-10.879-6.701-17.707-1.296-11.913 11.847-26.246 96.647-84.208 3.789-2.59 7.145-4.884 9.906-6.791a9.997 9.997 0 0 1 10.651-.451c20.561 11.77 26.956 34.194 32.598 53.979 1.346 4.717 2.616 9.173 4.058 13.527 8.334 25.189 3.382 51.766-13.588 72.915-2.196 2.737-8.879 11.065-44.658 33.048a808.55 808.55 0 0 1-23.287 13.755 458.015 458.015 0 0 1-7.553 4.205c-1.646.892-3.05 1.652-4.436 2.139-30.855 18.637-119.345 72.014-152.602 86.429-72.539 31.443-103.895 38.444-161.291 43.517a60.75 60.75 0 0 1-5.338.217zm-93.566-76.625c5.655 13.561 16.048 24.32 26.948 35.606 11.174 11.57 52.006 22.492 70.195 20.88 54.978-4.858 85.099-11.603 155.097-41.944 21.54-9.337 72.48-38.243 151.405-85.917 2.638-1.593 4.717-2.849 6.14-3.704.739-.443 1.308-.783 1.692-1.01 1.468-.866 2.881-1.363 4.212-1.575 18.163-10.338 53.621-31.789 61.441-41.536 12.646-15.761 16.364-35.485 10.199-54.115-1.572-4.752-2.96-9.618-4.302-14.325-4.379-15.353-8.547-29.967-18.402-38.606l-4.235 2.896c-14.322 9.79-35.968 24.584-54.251 38.265-24.818 18.569-31.627 26.271-33.47 28.918.709 2.548 2.331 5.511 4.031 8.614 3.91 7.142 9.267 16.921 4.729 27.793-2.995 7.176-9.21 10.926-13.747 13.664-.648.391-1.293.779-1.922 1.176-10.6 6.674-20.027 12.856-29.146 18.836-30.094 19.736-56.084 36.78-99.483 54.409l-.223.091c-20.271 8.234-44.988 17.91-56.3 19.653-15.072 2.314-29.271-1.487-38.819-10.234-17.012-.391-99.512 6.829-141.791 22.167z" />
            <path
                d="M300.678 181.582c4.404-1.877 9.832-3.649 13.649-.759 1.961 1.484 17.069 36.957 15.922 37.687-31.486 20.051-70.511 36.352-105.316 49.844-11.141 4.319-28.745 14.786-38.444 4.954-6.904-6.999-16.348-20.464-13.263-30.327 3.795-12.131 21.89-15.314 32.223-19.914a6509.35 6509.35 0 0 1 95.228-41.486z"
                fill="#d3cfff" />
            <path
                d="M196.768 287.424c-6.183 0-12.231-1.855-17.398-7.093-3.589-3.639-21.21-22.681-15.688-40.336 4.42-14.13 19.425-19.428 30.382-23.296 2.733-.965 5.314-1.876 7.318-2.769a6513.717 6513.717 0 0 1 95.374-41.548c4.023-1.716 14.708-6.268 23.605.467 1.983 1.501 3.549 2.687 11.909 22.281 8.208 19.24 8.113 21.559 8.03 23.605-.136 3.36-1.887 6.43-4.683 8.21-32.628 20.779-72.435 37.307-107.071 50.732-1.64.636-3.555 1.473-5.583 2.357-7.331 3.203-16.913 7.389-26.196 7.389zm107.83-96.643a6495.638 6495.638 0 0 0-95.082 41.422c-2.73 1.215-5.676 2.255-8.795 3.356-6.973 2.462-16.521 5.833-17.952 10.407-1.048 3.352 3.146 12.521 10.838 20.32 3.278 3.319 14.59-1.625 21.351-4.578 2.226-.972 4.328-1.891 6.36-2.679 31.431-12.184 67.164-26.944 97.103-44.96-2.837-7.289-7.833-18.912-10.565-24.489-.744.212-1.795.577-3.258 1.2z" />
            <path
                d="M648.878 10.579c3.06 2.134 27.834 30.569 20.538 35.865s-64.353 44.59-98.184 64.256c-7.253 4.216-16.216 8.414-23.615 4.459-8.568-4.579-18.28-25.908-20.094-29.264-7.361-13.622 38.358-32.406 47.269-37.328 19.542-10.796 66.497-43.283 74.086-37.989z"
                fill="#d3cfff" />
            <path
                d="M554.193 126.764c-3.697 0-7.527-.775-11.288-2.785-9.023-4.822-16.504-17.98-23.244-31.48-.415-.832-.729-1.471-.933-1.846-2.219-4.106-2.608-8.694-1.128-13.27 4.33-13.381 24.282-23.941 46.11-34.472 2.716-1.311 5.062-2.442 6.247-3.097 4.904-2.71 11.93-7.041 19.366-11.627 42.059-25.933 55.728-32.469 65.276-25.811 3.278 2.287 10.264 10.648 14.178 15.856 10.657 14.181 11.939 21.064 11.976 25.009.044 4.626-1.947 8.742-5.463 11.294-6.861 4.98-64.812 44.916-99.032 64.809-4.31 2.506-12.762 7.419-22.065 7.419zm-17.061-44.045.423.846c9.391 18.812 13.685 22.188 14.776 22.775 2.251 1.201 6.919-.239 13.875-4.286 30.048-17.466 78.775-50.704 93.587-61.053-2.8-5.759-10.7-15.868-15.11-20.603-8.834 2.599-31.961 16.858-44.862 24.812-7.646 4.715-14.869 9.168-20.192 12.109-1.668.922-4.122 2.105-7.229 3.604-6.419 3.098-15.211 7.339-22.874 12.031-8.35 5.112-11.357 8.34-12.394 9.764zm-378.396 99.969a9.95 9.95 0 0 1-4.123-.896c-13.08-5.93-25.484-14.628-37.922-26.592a190.896 190.896 0 0 1-27.451-33.156c-3.02-4.624-1.719-10.821 2.906-13.84 4.626-3.021 10.821-1.717 13.84 2.906a170.936 170.936 0 0 0 24.571 29.677c10.77 10.359 21.34 17.814 32.313 22.79 5.03 2.28 7.259 8.206 4.979 13.236a10.003 10.003 0 0 1-9.113 5.874zm35.562-51.984c-.081 0-.162 0-.243-.003-5.521-.132-9.891-4.714-9.759-10.235.183-7.687-2.039-15.461-6.257-21.892-3.028-4.618-1.74-10.817 2.878-13.847 4.618-3.028 10.816-1.741 13.847 2.878 6.422 9.792 9.806 21.631 9.526 33.337-.13 5.439-4.58 9.762-9.992 9.762zm46.187 11.379c-4.931 0-9.223-3.646-9.898-8.668a301.897 301.897 0 0 1-2.363-54.083c.256-5.517 4.899-9.807 10.453-9.525 5.517.256 9.781 4.936 9.525 10.453a281.73 281.73 0 0 0 2.207 50.489c.736 5.474-3.104 10.508-8.578 11.244-.452.061-.901.09-1.346.09z" />
        </svg>
    </g>
    <g
        transform="translate(378.2608695652174 151.30434782608697) rotate(0.0 1207.1739130434783 917.6086956521739) scale(1.3031200349789052 1.307487841307837)">
        <svg width="1852.744" height="1403.621" viewBox="0 0 1852.744 1403.621">
            <g fill="#fff">
                <path
                    d="m500.684 1393.621-1.194-34.042c-1.268-36.167 31.392-149.747 32.864-185.907 2.109-51.799-7.907-602.574 17.226-635.347 58.146-75.82 205.127 42.291 336.015 40.078s259.774-6.275 288.691 79.236 51.822 200.189 54.087 254.785c.758 18.279 2.961 36.315 2.265 54.596-1.608 42.251-2.195 69.869 8.867 110.678 3.597 13.268-10.029 70.169 3.108 113.854 10.61 35.282 19.075 177.585 6.816 198.73l-748.745 3.34z" />
                <path
                    d="M522.106 1209.669c10.248-28.555 18.127-55.868 22.558-85.703 6.793-45.739 16.085-70.632 21.667-116.534 2.097-17.243 110.774-299.29 104.048-364.042s-92.699-94.076-120.798-105.064c-29.336-11.472-43.055-5.068-62.202 16.088-15.399 17.015-27.825 42.127-36.284 63.46-17.432 43.958-8.58 73.843-38.732 113.427-9.286 12.191-21.467 23.534-23.744 38.689-1.706 11.35-20.916 51.657-19.164 63 4.027 26.063-21.98 40.388-29.984 65.517-17.556 55.118-34.883 177.653-34.883 233.558 0 112.234 207.27 106.159 217.518 77.604z" />
                <path
                    d="M427.084 1075.356c-57.255-20.835-131.706 6.689-141.586 17.24-9.88 10.552-42.231 17.72-61.96 27.758-28.149 14.323-56.881 27.784-83.442 44.872-31.57 20.31 37.787 153.659 91.021 147.557 62.338-7.146 188.296 1.324 225.756-29.625 14.406-11.902 64.333-48.567 65.232-73.489 1.747-48.385-45.121-116.154-95.022-134.313zm1225.378-707.924s-5.175-59.395-6.072-65.853c-3.789-27.284-142.582-28.198-143.022-8.514s1.043 55.251 19.99 81.524c10.584 14.677 130.442 8.067 129.104-7.158z" />
            </g>
            <path
                d="M1571.344 392.805c-47.18 0-53.616-8.925-56.098-12.367-15.341-21.272-22.702-50.744-21.877-87.596.303-13.523 16.939-20.777 52.356-22.827 22.408-1.3 47.441.035 66.969 3.564 27.541 4.978 41.803 13.687 43.6 26.624.906 6.52 5.594 60.209 6.129 66.353.449 5.107-1.729 12.207-14.66 17.019-16.854 6.271-48.577 8.869-70.621 9.188-1.998.029-3.93.043-5.798.043zm-40.272-24.62c4.429 2.678 24.402 5.678 56.595 4.26 28.581-1.261 47.82-5.211 54.487-8.101-2.035-23.256-4.956-55.791-5.632-61.105-.575-.766-5.207-5.929-27.073-9.923-17.38-3.175-39.989-4.464-60.479-3.447-21.825 1.082-32.139 4.227-35.649 6.016-.345 30.83 5.623 55.141 17.751 72.301zm111.426.104.002.019v-.019z" />
            <path
                d="M1759.059 186.154c9.785-5.283 34.859-53.566 41.941-61.537 15.158-17.059 49.323-3.019 40.228 16.288-14.591 30.975-36.547 83.574-65.89 96.909-23.668 10.756-62.11-13.379-74.887-41.783"
                fill="#fff" />
            <path
                d="M1762.485 250.441c-6.653 0-13.767-1.394-21.143-4.176-21.408-8.077-41.039-26.186-50.011-46.132-2.265-5.037-.019-10.957 5.018-13.223s10.956-.02 13.222 5.018c6.689 14.873 22.658 29.522 38.831 35.624 8.929 3.369 17.025 3.78 22.798 1.158 23.21-10.549 43.333-54.007 56.649-82.764 1.509-3.259 2.953-6.377 4.332-9.304.566-1.202 1.745-3.704-2.926-6.787-5.163-3.407-15.256-4.815-20.78 1.402-2.008 2.26-7.587 11.558-12.51 19.761-16.634 27.719-24.778 39.95-32.155 43.934-4.86 2.625-10.926.812-13.551-4.047-2.594-4.804-.854-10.786 3.879-13.458 4.696-3.423 17.686-25.068 24.677-36.72 7.32-12.198 11.613-19.27 14.708-22.754 12.502-14.07 33.585-13.497 46.747-4.811 11.622 7.669 15.548 20.231 10.002 32.003-1.361 2.889-2.786 5.967-4.276 9.184-15.428 33.318-36.557 78.949-66.523 92.567-5.169 2.35-10.886 3.523-16.99 3.523zm-8.178-73.086-.07.038.07-.038z" />
            <path
                d="M1706.618 201.077c1.245-10.121-22.551-39.987-30.002-47.209-14.102-13.67 15.974-38.901 41.102-25.391 29.916 16.084 50.95 67.648 45.164 96.619-4.667 23.368-46.302 38.434-76.822 32.227"
                fill="#fff" />
            <path
                d="M1700.753 268.729c-5.732 0-11.357-.523-16.687-1.606-5.412-1.101-8.907-6.38-7.807-11.792 1.1-5.413 6.379-8.913 11.792-7.808 16.898 3.438 39.379-.855 53.452-10.209 6.499-4.318 10.608-9.354 11.572-14.178 4.957-24.815-13.958-71.802-40.093-85.853-11.354-6.104-24.147-.568-28.652 5.59-1.945 2.659-1.229 3.354-.754 3.812 4.148 4.022 12.394 13.791 19.501 23.975 13.079 18.737 14.067 26.749 13.466 31.636-.674 5.48-5.667 9.392-11.146 8.704-5.355-.658-9.198-5.436-8.744-10.767-.812-6.678-18.549-30.997-26.998-39.187-8.317-8.062-8.893-19.831-1.467-29.981 10.244-14.006 33.905-22.346 54.265-11.397 15.75 8.467 30.462 26.037 40.365 48.205 9.385 21.01 13.075 43.133 9.869 59.181-2.042 10.222-8.997 19.529-20.115 26.918-14.207 9.44-33.551 14.757-51.82 14.757zm-4.06-68.874v.008-.008z" />
            <path
                d="M1671.883 214.603c1.426-11.028-21.932-43.092-29.283-50.817-13.913-14.62 5.428-41.323 30.408-27.069 29.739 16.969 61.227 71.418 54.915 103.025-5.091 25.494-47.133 42.604-77.652 36.387"
                fill="#fff" />
            <path
                d="M1663.746 287.427c-5.313 0-10.518-.489-15.471-1.498-5.412-1.103-8.905-6.383-7.803-11.795s6.386-8.898 11.795-7.803c15.98 3.257 37.196-1.151 51.596-10.717 7.95-5.281 13.012-11.613 14.254-17.83 5.132-25.698-22.474-76.638-50.065-92.382-8.613-4.914-14.981-2.453-18.068 1.49-.728.929-4.156 5.779-.14 10 4.09 4.298 12.185 14.767 19.13 25.701 12.758 20.087 13.431 28.62 12.827 33.291-.708 5.478-5.721 9.346-11.2 8.635-5.417-.7-9.257-5.611-8.657-11.017-.24-6.969-17.914-33.709-26.587-42.823-9.497-9.979-9.958-24.831-1.12-36.118 8.481-10.831 25.291-17.051 43.728-6.53 32.325 18.445 67.113 76.88 59.766 113.669-2.324 11.637-10.208 22.208-22.8 30.573-14.654 9.734-33.51 15.153-51.183 15.153zm-1.781-74.107v.005-.005z" />
            <path
                d="M1514.516 359.059c-6.063-12.764-21.727-61.368-3.032-88.407 14.4-20.827 49.985-18.013 73.516-20.827 19.099-2.285 37.895-5.087 49.263-13.698-.758-11.094-25.011-29.071-33.259-39.858-12.258-16.033-3.12-44.123 24.164-35.028 32.483 10.828 68.979 56.354 68.968 88.585-.009 25.997-37.895 50.997-69.04 50.866"
                fill="#fff" />
            <path
                d="M1514.523 369.06a10 10 0 0 1-9.04-5.711c-7.422-15.624-23.761-67.236-2.225-98.386 14.218-20.563 42.646-22.387 65.488-23.852 5.421-.348 10.542-.676 15.066-1.218 13.762-1.646 27.754-3.632 37.599-7.887-3.848-4.902-10.603-11.417-14.794-15.46-5.28-5.093-10.267-9.903-13.557-14.206-9.251-12.1-9.905-29.375-1.553-41.075 7.866-11.021 21.631-14.578 36.823-9.515 17.44 5.814 36.163 20.237 51.368 39.572 15.537 19.757 24.444 41.08 24.438 58.503-.004 11.866-5.669 23.775-16.383 34.44-16.144 16.071-40.612 26.422-62.41 26.424h-.289c-5.523-.023-9.981-4.52-9.958-10.042.023-5.509 4.496-9.958 9.999-9.958.079-.002.16 0 .24 0 16.271 0 36.105-8.45 48.308-20.598 6.765-6.733 10.491-13.934 10.493-20.272.009-27.279-33.089-69.414-62.131-79.096-4.672-1.556-10.932-2.447-14.22 2.16-2.865 4.014-3.213 11.585 1.163 17.308 2.374 3.104 6.833 7.405 11.554 11.959 11.816 11.398 22.978 22.164 23.737 33.292a10 10 0 0 1-3.939 8.653c-13.295 10.069-33.183 13.151-54.112 15.655-5.071.607-10.458.952-16.161 1.318-19.502 1.251-41.607 2.669-50.317 15.268-15.114 21.858-2.475 65.138 3.839 78.429 2.37 4.989.247 10.954-4.742 13.324a9.975 9.975 0 0 1-4.284.969z" />
            <path
                d="M1169.249 304.802c1.119 114.724-67.096 222.514-145.176 286.989-84.439 69.726-228.919 51.537-296.754 1.026-76.605-57.041-95.671-126.332-95.67-193.328 0-93.677 69.381-160.618 96-193.719 24.139-30.017 34.63-91.461 71.747-115.2 43.762-27.989 221.34-57.213 299.169 27.843 77.828 85.056 70.299 146.913 70.684 186.388z"
                fill="#fff" />
            <path
                d="M881.201 647.623c-4.014 0-8.052-.079-12.121-.237-56.304-2.19-111.532-19.591-147.734-46.547-36.781-27.387-63.614-60.005-79.753-96.948-13.421-30.719-19.945-64.869-19.945-104.401 0-85.249 53.937-148.12 86.163-185.685 4.667-5.44 8.697-10.139 12.044-14.301 8.578-10.667 15.586-26.39 23.006-43.036 12.161-27.281 25.943-58.203 51.146-74.321 23.13-14.794 79.392-29.865 142.169-30.047 33.793-.103 64.714 4.141 91.93 12.595 32.316 10.039 58.504 25.842 77.836 46.969 73.997 80.869 73.59 142.258 73.321 182.88-.024 3.577-.046 6.957-.015 10.161.537 55.021-14.709 112.835-44.09 167.19-26.274 48.607-62.484 92.733-104.718 127.608-37.811 31.223-90.446 48.119-149.239 48.12zm56.016-575.524h-.982c-58.331.169-111.262 13.983-131.45 26.895-20.152 12.89-32.1 39.694-43.655 65.616-7.963 17.864-15.484 34.738-25.688 47.427-3.546 4.41-7.673 9.22-12.451 14.79-30.423 35.463-81.342 94.817-81.342 172.662 0 79.87 29.12 138.753 91.643 185.309 33.088 24.638 84.142 40.563 136.567 42.604 3.814.148 7.613.222 11.373.222 54.133.002 102.254-15.284 136.475-43.542 69.186-57.131 142.702-160.474 141.543-279.182-.033-3.368-.01-6.827.014-10.489.264-39.74.625-94.165-68.076-169.245C1049.046 79.11 977.06 72.1 937.217 72.1z" />
            <path
                d="M847.167 195.434a9.95 9.95 0 0 1-4.539-1.096c-19.551-9.981-26.822-12.18-48.625-14.706-5.486-.636-9.418-5.599-8.783-11.084.636-5.487 5.604-9.412 11.084-8.783 24.303 2.815 33.626 5.635 55.417 16.761 4.919 2.511 6.871 8.534 4.359 13.453a10 10 0 0 1-8.915 5.455zm176.908 130.236a9.973 9.973 0 0 1-7.328-3.192 185.005 185.005 0 0 0-52.682-39.525c-4.936-2.478-6.928-8.488-4.45-13.424 2.479-4.935 8.487-6.93 13.424-4.449a204.964 204.964 0 0 1 58.359 43.783c3.76 4.046 3.528 10.373-.518 14.133a9.967 9.967 0 0 1-6.805 2.675zm-34.907 64.988c-.643 0-1.294-.062-1.949-.191-.61-.121-15.112-3.016-29.718-8.512-8.622-3.244-34.859-13.116-33.795-32.812.298-5.516 5.015-9.731 10.525-9.446 5.515.298 9.744 5.01 9.446 10.524-.002.051 1.302 5.652 20.868 13.015 13.076 4.92 26.418 7.583 26.551 7.609 5.418 1.07 8.942 6.331 7.872 11.749-.941 4.764-5.122 8.063-9.8 8.063z" />
            <ellipse cx="942.533" cy="374.978" rx="20.098" ry="11.332"
                transform="matrix(.48465696 -.87470431 .87470431 .48465696 157.734 1017.681)" />
            <path
                d="M939.642 359.937a10 10 0 0 1-8.974-5.574c-2.445-4.952-.414-10.948 4.539-13.395 4-1.975 5.541-3.704 9.158-10.276 2.663-4.839 8.745-6.603 13.583-3.939 4.838 2.663 6.602 8.744 3.939 13.582-4.181 7.598-8.149 13.789-17.824 18.567a9.971 9.971 0 0 1-4.42 1.035zm-132.716-75.92c-.438 0-.88-.028-1.326-.088-.616-.081-15.273-2.052-30.197-6.611-8.811-2.691-35.621-10.881-35.807-30.604-.052-5.522 4.383-10.041 9.905-10.094h.096c5.479 0 9.946 4.415 9.998 9.906 0 .051 1.658 5.558 21.651 11.665 13.361 4.082 26.845 5.894 26.98 5.912 5.475.725 9.326 5.751 8.601 11.226-.666 5.029-4.962 8.688-9.901 8.688z" />
            <ellipse cx="760.023" cy="271.303" rx="20.098" ry="11.332"
                transform="matrix(.42825707 -.90365695 .90365695 .42825707 189.372 841.915)" />
            <path
                d="M755.552 256.497a9.996 9.996 0 0 1-8.677-5.015c-2.754-4.787-1.107-10.9 3.68-13.655 3.867-2.225 5.295-4.048 8.489-10.837 2.351-4.997 8.308-7.145 13.306-4.792 4.998 2.351 7.143 8.308 4.792 13.306-3.691 7.847-7.258 14.276-16.612 19.659a9.955 9.955 0 0 1-4.978 1.334z" />
            <path
                d="M784.348 398.502c-49.551 5.198-100.812-10.327-137.708-41.707-8.181-6.958-15.785-14.794-20.578-24.211-4.794-9.417-6.541-20.623-2.876-30.597s13.387-18.234 24.414-18.824c10.926-.584 20.587 5.857 29.826 11.314 33.563 19.824 100.783 41.778 138.173 19.965"
                fill="#fff" />
            <path
                d="M765.542 409.479c-45.741 0-91.45-16.21-125.38-45.068-10.97-9.329-18.282-18.001-23.012-27.292-6.469-12.707-7.691-26.771-3.35-38.582 5.204-14.163 18.884-24.592 33.267-25.36 13.025-.712 23.69 5.671 33.095 11.29.787.471 1.57.938 2.351 1.399 32.509 19.201 95.686 38.819 128.048 19.938 4.77-2.782 10.893-1.172 13.677 3.599 2.783 4.771 1.172 10.894-3.599 13.677-41.945 24.469-113.223.726-148.297-19.992-.809-.478-1.621-.963-2.437-1.451-7.625-4.555-14.833-8.841-21.77-8.488-6.529.35-13.074 5.518-15.562 12.288-2.427 6.604-1.552 14.846 2.401 22.61 3.49 6.856 9.255 13.57 18.145 21.13 34.76 29.565 83.43 44.293 130.187 39.381 5.495-.567 10.413 3.409 10.989 8.902.576 5.492-3.409 10.412-8.902 10.988a190.487 190.487 0 0 1-19.85 1.032z" />
            <path
                d="M895.638 115.818c-32.867-45.474-112.928-8.686-127.545 13.798-22.512-28.382 27.061-94.625 108.297-113.97 33.946-8.083 97.827-11.982 147.683 20.355 134.06 0 269.47 195.245 135.175 363.487 0 0-33.428 3.586-33.438-77.529-.013-105.074-121.276-206.127-200.098-187.937 0 0 35.704-58.611 89.937-66.695"
                fill="#fff" />
            <path
                d="M1158.755 409.503c-3.501 0-12.008-.896-20.566-8.585-14.844-13.335-22.374-39.9-22.378-78.957-.006-49.264-29.818-103.576-77.801-141.742-37.739-30.019-78.878-43.646-110.048-36.451a9.992 9.992 0 0 1-10.357-3.892 10 10 0 0 1-.432-11.055c1.557-2.557 38.809-62.709 97.002-71.384 5.458-.807 10.551 2.953 11.365 8.416s-2.954 10.551-8.417 11.365c-31.05 4.629-55.874 28.041-69.989 44.73 32.412.646 69.459 15.68 103.325 42.617 24.516 19.5 45.374 43.62 60.319 69.754 16.372 28.629 25.028 58.934 25.032 87.639.005 42.181 9.392 57.805 14.986 63.364 1.597 1.587 3.093 2.573 4.341 3.186 54.115-70.809 64.512-153.96 28.389-229.016-32.671-67.883-96.75-113.491-159.453-113.491-1.931 0-3.821-.56-5.442-1.61-43.565-28.256-102.604-27.902-139.924-19.017-54.848 13.061-94.486 49.123-103.937 76.424-.928 2.683-1.748 5.812-2.021 9.004 17.76-13.761 47.075-25.948 73.966-26.613 24.673-.608 44.401 8.302 57.027 25.771 3.235 4.476 2.229 10.727-2.247 13.962-4.477 3.236-10.728 2.229-13.962-2.247-8.712-12.053-22.287-17.949-40.325-17.492-31.936.789-63.945 20.443-70.731 30.883a10 10 0 0 1-16.219.764c-8.275-10.433-9.834-24.842-4.388-40.573 6.162-17.804 20.69-36.406 40.907-52.384 21.976-17.367 48.704-30.146 77.296-36.953 14.706-3.503 90.4-18.773 152.952 20.111 69.258 1.384 139.094 51.179 174.521 124.789 18.507 38.452 26.118 80.702 22.01 122.184-4.647 46.93-23.655 91.584-56.494 132.724a10.002 10.002 0 0 1-6.749 3.705c-.216.022-.756.07-1.56.07z" />
            <path
                d="M1179.47 380.769c-.688 0-1.386-.071-2.086-.22-25.392-5.39-26.883-36.008-28.609-71.46-1.208-24.813-2.578-52.938-11.244-78.937-22.741-68.223-66.421-107.352-119.833-107.352-.011 0-.024-.005-.027 0-5.522 0-9.999-4.476-10-9.998s4.475-10.001 9.998-10.002h.03c62.579 0 113.166 44.108 138.806 121.027 9.535 28.605 11.039 59.479 12.247 84.288.786 16.127 1.464 30.055 3.967 40.054 2.893 11.557 6.896 12.406 8.819 12.814 5.403 1.146 8.853 6.456 7.706 11.858-.999 4.703-5.15 7.926-9.772 7.926z" />
            <path
                d="M1179.46 241.247c-5.523 0-10-4.478-10-10 0-39.23-20.296-71.999-32.395-88.041-19.432-25.765-41-40.281-52.817-42.867-5.395-1.18-8.812-6.511-7.632-11.905 1.181-5.396 6.515-8.812 11.906-7.632 19.299 4.222 44.621 23.99 64.51 50.361 23.491 31.146 36.427 66.69 36.427 100.084 0 5.522-4.477 10-10 10zm-264.87-152.8c-4.422 0-8.466-2.956-9.657-7.431-1.505-5.657-7.017-9.069-11.375-10.935-14.627-6.264-36.411-4.293-52.974 4.79-4.843 2.656-10.921.883-13.577-3.959-2.656-4.843-.883-10.921 3.959-13.576 21.933-12.028 50.25-14.295 70.463-5.641 11.933 5.108 20.041 13.694 22.83 24.176 1.42 5.338-1.755 10.815-7.092 12.236-.861.229-1.727.339-2.578.339z" />
            <path
                d="M1117.515 394.19c12.647-10.415 42.179-32.977 68.913-13.534 22.232 16.168 8.809 62.427-6.968 82.799-27.39 35.368-75.712 54.432-99.138 27.284"
                fill="#fff" />
            <path
                d="M1109.849 513.594c-15.066 0-27.866-5.623-37.097-16.321-3.608-4.182-3.144-10.496 1.038-14.104s10.496-3.144 14.104 1.038c5.588 6.477 13.331 9.617 23.053 9.373 19.869-.527 44.226-15.094 60.607-36.247 9.735-12.57 18.691-37.023 16.185-54.609-.923-6.476-3.343-11.179-7.193-13.979-14.741-10.722-32.749-6.536-56.674 13.166-4.263 3.511-10.565 2.899-14.076-1.362-3.511-4.264-2.901-10.565 1.362-14.077 7.393-6.088 18.762-14.746 32.088-19.633 17.913-6.566 34.878-4.587 49.063 5.731 8.272 6.016 13.539 15.467 15.229 27.332 3.41 23.934-7.848 53.762-20.173 69.677-20.164 26.038-49.953 43.306-75.89 43.993a59.11 59.11 0 0 1-1.627.022zM844.97 469.849c12.386-1.953 26.741-5.381 36.168 2.886 8.891 7.796 2.69 13.537-3.098 23.848-6.809 12.131-17.556 19.514-29.128 21.944-25.263 5.305-52.295 2.274-76.042-8.975-23.602-11.18-28.66-28-28.827-42.558-.243-21.155 22.291-13.006 37.646-5.638 19.591 9.401 41.819 11.875 63.28 8.492z" />
            <path
                d="M824.379 531.063c-19.208 0-38.377-4.226-55.79-12.474-22.653-10.729-34.276-28.051-34.546-51.479-.134-11.72 5.062-17.51 9.445-20.304 11.798-7.521 28.925-.992 42.527 5.535 17.114 8.212 36.965 10.851 57.396 7.63 1.154-.182 2.325-.377 3.508-.574 12.795-2.13 28.721-4.782 40.811 5.819 13.768 12.072 6.183 24.454 1.652 31.853-.868 1.418-1.766 2.883-2.623 4.41-7.927 14.123-20.639 23.653-35.793 26.836a129.415 129.415 0 0 1-26.588 2.748zm-69.961-67.44c-.163.445-.396 1.481-.375 3.258.122 10.621 2.859 24.043 23.108 33.635 21.567 10.215 46.323 13.137 69.706 8.227 9.424-1.979 17.401-8.035 22.463-17.053 1.043-1.858 2.087-3.562 3.008-5.065 1.111-1.814 2.571-4.198 3.096-5.515-.19-.213-.472-.499-.878-.855-4.967-4.354-14.815-2.713-24.34-1.128-1.24.206-2.468.411-3.678.602-24.458 3.855-48.375.62-69.164-9.354-16.257-7.801-21.839-7.045-22.945-6.75zm90.551 6.227h.01z" />
            <path
                d="M843.685 456.494c12.386-1.953 26.741-5.381 36.168 2.886 8.891 7.796 7.811 22.91.343 32.077s-19.383 13.453-30.988 15.722c-26.121 5.108-53.803 1.909-78.071-9.022-13.274-5.979-26.927-16.605-27.094-31.163-.243-21.155 21.007-26.361 36.361-18.992 19.591 9.401 41.819 11.875 63.28 8.492z"
                fill="#fff" />
            <path
                d="M824.592 519.546c-19.768 0-39.555-4.159-57.562-12.27-20.778-9.36-32.801-24-32.987-40.166-.134-11.719 4.745-21.329 13.739-27.062 10.22-6.513 24.723-6.929 36.949-1.062 17.115 8.213 36.965 10.852 57.396 7.63 1.154-.183 2.327-.377 3.511-.574 12.795-2.129 28.718-4.78 40.807 5.82 13.575 11.902 11.736 33.349 1.503 45.911-7.838 9.621-19.882 15.908-36.821 19.222a138.384 138.384 0 0 1-26.536 2.551zm-57.994-64.698c-3.051 0-5.903.688-8.067 2.066-3.075 1.96-4.544 5.221-4.489 9.967.135 11.761 16.262 19.935 21.202 22.16 22.375 10.077 47.962 13.035 72.045 8.325 12.162-2.378 20.39-6.377 25.154-12.225 4.166-5.113 5.431-14.196.817-18.242-4.966-4.354-14.814-2.716-24.338-1.129-1.241.206-2.47.411-3.681.602-24.457 3.855-48.375.621-69.164-9.354-3.012-1.445-6.35-2.17-9.479-2.17zM304.6 1078.175c-.325 0-.652-.016-.982-.048-5.497-.536-9.519-5.427-8.982-10.924a833.325 833.325 0 0 1 35.308-171.731c3.723-11.688 9.615-22.579 15.313-33.112 7.199-13.308 14-25.878 16.136-39.06 6.467-39.912 31.774-83.3 43.016-98.059 16.097-21.132 19.347-39.241 23.111-60.212 2.852-15.89 5.801-32.321 14.481-51.312l1.176-2.574c9.347-20.481 20.979-45.97 36.79-63.438 22.35-24.696 68.817-19.542 70.785-19.311 5.485.646 9.408 5.615 8.763 11.101-.646 5.481-5.608 9.399-11.091 8.764-10.585-1.219-40.836-1.269-53.628 12.866-13.731 15.171-24.193 38.096-33.423 58.322l-1.18 2.584c-7.631 16.696-10.354 31.864-12.986 46.532-3.868 21.548-7.867 43.829-26.886 68.798-9.845 12.924-33.378 53.312-39.184 89.139-2.677 16.522-10.613 31.191-18.287 45.377-5.5 10.167-10.695 19.77-13.847 29.666a813.33 813.33 0 0 0-34.459 167.603c-.503 5.166-4.855 9.029-9.941 9.03zm-73.491 244.61c-4.551 0-8.666-3.126-9.734-7.75-1.244-5.381 2.11-10.751 7.491-11.995 24.89-5.754 58.812-6.749 94.728-7.804 50.04-1.47 106.756-3.135 126.912-19.787 49.231-40.675 59.911-60.18 61.895-68.186 3.239-13.069 6.7-24.413 10.047-35.384 5.002-16.395 9.726-31.88 12.326-49.383 3.172-21.359 6.882-38.252 10.47-54.589 4.218-19.207 8.203-37.349 11.162-61.684.3-2.466.694-5.161 1.111-8.015 1.396-9.554 5.105-34.932-1.508-37.578-5.128-2.052-7.621-7.872-5.569-12.999 2.051-5.128 7.872-7.619 12.999-5.569 21.253 8.504 16.809 38.915 13.868 59.038-.399 2.731-.776 5.311-1.047 7.537-3.074 25.281-7.158 43.875-11.481 63.56-3.516 16.007-7.15 32.558-10.221 53.236-2.819 18.978-7.754 35.154-12.979 52.281-3.271 10.721-6.653 21.806-9.764 34.358-4.644 18.735-27.073 44.509-68.57 78.793-25.447 21.024-80.635 22.645-139.063 24.36-34.895 1.024-67.854 1.992-90.81 7.299-.758.175-1.516.259-2.261.259z" />
            <path
                d="M140.106 1175.228a9.998 9.998 0 0 1-8.707-5.066c-2.726-4.804-1.042-10.907 3.762-13.633a2103.723 2103.723 0 0 1 83.842-45.087c8.297-4.223 18.354-7.854 28.08-11.365 12.541-4.527 26.756-9.659 31.115-14.315 13.741-14.675 63.198-37.51 120.654-9.778 12.524 6.045 45.336 36.736 52.964 45.153 3.709 4.092 3.398 10.416-.694 14.125-4.093 3.707-10.417 3.398-14.125-.695-8.397-9.266-38.494-36.544-46.838-40.571-52.501-25.34-91.799-.503-97.361 5.437-7.645 8.165-22.837 13.65-38.922 19.457-9.151 3.305-18.613 6.721-25.802 10.378a2086.503 2086.503 0 0 0-83.042 44.657 9.958 9.958 0 0 1-4.926 1.305z" />
            <path
                d="M200.386 1312.696c10.227 1.211 20.699 2.411 30.732.087 21.225-4.916 42.902-34.276 44.501-56.005 1.599-21.728-15.865-49.717-31.681-64.7-15.817-14.983-103.841-33.307-133.848-12.646-30.183 20.782-55.565 54.557-29.898 85.268 30.319 36.276 75.778 42.736 120.194 47.995z" />
            <path
                d="M218.392 1324.107c-6.678 0-13.16-.768-19.182-1.48-41.356-4.897-92.826-10.992-126.691-51.513-10.229-12.239-14.415-25.77-12.441-40.214 3.829-28.021 29.425-49.434 44.341-59.704 20.782-14.309 58.603-11.6 79.299-8.711 25.406 3.547 56.006 11.828 67.097 22.334 15.078 14.284 36.783 45.431 34.777 72.694-1.794 24.384-25.486 58.82-52.217 65.012-5.027 1.164-10.058 1.582-14.982 1.582zm-16.831-21.341c9.269 1.097 18.853 2.232 27.299.275 15.843-3.669 35.438-28.704 36.784-46.995 1.276-17.337-13.532-42.447-28.585-56.707-4.601-4.358-25.614-12.789-56.108-17.045-29.43-4.111-54.41-2.049-65.192 5.375-20.452 14.082-33.86 31.256-35.867 45.939-1.197 8.758 1.411 16.83 7.971 24.68 26.647 31.884 65.581 38.779 113.697 44.478z" />
            <path
                d="M46.093 1183.305c21.427-24.256 65.962-29.065 109.598-22.777 45.955 6.623 114.646 22.289 107.88 51.171s-29.147 48.981-57.341 55.663"
                fill="#fff" />
            <path
                d="M206.222 1277.364c-4.529 0-8.632-3.097-9.722-7.695-1.274-5.374 2.05-10.764 7.424-12.037 25.602-6.068 44.26-24.092 49.911-48.214.348-1.484.456-3.365-1.379-6.055-8.77-12.853-46.395-25.474-98.191-32.938-46.353-6.681-83.99.608-100.678 19.499-3.656 4.14-9.976 4.53-14.115.874s-4.53-9.976-.874-14.114c21.481-24.316 64.682-33.816 118.52-26.054 42.281 6.093 96.009 18.231 111.859 41.46 4.606 6.751 6.104 14.32 4.331 21.89-7.418 31.664-31.632 55.257-64.771 63.112a10.01 10.01 0 0 1-2.314.271z" />
            <path
                d="M205.692 1180.689c-14.598-58.989-68.825-66.793-71.482-85.413-6.766-47.408-35.139-65.108-52.629-65.108s-30.872 7.393-30.872 19.836 22.57 26.278 31.626 56.196c0 0 .109 48.223 16.593 64.753"
                fill="#fff" />
            <path
                d="M205.684 1190.691c-4.49 0-8.572-3.045-9.699-7.6-8.285-33.477-30.266-48.297-47.928-60.206-11.879-8.01-22.139-14.928-23.748-26.197-5.876-41.176-29.328-56.521-42.729-56.521-10.372 0-20.872 3.379-20.872 9.836 0 2.183 4.843 8.391 8.379 12.923 7.307 9.365 17.313 22.192 22.817 40.377.282.932.426 1.9.429 2.874.056 17.065 3.818 47.831 13.674 57.714 3.9 3.91 3.892 10.242-.019 14.143-3.91 3.899-10.242 3.892-14.142-.02-17.63-17.678-19.34-60.398-19.498-70.24-4.495-13.914-12.204-23.796-19.03-32.545-6.767-8.674-12.611-16.164-12.611-25.226 0-17.846 16.425-29.836 40.872-29.836 20.907 0 54.812 19.626 62.529 73.694.354 2.479 9.245 8.474 15.129 12.44 18.329 12.358 46.027 31.034 56.161 71.984 1.327 5.361-1.944 10.783-7.305 12.109-.807.2-1.615.295-2.41.295z" />
            <path
                d="M105.863 1239.692c-23.593 0-67.1 0-81.196-18.197-7.981-10.303-14.626-70.003-14.666-93.613-.049-28.692 41.362-25.69 43.423 1.612 1.994 26.416 4.2 60.2 4.2 60.2l48.24 16.939"
                fill="#fff" />
            <path
                d="M105.863 1249.691c-34.836 0-73.324-1.706-89.102-22.073C5.288 1212.808.027 1143.947 0 1127.897c-.029-17.148 11.617-29.575 28.32-30.219 15.812-.602 33.489 10.069 35.074 31.062 1.45 19.206 3.026 42.526 3.771 53.705l42.01 14.751c5.211 1.83 7.952 7.538 6.122 12.749-1.83 5.21-7.535 7.95-12.748 6.122l-48.239-16.938a10.001 10.001 0 0 1-6.666-8.784c-.022-.337-2.225-34.037-4.193-60.099-.726-9.61-8.986-12.82-14.361-12.582-4.154.16-9.104 2.06-9.09 10.2.02 11.613 1.736 32.1 4.174 49.818 3.479 25.282 7.033 35.732 8.426 37.726 11.065 14.283 54.65 14.283 73.262 14.283 5.523 0 10 4.478 10 10s-4.477 10-10 10z" />
            <path
                d="M146.839 1250.721c-20.677 0-69.733 0-81.196-19.799-6.833-11.802-14.88-79.674-14.933-105.22-.06-28.718 32.599-25.598 42.749.985s11.034 72.054 11.034 72.054l42.347 16.094"
                fill="#fff" />
            <path
                d="M146.839 1260.721c-37.333 0-77.203-2.945-89.851-24.788-8.79-15.181-16.231-87.639-16.279-110.209-.04-19.056 11.067-27.908 21.476-29.839 16.082-2.983 33.548 8.725 40.616 27.236 8.338 21.839 10.763 54.539 11.44 68.627l36.151 13.74c5.163 1.962 7.757 7.738 5.795 12.9-1.962 5.163-7.738 7.757-12.9 5.795l-42.347-16.095a9.998 9.998 0 0 1-6.445-9.153c-.009-.436-.979-44.062-10.378-68.682-4.401-11.528-13.511-15.585-18.284-14.705-4.25.789-5.132 5.945-5.123 10.133.06 28.081 8.695 91.779 13.587 100.229 1.871 3.23 8.255 9.145 29.992 12.448 15.534 2.361 32.446 2.361 42.55 2.361 5.523 0 10 4.478 10 10s-4.477 10-10 10z" />
            <path
                d="M190.94 1260.68c-16.916-3.927-68.725 5.166-81.196-19.674-5.824-11.601-8.53-71.842-4.071-100.611 3.618-23.344 37.224-22.793 41.962 3.287 4.502 24.777-2.057 66.067-2.057 66.067l45.362 8.575"
                fill="#fff" />
            <path
                d="M190.949 1270.682c-.749 0-1.509-.084-2.27-.261-3.678-.854-10.958-.93-18.666-1.009-24.265-.251-57.497-.594-69.207-23.918-7.473-14.885-9.431-78.142-5.016-106.63 2.323-14.989 13.951-25.19 28.934-25.385l.38-.002c13.178 0 28.812 8.838 32.369 28.418 3.419 18.821 1.015 45.604-.705 59.792l36.029 6.811c5.427 1.026 8.995 6.257 7.969 11.684s-6.258 8.992-11.684 7.969l-45.362-8.575a10.001 10.001 0 0 1-8.019-11.395c.062-.395 6.234-39.92 2.094-62.711-1.61-8.863-7.793-11.992-12.665-11.992h-.146c-2.446.031-8.262.918-9.43 8.449-4.494 28.993-1.14 86.096 3.126 94.592 6.238 12.426 33.5 12.707 51.54 12.894 9.215.095 17.173.178 22.981 1.525 5.38 1.249 8.729 6.623 7.48 12.002-1.072 4.619-5.186 7.741-9.732 7.741z" />
            <path
                d="M206.231 1267.362c-15.291 8.695-50.358 5.389-50.537-10.275-.256-22.424 18.786-80.276 28.264-94.991 9.472-14.706 44.874-10.549 35.242 15.979-9.304 25.621-13.537 43.541-18.612 59.846"
                fill="#fff" />
            <path
                d="M184.572 1282.106c-9.831 0-19.664-2.048-26.788-6.138-7.708-4.426-12.002-11.091-12.089-18.769-.279-24.49 19.528-84.483 29.856-100.52 8.651-13.432 28.638-15.871 41.164-9.663 9.997 4.956 18.369 16.614 11.885 34.47-6.276 17.284-10.222 31.069-13.704 43.231-1.614 5.64-3.139 10.966-4.759 16.173-1.642 5.272-7.249 8.22-12.52 6.576-5.273-1.641-8.218-7.246-6.577-12.52 1.553-4.988 3.047-10.208 4.628-15.733 3.571-12.476 7.619-26.616 14.132-44.554 2.692-7.414-.457-8.975-1.97-9.725-4.988-2.475-13.083-1.126-15.465 2.574-8.54 13.26-26.902 69.188-26.671 89.462.13.295 1.509 1.827 5.578 3.184 9.204 3.066 23.23 2.372 30.016-1.487 4.801-2.729 10.906-1.049 13.636 3.75 2.73 4.802 1.051 10.906-3.75 13.637-7.097 4.035-16.848 6.051-26.602 6.051zm316.113 121.515c-5.523 0-10-4.476-10.001-9.999-.006-54.371 25.136-190.372 31.89-222.035 1.152-5.401 6.464-8.844 11.866-7.694 5.401 1.152 8.846 6.465 7.693 11.866-6.661 31.227-31.456 165.072-31.45 217.861 0 5.522-4.476 10-9.999 10.001z" />
            <path
                d="M1506.179 1045.073c-34.551 4.103-48.793-9.862-78.821-27.438-24.584-14.39-47.328-33.712-75.211-39.542-19.91-4.163-41.159-1.065-60.35-7.808-9.063-3.185-11.806 6.442-20.26 1.881-23.994-12.945-12.159-19.129-35.511-33.201-122.902-74.064-196.711-180.377-162.353-347.113 6.118-29.692 43.453-87.916 82.236-84.884 28.712 2.244 34.566 20.534 58.231 36.949 15.937 11.054 31.522 23.647 40.963 40.589 4.119 7.392 7.364 15.92 14.507 20.456 6.49 4.121 14.838 3.998 21.79 7.281 8.568 4.047 13.888 12.625 19.013 20.596 15.681 24.389 34.197 47.388 57.553 64.57 16.038 11.799 138.648 117.48 152.36 131.917 57.6 59.621 35.368 213.221-14.147 215.747"
                fill="#fff" />
            <path
                d="M1381.884 843.473c8.044-48.71 29.658-125.771 33.783-155.564 4.125-29.794 14.24-59.437 33.579-82.473 6.157-7.333 13.541-14.669 14.639-24.181.915-7.934.23-26.212-.906-34.118-1.785-12.422 7.749-62.719 19.185-70.603 5.99-4.129 1.949-41.777 2.036-47.265.41-25.752 4.602-45.974 6.821-61.752s110.401-5.863 169.011.758c14.26 1.611 4.025 112.1 4.025 112.1 37.659 58.426-.444 218.595-33.583 322.294-11.394 35.655-21.579 79.601-27.284 116.595-3.531 22.899-11.788 48.564-21.221 69.726-14.165 31.78-30.316 56.084-75.789 56.084s-142.484-91.453-124.295-201.6z"
                fill="#fff" />
            <path
                d="M1249.42 1400.283a9.956 9.956 0 0 1-5.006-1.351c-4.778-2.771-6.406-8.889-3.636-13.667 3.689-6.362 6.859-35.537 5.103-84.559-1.604-44.76-6.639-88.438-13.14-113.988-7.493-29.444-5.278-63.405-3.661-88.202.682-10.46 1.456-22.315.592-25.501-11.294-41.666-10.857-70.34-9.208-113.674.104-2.717.232-5.44.36-8.169.14-2.959.278-5.889.384-8.783-20.278-11.947-51.831-36.186-51.68-59.023.04-6.044 2.463-17.225 18.241-24.195 6.735-2.975 13.908-2.828 20.745.426 15.986 7.609 25.955 30.545 29.325 42.897 2.533 9.286 3.399 18.64 3.536 27.927 14.071 6.555 26.915 14.542 37.291 20.994 6.954 4.323 13.521 8.407 16.447 9.436 9.696 3.407 20.413 3.974 31.759 4.573 8.91.472 18.124.958 27.322 2.882 22.281 4.658 41.049 16.894 59.2 28.727 6.225 4.058 12.661 8.254 19.016 11.974 5.142 3.01 9.725 5.85 14.156 8.596 20.671 12.812 33.148 20.553 58.435 17.541 30.945-3.674 55.036-21.511 67.835-50.225 9.825-22.043 17.287-46.529 20.472-67.18 5.901-38.266 16.235-82.421 27.642-118.114 11.686-36.569 32.809-108.133 42.975-176.551 9.831-66.163 6.97-113.634-8.271-137.281-2.992-4.643-1.654-10.831 2.988-13.823s10.831-1.655 13.823 2.987c44.19 68.56-7.981 254.146-32.463 330.756-11.108 34.76-21.175 77.778-26.926 115.075-3.445 22.333-11.453 48.676-21.971 72.273-15.553 34.893-46.077 57.471-83.744 61.943-32.232 3.827-49.486-6.865-71.329-20.402-4.326-2.681-8.798-5.453-13.723-8.335-6.77-3.963-13.412-8.293-19.835-12.48-17.367-11.321-33.77-22.015-52.371-25.904-7.694-1.608-15.753-2.035-24.284-2.485-12.257-.648-24.931-1.318-37.334-5.677-4.995-1.755-11.447-5.768-20.377-11.321-7.889-4.905-17.271-10.74-27.317-15.967-.121 2.562-.241 5.12-.338 7.67-1.625 42.691-2.03 68.742 8.526 107.682 1.657 6.113 1.161 15.188.062 32.035-1.53 23.463-3.625 55.596 3.085 81.969 6.828 26.831 12.094 72.124 13.745 118.203 1.032 28.799 1.393 79.474-7.787 95.307a9.997 9.997 0 0 1-8.661 4.986zm-51.801-523.232c-.641 0-1.202.165-1.767.415-6.302 2.784-6.318 5.229-6.324 6.033-.055 8.341 14.71 23.334 31.064 34.849-.444-3.594-1.103-7.124-2.048-10.59-3.671-13.458-12.027-26.962-18.626-30.103-.908-.432-1.645-.604-2.3-.604z" />
            <path
                d="M1419.699 812.708c-3.409 0-6.916-.64-10.411-1.958-13.328-5.028-21.346-18.129-19.065-31.149.949-5.416 1.934-10.979 2.936-16.634 1.896-10.705 3.819-21.562 5.659-32.333-6.075-4.784-12.756-9.112-19.679-13.599-5.649-3.66-11.49-7.444-17.099-11.571-21.479-15.801-41.117-37.787-60.039-67.216l-.475-.739c-4.467-6.955-8.687-13.525-14.399-16.224-2.125-1.004-4.882-1.648-7.802-2.332-4.704-1.1-10.035-2.347-15.077-5.548-8.015-5.091-12.075-12.926-15.658-19.839-.765-1.476-1.487-2.87-2.224-4.193-8.751-15.704-24.083-27.638-37.927-37.239-8.539-5.923-14.87-12.007-20.455-17.374-10.404-9.998-17.278-16.604-32.855-17.821-11.613-.913-25.539 5.55-39.201 18.187-20.19 18.673-32.255 43.507-32.255 56.728 0 5.522-4.477 10-10 10s-10-4.478-10-10c0-20.651 16.266-50.685 38.676-71.41 17.802-16.466 37.107-24.802 54.339-23.443 22.715 1.775 33.615 12.25 45.155 23.341 5.293 5.086 10.767 10.346 17.995 15.36 15.729 10.909 33.257 24.661 43.999 43.938.885 1.588 1.711 3.184 2.511 4.726 2.654 5.122 5.162 9.96 8.623 12.158 2.177 1.383 5.297 2.112 8.91 2.958 3.63.849 7.744 1.812 11.789 3.722 10.899 5.148 17.161 14.898 22.685 23.5l.469.73c17.578 27.339 35.59 47.594 55.067 61.923 5.131 3.774 10.47 7.233 16.123 10.896 4.139 2.682 8.329 5.396 12.462 8.265a1117.286 1117.286 0 0 0 3.284-21.978c4.935-35.645 16.989-65.095 35.827-87.531.831-.99 1.684-1.98 2.542-2.977 4.741-5.505 9.22-10.705 9.822-15.922.788-6.828.163-24.359-.871-31.549-1.269-8.83 1.499-26.823 4.804-40.737 6.326-26.63 13.146-35.025 16.816-38.169 1.029-4.192.988-15.175-.124-32.701-.263-4.14-.399-6.369-.375-7.844.333-20.93 3.086-38.362 5.298-52.37.594-3.761 1.155-7.312 1.62-10.615 2.009-14.288 21.281-18.635 73.646-16.62 35.345 1.36 77.364 5.555 106.39 8.834 15.685 1.772 16.269 25 16.548 36.162.391 15.553-.828 34.802-2.006 53.417-.774 12.232-1.506 23.787-1.641 32.611a10 10 0 0 1-15.021 8.494c-26.59-15.442-102.095-13.008-128.46-8.571-5.444.924-10.604-2.756-11.521-8.202s2.756-10.604 8.202-11.521c23.706-3.99 89.358-7.112 127.348 4.854.31-5.94.715-12.338 1.132-18.928.989-15.621 2.011-31.774 2.039-45.43.03-14.439-1.15-20.766-1.924-23.357-104.155-11.636-145.649-9.527-155.357-6.001-.383 2.566-.803 5.225-1.24 7.993-2.224 14.084-4.746 30.048-5.056 49.568-.011.761.174 3.682.338 6.259 1.907 30.042 1.398 43.501-6.697 49.081-1.895 1.584-6.561 10.785-10.688 28.492-3.772 16.181-4.78 28.933-4.274 32.456 1.265 8.802 1.962 27.84.942 36.686-1.307 11.321-8.335 19.482-14.536 26.682-.802.932-1.6 1.857-2.377 2.784-16.38 19.51-26.922 45.556-31.333 77.414-1.505 10.871-3.273 22.176-5.174 33.647a97.249 97.249 0 0 1 2.857 2.885c32.55 34.269 28.96 58.531 20.216 72.851-5.542 9.078-14.273 14.044-23.772 14.045zm-3.582-64.756a9908.15 9908.15 0 0 1-3.265 18.502c-1 5.644-1.982 11.193-2.929 16.598-.7 3.998 2.788 7.613 6.425 8.985 4.171 1.575 7.553.298 10.053-3.796 6.362-10.419 2.899-23.944-10.285-40.289zM549.575 548.328a9.952 9.952 0 0 1-4.021-.85c-5.056-2.224-7.351-8.124-5.127-13.18 11.523-26.195 41.321-36.231 65.737-34.555 22.145 1.52 42.839 10.921 59.467 18.476 5.028 2.284 7.252 8.213 4.968 13.24-2.284 5.03-8.213 7.254-13.241 4.969-19.28-8.759-35.394-15.553-52.564-16.731-13.015-.886-37.359 2.874-46.061 22.654a10.004 10.004 0 0 1-9.159 5.977z" />
        </svg>
    </g>
    <g
        transform="translate(1813.0434782608695 862.1739130434783) rotate(0.0 105.0 104.3478260869565) scale(1.3086884449042164 1.312130399519104)">
        <svg width="160.466" height="159.051" viewBox="0 0 160.466 159.051">
            <defs>
                <style>.cls-1,.cls-2{fill:#000;stroke-width:0}.cls-2{fill:#fff}</style>
            </defs>
            <g id="upload-2-i3" data-name="upload">
                <path class="cls-2"
                    d="M10 94.999c6.118-29.692 43.453-87.915 82.236-84.884 28.712 2.244 34.566 20.534 58.231 36.949C155.67 50.673-24.357 261.737 10.001 95Z" />
                <path class="cls-1"
                    d="M10 104.999c-5.522 0-10-4.478-10-10C0 74.348 16.265 44.316 38.675 23.59 56.478 7.125 75.784-1.199 93.015.145c22.716 1.775 33.615 12.25 45.155 23.34 5.293 5.087 10.767 10.347 17.995 15.361 4.538 3.147 5.665 9.378 2.518 13.916-3.148 4.537-9.379 5.665-13.916 2.518-8.539-5.923-14.869-12.007-20.455-17.374-10.404-9.998-17.277-16.604-32.855-17.821-11.606-.922-25.538 5.55-39.202 18.188C32.066 56.947 20.001 81.779 20.001 95c0 5.522-4.478 10-10 10Z" />
            </g>
        </svg>
    </g>
    <g
        transform="translate(247.82608695652175 1524.7826086956522) rotate(0.0 285.0 120.0) scale(1.3022201711619916 1.3031084566309217)">
        <svg width="437.714" height="184.175" viewBox="0 0 437.714 184.175">
            <path
                d="M13.565 100.152c3.879 5.638 389.825 70.404 403.476 73.834 12.321 3.096 10.588-32.703 10.588-32.703L18.902 12.86s-4.326 19.081-7.357 31.207c-2.496 9.984-2.066 50.145 2.021 56.084z" />
            <path
                d="M418.526 184.179a16.08 16.08 0 0 1-3.92-.494c-4.029-1.007-48.458-8.727-99.901-17.665-59.905-10.408-134.458-23.362-195.029-34.311-32.916-5.95-58.593-10.752-76.317-14.271-10.014-1.988-17.807-3.63-23.162-4.88-8.453-1.973-12.299-3.003-14.869-6.737C3.953 103.823.733 99.144.09 73.882-.179 63.32.119 48.541 1.844 41.643 4.813 29.764 9.107 10.84 9.15 10.651A10.002 10.002 0 0 1 21.9 3.322l408.728 128.421a10 10 0 0 1 6.991 9.057c.014.29.337 7.194-.292 14.943-1.032 12.703-3.981 20.643-9.282 24.986-2.777 2.276-6.063 3.451-9.518 3.451zM21.516 92.344c28.937 7.463 201.582 37.46 296.612 53.971 54.59 9.485 86.903 15.111 97.747 17.219.963-3.213 1.657-8.941 1.824-14.89L26.225 25.643c-1.493 6.433-3.413 14.585-4.979 20.85-1.9 7.602-1.55 35.561.27 45.852zm.734 2.917z" />
            <path
                d="M21.234 79.974c-.663 6.811 390.162 77.622 404.14 72.041 6.568-2.623-4.472-66.939-21.221-72.815s-51.578-15.533-91.843-22.53S113.181 24.912 98.336 20.643C71.715 12.988 31.869 9.002 21.65 10.215s.247 62.948-.415 69.76z"
                fill="#fff" />
            <path
                d="M422.365 162.319c-7.449 0-24.046-1.659-65.788-8.077-35.921-5.523-84.119-13.653-135.713-22.893-50.482-9.041-98.527-18.116-135.284-25.556-64.132-12.979-67.569-15.559-70.079-17.442-2.943-2.21-4.518-5.625-4.236-9.166.024-1.641-.644-7.824-1.233-13.287-1.098-10.167-2.601-24.093-2.849-35.504C6.982 21.157 6.563 1.936 20.47.285c12.088-1.432 53.019 2.81 80.629 10.748 9.267 2.665 85.836 15.056 141.745 24.103 30.881 4.998 57.552 9.313 71.178 11.682 41.005 7.127 75.964 16.815 93.441 22.946 21.662 7.602 29.524 59.002 29.819 72.867.097 4.568.324 15.268-8.2 18.672-1.244.496-2.546 1.017-6.718 1.017zM30.894 73.172c19.097 5.397 90.779 20.086 192.807 38.366 104.946 18.804 172.724 29.014 193.566 30.599-.247-5.787-1.487-15.44-4.34-26.445-5.026-19.391-10.564-26.179-12.174-27.087-18.104-6.342-52.967-15.62-90.155-22.083-13.511-2.349-40.128-6.656-70.948-11.644-75.731-12.255-134.427-21.85-144.078-24.625-23.175-6.664-55.045-10.094-68.186-10.256-1.129 9.837 1.472 33.941 2.531 43.754.426 3.945.752 7 .977 9.421zm-19.613 5.833a8.177 8.177 0 0 0-.009.103l.009-.102z" />
            <ellipse cx="337.38" cy="102.881" fill="#72caaf" rx="15.361" ry="47.417"
                transform="matrix(.15963998 -.9871753 .9871753 .15963998 181.962 419.511)" />
        </svg>
    </g>
    <g
        transform="translate(376.95652173913044 1587.391304347826) rotate(0.0 150.65217391304347 121.9565217391305) scale(1.305223625489341 1.306856711431363)">
        <svg width="230.845" height="186.641" viewBox="0 0 230.845 186.641">
            <g id="upload-2-i5" data-name="upload">
                <g>
                    <path class="cls-2"
                        d="M105.863 144.263c-23.593 0-67.1 0-81.196-18.197-7.981-10.303-14.626-70.003-14.666-93.613-.049-28.692 41.362-25.69 43.423 1.612 1.994 26.416 4.2 60.2 4.2 60.2l48.24 16.939" />
                    <path class="cls-1"
                        d="M105.862 154.263c-34.837 0-73.324-1.706-89.102-22.074C5.289 117.381.027 48.519 0 32.468-.029 15.32 11.617 2.893 28.321 2.25c15.837-.617 33.488 10.07 35.073 31.062 1.45 19.206 3.026 42.526 3.771 53.705l42.01 14.752c5.211 1.83 7.951 7.538 6.122 12.749-1.83 5.211-7.536 7.953-12.749 6.122l-48.239-16.939a10 10 0 0 1-6.665-8.784c-.022-.338-2.225-34.037-4.193-60.099-.703-9.319-8.493-12.592-13.866-12.592-.167 0-.331.004-.494.01-4.154.16-9.104 2.06-9.091 10.2.02 11.613 1.736 32.1 4.175 49.818 3.479 25.282 7.032 35.732 8.426 37.726 11.065 14.284 54.65 14.284 73.262 14.284 5.522 0 10 4.478 10 10s-4.478 10-10 10Z" />
                </g>
                <g>
                    <path class="cls-2"
                        d="M146.839 155.292c-20.677 0-69.733 0-81.196-19.799-6.833-11.802-14.88-79.674-14.933-105.22-.06-28.718 32.599-25.598 42.749.985 10.15 26.583 11.034 72.054 11.034 72.054l42.347 16.094" />
                    <path class="cls-1"
                        d="M146.839 165.292c-37.334 0-77.204-2.945-89.851-24.788-8.79-15.181-16.231-87.639-16.279-110.208C40.669 11.24 51.775 2.388 62.184.457 78.278-2.522 95.732 9.183 102.8 27.691c8.339 21.841 10.764 54.541 11.44 68.629l36.151 13.739c5.162 1.962 7.757 7.737 5.795 12.9-1.963 5.162-7.736 7.757-12.9 5.795l-42.347-16.094a10 10 0 0 1-6.445-9.153c-.009-.436-.979-44.062-10.378-68.683-4.403-11.528-13.521-15.585-18.284-14.704-4.25.788-5.132 5.945-5.123 10.132.059 28.082 8.694 91.778 13.588 100.229 1.87 3.23 8.254 9.145 29.991 12.448 15.535 2.361 32.446 2.361 42.551 2.361 5.522 0 10 4.478 10 10s-4.478 10-10 10Z" />
                </g>
                <g>
                    <path class="cls-2"
                        d="M190.94 165.251c-16.916-3.927-68.725 5.166-81.196-19.674-5.824-11.601-8.53-71.842-4.071-100.611 3.618-23.344 37.224-22.793 41.962 3.287 4.502 24.777-2.057 66.067-2.057 66.067l45.362 8.575" />
                    <path class="cls-1"
                        d="M190.948 175.254c-.749 0-1.51-.084-2.271-.261-3.679-.854-10.959-.93-18.667-1.01-24.264-.251-57.494-.595-69.204-23.918-7.474-14.885-9.432-78.142-5.016-106.629 2.323-14.989 13.95-25.19 28.934-25.385.126-.002.254-.003.381-.003 13.178 0 28.811 8.838 32.368 28.417 3.419 18.822 1.015 45.605-.705 59.793l36.028 6.811c5.427 1.026 8.994 6.257 7.969 11.684-1.026 5.426-6.26 8.983-11.684 7.969l-45.361-8.575a10.001 10.001 0 0 1-8.019-11.395c.062-.395 6.233-39.92 2.094-62.711-1.627-8.952-7.904-12.094-12.812-11.991-2.446.032-8.262.919-9.429 8.449-4.493 28.994-1.141 86.096 3.125 94.592 6.238 12.425 33.499 12.707 51.538 12.894 9.216.096 17.175.178 22.983 1.526 5.38 1.25 8.729 6.623 7.479 12.003-1.073 4.619-5.187 7.74-9.732 7.74Z" />
                </g>
                <g>
                    <path class="cls-2"
                        d="M206.231 171.934c-15.291 8.695-50.358 5.389-50.537-10.275-.256-22.424 18.786-80.276 28.264-94.991 9.472-14.706 44.874-10.549 35.242 15.979-9.304 25.621-13.537 43.541-18.612 59.846" />
                    <path class="cls-1"
                        d="M184.571 186.677c-9.83 0-19.663-2.047-26.787-6.137-7.709-4.427-12.002-11.092-12.089-18.769-.28-24.492 19.527-84.485 29.855-100.52 8.651-13.431 28.638-15.874 41.163-9.663 9.997 4.956 18.369 16.614 11.885 34.47-6.277 17.288-10.224 31.075-13.706 43.239-1.613 5.637-3.137 10.96-4.757 16.165-1.642 5.272-7.249 8.216-12.52 6.577-5.273-1.642-8.218-7.247-6.576-12.521 1.551-4.985 3.044-10.202 4.625-15.725 3.571-12.479 7.62-26.621 14.135-44.562 2.692-7.414-.456-8.975-1.97-9.726-4.985-2.472-13.082-1.125-15.465 2.575-8.54 13.259-26.903 69.188-26.672 89.462.131.295 1.51 1.828 5.581 3.184 9.204 3.064 23.229 2.369 30.013-1.487 4.799-2.73 10.904-1.053 13.636 3.749 2.73 4.801 1.052 10.906-3.749 13.636-7.097 4.036-16.849 6.052-26.603 6.052Z" />
                </g>
            </g>
        </svg>
    </g>
    <g
        transform="translate(1411.304347826087 554.3478260869565) rotate(0.0 300.0 697.8260869565217) scale(1.3019816160195818 1.3039432380915859)">
        <svg width="460.836" height="1070.332" viewBox="0 0 460.836 1070.332">
            <path
                d="M82.468 386.5c17.008-2.896 68.164-22.033 107.787-47.768 70.474-45.773 122.513-86.682 189.819-155.035 17.19-17.457 63.44-78.225 70.276-102.934S389.806.206 379.32 11.486c-14.039 15.103-55.732 48.909-82.142 75.956-12.504 12.806-8.955 19.284 1.467 33.834 10.248 14.307 5.345 19.832 1.314 24.531-32.939 38.396-64.373 65.356-81.044 79.52s-53.105 40.412-63.675 31.372c-12.683-10.848-35.977-40.361-47.598-34.138-23.239 12.444-101.135 69.987-97.52 85.185 3.616 15.197 55.337 81.65 72.346 78.754z"
                fill="#72caaf" />
            <path
                d="M81.348 396.592c-6.517 0-13.993-3.667-23.24-11.346-9.141-7.591-18.335-17.699-24.438-24.843C19.452 343.764 2.976 320.913.394 310.06c-2.013-8.457 1.695-20.816 42.106-53.696 20.691-16.836 47.231-35.557 60.421-42.618 15.312-8.204 32.851 9.538 48.326 25.187 3.648 3.689 7.109 7.189 9.858 9.616h.036c1.555 0 7.576-.695 21.875-9.408 13.763-8.388 26-18.526 29.423-21.435 15.161-12.881 46.709-39.686 79.93-78.41l.088-.103c1.079-1.258 2.194-2.558 2.271-3.244.029-.263.161-2.743-4.214-8.851-9.577-13.371-19.48-27.196-.492-46.644 14.494-14.844 33.276-31.479 49.847-46.156 13.365-11.837 25.988-23.018 32.127-29.622 6.245-6.718 16.456-6.19 30.35 1.572 12.966 7.242 28.156 19.928 39.644 33.106 15.208 17.446 21.264 32.274 17.999 44.073-7.415 26.806-54.906 89.123-72.789 107.284-63.78 64.771-115.682 107.161-191.497 156.405-42.021 27.292-94.168 46.278-111.556 49.24-.913.155-1.846.233-2.798.233zm1.12-10.091h.01zm-1.658-9.862-.021.003.021-.003zm-60.591-70.084c2.169 5.536 12.05 21.068 26.792 38.654 18.019 21.494 30.393 30.522 34.256 31.349 15.621-2.866 65.347-21.405 103.541-46.213 74.484-48.378 125.476-90.025 188.142-153.665 17.591-17.864 61.848-77.201 67.764-98.583.592-2.141-.651-8.72-9.068-19.804-14.922-19.653-38.608-36.144-46.81-38.1-7.062 7.251-18.562 17.437-31.705 29.077-16.316 14.452-34.81 30.832-48.797 45.157-3.588 3.674-5.303 6.38-5.096 8.042.371 2.978 4.513 8.761 7.537 12.982 12.993 18.139 7.727 28.764.86 36.766l-.086.1c-34.248 39.923-66.608 67.417-82.16 80.631-4.226 3.59-19.283 16.035-35.611 25.433-12.306 7.084-29.949 15.404-41.038 5.918-3.475-2.973-7.477-7.019-11.713-11.303-6.021-6.087-19.887-20.108-25.392-21.224-9.994 5.499-31.509 20.112-52.855 37.158-26.897 21.478-36.697 33.505-38.561 37.624z" />
            <path
                d="M110.161 386.147c-4.232 0-8.162-2.707-9.521-6.953-3.659-11.426-12.598-21.136-21.242-30.524l-52.043-56.535c-3.74-4.062-3.479-10.39.585-14.13 4.063-3.739 10.39-3.477 14.13.585l52.043 56.534c9.642 10.473 20.57 22.344 25.574 37.971 1.685 5.26-1.214 10.889-6.474 12.573a9.986 9.986 0 0 1-3.052.479zm189.388-229.209a9.955 9.955 0 0 1-5.961-1.978c-4.431-3.296-5.352-9.561-2.055-13.992 3.764-5.06 10.277-12.236 17.173-19.834 4.754-5.238 11.451-12.618 14.697-16.752-1.737-3.494-5.824-10.969-15.407-26.54-2.895-4.704-1.428-10.863 3.275-13.758 4.705-2.896 10.864-1.427 13.758 3.275 19.734 32.067 19.571 34.936 19.365 38.567-.312 5.5-3.97 10.017-20.879 28.647-6.27 6.909-12.754 14.053-15.936 18.331a9.987 9.987 0 0 1-8.031 4.032zm60.914 913.395c-.454 0-.914-.031-1.377-.095-62.9-8.662-92.802-46.95-116.828-77.715-8.478-10.855-16.485-21.108-24.933-28.776-8.2-7.442-21.047-31.382-19.309-54.274-12.775-16.165-13.392-41.756-14.043-68.716-.622-25.778-1.266-52.435-12.637-69.256-.512-.746-2.609-2.722-4.295-4.309-8.44-7.95-22.567-21.255-31.045-47.594-2.965-9.211-3.46-18.539-2.147-27.415-5.767-4.805-10.578-11.048-14.13-18.553-9.138-19.303-19.649-33.715-28.924-46.43-16.99-23.294-31.663-43.411-24.39-77.221a67.67 67.67 0 0 1 3.885-12.318 168.012 168.012 0 0 1-6.377-5.543c-15.422-14.121-33.348-35.869-31.162-59.286 1.585-16.98-4.021-24.734-8.968-31.576-2.224-3.075-4.323-5.98-5.728-9.467-13.048-32.406 4.42-65.959 23.229-94.507 3.038-4.612 9.239-5.887 13.853-2.849 4.611 3.039 5.887 9.24 2.849 13.853-15.957 24.22-30.976 52.193-21.377 76.032.491 1.22 1.896 3.162 3.383 5.22 5.956 8.238 14.957 20.688 12.674 45.153-1.325 14.193 11.508 31.517 28.466 46.024a54.228 54.228 0 0 1 12.728-10.231c12.479-7.237 27.422-8.913 41-4.597 15.075 4.794 25.663 21.332 23.604 36.867-.74 5.58-5.286 23.883-32.71 25.096a9.89 9.89 0 0 1-3.378-.431c-10.822-3.324-23.323-9.571-35.322-17.426a49.542 49.542 0 0 0-1.094 4.192c-5.39 25.053 4.542 38.669 20.995 61.228 9.796 13.43 20.897 28.651 30.842 49.659a39.196 39.196 0 0 0 3.102 5.43c4.999-9.71 11.977-17.896 19.581-23.394 13.739-9.933 28.674-10.95 39.95-2.726 11.042 8.056 15.595 19.037 12.49 30.131-4.182 14.948-21.955 27.048-42.262 28.771-6.109.521-11.979.056-17.479-1.312.054 3.847.64 7.715 1.856 11.496 6.9 21.438 18.226 32.104 25.72 39.162 3.026 2.852 5.418 5.103 7.151 7.667 14.655 21.679 15.37 51.314 16.062 79.974.394 16.283.771 31.98 3.829 43.736 4.242-5.236 9.794-9.601 16.562-12.97 16.344-8.132 32.326-7.424 42.755 1.9 8.328 7.447 11.237 19.03 7.411 29.51-4.923 13.482-19.475 21.873-38.926 22.444-6.114.172-11.705-.425-16.752-1.803 2.477 12.152 8.928 23.131 11.919 25.847 9.715 8.817 18.234 19.726 27.254 31.275 22.937 29.369 48.933 62.656 103.794 70.212 5.472.753 9.296 5.8 8.542 11.271-.689 5.009-4.977 8.637-9.894 8.637zM219.982 902.234c3.907 1.972 8.885 2.849 15.029 2.668 12.914-.379 19.174-5.059 20.727-9.312 1.018-2.786.269-5.753-1.955-7.74-4.1-3.667-11.77-3.257-20.514 1.095-6.515 3.243-10.907 7.624-13.287 13.289zm-62.665-219.853c4.378 1.188 8.518 1.242 11.648.979 12.502-1.062 23.048-8.353 24.693-14.232.283-1.012 1.144-4.09-5.018-8.584-5.662-4.133-13.388.564-16.445 2.775-6.031 4.36-11.396 11.152-14.879 19.062zm-60.084-149.53c9.973 6.611 20.27 11.891 29.322 14.909 5.452-.481 11.368-2.263 12.08-7.635.788-5.942-3.992-13.319-9.836-15.178-8.337-2.648-17.182-1.641-24.907 2.838a33.9 33.9 0 0 0-6.659 5.065z" />
        </svg>
    </g>
    <g
        transform="translate(1001.7391304347826 806.0869565217391) rotate(0.0 311.0869565217392 554.3478260869565) scale(1.3028837889572271 1.303208668392115)">
        <svg width="477.536" height="850.743" viewBox="0 0 477.536 850.743">
            <path
                d="M325.917 832.53c-14.038-9.831-106.77-226.845-137.606-314.778-7.876-22.458-23.071-94.773-18.485-119.016 1.913-10.115 19.247-21.741 40.24-27.135 8.722-2.241 68.412 4.761 71.051 13.062 6.065 19.07 34.143 76.972 46.145 111.67 5.682 16.428-44.985 38.873-60.678 46.917-15.431 7.91 51.965 141.542 65.397 138.31 16.118-3.879 63.793-6.706 71.541 3.669 15.493 20.746 65.668 99.691 63.973 108.786-1.462 7.845-19.585 26.23-38.482 40.468-17.033 12.834-96.44 2.707-103.095-1.953z"
                fill="#85cbf8" />
            <path
                d="M392.804 850.759c-6.07 0-12.7-.237-19.892-.714-.436-.028-43.636-2.955-52.73-9.323-3.389-2.374-12.391-8.678-65.943-132.317-30.369-70.114-60.655-145.401-75.363-187.343-8.209-23.41-23.869-97.782-18.873-124.185 3.122-16.507 26.145-29.453 47.575-34.961 9.727-2.5 40.508 2.179 41.812 2.379 34.676 5.321 39.396 11.482 41.258 17.337 2.62 8.239 10.174 25.479 18.172 43.731 9.966 22.746 21.262 48.526 27.894 67.702 5.784 16.72-14.764 30.585-21.517 35.141-12.213 8.241-27.466 15.747-37.559 20.714-1.187.584-2.304 1.133-3.337 1.646.58 7.798 7.626 30.031 23.668 62.702 15.963 32.509 29.458 52.517 34.992 57.855 9.955-1.93 24.933-3.149 38-3.073 29.025.205 37.057 6.488 40.573 11.196 8.453 11.318 25.204 36.92 38.965 59.551 28.672 47.154 27.605 52.874 26.827 57.051-3.163 16.97-40.699 45.42-42.296 46.622-7.318 5.515-21.486 8.289-42.226 8.289zm-61.134-26.598c4.925 1.583 23.029 4.775 44.804 6.068 30.412 1.81 43.553-1.496 46.521-3.732 19.308-14.548 31.604-28.435 34.273-33.513-4.389-13.899-44.891-79.08-61.523-101.455-1.621-1.071-8.938-3.484-26.185-3.484-.283 0-.567 0-.857.002-14.01.064-27.901 1.677-34.382 3.236-8.499 2.046-15.337-5.037-21.465-12.993-4.981-6.471-11.013-15.837-17.442-27.088-12.806-22.407-25.522-49.175-33.187-69.855-3.78-10.199-6.233-18.646-7.292-25.104-1.832-11.176.552-18.541 7.087-21.892a508.542 508.542 0 0 1 6.784-3.377c9.033-4.445 21.404-10.533 31.938-17.214 13.777-8.737 16.42-13.553 16.881-14.693-6.399-18.374-17.405-43.491-27.126-65.678-7.867-17.954-14.749-33.661-18.099-43.267-9.946-4.836-52.162-10.121-59.966-8.806-20.112 5.197-32.031 15.305-32.782 19.277-3.952 20.883 10.053 90.913 18.095 113.849 14.229 40.576 43.687 113.895 73.299 182.441 38.286 88.625 55.777 121.198 60.624 127.276zm.557.641v.002-.002zM212.555 381.287l-.025.006.025-.006z" />
            <path
                d="M325.917 832.53c-13.986-10.102-45.425-39.087-69.631-79.662-43.053-72.168-71.708-131.837-101.958-222.871-7.726-23.25-23.354-84.825-18.588-110.016s74.016-52.213 74.978-46.498c3.42 20.335 40.104 103.257 52.042 127.326-15.509 8.319-41.572 35.541-40.027 41.536 12.622 48.989 64.449 160.848 77.922 157.397 16.168-4.141 31.049-23.571 38.193-12.491 3.867 5.997 32.579 60.486 62.018 111.508-9.949 12.044-60.962 43.873-74.948 33.771z"
                fill="#85cbf8" />
            <path
                d="M333.343 844.486c-5.32 0-9.731-1.285-13.281-3.849-15.05-10.871-47.228-40.511-72.363-82.646-46.316-77.636-74.194-138.574-102.86-224.842-5.144-15.479-24.681-84.603-18.925-115.027 2.49-13.162 15.642-26.348 39.09-39.189 14.405-7.891 34.606-16.224 43.854-16.224h.153c6.945.071 10.814 4.629 11.568 9.114 3.035 18.047 38.262 98.576 51.14 124.541a10.003 10.003 0 0 1-4.231 13.256c-12.335 6.617-30.579 25.729-34.454 32.556 5.806 21.319 19.008 55.184 34.085 87.322 16.83 35.877 28.798 54.281 33.993 59.57 3.87-1.573 7.967-4.202 11.955-6.761 4.916-3.155 9.559-6.135 14.39-7.558 8.137-2.396 15.351.186 19.797 7.081 1.588 2.463 5.684 9.958 14.059 25.323 11.923 21.874 29.94 54.932 48.216 86.605a10.001 10.001 0 0 1-.951 11.367c-6.177 7.477-22.601 19.122-39.051 27.69-14.958 7.79-26.94 11.667-36.182 11.667zm-1.722-20.172c1.907.653 11.188.143 30.428-10.165 10.605-5.683 20.346-12.305 26.254-17.18-17.027-29.74-33.432-59.838-44.553-80.242-5.275-9.679-9.964-18.28-12.194-22.179-2.182 1.059-5.375 3.108-7.689 4.593-6.054 3.885-12.914 8.287-20.73 10.289-9.773 2.5-17.85-6.389-26.968-20.513-6.874-10.648-15.104-25.817-23.803-43.867-17.351-36.006-33.151-76.277-39.317-100.21-1.327-5.153-.296-12.271 16.094-29.321 6.912-7.192 14.225-13.625 20.766-18.346-12.665-26.818-38.634-85.798-46.823-113.102-6.697 2.076-17.728 6.46-29.052 12.721-19.56 10.813-27.56 20.251-28.467 25.047-4.021 21.248 9.535 78.771 18.252 105.004 28.165 84.76 55.555 144.63 101.057 220.902 23.421 39.261 53.803 67.173 66.747 76.568z" />
            <path d="m458.302 795.336-60.634.836-58.821-108.921 59.728-5.69 59.728 113.775z" />
            <path
                d="M397.668 806.171c-3.67 0-7.051-2.013-8.798-5.248l-58.821-108.92a9.998 9.998 0 0 1 7.851-14.707l59.728-5.69a10.003 10.003 0 0 1 9.803 5.307l59.728 113.775a10 10 0 0 1-8.717 14.648l-60.634.835h-.139zm-42.852-110.396 48.772 90.314 38.288-.527-49.036-93.409zM210.717 373.482l70.4 11.181 41.332 118.825a345.535 345.535 0 0 0-62.725-6.377" />
            <path
                d="M322.45 513.489a9.959 9.959 0 0 1-1.916-.186 336.125 336.125 0 0 0-60.908-6.191c-5.522-.055-9.955-4.576-9.901-10.099.055-5.489 4.521-9.901 9.998-9.901h.101a356.18 356.18 0 0 1 47.623 3.685l-33.808-97.195-64.49-10.242c-5.455-.866-9.174-5.99-8.308-11.444.865-5.455 5.99-9.179 11.444-8.308l70.4 11.181a10 10 0 0 1 7.877 6.591l41.332 118.825a9.998 9.998 0 0 1-9.445 13.285zM177.983 389.85c-.298 0-.599-.014-.901-.041-5.501-.49-9.562-5.349-9.07-10.85.142-1.594-.076-3.514-2.771-5.655-5.286-4.2-15.735-5.603-23.288-3.124-4.681 1.535-9.397 3.719-14.393 6.029-11.402 5.276-24.324 11.259-38.814 9.47-22.89-2.824-40.745-25.63-39.802-50.838a58.56 58.56 0 0 1 1.758-12.136c-14.018-7.589-26.462-19.895-35.824-35.622-15.441-25.941-19.089-56.009-9.759-80.431 3.517-9.205 9.129-17.667 16.271-24.687a81.566 81.566 0 0 1-3.071-5.904c-8.676-18.479-10.013-39.292-3.667-57.102s20.543-33.088 38.95-41.917a82.044 82.044 0 0 1 4.925-2.166 69.257 69.257 0 0 1-1.931-10.348c-1.543-14.291 1.533-27.552 8.898-38.35C77.62 8.399 101.007-1.563 126.522.191c22.143 1.52 42.838 10.922 59.467 18.477 5.028 2.284 7.253 8.213 4.969 13.241-2.285 5.027-8.216 7.25-13.24 4.968-19.282-8.76-35.396-15.555-52.564-16.732-18.183-1.246-35.117 5.547-43.139 17.306-6.522 9.563-7.118 21.465-4.167 32.348 11.237-1.479 22.519-.47 32.823 3.106 16.774 5.821 37.669 16.328 41.954 33.326 1.683 6.671 1.443 17.067-9.247 28.712-6.903 7.517-14.679 11.076-23.117 10.533-17.721-1.109-31.404-20.374-42.399-35.853-2.369-3.334-4.606-6.484-6.583-9.012a69.964 69.964 0 0 1-5.041-7.381c-14.806 5.843-27.412 17.468-32.748 32.443-5.15 14.455-3.079 30.776 4.063 44.383 11.745-6.262 24.651-8.63 36.915-6.69 11.068 1.751 21.567 8.652 26.747 17.581 3.839 6.617 4.538 13.99 1.971 20.762-6.146 16.202-26.828 19.665-43.275 13.648-9.798-3.583-18.806-9.55-26.37-17.283-4.117 4.505-7.488 9.825-9.74 15.717-7.166 18.758-4.077 42.332 8.262 63.063 7.134 11.985 16.311 21.396 26.497 27.336 5.307-8.738 12.676-16.833 21.793-23.742 10.002-7.579 19.286-11.149 28.419-10.893 12.415.34 26.019 9.684 26.349 24.186.163 7.177-3.112 14.381-9.47 20.834-13.634 13.843-35.422 19.558-56.028 15.196a36.947 36.947 0 0 0-.693 5.818c-.484 12.944 8.541 28.547 22.265 30.24 8.826 1.091 18.122-3.215 27.966-7.771 5.295-2.45 10.77-4.983 16.558-6.883 14.094-4.623 31.351-1.964 41.964 6.469 7.414 5.891 11.054 14.092 10.25 23.094-.464 5.198-4.827 9.11-9.948 9.111zM78.12 310.939c12.669 1.494 25.268-2.264 33.283-10.399 2.367-2.403 3.759-4.774 3.724-6.345-.045-1.947-3.399-4.552-6.901-4.647-4.403-.122-9.559 2.117-15.794 6.842-5.707 4.323-10.539 9.277-14.311 14.55zM49.926 186.218c4.896 4.48 10.573 8.059 16.853 10.355 6.75 2.468 16.15 2.144 17.706-1.957.182-.48.608-1.604-.57-3.634-2.139-3.688-7.544-7.067-12.573-7.863-7.132-1.127-14.541.079-21.416 3.099zm37.715-97.143c2.077 2.702 4.244 5.753 6.525 8.966 7.163 10.083 19.15 26.96 27.345 27.473.784.05 3.188.199 7.134-4.099 3.739-4.073 5.282-7.537 4.587-10.296-1.547-6.136-12.977-13.72-29.118-19.321-5.322-1.847-10.89-2.718-16.472-2.723z" />
        </svg>
    </g>
    <g
        transform="translate(1869.1304347826087 1593.913043478261) rotate(0.0 387.3913043478261 196.30434782608688) scale(1.3042819532610344 1.30201630851125)">
        <svg width="594.03" height="301.539" viewBox="0 0 594.03 301.539">
            <path
                d="M553.45 255.976c-13.634 0-27.137-5.531-36.779-15.221-2.014-2.024-3.74-4.089-5.408-6.085-2.061-2.466-4.008-4.795-6.053-6.455-2.453-1.99-4.993-2.411-5.61-2.072-1.079.594-2.411 3.732-3.482 6.254-1.191 2.804-2.541 5.982-4.605 8.995-9.72 14.185-28.385 15.768-42.613 12.521-4.789-1.092-9.326-2.596-13.713-4.05-6.545-2.169-12.728-4.218-18.728-4.547-5.515-.304-9.739-5.02-9.436-10.534s5.026-9.726 10.534-9.437c8.662.477 16.419 3.047 23.921 5.533 4.122 1.366 8.014 2.656 11.871 3.535 8.049 1.836 17.87 1.211 21.666-4.328.936-1.364 1.79-3.377 2.695-5.507 2.154-5.074 5.105-12.023 12.239-15.954 8.273-4.557 19.209-2.963 27.863 4.06 3.548 2.88 6.336 6.216 8.797 9.159 1.459 1.746 2.837 3.395 4.239 4.804 6.403 6.435 16.003 9.973 25.049 9.229 3.618-.296 6.445-1.26 7.963-2.713 1.861-1.781 3.075-5.421 4.158-8.995 3.286-10.841 6.561-23.634 5.935-36.317-.597-12.11-5.035-22.835-12.175-29.425a26.821 26.821 0 0 0-4.683-3.448c-.331 5.109-1.494 10.093-3.542 14.705-5.183 11.674-15.437 19.852-26.761 21.343-14.228 1.882-28.122-7.835-30.329-21.204-1.687-10.22 3.266-20.979 13.249-28.781 6.015-4.7 13.008-7.799 20.318-9.321a32.926 32.926 0 0 0-2.196-2.52c-8.249-8.537-20.999-13.74-35.902-14.649-11.759-.716-23.611 1.209-34.285 5.567-5.113 2.088-10.951-.363-13.039-5.478-2.088-5.112.364-10.95 5.477-13.038 13.438-5.488 28.329-7.908 43.064-7.015 19.909 1.215 37.335 8.571 49.068 20.716 4.744 4.91 8.428 10.651 10.955 16.758 8.164 1.946 15.863 5.848 22.169 11.668 11.12 10.263 17.721 25.582 18.587 43.138.776 15.736-2.987 30.619-6.77 43.103-1.772 5.847-4.111 12.514-9.468 17.642-4.962 4.75-11.744 7.509-20.159 8.199a50.146 50.146 0 0 1-4.082.166zm-16.246-105.072c-5.54.584-10.881 2.537-15.176 5.894-3.881 3.034-6.28 7.051-5.832 9.767.446 2.703 4.55 5.084 7.985 4.633 4.331-.57 8.789-4.44 11.092-9.629 1.438-3.238 2.058-6.896 1.931-10.664z" />
            <path
                d="M15.127 291.539c-.524-15.606-10.191-56.967-1.552-60.425s300.271-120.373 323.512-124.832 81.74-27.281 85.661-39.513c5.048-15.748-1.3-41.429 4.993-56.722l27.381-.048c.237 24.023 2.302 92.978.673 103.943-2.106 14.179-2.595 82.013.445 88.933 5.765 13.124 1.234 45.639 1.659 88.663H15.127z"
                fill="#f9dd8f" />
            <path
                d="M457.898 301.539H15.127a10 10 0 0 1-9.994-9.664c-.139-4.137-1.09-10.938-2.096-18.14-3.636-26.019-6.507-46.569 6.822-51.905l.896-.358c70.552-28.26 302.455-120.791 324.446-125.011 10.442-2.003 29.202-8.248 45.62-15.186 22.593-9.547 30.943-16.058 32.562-18.075 1.721-5.895 1.569-14.676 1.423-23.175-.202-11.714-.411-23.826 3.688-33.783a9.999 9.999 0 0 1 9.229-6.194L455.081 0h.018c5.483 0 9.968 4.416 10.022 9.901.063 6.375.254 15.863.476 26.851.796 39.547 1.309 70.449.09 78.659-2.084 14.037-2.143 75.221-.107 83.872 4.433 10.556 3.882 26.755 3.053 51.106-.414 12.178-.883 25.98-.735 41.051a10.003 10.003 0 0 1-10 10.099zm-433.633-20h423.618c.072-11.555.434-22.192.762-31.829.665-19.552 1.24-36.438-1.561-42.812-.9-2.049-3.007-6.847-2.996-45.77.005-18.167.568-40.257 1.815-48.654 1.069-7.201.21-49.842-.303-75.318-.127-6.299-.244-12.107-.333-17.138l-9.856.017c-.849 5.706-.727 12.76-.608 19.646.179 10.376.364 21.105-2.533 30.142-1.226 3.824-4.096 12.779-41.139 28.797-18.591 8.039-39.553 15.065-52.16 17.484-15.004 2.878-170.607 63.796-318.839 123.157-.815 6.456 1.528 23.228 2.713 31.707.53 3.79 1.025 7.337 1.42 10.571zm441.13-82.684.063.146-.063-.146z" />
            <path
                d="M159.192 183.273a10.004 10.004 0 0 1-9.301-6.323l-10.062-25.427c-2.032-5.136.483-10.946 5.619-12.979 5.135-2.03 10.946.483 12.978 5.619l10.062 25.427c2.032 5.136-.483 10.946-5.619 12.979a9.975 9.975 0 0 1-3.677.704zm59.666-25.427a10.001 10.001 0 0 1-9.172-6.009l-12.126-27.83c-2.206-5.062.11-10.955 5.173-13.162 5.062-2.206 10.956.11 13.162 5.174l12.126 27.83c2.206 5.062-.11 10.955-5.173 13.162a9.977 9.977 0 0 1-3.99.835zm49.502-24.799c-4.565 0-8.688-3.146-9.742-7.786l-5.053-22.231c-1.224-5.385 2.15-10.743 7.535-11.967 5.387-1.226 10.743 2.148 11.968 7.535l5.053 22.231c1.224 5.385-2.15 10.743-7.535 11.967-.746.17-1.492.251-2.226.251z" />
        </svg>
    </g>
    <g
        transform="translate(122.60869565217392 1096.9565217391305) rotate(0.0 184.56521739130434 174.78260869565213) scale(1.3014230731733936 1.3039196733583907)">
        <svg width="283.636" height="268.088" viewBox="0 0 283.636 268.088">
            <path
                d="M81.352 211.543 65.57 198.59c-14.061-11.541-28.276-23.242-39.093-37.867-10.817-14.626-18.056-32.719-16.181-50.814 2.398-23.141 19.637-42.904 40.503-53.194s44.882-12.328 68.123-11.256a277.733 277.733 0 0 1 69.94 12.329c28.359 8.862 56.521 23.391 72.87 48.2s16.937 61.676-4.993 81.722c-15.502 14.171-38.162 17.226-59.151 16.453s-42.074-4.674-62.863-1.681c-1.678 10.111.837 55.608.837 55.608s-46.718-40.392-54.208-46.546z"
                fill="#fff" />
            <path
                d="M135.562 268.089a9.991 9.991 0 0 1-6.542-2.436c-.466-.403-46.708-40.38-54.016-46.384L59.227 206.32c-14.344-11.774-29.175-23.948-40.79-39.652C4.819 148.257-1.604 127.733.349 108.878 2.937 83.894 20.574 60.47 46.376 47.745c19.521-9.626 43.403-13.643 73.006-12.276a287.463 287.463 0 0 1 72.461 12.773c36.61 11.441 62.933 29.018 78.237 52.243 17.906 27.17 20.334 69.986-6.596 94.604-15.007 13.719-37.307 20.135-66.267 19.064-6.788-.25-13.579-.815-20.147-1.362-11.393-.948-22.283-1.854-32.912-1.217-.178 11.739.649 32.627 1.386 45.962a9.999 9.999 0 0 1-9.983 10.551zM108.386 55.208c-21.458 0-38.92 3.449-53.165 10.475-19.392 9.562-33.122 27.327-34.979 45.256-1.438 13.88 3.631 29.448 14.274 43.837 10.141 13.711 23.998 25.085 37.398 36.085l15.781 12.953.004.003c4.527 3.719 22.709 19.36 36.834 31.542-.456-13.433-.671-28.518.324-34.515a9.997 9.997 0 0 1 8.44-8.261c15.419-2.222 30.677-.95 45.432.278 6.342.528 12.899 1.074 19.224 1.307 23.535.872 41.042-3.79 52.037-13.84 18.793-17.18 16.392-49.108 3.39-68.838-12.7-19.272-35.411-34.13-67.503-44.158a267.455 267.455 0 0 0-67.417-11.885c-3.451-.159-6.81-.239-10.074-.239z" />
            <path
                d="M143.593 121.689c-5.509 0-9.983-4.457-10-9.97-.115-38.353.784-64.203 3.562-102.444.4-5.508 5.193-9.644 10.698-9.249 5.508.4 9.649 5.19 9.249 10.698-2.738 37.678-3.624 63.147-3.51 100.935.017 5.523-4.447 10.014-9.97 10.03h-.031z" />
            <circle cx="143.685" cy="153.825" r="12.722" />
        </svg>
    </g>
    <g
        transform="translate(247.82608695652175 1964.3478260869565) rotate(0.00017993368212802538 1197.391304347826 10.434782608695627) scale(1.3043478260869565 1.3043478260869534)">
        <svg width="1836" height="16" viewBox="0 0 1836 16">
            <line x2="100%" y1="50%" y2="50%" stroke-width="16" stroke="#000" fill="#fff" />
        </svg>
    </g>
</svg>