<svg height="1827.528" viewBox="0 0 1420 1827.528" width="1420" xmlns="http://www.w3.org/2000/svg"><path d="m681.106 889.429-109.577 106.769 151.723 209.321 184.034-146.104z" fill="#fff"/><path d="m723.252 1215.519c-.452 0-.905-.031-1.358-.093-2.703-.371-5.138-1.83-6.738-4.039l-151.723-209.322c-2.913-4.019-2.438-9.567 1.118-13.031l109.577-106.768c3.53-3.44 9.044-3.795 12.986-.832l226.181 169.986c2.477 1.861 3.95 4.764 3.991 7.862s-1.355 6.039-3.781 7.965l-184.035 146.104c-1.778 1.412-3.974 2.168-6.218 2.168zm-138.553-218.191 140.518 193.863 165.714-131.559-208.982-157.061-97.249 94.756z"/><path d="m843.144 909.013c0 34.629-57.916 62.701-129.359 62.701s-129.359-28.072-129.359-62.701c0-11.985-26.554-48.537-12.1-53.697 29.881-10.666 94.743-9.004 141.459-9.004 37.906 0 89.736-3.184 124.51 7.287 22.705 6.837 4.849 39.159 4.849 55.414z"/><path d="m655.698 783.789h108.161v189.531h-108.161z" fill="#fff"/><path d="m763.859 960.905c-5.522 0-10-4.477-10-10v-157.116h-88.161v157.116c0 5.523-4.478 10-10 10s-10-4.477-10-10v-167.116c0-5.523 4.478-10 10-10h108.161c5.522 0 10 4.477 10 10v167.116c0 5.523-4.478 10-10 10z"/><path d="m734.988 1809.784c89.121-17.135 192.275 8.176 286.938-7.75 26.132-4.396 39.858-2.682 44.191-22.18 3.581-16.114-2.876-26.343.568-42.487 1.77-8.298 9.075-53.562 8.606-64.065-1.136-25.421-6.886-47.2-17.994-70.094-22.078-45.503 8.826-103.356 7.731-153.921-.85-39.237-1.293-78.482-1.736-117.726-.937-82.964-1.873-165.928-2.81-248.893-.164-14.543-2.016-81.739-2.016-81.739s-36.754 2.13-59.577-6.054c-10.339-3.707-31.29-6.068-41.817-9.388-11.975-3.777-25.892-13.477-37.552-16.862-56.672-16.452-119.274-28.681-179.237-38.296-3.518 22.05 2.004 54.82 2.6 81.797.312 14.122-11.664 25.918-3.476 35.347 8.09 9.316-1.958 15.266-10.88 27.5-9.71 13.315-18.749 32.557-18.749 32.557s-2.944-21.095-11.794-39.011c-5.673-11.484-16.308-17.045-14.995-27.024 1.235-9.389-5.598-27.294 0-40.188 12.394-28.545 7.142-51.206-1.604-70.978-59.963 9.615-122.564 21.844-179.237 38.296-11.66 3.385-25.577 13.085-37.552 16.862-10.526 3.32-31.478 5.681-41.817 9.388-22.823 8.184-59.577 6.054-59.577 6.054s-1.852 67.196-2.016 81.739c-.937 82.964-1.873 165.928-2.81 248.893-.443 39.244-.886 78.489-1.736 117.726-1.095 50.564 29.809 108.418 7.731 153.921-11.108 22.894-16.859 44.672-17.994 70.094-.469 10.503 6.835 55.767 8.606 64.065 3.444 16.144-3.013 26.372.568 42.487 4.333 19.498 18.059 17.783 44.191 22.18 94.662 15.926 197.388-6.981 286.938 7.75 11.917 1.96 36.448 2.28 48.308 0z" fill="#fff"/><path d="m711.927 1821.367c-10.13 0-20.311-.636-26.871-1.716-42.948-7.065-88.558-5.288-136.846-3.406-49.609 1.932-100.908 3.931-150.128-4.35-4.105-.69-7.854-1.22-11.48-1.732-19.146-2.704-35.68-5.038-40.813-28.14-2.163-9.733-1.278-17.65-.498-24.636.689-6.169 1.285-11.498-.088-17.934-1.621-7.595-9.363-54.349-8.816-66.597 1.187-26.569 7.043-49.396 18.988-74.013 12.277-25.302 5.982-55.916-.683-88.327-4.171-20.287-8.485-41.265-8.048-61.446.85-39.231 1.299-79.083 1.734-117.622l2.81-248.893c.164-14.458 1.944-79.155 2.02-81.902.074-2.704 1.241-5.262 3.233-7.091s4.64-2.776 7.341-2.617c.343.019 35.019 1.903 55.623-5.484 6.272-2.249 15.271-3.929 23.972-5.554 6.825-1.275 13.884-2.593 18.213-3.958 5.033-1.588 11.054-4.695 16.875-7.7 6.883-3.553 13.999-7.226 20.896-9.229 49.881-14.481 108.904-27.096 180.441-38.566 4.48-.717 8.891 1.675 10.729 5.828 8.443 19.087 16.259 45.317 1.632 79.006-2.409 5.548-1.22 14.077-.171 21.603.795 5.704 1.546 11.092.913 15.906-.214 1.62 1.424 3.807 4.948 8.073 2.846 3.443 6.386 7.728 9.098 13.219 2.572 5.206 4.678 10.624 6.383 15.77 2.239-3.688 4.648-7.397 7.115-10.78 2.335-3.201 4.672-5.935 6.733-8.347 1.779-2.082 4.127-4.829 4.967-6.35-.079-.103-.176-.221-.291-.354-8.697-10.014-4.771-21.135-1.904-29.254 1.553-4.396 3.019-8.549 2.934-12.429-.204-9.229-1.03-19.494-1.828-29.42-1.531-19.037-3.115-38.722-.649-54.173.418-2.62 1.86-4.967 4.01-6.523 2.149-1.557 4.833-2.195 7.448-1.775 71.537 11.47 130.56 24.085 180.441 38.566 6.896 2.002 14.013 5.676 20.896 9.228 5.821 3.005 11.842 6.112 16.876 7.7 4.329 1.365 11.387 2.683 18.212 3.958 8.702 1.625 17.699 3.305 23.972 5.554 20.603 7.387 55.279 5.503 55.627 5.483 2.716-.156 5.348.791 7.339 2.62s3.158 4.386 3.232 7.088c.076 2.747 1.855 67.443 2.019 81.902l2.813 249.176c.435 38.469.884 78.248 1.731 117.339.437 20.18-3.877 41.158-8.049 61.444-6.665 32.411-12.96 63.025-.683 88.328 11.944 24.619 17.8 47.446 18.987 74.013.546 12.238-7.195 58.998-8.815 66.597-1.373 6.437-.778 11.765-.089 17.935.78 6.985 1.665 14.903-.498 24.636-5.134 23.102-21.668 25.436-40.813 28.14-3.626.512-7.375 1.042-11.48 1.732-47.83 8.048-97.716 5.8-145.959 3.627-49.793-2.244-96.833-4.36-140.749 4.082-6.374 1.225-15.64 1.763-24.949 1.763zm-100.367-26.773c26.137 0 52.013 1.254 76.742 5.323 10.701 1.759 33.938 2.135 44.798.047 46.235-8.89 96.66-6.618 145.426-4.421 47.199 2.125 96.006 4.325 141.74-3.37 4.365-.734 8.423-1.308 12.002-1.813 19.907-2.811 22.158-3.995 24.087-12.675 1.44-6.482.84-11.855.146-18.077-.771-6.9-1.645-14.72.404-24.327 1.895-8.881 8.788-52.749 8.396-61.533-1.06-23.715-6.303-44.124-17.001-66.174-15.24-31.411-7.957-66.832-.913-101.087 4.13-20.085 8.031-39.057 7.643-56.983-.85-39.194-1.299-79.026-1.734-117.546l-.003-.283-2.81-248.893c-.123-10.915-1.221-52.323-1.741-71.598-13.207.061-36.322-.832-53.228-6.894-4.767-1.709-12.965-3.24-20.893-4.72-7.751-1.447-15.073-2.814-20.557-4.544-6.669-2.103-13.464-5.61-20.034-9.002-6.032-3.114-12.27-6.333-17.298-7.793-46.622-13.535-101.508-25.437-167.499-36.313-.469 11.699.66 25.732 1.761 39.408.821 10.211 1.671 20.77 1.887 30.582.167 7.534-2.182 14.185-4.068 19.529-2.057 5.824-2.769 8.429-1.854 9.482 6.646 7.654 5.983 14.94 4.257 19.704-1.748 4.822-5.188 8.847-8.83 13.108-1.916 2.242-3.897 4.56-5.776 7.137-9.041 12.398-17.691 30.733-17.778 30.917-1.881 4.006-6.172 6.296-10.548 5.636-4.375-.663-7.795-4.122-8.407-8.505-.026-.187-2.862-19.782-10.856-35.965-1.681-3.404-4.063-6.285-6.583-9.336-4.782-5.787-10.732-12.989-9.361-23.421.28-2.128-.315-6.403-.892-10.537-1.343-9.634-3.014-21.623 1.634-32.329 9.859-22.708 6.932-40.848 1.331-55.855-67.203 10.997-122.951 23.039-170.211 36.759-5.028 1.46-11.267 4.68-17.3 7.793-6.57 3.391-13.364 6.898-20.032 9.001-5.484 1.729-12.806 3.097-20.558 4.544-7.928 1.48-16.126 3.011-20.893 4.72-16.905 6.061-40.015 6.95-53.227 6.894-.521 19.276-1.618 60.684-1.741 71.599l-2.81 248.893c-.436 38.59-.886 78.494-1.738 117.83-.388 17.927 3.513 36.899 7.643 56.984 7.044 34.254 14.327 69.675-.913 101.085-10.699 22.049-15.942 42.458-17.001 66.175-.393 8.792 6.501 52.654 8.396 61.532 2.05 9.607 1.176 17.428.405 24.328-.695 6.221-1.295 11.594.145 18.077 1.929 8.68 4.18 9.864 24.086 12.675 3.58.505 7.636 1.079 12.002 1.813 47.186 7.938 97.435 5.981 146.031 4.087 21.213-.827 42.759-1.666 64.128-1.666z"/><path d="m708.088 1814.753c-5.012 0-9.336-3.761-9.922-8.86-6.953-60.532-2.288-110.648 2.65-163.708 2.171-23.326 4.415-47.447 5.8-73.567.677-12.761-2.247-31.754-5.074-50.123-2.711-17.611-5.5-35.729-5.521-50.468-1.549-.516-3.135-1.391-4.584-2.843-1.451-1.453-3.821-4.664-3.402-9.848.358-4.441 2.882-14.983 6.968-31.816 2.746-11.312 6.896-28.407 7.09-31.774.642-12.1-2.11-43.246-4.54-70.726-1.772-20.057-3.304-37.378-3.496-46.575-.86-41.064 1.051-63.108 2.897-84.427 1.886-21.749 3.666-42.291 2.828-82.277-.115-5.522 4.267-10.092 9.789-10.207 5.504-.109 10.091 4.267 10.207 9.789.859 41.061-1.051 63.105-2.898 84.423-1.885 21.749-3.665 42.292-2.827 82.281.179 8.525 1.754 26.355 3.423 45.233 2.608 29.515 5.306 60.034 4.59 73.548-.26 4.889-3.067 16.649-7.627 35.431-1.67 6.88-3.733 15.378-5.077 21.445 1.186.533 2.369 1.304 3.473 2.409 1.451 1.453 3.821 4.663 3.403 9.848-1.09 13.48 2.043 33.831 5.072 53.512 3.119 20.263 6.065 39.402 5.28 54.224-1.406 26.519-3.67 50.841-5.859 74.362-4.839 51.994-9.41 101.105-2.694 159.572.63 5.487-3.307 10.446-8.793 11.076-.388.044-.773.066-1.154.066z"/><path d="m711.72 154.761c-155.628 0-215.109 154.236-200.987 343.32 14.077 188.474 96.131 306.247 191.861 306.247 97.395 0 192.908-117.773 210.112-306.247 17.237-188.825-46.923-343.32-200.987-343.32z" fill="#fff"/><path d="m702.594 814.329c-50.773 0-98.7-30.904-134.95-87.02-36.853-57.046-59.979-136.055-66.884-228.483-9.763-130.719 15.61-235.842 71.448-296.006 35.755-38.525 82.693-58.06 139.512-58.06 57.44 0 105.028 20.226 141.442 60.115 28.67 31.407 49.194 73.844 61.001 126.135 11.263 49.88 14.123 106.396 8.502 167.979-6.506 71.266-25.161 137.156-53.947 190.546-27.289 50.611-62.386 88.201-101.497 108.708-4.895 2.566-10.937.678-13.5-4.213-2.564-4.891-.679-10.936 4.213-13.5 35.568-18.649 67.79-53.397 93.18-100.487 27.517-51.035 45.372-114.271 51.634-182.873 10.987-120.351-12.471-221.974-64.356-278.812-32.467-35.566-75.085-53.599-126.671-53.599-51.029 0-93.035 17.383-124.853 51.665-52.01 56.04-75.507 155.802-66.163 280.91 13.062 174.865 87.856 296.992 181.89 296.992 2.885 0 5.813-.115 8.703-.341 5.52-.428 10.319 3.683 10.75 9.189s-3.684 10.319-9.189 10.75c-3.407.267-6.86.402-10.264.402z"/><path d="m627.525 360.652c-10.672 87.394-82.937 136.113-158.331 152.397-15.694 3.39-33.794 6.231-42.386 19.795-9.206 14.533-1.61 35.127 12.403 45.105 14.014 9.978 32.266 11.623 49.457 10.985 56.81-2.109 112.517-26.293 152.849-66.357" fill="#fff"/><path d="m482.197 599.062c-14.71 0-33.46-2.055-48.785-12.967-17.364-12.363-27.556-38.861-15.052-58.603 10.191-16.089 29.563-20.173 45.129-23.455 1.209-.255 2.409-.508 3.595-.764 85.505-18.468 141.772-72.237 150.515-143.834.671-5.482 5.663-9.384 11.139-8.714 5.482.669 9.384 5.656 8.715 11.138-5.296 43.361-24.893 80.098-58.248 109.189-28.381 24.753-65.691 42.655-107.897 51.771-1.218.263-2.45.523-3.691.784-13.118 2.766-26.683 5.625-32.358 14.587-6.162 9.728.068 24.711 9.755 31.608 9.785 6.967 23.541 9.872 43.287 9.138 54.326-2.017 107.604-25.146 146.172-63.458 3.92-3.892 10.25-3.871 14.143.047 3.892 3.918 3.871 10.25-.047 14.142-42.092 41.812-100.236 67.055-159.525 69.256-2.151.08-4.445.135-6.844.135z"/><path d="m658.498 657.032c-9.908 0-19.818-1.258-29.447-3.852-5.333-1.437-8.491-6.925-7.054-12.257 1.438-5.333 6.927-8.491 12.257-7.054 32.569 8.775 69.086-.907 93.029-24.667 3.922-3.89 10.252-3.866 14.142.054 3.891 3.92 3.866 10.252-.054 14.142-21.829 21.663-52.32 33.635-82.873 33.635z"/><path d="m604.76 198.71s10.138-.827 19.928 4.833c9.79 5.661 20.175 11.739 31.475 11.314s22.95-10.647 20.23-21.624c17.426 20.397 34.675 1.468 34.675 1.468s42.861 63.533 110.167 41.632c14.423 21.367 8.133 103.752 8.133 103.752-3.163 71.326 44.374 42.303 59.639 112.048l47.032-21.762c23.409-34.644 47.258-70.266 57.013-110.923 9.754-40.657 2.573-88.072-28.585-115.953-14.984-13.409-45.232-19.562-45.232-19.562s-15.608-62.37-25.389-83.437c-18.337-39.492-72.756-57.049-110.716-35.721-29.02-14.25-28.538-52.521-92.91-40.313-38.184 7.242-32.413 30.517-47.831 28.235-25.452-3.766-44.958-23.795-62.413-42.698-12.95 33.33-16.835 61.632 15.928 83.096-44.971-19.8-84.926-14.805-110.877 23.684 4.967 3.922 9.934 7.844 14.901 11.767-26.685 44.081-53.876 36.867-82.396 28.498 5.248 15.028 18.15 31.881 30.739 38.89 14.661 8.162 29.966 18.868 51.01 6.623-26.038 58.858-66.548 56.084-100.932 42.971 47.147 86.481 129.934 56.984 129.934 56.984s33.793-99.919 76.477-103.804" fill="#fff"/><path d="m889.007 462.134c-1.524 0-3.048-.348-4.448-1.044-2.716-1.349-4.672-3.856-5.32-6.818-6.395-29.214-18.161-38.226-30.618-47.767-15.314-11.729-31.15-23.858-29.243-66.863.005-.105.011-.212.02-.317 2.19-28.768 2.188-72.258-3.657-91.076-27.742 6.525-55.395.969-80.492-16.278-11.749-8.075-20.555-17.088-26.013-23.434-4.171 2.308-9.584 4.253-15.788 4.154-3.047-.049-6.822-.622-10.93-2.402-.338.515-.696 1.023-1.074 1.525-5.779 7.68-15.322 12.675-24.903 13.035-14.043.529-26.013-6.379-36.554-12.474l-.304-.176c-6.485-3.75-13.449-3.55-14.143-3.52-13.699 1.341-30.068 18.354-46.112 47.93-13.255 24.435-21.59 48.866-21.673 49.11-.981 2.896-3.234 5.187-6.115 6.214-.938.334-23.285 8.137-51.925 4.436-26.568-3.433-63.773-17.679-90.146-66.053-2.004-3.676-1.506-8.212 1.249-11.365 2.755-3.154 7.184-4.257 11.094-2.765 18.877 7.198 34.35 8.909 47.299 5.228 11.64-3.308 21.616-11.001 30.178-23.34-12.956-.33-23.84-6.516-32.671-11.533-1.109-.63-2.212-1.257-3.312-1.869-14.269-7.945-29.12-26.588-35.315-44.331-1.235-3.539-.389-7.47 2.194-10.187 2.582-2.716 6.467-3.76 10.063-2.705 24.909 7.309 44.949 13.19 66.21-16.719l-7.729-6.103c-4.105-3.242-5.019-9.101-2.094-13.438 20.969-31.102 51.617-44.032 88.31-37.984-2.18-5.036-3.57-10.405-4.189-16.134-1.91-17.663 4.233-36.37 9.799-50.694 1.25-3.216 4.068-5.56 7.457-6.203 3.391-.645 6.871.506 9.211 3.041 17.6 19.059 35.166 36.429 56.53 39.59.194.029.34.041.442.046.737-.607 2.158-2.456 3.219-3.835 5.6-7.283 14.972-19.472 40.843-24.379 49.515-9.389 66.702 9.704 80.512 25.046 4.836 5.371 9.141 10.154 14.518 13.726 19.58-9.155 43.126-10.326 65.531-3.097 24.407 7.875 44.089 24.631 53.999 45.973 8.355 17.996 20.322 63.054 24.519 79.326 10.356 2.708 31.176 9.225 43.7 20.433 16.214 14.508 27.533 34.737 32.735 58.499 4.694 21.44 4.315 44.691-1.095 67.239-10.298 42.927-35.88 80.786-58.45 114.189-1.021 1.51-2.434 2.712-4.087 3.477l-47.031 21.762c-1.333.617-2.767.925-4.199.925zm-49.656-121.453c-1.41 32.456 7.681 39.416 21.431 49.947 11.8 9.038 26.146 20.026 34.829 47.433l33.701-15.594c22.183-32.842 44.779-66.852 54.015-105.35 9.999-41.671-.022-83.344-25.528-106.168-10.636-9.518-32.883-15.654-40.557-17.215-3.774-.768-6.772-3.635-7.708-7.372-.153-.615-15.488-61.689-24.759-81.653-7.57-16.304-22.878-29.193-41.999-35.362s-39.077-4.658-54.749 4.148c-2.871 1.613-6.351 1.709-9.307.258-10.924-5.364-18.252-13.505-24.717-20.688-13.111-14.565-23.468-26.071-61.921-18.777-18.386 3.487-23.873 10.623-28.714 16.919-4.283 5.571-10.146 13.202-22.444 11.383-22.564-3.339-40.228-17.07-56.837-33.772-7.881 27.375-2.654 42.843 17.296 55.913 4.352 2.851 5.79 8.563 3.308 13.136s-8.058 6.478-12.817 4.381c-39.956-17.592-71.197-13.304-93.003 12.723l7.254 5.728c3.959 3.126 4.97 8.711 2.357 13.027-23.163 38.264-48.391 42.323-71.301 38.514 4.892 6.478 10.62 11.99 15.953 14.959 1.149.64 2.303 1.295 3.462 1.953 14.382 8.17 23.896 12.771 37.655 4.764 3.746-2.179 8.47-1.699 11.699 1.193 3.229 2.891 4.229 7.533 2.476 11.496-13.019 29.428-31.103 47.612-53.748 54.048-10.168 2.89-21.15 3.42-33.179 1.566 16.069 19.46 36.165 30.937 59.993 34.212 17.281 2.375 32.071-.357 39.098-2.108 3.218-8.727 10.634-27.622 21.13-47.014 19.985-36.923 40.891-56.624 62.134-58.558.031-.003.062-.005.093-.008 1.356-.111 13.605-.879 25.747 6.144l.305.176c8.599 4.972 17.48 10.112 25.789 9.802 3.548-.134 7.527-2.221 9.676-5.076 1.124-1.493 1.535-2.89 1.224-4.15-1.115-4.501 1.01-9.178 5.133-11.298s9.163-1.129 12.177 2.397c3.305 3.869 6.563 5.873 9.685 5.955.07.002.142.003.213.003 4.331 0 8.564-3.449 9.849-4.802 2.044-2.336 4.974-3.48 8.052-3.284 3.097.194 5.828 1.927 7.563 4.499.088.129 10.228 14.857 27.739 26.736 22.54 15.291 46.438 18.985 71.044 10.979 4.239-1.381 8.887.217 11.382 3.915 7.197 10.662 10.856 32.049 11.187 65.384.224 22.591-1.197 42.399-1.358 44.557zm-311.068-38.167h.01z"/><path d="m618.921 210.754c-2.986 0-5.94-1.332-7.911-3.875-11.132-14.366-30.047-22.815-48.168-21.53-3.266.232-6.62.755-10.173 1.308-5.982.932-12.162 1.896-18.805 1.613-15.053-.641-27.441-8.641-31.56-20.381-1.828-5.211.915-10.918 6.126-12.746 5.218-1.829 10.918.915 12.747 6.126 1.506 4.294 7.95 6.781 13.538 7.019 4.65.199 9.621-.574 14.875-1.393 3.803-.592 7.734-1.205 11.835-1.496 24.982-1.776 50.048 9.426 65.393 29.229 3.383 4.366 2.587 10.647-1.779 14.03-1.822 1.412-3.979 2.096-6.118 2.096z"/><path d="m861.032 488.469c4.722-28.568 28.137-51.742 53.783-53.229s51.031 18.858 58.308 46.73c7.562 28.965-4.201 61.579-24.786 80.8s-48.399 26.37-75.063 25.134" fill="#fff"/><path d="m879.177 598.042c-2.108 0-4.229-.049-6.366-.148-5.517-.256-9.782-4.935-9.526-10.452s4.907-9.786 10.452-9.526c26.863 1.243 50.935-6.729 67.774-22.454 19.155-17.886 28.175-47.068 21.936-70.965-6.064-23.233-27.166-40.478-48.053-39.273-20.993 1.217-40.538 20.929-44.496 44.876-.9 5.448-6.043 9.137-11.497 8.236-5.449-.901-9.136-6.048-8.235-11.497 5.511-33.342 32.625-59.816 63.07-61.582 30.572-1.768 60.035 21.523 68.563 54.188 8.14 31.176-2.967 67.6-27.637 90.635-19.435 18.147-46.227 27.962-75.984 27.963z"/><path d="m557.447 385.475c-3.168 0-6.284-1.502-8.227-4.302-3.146-4.539-2.02-10.769 2.52-13.916 19.504-13.525 45.995-15.754 67.484-5.677 5.001 2.344 7.153 8.299 4.809 13.3-2.344 5-8.302 7.153-13.299 4.808-14.926-6.998-34.053-5.389-47.598 4.004-1.737 1.205-3.724 1.783-5.689 1.783z"/><ellipse cx="578.561" cy="391.869" rx="16.485" ry="27.47"/><path d="m763.849 382.313c-1.773 0-3.568-.472-5.194-1.462-17.92-10.922-42.26-11.362-60.566-1.096-4.816 2.701-10.911.987-13.613-3.83s-.987-10.912 3.83-13.614c24.788-13.902 56.488-13.33 80.758 1.461 4.716 2.874 6.209 9.027 3.335 13.743-1.884 3.091-5.176 4.797-8.549 4.797z"/><ellipse cx="723.568" cy="388.123" rx="16.485" ry="27.47"/><path d="m543.858 350.087c-3.217 0-6.376-1.55-8.307-4.42-3.082-4.583-1.866-10.796 2.717-13.879 26.465-17.801 62.152-20.399 90.917-6.616 4.98 2.386 7.083 8.359 4.697 13.339-2.387 4.981-8.357 7.083-13.34 4.697-22.498-10.78-50.411-8.749-71.112 5.175-1.712 1.152-3.652 1.703-5.572 1.703z"/><path d="m774.825 348.859c-1.92 0-3.859-.551-5.572-1.703-20.701-13.923-48.614-15.955-71.112-5.175-4.981 2.387-10.954.283-13.34-4.697-2.386-4.981-.283-10.953 4.697-13.339 28.766-13.782 64.451-11.186 90.917 6.616 4.583 3.082 5.799 9.296 2.717 13.879-1.931 2.87-5.09 4.42-8.307 4.42z"/><path d="m628.183 894.754c7.401 7.325 18.115 9.859 27.993 13.155s20.309 8.539 24.072 18.249c4.757 12.275-3.117 25.51-10.641 36.312-23.515 33.758-26.435 72.29-49.95 106.049-23.28-28.705-67.156-62.184-90.436-90.889-3.315-4.087-20.212-30.333-20.5-35.588-.389-7.106 18.36-16.02 23.428-21.015 18.494-18.227 21.683-35.455 40.178-53.682 9.118-8.986 48.819-12.832 62.536-10.648-5.478 7.954-13.509 31.296-6.679 38.056z" fill="#fff"/><path d="m619.656 1078.52c-3.007 0-5.863-1.355-7.766-3.701-11.191-13.799-27.995-29.359-44.246-44.406-16.765-15.524-34.102-31.576-46.19-46.483-.22-.271-22.154-31.045-22.719-41.339-.578-10.552 10.289-17.736 19.877-24.074 2.357-1.558 5.584-3.691 6.519-4.611 8.373-8.253 13.329-16.356 18.575-24.935 5.645-9.229 11.481-18.773 21.602-28.747 5.746-5.663 17.575-9.798 35.159-12.291 13.797-1.957 27.917-2.392 35.969-1.11 3.391.54 6.267 2.781 7.619 5.936 1.353 3.156.991 6.784-.955 9.611-4.369 6.344-8.617 21.283-7.406 25.73 4.601 4.24 11.621 6.473 19.038 8.833 1.547.492 3.089.983 4.611 1.491 16.138 5.385 26.026 13.275 30.23 24.121 7.161 18.478-5.619 36.825-11.76 45.642-11.018 15.816-17.222 32.782-23.79 50.744-6.717 18.368-13.662 37.362-26.16 55.304-1.797 2.579-4.7 4.163-7.841 4.278-.122.004-.244.007-.366.007zm-100.224-135.888c3.38 7.229 14.539 24.982 17.556 28.701 11.19 13.798 27.994 29.358 44.245 44.406 12.908 11.953 26.155 24.219 37.085 36.034 7.007-12.597 11.855-25.857 16.921-39.709 6.718-18.369 13.664-37.364 26.163-55.307 6.348-9.113 12.443-19.446 9.522-26.983-1.917-4.946-7.776-8.994-17.913-12.377-1.435-.479-2.887-.94-4.343-1.404-9.147-2.91-19.516-6.208-27.52-14.13-8.374-8.288-5.856-23.725-1.658-35.69-15.892.752-36.27 4.542-40.146 8.297-8.375 8.254-13.33 16.357-18.577 24.937-5.645 9.229-11.48 18.772-21.6 28.745-2.32 2.286-5.66 4.494-9.527 7.051-2.69 1.778-7.762 5.131-10.209 7.43z"/><path d="m792.919 894.754c-7.401 7.325-18.115 9.859-27.993 13.155s-20.309 8.539-24.072 18.249c-4.757 12.275 3.117 25.51 10.641 36.312 23.515 33.758 26.435 72.29 49.95 106.049 23.28-28.705 67.156-62.184 90.436-90.889 3.315-4.087 26.06-29.227 26.348-34.482.389-7.106-22.504-17.126-27.572-22.121-18.494-18.227-32.921-35.455-51.416-53.682-9.118-8.986-30.892-9.475-44.609-7.291 5.478 7.954 5.116 27.939-1.714 34.699z" fill="#fff"/><path d="m801.447 1078.52c-.122 0-.244-.002-.366-.007-3.14-.115-6.044-1.699-7.84-4.278-12.499-17.943-19.445-36.937-26.162-55.306-6.568-17.962-12.772-34.927-23.789-50.743-6.143-8.817-18.922-27.164-11.76-45.642 4.203-10.845 14.092-18.735 30.231-24.121 1.521-.508 3.063-.999 4.609-1.49 7.677-2.442 14.929-4.75 19.514-9.287 2.864-2.863 3.675-17.329.513-21.92-1.946-2.827-2.308-6.456-.955-9.611 1.353-3.156 4.229-5.396 7.619-5.937 3.789-.603 37.481-5.448 53.2 10.045 9.406 9.27 17.853 18.366 26.021 27.163 8.018 8.634 16.308 17.562 25.396 26.519 1 .939 4.967 3.329 7.863 5.074 11.962 7.208 23.261 14.017 22.675 24.717-.312 5.674-4.16 12.006-25.165 36.263-1.548 1.788-2.886 3.333-3.402 3.97-12.089 14.906-29.425 30.958-46.19 46.482-16.25 15.048-33.054 30.607-44.245 44.406-1.902 2.346-4.759 3.701-7.766 3.701zm-8.528-183.765 7.034 7.107c-8.004 7.922-18.372 11.22-27.52 14.131-1.456.463-2.908.925-4.342 1.403-10.137 3.383-15.996 7.431-17.913 12.377-2.922 7.538 3.174 17.87 9.522 26.983 12.498 17.943 19.444 36.937 26.161 55.305 5.066 13.853 9.915 27.114 16.923 39.711 10.93-11.815 24.176-24.081 37.085-36.034 16.25-15.048 33.054-30.607 44.245-44.406.72-.888 2.019-2.388 3.816-4.464 9.589-11.074 15.918-18.834 18.898-23.17-3.115-2.468-8.605-5.777-11.611-7.588-5.037-3.035-9.015-5.432-11.58-7.96-9.403-9.268-17.847-18.361-26.013-27.155-8.02-8.637-16.312-17.567-25.403-26.527-3.656-3.604-13.43-5.656-24.318-5.524 1.631 11.805-.726 25.765-7.951 32.917l-7.034-7.107zm0 0h.01z"/><path d="m1018.568 1338.109c-5.913 87.326-14.675 103.287 56.064 154.83-2.409 21.699 11.76 31.929 20.736 51.831 8.71 19.313 24.198 45.475 32.908 64.788 7.507 16.645 1.639 38.937 9.255 55.532 8.098 17.646 25.509 34.667 37.838 50.391 14.867 18.961 18.33 37.981 38.153 50.438 26.184 16.453 73.947 37.453 115.854 23.17 114.454-39.009 77.548-181.684 64.32-233.908-9.574-37.797-45.652-58.154-57.452-95.317-5.899-18.579-8.016-33.593-11.548-46.726-21.975-81.702-17.76-72.53-90.098-169.858-7.014-9.437 9.685-27.834-7.598-73.867-16.026-42.685-66.118-113.189-71.987-122.377-22.118-34.625-46.341-63.587-118.733-46.105" fill="#fff"/><path d="m1299.706 1803.79c-40.848 0-78.785-21.413-91.504-29.405-14.769-9.28-21.763-21.658-28.527-33.628-3.561-6.301-7.242-12.816-12.174-19.106-3.408-4.347-7.227-8.804-11.27-13.523-10.537-12.3-21.433-25.02-27.788-38.867-4.641-10.111-5.116-21.038-5.576-31.604-.391-8.976-.76-17.454-3.707-23.989-4.221-9.358-10.293-20.771-16.166-31.807-6.023-11.32-12.253-23.026-16.742-32.98-2.599-5.763-5.796-10.804-8.888-15.678-6.403-10.095-13-20.496-13.007-35.408-31.866-23.676-46.671-40.098-53.985-59.562-7.825-20.82-6.068-43.795-3.41-78.573.535-7.01 1.09-14.26 1.629-22.227.373-5.51 5.12-9.672 10.653-9.302 5.51.373 9.675 5.143 9.302 10.653-.546 8.054-1.104 15.347-1.643 22.4-5.19 67.905-6.126 80.141 53.617 123.672 2.9 2.113 4.446 5.619 4.051 9.186-1.246 11.22 3.338 18.446 9.682 28.448 3.305 5.209 7.049 11.113 10.231 18.168 4.221 9.359 10.293 20.771 16.166 31.808 6.023 11.32 12.252 23.026 16.742 32.98 4.528 10.043 5 20.871 5.456 31.341.393 9.041.765 17.579 3.772 24.131 5.188 11.304 15.157 22.942 24.799 34.198 4.004 4.673 8.144 9.505 11.819 14.194 5.863 7.477 10.105 14.984 13.848 21.607 6.297 11.143 11.271 19.944 21.756 26.534 11.344 7.128 45.313 26.393 80.586 26.395 8.94 0 17.961-1.237 26.722-4.223 45.159-15.391 69.114-48.903 73.233-102.451 3.473-45.135-8.635-92.915-15.139-118.583l-.241-.953c-4.415-17.43-15.48-31.101-27.196-45.575-11.715-14.474-23.828-29.44-30.094-49.171-3.816-12.021-6.103-22.573-8.118-31.882-1.177-5.43-2.287-10.559-3.556-15.273l-2.313-8.617q-17.689-65.964-73.348-140.669c-3.981-5.344-8.242-11.062-12.808-17.204-5.06-6.808-3.976-14.469-2.828-22.578 1.626-11.487 3.852-27.219-6.105-53.74-13.282-35.378-51.431-91.538-65.792-112.68-2.609-3.841-4.333-6.378-5.26-7.83-21.981-34.412-42.595-57.552-107.958-41.766-5.369 1.296-10.771-2.004-12.068-7.373-1.296-5.368 2.005-10.771 7.373-12.068 77.836-18.798 105.676 13.133 129.509 50.442.774 1.214 2.616 3.925 4.948 7.358 14.728 21.682 53.851 79.276 67.973 116.888 11.751 31.299 8.892 51.501 7.184 63.572-.429 3.031-.958 6.768-.732 8.1 4.488 6.039 8.681 11.667 12.604 16.931 57.405 77.049 58.121 78.427 76.627 147.438l2.31 8.603c1.396 5.192 2.558 10.556 3.787 16.234 1.923 8.878 4.103 18.941 7.635 30.063 5.123 16.134 15.545 29.01 26.577 42.641 12.559 15.516 25.544 31.56 31.037 53.247l.241.952c6.786 26.779 19.417 76.626 15.693 125.03-2.127 27.646-9.375 51.348-21.544 70.449-14.679 23.041-36.607 39.661-65.179 49.398-10.889 3.711-21.997 5.236-32.896 5.237z"/><path d="m401.432 1338.109c5.913 87.326 14.675 103.287-56.064 154.83 2.409 21.699-11.76 31.929-20.736 51.831-8.71 19.313-24.198 45.475-32.908 64.788-7.507 16.645-1.639 38.937-9.255 55.532-8.098 17.646-25.509 34.667-37.838 50.391-14.867 18.961-18.33 37.981-38.153 50.438-26.184 16.453-73.947 37.453-115.854 23.17-114.454-39.009-77.548-181.684-64.32-233.908 9.574-37.797 45.652-58.154 57.452-95.317 5.899-18.579 8.016-33.593 11.548-46.726 21.975-81.702 17.76-72.53 90.098-169.858 7.014-9.437-9.685-27.834 7.598-73.867 16.026-42.685 66.118-113.189 71.987-122.377 22.118-34.625 50.289-54.718 126.453-46.455" fill="#fff"/><path d="m120.295 1803.79c-10.902 0-22.005-1.524-32.897-5.237-28.57-9.737-50.5-26.357-65.178-49.398-12.168-19.101-19.417-42.803-21.543-70.449-3.724-48.404 8.907-98.25 15.693-125.03l.241-.951c5.494-21.687 18.479-37.731 31.037-53.246 11.033-13.632 21.455-26.507 26.578-42.642 3.532-11.123 5.712-21.186 7.635-30.064 1.23-5.678 2.392-11.041 3.788-16.233l2.31-8.605c18.505-69.01 19.221-70.388 76.628-147.439 3.921-5.263 8.113-10.89 12.602-16.928.225-1.332-.304-5.07-.733-8.1-1.708-12.07-4.567-32.272 7.184-63.572 14.123-37.615 53.247-95.211 67.976-116.893 2.33-3.43 4.17-6.14 4.945-7.352 9.311-14.575 23.115-32.647 47.434-43.113 22.162-9.539 50.292-12.049 88.526-7.901 5.491.596 9.458 5.53 8.863 11.02s-5.523 9.46-11.02 8.863c-70.541-7.653-96.295 9.567-116.947 41.896-.926 1.45-2.649 3.986-5.256 7.824-14.362 21.142-52.512 77.304-65.796 112.685-9.957 26.521-7.73 42.252-6.105 53.739 1.147 8.11 2.231 15.77-2.829 22.578-4.564 6.141-8.824 11.859-12.805 17.202q-55.661 74.708-73.349 140.67l-2.314 8.619c-1.268 4.714-2.379 9.843-3.555 15.272-2.017 9.31-4.302 19.862-8.119 31.883-6.266 19.731-18.379 34.698-30.094 49.171-11.715 14.474-22.78 28.145-27.195 45.575l-.242.953c-6.504 25.668-18.611 73.448-15.139 118.583 4.12 53.547 28.074 87.06 73.233 102.451 8.759 2.985 17.785 4.223 26.722 4.223 35.276.001 69.241-19.266 80.585-26.395 10.486-6.589 15.459-15.391 21.757-26.534 3.743-6.623 7.985-14.13 13.848-21.607 3.676-4.689 7.816-9.521 11.82-14.195 9.641-11.255 19.611-22.893 24.798-34.196 3.007-6.552 3.378-15.091 3.772-24.131.456-10.472.927-21.299 5.456-31.342 4.489-9.954 10.717-21.658 16.741-32.978 5.873-11.037 11.946-22.451 16.167-31.81 3.182-7.055 6.927-12.959 10.23-18.167 6.344-10.002 10.928-17.229 9.683-28.449-.396-3.567 1.149-7.072 4.05-9.186 59.743-43.532 58.808-55.768 53.618-123.674-.539-7.052-1.096-14.345-1.642-22.398-.373-5.51 3.791-10.28 9.301-10.653 5.513-.37 10.279 3.792 10.653 9.302.539 7.967 1.093 15.215 1.629 22.225 2.658 34.778 4.414 57.754-3.41 78.574-7.314 19.464-22.119 35.886-53.986 59.563-.007 14.913-6.604 25.314-13.007 35.409-3.092 4.875-6.29 9.916-8.888 15.678-4.489 9.955-10.719 21.662-16.743 32.982-5.872 11.036-11.944 22.447-16.165 31.805-2.947 6.535-3.316 15.013-3.707 23.989-.46 10.566-.935 21.492-5.576 31.604-6.354 13.847-17.25 26.565-27.787 38.865-4.042 4.72-7.861 9.177-11.27 13.525-4.932 6.29-8.614 12.805-12.174 19.105-6.765 11.971-13.76 24.349-28.528 33.629-12.717 7.991-50.66 29.402-91.503 29.405z"/><path d="m535.269 1174.087c-3.674-23.012 2.258-57.654-1.416-80.666 16.905-.141 32.476-.07 49.381-.211-1.359 29.357 2.343 58.942 10.895 87.06-18.339-1.101-40.521-5.081-58.86-6.182z" fill="#72caaf"/><path d="m594.13 1190.268c-.199 0-.399-.006-.6-.018-9.494-.57-19.958-1.882-30.077-3.151-9.802-1.229-19.938-2.5-28.783-3.031-4.681-.281-8.537-3.775-9.276-8.406-1.993-12.484-1.399-27.642-.825-42.301.536-13.686 1.09-27.837-.591-38.365-.459-2.876.358-5.81 2.24-8.034 1.881-2.224 4.639-3.517 7.551-3.542 8.484-.071 16.755-.089 24.753-.106 7.968-.017 16.207-.035 24.628-.105 2.79-.008 5.383 1.086 7.288 3.064 1.905 1.979 2.912 4.654 2.785 7.398-1.313 28.363 2.211 56.519 10.474 83.687.952 3.132.312 6.532-1.715 9.102-1.903 2.413-4.801 3.808-7.852 3.808zm-49.815-25.502c7.067.663 14.435 1.587 21.627 2.489 4.896.614 9.874 1.238 14.733 1.776-5.29-21.537-7.875-43.561-7.713-65.758-4.886.021-9.688.031-14.397.042-4.482.01-9.051.02-13.689.039.501 9.761.085 20.402-.322 30.791-.413 10.555-.837 21.388-.238 30.621z"/><path d="m438.346 1520.117c.326 26.809 4.67 65.05 3.374 91.832-3.468 71.715 4.945 126.16 1.477 197.875 63.977 2.494 127.955 4.988 191.932 7.482 39.219 1.529 83.299-5.322 128.73-5.657 81.955-.605 168.308 2.888 238.457-6.331 10.522-64.648-18.913-86.148-8.391-150.796 3.781-23.231-20.85-111.001-18.497-134.404 10.681-106.261 17.866-167.887 0-270.769-5.598-32.237 8.772-78.013 0-110.395-14.194 2.272-73.711 2.407-99.341 2.272-25.629-.135-49.965 11.082-75.322 7.517-37.795-5.314-76.197-4.662-114.393-3.999-44.362 0-88.786 1.542-133.143 2.312-25.696.446-114.884-13.762-114.884-13.762s15.973 81.549 15.212 102.504c-1.516 41.745-12.894 92.143-8.826 133.674 4.72 48.189-6.975 102.196-6.385 150.646z" fill="#fff"/><path d="m647.124 1827.53c-4.163 0-8.289-.072-12.385-.232l-191.932-7.482c-2.666-.104-5.181-1.269-6.983-3.236s-2.744-4.574-2.615-7.239c1.713-35.42.465-67.266-.742-98.063-1.225-31.228-2.49-63.518-.734-99.813.748-15.473-.474-35.248-1.655-54.372-.82-13.287-1.596-25.838-1.729-36.856-.258-21.146 1.781-43.471 3.753-65.062 2.604-28.516 5.296-58.002 2.679-84.731-2.625-26.797.858-56.57 4.227-85.363 2.055-17.569 3.996-34.164 4.559-49.648.59-16.24-10.65-77.85-15.031-100.219-.628-3.206.35-6.516 2.618-8.867 2.269-2.35 5.536-3.444 8.769-2.931.87.139 85.984 13.648 111.985 13.648.398 0 .782-.003 1.151-.01 14.752-.256 29.774-.604 44.303-.94 29.134-.675 59.262-1.372 88.929-1.374 37.968-.659 77.229-1.336 115.87 4.096 12.637 1.777 25.458-.687 39.028-3.297 11.204-2.154 22.822-4.392 34.954-4.317 39.301.205 86.643-.375 97.708-2.146 5.044-.808 9.895 2.324 11.232 7.26 5.203 19.208 3.1 41.67 1.066 63.394-1.654 17.673-3.218 34.366-.866 47.905 17.506 100.813 11.35 161.872 1.149 263.031l-1.052 10.45c-.976 9.699 4.274 36.703 8.906 60.527 6.056 31.149 11.775 60.571 9.511 74.483-4.954 30.439-.56 50.456 4.093 71.648 4.85 22.094 9.865 44.939 4.298 79.148-.709 4.356-4.19 7.733-8.567 8.308-53.705 7.059-117.572 6.756-179.331 6.461-19.871-.095-40.418-.191-60.354-.045-20.199.149-40.319 1.622-59.776 3.045-19.833 1.451-38.772 2.836-57.033 2.837zm-193.523-27.308 181.917 7.092c20.938.814 43.399-.827 67.18-2.567 19.779-1.447 40.231-2.943 61.087-3.097 20.058-.148 40.666-.05 60.598.044 58.193.275 118.281.562 169.109-5.36 3.176-26.396-.873-44.838-5.139-64.27-4.851-22.094-9.866-44.94-4.298-79.149 1.69-10.388-4.461-42.029-9.403-67.454-5.604-28.824-10.442-53.717-9.174-66.344l1.054-10.456c10.028-99.458 16.081-159.491-.956-257.602-2.808-16.168-1.046-34.989.658-53.191 1.558-16.64 3.16-33.752 1.18-48.092-25.37 1.692-79.371 1.512-91.379 1.448-10.19-.059-20.342 1.895-31.072 3.958-14.579 2.803-29.654 5.702-45.59 3.461-37.112-5.218-75.604-4.549-112.826-3.903-.058 0-.116.001-.174.001-29.464 0-59.502.696-88.551 1.368-14.557.337-29.608.686-44.418.943-.429.007-.874.011-1.333.011-21.234 0-75.38-7.802-101.246-11.722 4.645 24.87 13.335 74.063 12.726 90.818-.591 16.285-2.67 34.058-4.681 51.246-3.245 27.744-6.602 56.432-4.187 81.09 2.803 28.613.022 59.058-2.666 88.5-2.015 22.055-3.917 42.887-3.672 63 .128 10.522.889 22.833 1.693 35.866 1.215 19.664 2.472 39.998 1.67 56.57-1.713 35.42-.465 67.266.742 98.063 1.109 28.306 2.253 57.484 1.15 89.727z"/><path d="m555.086 1497.819c-2.85 0-5.681-1.212-7.658-3.564-3.555-4.227-3.01-10.535 1.217-14.089 68.631-57.714 150.424-101.44 236.536-126.45 5.305-1.54 10.852 1.51 12.393 6.814 1.54 5.303-1.511 10.852-6.814 12.392-83.457 24.24-162.728 66.617-229.241 122.551-1.875 1.577-4.159 2.347-6.432 2.347z"/><path d="m645.15 1600.485c-11.317 0-22.603-.469-33.803-1.415-5.504-.464-9.588-5.302-9.124-10.806s5.307-9.596 10.806-9.123c48.632 4.104 99.016-1.225 145.712-15.413 5.282-1.606 10.87 1.376 12.476 6.661 1.605 5.284-1.377 10.87-6.661 12.475-38.343 11.651-79.057 17.621-119.405 17.621z"/><path d="m1316.151 1551.557c-6.152-19.42 12.298-39.593-1.191-54.858-15.361-17.384-37.517-7.457-57.05-19.972-60.919-39.03-86.438-121.187-153.175-149.126-26.926 35.385-56.115 69.048-87.323 100.722-11.208 11.375-56.177 21.019-56.177 21.019s24.482 46.143 28.526 61.617c5.621 21.506 12.021 53.674 26.25 70.773 8.247 9.91 26.047 16.251 34.226 26.217 10.04 12.233 9.791 28.654 21.276 39.542s27.843 18.526 43.076 14.235c-6.43 9.423-5.87 22.292-1.324 32.755s36.2 21.755 44.232 29.856c29.023 29.27 38.313 53.673 77.701 65.824 39.388 12.15 86.464 7.946 125.108-16.349" fill="#fff"/><path d="m1279.463 1806.755c-15.949 0-31.905-2.317-47.213-7.039-31.211-9.628-45.313-26.365-61.643-45.744-6.098-7.237-12.403-14.72-20.211-22.595-2.213-2.231-9.741-6.236-15.79-9.455-13.593-7.232-26.432-14.063-30.514-23.458-3.703-8.524-4.978-17.552-3.888-25.855-12.222-1.429-24.738-7.591-35.572-17.862-7.858-7.45-11.263-16.574-14.266-24.624-2.2-5.897-4.278-11.467-7.86-15.832-3.072-3.744-9.016-7.462-14.763-11.059-7.026-4.397-14.293-8.944-19.42-15.104-13.707-16.474-20.44-43.491-25.85-65.2-.824-3.306-1.614-6.476-2.389-9.441-3.074-11.762-21.027-46.909-27.686-59.459-1.469-2.769-1.554-6.066-.23-8.907 1.322-2.841 3.901-4.898 6.966-5.557 20.229-4.345 45.538-12.562 51.152-18.26 30.824-31.284 59.923-64.847 86.488-99.759 2.76-3.625 7.619-4.927 11.819-3.169 38.983 16.32 64.501 49.599 89.178 81.783 19.386 25.282 39.432 51.425 65.531 68.147 6.807 4.36 14.543 5.286 22.733 6.267 11.907 1.425 25.402 3.04 36.416 15.503 10.962 12.406 7.55 26.64 4.808 38.077-1.779 7.425-3.461 14.438-1.577 20.383 1.668 5.265-1.248 10.885-6.513 12.553-5.265 1.665-10.886-1.247-12.554-6.513-3.562-11.243-1.034-21.785 1.195-31.086 2.65-11.055 3.36-15.975-.347-20.171-5.691-6.44-12.413-7.525-23.805-8.888-9.6-1.149-20.48-2.451-31.146-9.285-29.051-18.612-50.18-46.168-70.613-72.817-22.47-29.305-43.781-57.099-74.089-72.312-25.749 33.304-53.735 65.34-83.279 95.324-9.189 9.327-33.053 16.734-48.514 20.752 7.746 15.125 20.37 40.684 23.415 52.337.793 3.034 1.602 6.278 2.445 9.662 4.917 19.731 11.036 44.287 21.816 57.243 3.078 3.698 8.964 7.381 14.656 10.943 7.111 4.45 14.465 9.052 19.613 15.325 5.695 6.94 8.587 14.69 11.139 21.528 2.569 6.888 4.789 12.836 9.287 17.101 8.373 7.938 21.572 15.225 33.484 11.867 4.044-1.14 8.376.373 10.831 3.788s2.512 8 .142 11.474c-3.873 5.675-4.045 14.719-.445 23.061 2.021 3.43 14.748 10.201 21.596 13.844 8.721 4.64 16.253 8.647 20.598 13.029 8.379 8.45 15.246 16.6 21.304 23.79 15.47 18.359 26.646 31.624 52.243 39.52 38.887 11.994 82.563 6.29 116.839-15.259 4.678-2.94 10.848-1.532 13.788 3.144 2.939 4.675 1.532 10.849-3.144 13.788-25.639 16.119-55.882 24.477-86.165 24.478zm-157.034-116.274s.005.009.007.015c-.002-.005-.005-.01-.007-.015z"/><path d="m1040.731 1280.911c19.973 13.973 14.881 38.567 9.433 61.929-5.134 22.014-9.703 25.064-18.821 37.526-15.251 20.843-8.966 40.511-27.811 50.845-22.646 12.419-38.302 13.902-64.057 15.84-1.768 17.914 8.912 21.356 19.915 24.012 13.512 3.262 23.795 30.25 36.963 34.701 13.098 4.428 42.136-17.613 53.478-25.519 25.898-18.05 33.746-39.239 46.549-63.84 8.583-16.492 12.764-28.012 15.45-46.409 1.626-11.138 9.98-27.131 2.746-33.531-11.054-9.781-20.844-28.319-35.44-39.766-14.193-11.131-27.261-24.248-38.405-15.788z" fill="#fff"/><path d="m1000.152 1516.327c-2.457 0-4.797-.345-7.001-1.09-9.273-3.135-16.026-11.96-22.558-20.495-4.234-5.533-10.032-13.11-13.55-13.959-9.045-2.183-30.227-7.295-27.52-34.715.477-4.833 4.357-8.625 9.2-8.989 26.075-1.963 39.518-3.405 59.999-14.636 6.774-3.715 8.527-8.848 11.551-19.185 2.394-8.188 5.373-18.377 12.998-28.798 1.523-2.083 2.935-3.926 4.181-5.551 6.092-7.955 9.149-11.948 12.973-28.34 5.596-23.996 8.482-41.733-5.427-51.464-2.618-1.832-4.203-4.805-4.266-8s1.406-6.227 3.951-8.159c5.162-3.918 13.844-7.409 25.9-1.802 6.654 3.095 12.902 8.156 19.518 13.515 1.716 1.39 3.451 2.797 5.204 4.171 9.183 7.202 16.455 16.633 22.87 24.955 4.573 5.931 8.893 11.533 13.025 15.19 9.835 8.702 5.961 22.216 2.848 33.075-1 3.489-1.944 6.784-2.324 9.39-2.72 18.626-6.876 31.137-16.474 49.58-1.783 3.425-3.494 6.835-5.148 10.133-10.413 20.752-20.248 40.354-44.554 57.295-1.046.729-2.244 1.58-3.569 2.521-18.269 12.97-37.114 25.357-51.828 25.357zm-49.78-60.118c1.585 2.473 5.015 3.6 11.364 5.133 10.403 2.511 17.692 12.036 24.74 21.247 4.269 5.578 9.581 12.52 13.079 13.703.03.006 4.008 1.031 16.813-5.982 8.729-4.781 17.938-11.32 24.033-15.646 1.378-.978 2.624-1.863 3.712-2.621 20.142-14.039 28.072-29.845 38.113-49.856 1.688-3.363 3.433-6.841 5.283-10.396 8.536-16.403 12.041-26.91 14.424-43.237.575-3.935 1.752-8.041 2.89-12.012 1.071-3.735 3.019-10.529 2.643-13.018-5.358-4.853-10.108-11.014-15.129-17.525-5.978-7.754-12.159-15.771-19.373-21.429-1.836-1.44-3.654-2.912-5.452-4.368-1.394-1.129-2.768-2.243-4.114-3.311 4.063 15.81-.113 33.717-3.496 48.221-4.578 19.633-9.054 26.143-16.571 35.958-1.24 1.62-2.523 3.295-3.918 5.201-5.554 7.59-7.785 15.221-9.943 22.601-3.187 10.897-6.798 23.249-21.129 31.107-20.909 11.466-36.258 14.321-57.969 16.23z"/><path d="m1056.797 1312.373c0 75.645-40.453 136.968-90.355 136.968-37.604 0-69.777-19.161-60.99-79.345 2.427-16.623-29.365-38.981-29.365-57.623 0-75.645 40.453-136.968 90.355-136.968 28.378 0 64.034 16.615 80.599 47.633 6.008 11.251.53 27.189 3.962 40.971 3.745 15.039 5.794 31.339 5.794 48.364z" fill="#fff"/><path d="m966.442 1459.341c-24.688 0-44.34-7.636-56.83-22.083-13.673-15.814-18.401-38.93-14.055-68.706.623-4.265-6.768-13.929-12.165-20.985-8.507-11.124-17.305-22.627-17.305-35.194 0-38.521 9.985-74.872 28.117-102.358 18.977-28.768 44.632-44.611 72.237-44.611 29.455 0 70.002 16.561 89.421 52.923 4.635 8.679 4.318 18.529 4.04 27.218-.188 5.84-.364 11.356.804 16.047 4.042 16.228 6.091 33.313 6.091 50.781 0 38.521-9.985 74.872-28.117 102.358-18.978 28.768-44.632 44.611-72.238 44.611zm0-273.936c-20.663 0-40.389 12.651-55.543 35.624-16 24.254-24.812 56.695-24.812 91.345 0 5.796 7.008 14.959 13.191 23.043 8.805 11.512 17.909 23.417 16.069 36.024-3.471 23.771-.311 41.514 9.393 52.737 10.836 12.533 28.658 15.164 41.701 15.164 20.664 0 40.39-12.651 55.544-35.624 16-24.254 24.812-56.695 24.812-91.345 0-15.84-1.85-31.299-5.498-45.948-1.84-7.387-1.599-14.896-1.387-21.521.218-6.785.424-13.194-1.692-17.156-14.846-27.799-47.347-42.344-71.778-42.344z"/><path d="m998.169 1242.516c-19.2 6.936-95.464 4.711-105.573 2.887-10.108-1.824-32.347-6.204-33.575-28.152-1.55-27.695 27.328-41.074 40.241-43.922 29.016-6.4 87.652-3.448 125.495 23.315" fill="#fff"/><path d="m940.38 1257.27c-23.306 0-44.836-1.173-49.56-2.026-4.755-.858-14.648-2.644-23.377-7.731-11.323-6.6-17.688-16.871-18.406-29.703-1.77-31.63 27.778-49.77 48.071-54.246 31.081-6.855 93.02-3.658 133.423 24.916 4.509 3.189 5.579 9.43 2.39 13.939-3.188 4.509-9.431 5.579-13.938 2.39-35.031-24.776-90.863-27.605-117.565-21.715-8.788 1.938-33.604 12.271-32.411 33.598.574 10.255 7.923 15.722 25.367 18.87 10.578 1.909 84.356 3.344 100.398-2.451 5.194-1.877 10.925.813 12.803 6.007 1.876 5.194-.813 10.926-6.008 12.803-11.369 4.107-37.217 5.349-61.187 5.349z"/><path d="m1000.009 1304.983c-27.066-11.606-108.989-6.632-118.979-9.023s-31.946-8.017-31.936-29.999c.013-27.739 29.012-38.344 42.064-40.46 29.33-4.755 99.965-4.138 123.109 15.653" fill="#fff"/><path d="m1000.005 1314.986c-1.314 0-2.651-.261-3.937-.812-16.759-7.187-61.738-7.32-88.612-7.399-16.994-.05-24.679-.114-28.754-1.089-4.698-1.125-14.476-3.465-22.903-9.036-10.934-7.227-16.71-17.841-16.704-30.692.007-15.289 7.029-28.414 20.307-37.955 12.478-8.966 26.237-11.737 30.157-12.372 27.275-4.422 103.764-5.544 131.208 17.924 4.197 3.59 4.69 9.902 1.101 14.099-3.588 4.197-9.899 4.691-14.099 1.101-8.379-7.166-27.905-12.511-53.572-14.667-24.355-2.045-48.405-.828-61.437 1.284-.337.055-33.653 5.744-33.665 30.594-.005 10.271 7.025 16.143 24.264 20.269 2.445.475 13.98.509 24.157.54 40.014.118 77.498.897 96.436 9.018 5.075 2.177 7.426 8.056 5.249 13.132-1.625 3.791-5.316 6.062-9.195 6.062z"/><path d="m1001.655 1363.033c-19.651 5.533-95.555-2.188-105.506-4.737s-31.815-8.522-31.457-30.501c.452-27.735 25.373-30.436 38.457-32.345 29.402-4.29 85.226-3.353 108.053 16.803" fill="#fff"/><path d="m977.291 1374.997c-32.063 0-76.652-5.229-83.622-7.014-4.681-1.199-14.42-3.694-22.759-9.397-10.817-7.4-16.425-18.103-16.216-30.954.247-15.156 6.716-26.88 18.705-33.907 9.271-5.433 19.99-6.974 27.083-7.994l1.224-.177c22.525-3.286 87.297-6.244 116.117 19.202 4.14 3.656 4.532 9.975.877 14.115-3.656 4.139-9.975 4.533-14.115.877-19.223-16.974-71.028-18.63-99.991-14.404l-1.266.183c-18.794 2.702-28.383 6.913-28.636 22.43-.168 10.269 6.768 16.252 23.939 20.65 10.414 2.668 83.896 9.42 100.314 4.799 5.313-1.499 10.839 1.6 12.336 6.916 1.496 5.316-1.6 10.839-6.916 12.336-5.989 1.687-15.752 2.339-27.075 2.339z"/><path d="m992.411 1407.326c-21.804-11.327-76.038-1.741-83.956-3.77-7.918-2.028-25.316-6.781-25.031-24.271.36-22.07 20.191-24.219 30.602-25.739 23.397-3.414 72.991-4.6 91.155 11.439" fill="#fff"/><path d="m992.403 1417.328c-1.553 0-3.128-.363-4.602-1.128-12.553-6.522-42.448-4.417-60.311-3.159-12.134.854-17.66 1.191-21.517.202-3.838-.983-11.824-3.029-18.756-7.771-9.202-6.294-13.971-15.406-13.793-26.35.487-29.91 27.876-33.848 38.187-35.331l.97-.14c.719-.105 72.015-10.184 99.219 13.838 4.14 3.656 4.532 9.975.877 14.115-3.656 4.139-9.974 4.533-14.115.877-14.031-12.389-57.877-12.719-83.093-9.039l-1.011.146c-14.401 2.071-20.856 4.852-21.035 15.86-.115 7.072 4.73 11.109 17.262 14.356 2.104.224 9.464-.295 15.4-.714 22.529-1.586 53.381-3.759 70.937 5.362 4.9 2.546 6.81 8.583 4.264 13.484-1.781 3.428-5.27 5.392-8.883 5.392z"/><path d="m1119.898 1672.439c-1.918 0-3.837-.042-5.755-.127-5.518-.245-9.792-4.916-9.548-10.433.245-5.517 4.923-9.79 10.433-9.547 29.172 1.296 58.44-9.033 80.339-28.328 4.143-3.652 10.463-3.253 14.114.892 3.651 4.144 3.252 10.463-.892 14.114-24.304 21.414-56.343 33.429-88.691 33.429z"/><path d="m1149.585 1555.537c-3.869 0-7.552-2.258-9.185-6.036-2.19-5.07.144-10.956 5.213-13.146 26.168-11.308 47.147-35.401 54.75-62.877 2.497-9.023 4.471-22.094-.307-33.125-2.194-5.068.135-10.956 5.203-13.15 5.066-2.193 10.955.135 13.15 5.203 5.616 12.969 6.041 29.016 1.229 46.405-9.316 33.67-34.023 62.045-66.092 75.903-1.293.559-2.638.823-3.962.823z"/><path d="m103.849 1551.557c6.152-19.42-12.298-39.593 1.191-54.858 15.361-17.384 37.517-7.457 57.05-19.972 60.919-39.03 86.438-121.187 153.175-149.126 26.926 35.385 56.115 69.048 87.323 100.722 11.208 11.375 56.177 21.019 56.177 21.019s-24.482 46.143-28.526 61.617c-5.621 21.506-12.021 53.674-26.25 70.773-8.247 9.91-26.047 16.251-34.226 26.217-10.04 12.233-9.791 28.654-21.276 39.542s-27.843 18.526-43.076 14.235c6.43 9.423 5.87 22.292 1.324 32.755s-36.2 21.755-44.232 29.856c-29.023 29.27-38.313 53.673-77.701 65.824-39.388 12.15-86.464 7.946-125.108-16.349" fill="#fff"/><path d="m140.538 1806.755c-30.286 0-60.524-8.357-86.165-24.477-4.676-2.939-6.083-9.113-3.144-13.788 2.94-4.676 9.114-6.083 13.788-3.144 34.276 21.548 77.953 27.253 116.838 15.259 25.597-7.896 36.774-21.161 52.243-39.519 6.059-7.19 12.925-15.34 21.304-23.79 4.346-4.382 11.877-8.39 20.598-13.029 6.848-3.643 19.575-10.415 21.596-13.844 3.601-8.341 3.428-17.385-.444-23.061-2.37-3.474-2.314-8.059.141-11.474 2.454-3.414 6.784-4.929 10.831-3.788 11.916 3.359 25.111-3.929 33.484-11.867 4.498-4.264 6.717-10.212 9.287-17.1 2.551-6.838 5.443-14.588 11.139-21.528 5.148-6.274 12.502-10.875 19.613-15.325 5.692-3.563 11.578-7.246 14.656-10.944 10.78-12.955 16.899-37.51 21.815-57.24.844-3.385 1.652-6.63 2.446-9.666 3.046-11.652 15.669-37.211 23.415-52.336-15.461-4.018-39.324-11.425-48.514-20.752-29.542-29.983-57.529-62.019-83.279-95.324-30.308 15.213-51.619 43.007-74.089 72.312-20.434 26.649-41.563 54.205-70.613 72.817-10.667 6.834-21.547 8.136-31.146 9.285-11.392 1.363-18.114 2.448-23.805 8.888-3.708 4.196-2.997 9.116-.347 20.171 2.229 9.3 4.757 19.842 1.195 31.085-1.668 5.265-7.284 8.182-12.553 6.513-5.265-1.668-8.181-7.288-6.513-12.553 1.883-5.945.202-12.958-1.578-20.383-2.742-11.437-6.154-25.67 4.808-38.077 11.013-12.464 24.509-14.079 36.416-15.503 8.191-.98 15.928-1.906 22.734-6.267 26.1-16.722 46.145-42.865 65.53-68.147 24.677-32.184 50.194-65.463 89.178-81.783 4.201-1.759 9.061-.456 11.819 3.169 26.566 34.913 55.666 68.476 86.488 99.759 5.614 5.698 30.923 13.915 51.152 18.26 3.064.658 5.644 2.715 6.966 5.557 1.323 2.841 1.238 6.139-.23 8.907-6.658 12.55-24.611 47.697-27.686 59.459-.775 2.966-1.564 6.137-2.389 9.443-5.41 21.708-12.142 48.725-25.85 65.197-5.127 6.161-12.393 10.708-19.42 15.105-5.747 3.597-11.689 7.315-14.762 11.059-3.582 4.365-5.66 9.935-7.86 15.832-3.003 8.05-6.408 17.173-14.266 24.624-10.833 10.27-23.352 16.433-35.572 17.862 1.09 8.304-.184 17.331-3.889 25.856-4.082 9.395-16.92 16.225-30.513 23.457-6.049 3.218-13.578 7.224-15.79 9.455-7.809 7.875-14.114 15.358-20.212 22.595-16.329 19.379-30.432 36.115-61.642 45.743-15.306 4.721-31.267 7.039-47.213 7.039zm157.032-116.274s-.004.01-.007.015c.002-.005.004-.01.007-.015z"/><path d="m379.269 1280.911c-19.973 13.973-14.881 38.567-9.433 61.929 5.134 22.014 9.703 25.064 18.821 37.526 15.251 20.843 8.966 40.511 27.811 50.845 22.646 12.419 38.302 13.902 64.057 15.84 1.768 17.914-8.912 21.356-19.915 24.012-13.512 3.262-23.795 30.25-36.963 34.701-13.098 4.428-42.136-17.613-53.478-25.519-25.898-18.05-33.746-39.239-46.549-63.84-8.583-16.492-12.764-28.012-15.45-46.409-1.626-11.138-9.98-27.131-2.746-33.531 11.054-9.781 20.844-28.319 35.44-39.766 14.193-11.131 27.261-24.248 38.405-15.788z" fill="#fff"/><path d="m419.849 1516.327c-14.716 0-33.56-12.387-51.829-25.357-1.325-.941-2.524-1.792-3.57-2.521-24.307-16.941-34.142-36.543-44.554-57.296-1.655-3.297-3.366-6.707-5.147-10.131-9.598-18.444-13.755-30.955-16.474-49.581-.38-2.605-1.325-5.901-2.325-9.39-3.113-10.859-6.986-24.373 2.847-33.075 4.133-3.657 8.452-9.259 13.025-15.19 6.416-8.322 13.688-17.753 22.871-24.955 1.753-1.375 3.488-2.781 5.204-4.171 6.616-5.359 12.864-10.421 19.518-13.515 12.059-5.609 20.74-2.115 25.9 1.802 2.545 1.932 4.014 4.964 3.952 8.159s-1.647 6.168-4.266 8c-13.909 9.731-11.023 27.468-5.427 51.464 3.823 16.393 6.881 20.386 12.973 28.341 1.245 1.626 2.656 3.469 4.18 5.551 7.625 10.42 10.605 20.61 12.999 28.798 3.023 10.336 4.776 15.469 11.551 19.184 20.481 11.232 33.924 12.674 59.999 14.636 4.843.364 8.724 4.156 9.2 8.989 2.707 27.42-18.475 32.532-27.521 34.715-3.517.849-9.315 8.427-13.55 13.96-6.531 8.534-13.284 17.359-22.557 20.494-2.203.745-4.545 1.09-7 1.09zm-107.315-172.805c-.376 2.489 1.572 9.283 2.642 13.018 1.138 3.971 2.315 8.077 2.89 12.012 2.383 16.327 5.888 26.833 14.425 43.237 1.85 3.555 3.595 7.032 5.282 10.395 10.041 20.012 17.972 35.819 38.114 49.857 1.087.758 2.334 1.643 3.712 2.621 6.094 4.327 15.303 10.865 24.033 15.646 12.802 7.011 16.781 5.988 16.825 5.979 3.486-1.179 8.798-8.121 13.066-13.698 7.049-9.211 14.338-18.736 24.74-21.247 6.351-1.533 9.78-2.66 11.365-5.133-21.711-1.909-37.06-4.764-57.969-16.23-14.331-7.859-17.943-20.21-21.129-31.107-2.158-7.38-4.39-15.011-9.943-22.601-1.395-1.906-2.677-3.581-3.917-5.201-7.517-9.816-11.993-16.325-16.572-35.959-3.383-14.505-7.559-32.411-3.495-48.221-1.347 1.068-2.722 2.182-4.116 3.311-1.797 1.456-3.615 2.928-5.451 4.368-7.214 5.658-13.396 13.676-19.375 21.43-5.02 6.511-9.769 12.671-15.127 17.524z"/><path d="m363.203 1312.373c0 75.645 40.453 136.968 90.355 136.968 37.604 0 69.777-19.161 60.99-79.345-2.427-16.623 29.365-38.981 29.365-57.623 0-75.645-40.453-136.968-90.355-136.968-28.378 0-64.034 16.615-80.599 47.633-6.008 11.251-.53 27.189-3.962 40.971-3.745 15.039-5.794 31.339-5.794 48.364z" fill="#fff"/><path d="m453.557 1459.341c-27.605 0-53.261-15.843-72.238-44.611-18.131-27.485-28.117-63.837-28.117-102.358 0-17.468 2.049-34.553 6.09-50.781 1.168-4.69.991-10.206.804-16.046-.278-8.69-.594-18.54 4.041-27.219 19.418-36.361 59.964-52.923 89.419-52.923 27.606 0 53.261 15.843 72.238 44.611 18.132 27.485 28.117 63.837 28.117 102.358 0 12.567-8.798 24.07-17.305 35.194-5.397 7.056-12.788 16.72-12.165 20.985 4.347 29.776-.382 52.892-14.055 68.706-12.49 14.447-32.143 22.083-56.831 22.083zm0-273.936c-24.432 0-56.932 14.545-71.778 42.344-2.116 3.962-1.91 10.371-1.693 17.157.212 6.624.454 14.133-1.386 21.52-3.648 14.648-5.498 30.107-5.498 45.948 0 34.65 8.812 67.09 24.812 91.345 15.154 22.972 34.88 35.624 55.543 35.624 13.043 0 30.866-2.631 41.702-15.164 9.703-11.223 12.863-28.966 9.393-52.736-1.84-12.608 7.265-24.512 16.069-36.024 6.184-8.084 13.191-17.248 13.191-23.043 0-34.65-8.812-67.09-24.812-91.345-15.154-22.972-34.88-35.624-55.544-35.624z"/><path d="m421.831 1242.516c19.2 6.936 95.464 4.711 105.573 2.887 10.108-1.824 32.347-6.204 33.575-28.152 1.55-27.695-27.328-41.074-40.241-43.922-29.016-6.4-87.652-3.448-125.495 23.315" fill="#fff"/><path d="m479.621 1257.27c-23.972 0-49.816-1.241-61.188-5.349-5.194-1.876-7.884-7.608-6.008-12.803 1.876-5.194 7.609-7.885 12.803-6.007 16.042 5.794 89.821 4.36 100.399 2.451 17.444-3.148 24.793-8.615 25.367-18.87 1.193-21.326-23.623-31.66-32.411-33.598-26.701-5.89-82.533-3.062-117.566 21.715-4.509 3.189-10.75 2.118-13.938-2.39-3.189-4.509-2.119-10.75 2.391-13.939 40.401-28.574 102.344-31.772 133.423-24.916 20.293 4.476 49.841 22.616 48.071 54.246-.719 12.832-7.083 23.103-18.406 29.703-8.729 5.088-18.622 6.873-23.377 7.731-4.723.852-26.257 2.026-49.56 2.026z"/><path d="m419.991 1304.983c27.066-11.606 108.989-6.632 118.979-9.023s31.946-8.017 31.936-29.999c-.013-27.739-29.012-38.344-42.064-40.46-29.33-4.755-99.965-4.138-123.109 15.653" fill="#fff"/><path d="m419.996 1314.986c-3.879 0-7.57-2.271-9.195-6.062-2.177-5.076.174-10.955 5.249-13.132 18.938-8.12 56.422-8.899 96.436-9.018 10.176-.03 21.71-.064 24.232-.557 17.163-4.108 24.192-9.981 24.188-20.251-.012-24.851-33.327-30.539-33.664-30.594-13.033-2.113-37.085-3.33-61.437-1.284-25.667 2.155-45.193 7.501-53.572 14.667-4.196 3.59-10.51 3.096-14.099-1.101-3.589-4.198-3.097-10.51 1.101-14.099 27.443-23.469 103.934-22.346 131.208-17.924 3.92.635 17.68 3.406 30.157 12.372 13.277 9.541 20.299 22.666 20.306 37.955.006 12.852-5.77 23.465-16.703 30.693-8.428 5.572-18.206 7.912-22.905 9.036-4.073.975-11.759 1.039-28.753 1.089-26.874.079-71.853.212-88.611 7.399-1.285.551-2.622.812-3.937.812z"/><path d="m418.345 1363.033c19.651 5.533 95.555-2.188 105.506-4.737s31.815-8.522 31.457-30.501c-.452-27.735-25.373-30.436-38.457-32.345-29.402-4.29-85.226-3.353-108.053 16.803" fill="#fff"/><path d="m442.71 1374.997c-11.327 0-21.084-.652-27.075-2.339-5.316-1.497-8.412-7.02-6.916-12.336 1.497-5.315 7.013-8.414 12.336-6.916 16.415 4.622 89.898-2.131 100.314-4.799 17.171-4.398 24.106-10.381 23.939-20.651-.253-15.517-9.842-19.728-28.637-22.43l-1.267-.183c-28.957-4.226-80.765-2.57-99.989 14.404-4.14 3.656-10.46 3.263-14.115-.877s-3.263-10.459.877-14.115c28.819-25.446 93.593-22.489 116.115-19.202l1.225.177c7.094 1.02 17.813 2.561 27.083 7.994 11.99 7.027 18.459 18.751 18.706 33.907.209 12.851-5.398 23.554-16.217 30.954-8.338 5.704-18.077 8.198-22.758 9.397-6.97 1.785-51.56 7.014-83.622 7.014z"/><path d="m427.589 1407.326c21.804-11.327 76.038-1.741 83.956-3.77 7.918-2.028 25.316-6.781 25.031-24.271-.36-22.07-20.191-24.219-30.602-25.739-23.397-3.414-72.991-4.6-91.155 11.439" fill="#fff"/><path d="m427.597 1417.328c-3.614 0-7.102-1.964-8.883-5.392-2.546-4.901-.637-10.938 4.264-13.484 17.557-9.12 48.409-6.947 70.937-5.362 5.937.418 13.298.938 15.4.714 12.531-3.247 17.377-7.284 17.262-14.355-.179-11.009-6.634-13.79-21.036-15.861l-1.012-.146c-25.211-3.679-69.06-3.351-83.092 9.04-4.142 3.656-10.46 3.262-14.115-.877s-3.263-10.459.877-14.115c27.207-24.021 98.501-13.943 99.218-13.838l.971.14c10.311 1.482 37.7 5.42 38.188 35.331.178 10.944-4.591 20.056-13.793 26.35-6.932 4.742-14.918 6.788-18.756 7.771-3.858.988-9.386.652-21.517-.202-17.863-1.258-47.759-3.363-60.311 3.159-1.474.765-3.05 1.128-4.602 1.128z"/><path d="m304.614 1671.589c-2.337 0-4.684-.814-6.581-2.474-27.818-24.34-48.332-57.427-57.76-93.168-1.409-5.34 1.779-10.812 7.119-12.22 5.344-1.406 10.812 1.779 12.22 7.119 8.421 31.923 26.743 61.478 51.591 83.218 4.156 3.637 4.578 9.954.941 14.111-1.977 2.259-4.747 3.415-7.53 3.415z"/><path d="m69.859 1632.558c-3.851 0-7.521-2.237-9.166-5.991-8.049-18.379-9.798-39.879-4.927-60.54 4.872-20.661 16.042-39.114 31.455-51.96 4.243-3.537 10.548-2.964 14.084 1.278 3.537 4.242 2.964 10.548-1.278 14.084-25.075 20.901-34.108 59.212-21.013 89.114 2.215 5.059-.089 10.956-5.148 13.172-1.306.572-2.667.842-4.006.842z"/><path d="m134.628 1648.803c-2.115 0-4.247-.668-6.058-2.05-32.751-24.986-47.309-71.566-34.616-110.755 1.701-5.254 7.338-8.135 12.595-6.433 5.254 1.702 8.134 7.341 6.433 12.595-10.165 31.383 1.494 68.684 27.72 88.693 4.391 3.35 5.235 9.625 1.885 14.016-1.968 2.58-4.946 3.935-7.958 3.935z"/></svg>