<svg width="193" height="48" viewBox="0 0 193 48" fill="none" xmlns="http://www.w3.org/2000/svg">
<path d="M63.8393 11.513C62.7 10.9384 61.7538 10.7184 60.4921 10.7184C55.8478 10.7184 52.4707 14.0015 52.4707 18.5001C52.4707 22.7401 55.9131 26.0892 60.2719 26.0892C61.5662 26.0892 62.545 25.8665 63.8393 25.2918V20.9528C63.0154 21.588 62.1943 21.9069 61.2806 21.9069C59.1652 21.9069 57.7404 20.4716 57.7404 18.3681C57.7404 16.3938 59.2277 14.9227 61.2154 14.9227C62.1317 14.9227 62.855 15.1784 63.8393 15.8438V11.513Z" fill="white"/>
<path fill-rule="evenodd" clip-rule="evenodd" d="M73.4787 10.6194C68.4266 10.6194 64.8591 13.842 64.8591 18.3681C64.8591 22.9298 68.4266 26.1497 73.4787 26.1497C78.4982 26.1497 82.0711 22.9298 82.0711 18.3681C82.0684 13.842 78.4982 10.6194 73.4787 10.6194ZM73.4787 15.0189C75.2815 15.0189 76.7335 16.4873 76.7335 18.3351C76.7335 20.1526 75.2815 21.654 73.4787 21.654C71.6515 21.654 70.1968 20.1526 70.1968 18.3351C70.194 16.49 71.6488 15.0189 73.4787 15.0189Z" fill="white"/>
<path d="M83.7324 11.1611V25.608H88.7845V18.467C88.7845 17.1884 88.877 16.5202 89.1299 16.0088C89.4453 15.3406 90.329 14.7989 91.0876 14.7989C91.9387 14.7989 92.7952 15.3709 93.078 16.1683C93.2684 16.6825 93.2983 16.9327 93.2983 18.467V25.608H98.3504V18.467C98.3504 16.1023 99.1716 14.8924 100.749 14.8924C101.57 14.8924 102.266 15.3709 102.611 16.1655C102.831 16.7402 102.867 16.9959 102.867 18.4643V25.6053H107.916V16.2288C107.916 12.7861 106.211 10.9026 103.087 10.9026C101.002 10.9026 99.3945 11.8292 98.2552 13.6138C97.1159 11.733 95.634 10.9356 93.3907 10.9356C91.5254 10.9356 90.2665 11.4773 88.7818 12.9429V11.1583H83.7324V11.1611Z" fill="white"/>
<path d="M110.247 11.1611V25.608H115.299V18.467C115.299 17.1884 115.397 16.5202 115.649 16.0088C115.968 15.3406 116.851 14.7989 117.607 14.7989C118.464 14.7989 119.312 15.3709 119.595 16.1683C119.785 16.6825 119.821 16.9327 119.821 18.467V25.608H124.867V18.467C124.867 16.1023 125.691 14.8924 127.271 14.8924C128.092 14.8924 128.786 15.3709 129.134 16.1655C129.354 16.7402 129.384 16.9959 129.384 18.4643V25.6053H134.439V16.2288C134.439 12.7861 132.728 10.9026 129.604 10.9026C127.521 10.9026 125.911 11.8292 124.775 13.6138C123.633 11.733 122.154 10.9356 119.91 10.9356C118.042 10.9356 116.781 11.4773 115.296 12.9429V11.1583H110.247V11.1611Z" fill="white"/>
<path fill-rule="evenodd" clip-rule="evenodd" d="M151.928 19.3249V18.654C151.928 13.7128 148.929 10.7486 143.972 10.7486C139.238 10.7486 136.173 13.809 136.173 18.5275C136.173 23.1855 139.425 26.18 144.475 26.18C148.268 26.18 150.761 24.4614 151.71 21.2085H146.846C146.215 22.1929 145.584 22.5778 144.415 22.5778C142.329 22.5778 141.321 21.5275 141.288 19.3249H151.928ZM141.41 16.358C141.696 14.8622 142.705 14.0317 144.35 14.0317C145.766 14.0317 146.873 14.9254 147.224 16.358H141.41Z" fill="white"/>
<path d="M153.581 11.161V25.608H158.633V19.4212C158.633 16.7402 159.805 15.3708 162.173 15.3708C163.027 15.3708 163.498 15.4671 164.319 15.885V11.0071C163.816 10.9686 163.688 10.9686 163.343 10.9686C161.165 10.9686 159.808 11.7 158.636 13.523V11.161H153.581Z" fill="white"/>
<path d="M176.22 11.513C175.081 10.9384 174.138 10.7184 172.873 10.7184C168.234 10.7184 164.852 14.0015 164.852 18.5001C164.852 22.7401 168.294 26.0892 172.656 26.0892C173.95 26.0892 174.926 25.8665 176.22 25.2918V20.9528C175.399 21.588 174.578 21.9069 173.664 21.9069C171.549 21.9069 170.127 20.4716 170.127 18.3681C170.127 16.3938 171.609 14.9227 173.602 14.9227C174.518 14.9227 175.244 15.1784 176.223 15.8438V11.513H176.22Z" fill="white"/>
<path fill-rule="evenodd" clip-rule="evenodd" d="M192.967 19.3249V18.654C192.967 13.7128 189.974 10.7486 185.011 10.7486C180.277 10.7486 177.21 13.809 177.21 18.5275C177.21 23.1855 180.465 26.18 185.517 26.18C189.308 26.18 191.798 24.4614 192.747 21.2085H187.885C187.252 22.1929 186.618 22.5778 185.452 22.5778C183.369 22.5778 182.355 21.5275 182.325 19.3249H192.967ZM182.453 16.358C182.738 14.8622 183.75 14.0317 185.392 14.0317C186.811 14.0317 187.918 14.9254 188.266 16.358H182.453Z" fill="white"/>
<path d="M0 11.0758V25.6218H2.46352V17.9446C2.46352 14.5432 3.29557 13.1078 5.30771 13.1078C5.82978 13.1078 6.1452 13.2123 6.76516 13.5973L7.9099 11.3563C7.04251 10.8641 6.52044 10.7266 5.72102 10.7266C4.36962 10.7266 3.74422 11.1116 2.4608 12.6541V11.0758H0Z" fill="white"/>
<path fill-rule="evenodd" clip-rule="evenodd" d="M24.1647 19.2727V18.6018C24.1647 13.6605 21.1656 10.6936 16.2086 10.6936C11.4719 10.6936 8.40747 13.754 8.40747 18.4753C8.40747 23.1305 11.6595 26.1305 16.7116 26.1305C20.5021 26.1305 22.9955 24.4036 23.9445 21.1535H19.08C18.4519 22.1434 17.8183 22.5228 16.6518 22.5228C14.5635 22.5228 13.5575 21.4725 13.5248 19.2754H24.1647V19.2727ZM13.6499 16.3058C13.9354 14.8044 14.9469 13.9795 16.5866 13.9795C18.0032 13.9795 19.1153 14.8732 19.4607 16.3058H13.6499Z" fill="#B2C72C"/>
<path fill-rule="evenodd" clip-rule="evenodd" d="M38.9976 11.0071V13.0749C37.5728 11.392 36.0501 10.6551 33.9998 10.6551C30.0082 10.6551 27.0906 13.8475 27.0906 18.2608C27.0906 22.6796 30.0408 25.9737 33.9998 25.9737C36.0827 25.9737 37.6108 25.2396 38.9976 23.5183V25.5503H41.4611V11.0071H38.9976ZM34.3125 12.9346C37.1567 12.9346 39.1716 15.1069 39.1716 18.1893C39.1716 21.4532 37.2247 23.6942 34.3479 23.6942C31.607 23.6942 29.6275 21.3817 29.6275 18.1563C29.6275 15.2141 31.675 12.9346 34.3125 12.9346Z" fill="white"/>
<path d="M48.5363 0H46.0728V25.5503H48.5363V0Z" fill="white"/>
<path d="M153.769 31.18H151.445V44.1488H153.769V31.18Z" fill="white"/>
<path d="M124.679 31.2257H127.749L130.2 35.7536L132.617 31.2257H135.624L131.312 38.2669V44.1886H129.088V38.2669L124.679 31.2257Z" fill="white"/>
<path d="M144.37 37.9083C144.42 37.7414 144.5 37.5666 144.61 37.3848C144.721 37.203 144.868 37.0381 145.053 36.892C145.239 36.745 145.445 36.6337 145.671 36.5573C145.897 36.4808 146.133 36.443 146.379 36.443C146.59 36.443 147.141 36.4669 147.328 36.5135C147.514 36.5602 147.68 36.6278 147.824 36.7162C147.968 36.8046 148.097 36.9139 148.209 37.046C148.322 37.1781 148.412 37.3311 148.483 37.504C148.553 37.6768 148.601 37.8308 148.625 37.9659C148.649 38.101 148.669 38.3096 148.684 38.5907L144.23 38.5818C144.274 38.2997 144.321 38.0752 144.37 37.9083ZM147.914 42.5951C145.096 42.5951 144.557 41.557 144.405 41.2272C144.123 40.4722 144.207 39.9587 144.214 39.6149L150.679 39.606C150.679 39.3378 150.679 39.158 150.679 38.7507C150.644 37.9848 150.475 37.502 150.254 37.0232C150.034 36.5443 149.779 36.2602 149.397 35.9195C149.014 35.5788 148.55 35.3324 148.005 35.1824C147.459 35.0324 146.889 34.9579 146.293 34.9579C145.663 34.9579 145.063 35.0473 144.494 35.2271C143.925 35.4069 143.426 35.7129 142.996 36.145C142.565 36.5781 142.242 37.1344 142.027 37.8139C141.811 38.4934 141.721 39.1957 141.76 39.9199C141.794 40.5736 141.934 41.1974 142.181 41.7915C142.428 42.3855 142.79 42.8882 143.267 43.2965C144.222 44.0346 145.423 44.1488 147.841 44.1488H149.888V42.5951H147.914ZM136.745 36.3715C137.032 36.3715 137.294 36.4023 137.534 36.4639C137.774 36.5255 137.972 36.6367 138.13 36.7957C138.287 36.9546 138.372 37.1493 138.384 37.3788C138.39 37.497 138.371 37.6113 138.327 37.7235C138.283 37.8358 138.211 37.943 138.112 38.0464C138.012 38.1497 137.892 38.2331 137.753 38.2987C137.613 38.3633 135.016 38.6504 134.517 38.8302C134.018 39.01 133.639 39.1957 133.381 39.3865C133.122 39.5782 132.913 39.7769 132.754 39.9825C132.595 40.1891 132.478 40.4156 132.404 40.663C132.329 40.9103 132.299 41.1607 132.311 41.414C132.334 41.8561 132.406 42.323 132.654 42.7591C132.902 43.1952 133.33 43.663 133.814 43.8637C134.298 44.0644 134.888 44.1488 135.625 44.1488H137.799V42.5743C137.799 42.5743 136.433 42.5892 136.245 42.5892C135.954 42.5892 135.697 42.5534 135.477 42.4829C135.258 42.4124 135.072 42.2872 134.919 42.1074C134.767 41.9276 134.684 41.714 134.672 41.4666C134.664 41.3137 134.684 41.1706 134.732 41.0385C134.781 40.9064 134.864 40.7792 134.98 40.658C135.096 40.5378 135.241 40.4285 135.414 40.3312C135.856 40.1434 137.034 40.1703 137.633 39.9547C137.776 39.905 137.905 39.8504 138.019 39.7918C138.133 39.7332 138.518 39.459 138.518 39.459V41.6862C138.519 42.623 138.518 44.1488 138.518 44.1488L139.707 44.1399L140.933 44.1488C140.933 44.1488 140.858 41.269 140.88 39.8931C140.901 38.5172 140.903 37.6619 140.885 37.3261C140.853 36.7073 140.677 36.2334 140.356 35.9036C140.035 35.5738 139.601 35.3334 139.057 35.1834C138.512 35.0334 137.972 34.9211 137.33 34.9211H134.464L133.53 36.3874C133.527 36.3874 135.704 36.3715 136.745 36.3715Z" fill="white"/>
<path d="M189.212 37.1374C189.668 37.1374 190.082 37.2328 190.454 37.4215C190.825 37.6113 191.129 37.9192 191.365 38.3464C191.601 38.7735 191.735 39.2822 191.766 39.8722C191.796 40.4574 191.722 40.9978 191.543 41.4915C191.364 41.9862 191.1 42.3577 190.748 42.6071C190.397 42.8564 189.998 42.9816 189.551 42.9816C189.232 42.9816 188.92 42.914 188.613 42.7799C188.305 42.6458 188.035 42.4481 187.8 42.1859C187.565 41.9246 187.403 41.6355 187.312 41.3186C187.222 41.0017 187.168 40.666 187.149 40.3113C187.144 40.211 187.139 40.0362 187.136 39.7898C187.134 39.5424 187.131 39.2226 187.13 38.8292L187.127 38.0802L187.148 37.5328C187.873 37.2695 188.56 37.1374 189.212 37.1374ZM186.656 46.7386C186.836 46.7386 187.048 46.7436 187.29 46.7525L187.253 45.7025C187.242 45.4959 187.234 45.3648 187.229 44.8989L187.168 42.3846C187.383 42.6826 187.565 42.9051 187.713 43.0541C187.861 43.2031 188.042 43.3372 188.256 43.4574C188.469 43.5776 188.718 43.675 189.003 43.7485C189.288 43.823 189.582 43.8598 189.887 43.8598C190.396 43.8598 190.853 43.7624 191.257 43.5687C191.661 43.374 191.999 43.0849 192.271 42.7015C192.544 42.318 192.74 41.8819 192.857 41.3951C192.975 40.9084 193.02 40.4027 192.992 39.8802C192.953 39.1272 192.766 38.4517 192.43 37.8537C192.095 37.2566 191.648 36.8384 191.089 36.601C190.53 36.3636 189.879 36.2444 189.138 36.2444C188.666 36.2444 188.199 36.2742 187.734 36.3348C187.268 36.3944 186.65 36.5086 185.879 36.6765C185.939 38.0295 185.983 39.7719 186.011 41.9028C186.038 44.0336 186.036 45.5148 186.004 46.7535C186.274 46.7436 186.492 46.7386 186.656 46.7386Z" fill="white"/>
<path d="M184.965 40.5567C184.963 38.7954 184.973 37.4831 184.995 36.6189C184.738 36.6238 184.538 36.6258 184.395 36.6258L183.73 36.6189C183.763 37.5119 183.782 38.3901 183.789 39.2534C183.793 39.9636 183.785 40.4554 183.766 40.7286C183.733 41.108 183.673 41.417 183.585 41.6574C183.464 41.9842 183.306 42.2505 183.113 42.4561C182.932 42.6428 182.707 42.7919 182.437 42.9021C182.12 43.0273 181.785 43.0889 181.433 43.0889C181.033 43.0889 180.671 43.0203 180.348 42.8832C180.024 42.7462 179.788 42.5524 179.64 42.3001C179.49 42.0478 179.405 41.711 179.384 41.2888C179.369 41.0107 179.366 40.3719 179.375 39.3746C179.383 38.3762 179.4 37.4573 179.423 36.6179C179.147 36.6228 178.942 36.6248 178.808 36.6248L178.15 36.6179C178.164 36.8911 178.173 37.1176 178.178 37.2944L178.197 38.0643L178.201 40.4633C178.199 40.7941 178.199 41.0633 178.201 41.27C178.202 41.4766 178.204 41.6226 178.209 41.709C178.239 42.2753 178.367 42.7213 178.597 43.0482C178.825 43.375 179.15 43.6263 179.57 43.8041C179.991 43.9819 180.491 44.0704 181.072 44.0704C181.338 44.0704 181.588 44.0495 181.822 44.0088C182.055 43.968 182.258 43.9174 182.432 43.8578C182.605 43.7982 182.755 43.7296 182.882 43.6531C183.009 43.5766 183.13 43.4813 183.249 43.369C183.367 43.2568 183.464 43.1415 183.541 43.0233C183.618 42.9061 183.708 42.7392 183.811 42.5226L183.849 43.9124C184.052 43.9025 184.25 43.8985 184.441 43.8985C184.608 43.8985 184.808 43.9035 185.042 43.9124C184.987 42.6438 184.963 41.5263 184.965 40.5567Z" fill="white"/>
<path d="M174.606 37.5049C174.908 37.5963 175.182 37.7533 175.429 37.9768C175.676 38.2003 175.866 38.4963 175.999 38.8659C176.132 39.2354 176.209 39.6318 176.232 40.054C176.255 40.505 176.22 40.9361 176.128 41.3464C176.036 41.7567 175.878 42.1034 175.655 42.3865C175.432 42.6696 175.165 42.8723 174.853 42.9945C174.541 43.1166 174.207 43.1782 173.851 43.1782C173.328 43.1782 172.875 43.0531 172.492 42.8037C172.109 42.5544 171.826 42.2266 171.643 41.8212C171.461 41.4159 171.356 40.959 171.33 40.4504C171.3 39.8692 171.369 39.3338 171.538 38.841C171.707 38.3493 171.989 37.9808 172.382 37.7364C172.775 37.492 173.214 37.3688 173.699 37.3688C174.002 37.3678 174.305 37.4135 174.606 37.5049ZM171.752 36.9178C171.158 37.2278 170.721 37.6957 170.44 38.3215C170.159 38.9473 170.038 39.6517 170.079 40.4345C170.107 40.953 170.217 41.4487 170.413 41.9206C170.609 42.3934 170.88 42.7928 171.228 43.1196C171.575 43.4464 171.979 43.6859 172.438 43.8398C172.898 43.9938 173.383 44.0703 173.892 44.0703C174.439 44.0703 174.948 43.9849 175.417 43.815C175.886 43.6451 176.277 43.3769 176.588 43.0123C176.899 42.6478 177.133 42.2037 177.289 41.6802C177.445 41.1577 177.509 40.6103 177.479 40.0391C177.451 39.5116 177.339 39.0099 177.144 38.5341C176.948 38.0592 176.677 37.6659 176.329 37.3539C175.982 37.042 175.579 36.8135 175.119 36.6705C174.66 36.5264 174.181 36.4549 173.681 36.4549C172.989 36.4539 172.345 36.6079 171.752 36.9178Z" fill="white"/>
<path d="M166.809 43.8965C166.966 43.8965 167.173 43.9015 167.431 43.9104L167.406 43.4276C167.368 42.7034 167.343 42.017 167.328 41.3693C167.311 40.4812 167.318 39.8692 167.351 39.5335C167.383 39.1977 167.441 38.9245 167.525 38.7129C167.626 38.4487 167.76 38.2222 167.929 38.0325C168.098 37.8427 168.291 37.7016 168.51 37.6073C168.728 37.5139 168.978 37.4672 169.259 37.4672C169.492 37.4672 169.758 37.5079 170.057 37.5894C170.008 37.196 169.973 36.8404 169.952 36.5245C169.754 36.4768 169.555 36.452 169.355 36.452C169.122 36.452 168.899 36.4798 168.685 36.5344C168.472 36.59 168.282 36.6665 168.115 36.7649C167.95 36.8632 167.802 36.9884 167.674 37.1394C167.547 37.2904 167.402 37.5149 167.242 37.8129L167.237 36.6178C167.014 36.6228 166.812 36.6248 166.63 36.6248C166.473 36.6248 166.273 36.6228 166.03 36.6178L166.072 37.2804C166.158 38.9315 166.188 41.1418 166.16 43.9104C166.45 43.9015 166.667 43.8965 166.809 43.8965Z" fill="white"/>
<path d="M161.863 39.3616C162.442 39.3378 162.954 39.3259 163.402 39.3259H164.072L164.107 42.7313C163.658 42.8753 163.211 42.9776 162.767 43.0372C162.323 43.0968 161.94 43.1276 161.616 43.1276C161.021 43.1276 160.466 43.0452 159.951 42.8793C159.436 42.7134 158.994 42.475 158.626 42.163C158.258 41.8511 157.975 41.4488 157.776 40.957C157.577 40.4653 157.462 39.9388 157.433 39.3765C157.401 38.7477 157.476 38.1388 157.66 37.5477C157.843 36.9576 158.131 36.4619 158.524 36.0616C158.917 35.6612 159.399 35.3632 159.969 35.1685C160.539 34.9738 161.146 34.8774 161.787 34.8774C162.196 34.8774 162.646 34.9192 163.136 35.0036C163.626 35.087 164.209 35.24 164.886 35.4606C164.827 35.0433 164.783 34.6539 164.754 34.2943C163.619 34.0499 162.594 33.9268 161.681 33.9268C160.849 33.9268 160.095 34.0301 159.421 34.2367C158.746 34.4433 158.147 34.786 157.625 35.2659C157.103 35.7457 156.709 36.3397 156.444 37.047C156.179 37.7553 156.067 38.5093 156.108 39.311C156.145 40.0163 156.3 40.6859 156.573 41.3196C156.846 41.9534 157.23 42.471 157.727 42.8743C158.223 43.2776 158.823 43.5776 159.524 43.7743C160.225 43.971 160.954 44.0694 161.71 44.0694C162.732 44.0694 163.955 43.9134 165.38 43.6015C165.323 41.571 165.311 39.8395 165.345 38.404C164.755 38.409 164.225 38.411 163.753 38.411C163.311 38.411 162.678 38.409 161.855 38.404C161.871 38.6971 161.873 39.0159 161.863 39.3616Z" fill="white"/>
<path d="M110 44.0979V33.8289H113.308C114.406 33.8289 115.23 34.0593 115.782 34.52C116.338 34.9808 116.616 35.6626 116.616 36.5654C116.616 37.045 116.481 37.4705 116.212 37.8419C115.944 38.2087 115.578 38.4932 115.115 38.6953C115.661 38.8505 116.092 39.1467 116.407 39.584C116.727 40.0166 116.887 40.5338 116.887 41.1356C116.887 42.0572 116.592 42.7813 116.004 43.3079C115.416 43.8345 114.584 44.0979 113.509 44.0979H110ZM111.334 39.2948V42.9906H113.537C114.158 42.9906 114.647 42.8283 115.003 42.5039C115.365 42.1748 115.545 41.7234 115.545 41.1497C115.545 39.9131 114.883 39.2948 113.558 39.2948H111.334ZM111.334 38.2087H113.349C113.933 38.2087 114.399 38.0606 114.746 37.7644C115.098 37.4681 115.274 37.0661 115.274 36.5583C115.274 35.9941 115.112 35.585 114.788 35.3311C114.464 35.0725 113.97 34.9432 113.308 34.9432H111.334V38.2087Z" fill="white"/>
<path d="M121.125 42.1865L122.877 36.4666H124.253L121.23 45.2757C120.762 46.5452 120.018 47.18 118.999 47.18L118.756 47.1588L118.276 47.0671V46.0092L118.624 46.0374C119.059 46.0374 119.397 45.9481 119.638 45.7694C119.884 45.5907 120.085 45.2639 120.243 44.789L120.528 44.0132L117.846 36.4666H119.249L121.125 42.1865Z" fill="white"/>
</svg>
