<svg xmlns="http://www.w3.org/2000/svg" viewBox="0 0 3000 3000" width="3000" height="3000"><g transform="translate(202.79999999999998 204.0) rotate(0.0 1307.3999999999999 1286.3999999999999) scale(1.6076326275399002 1.608613283814454)"><svg width="1626.491" height="1599.39" viewBox="0 0 1626.491 1599.39"><path d="M874.423 633.959a9.949 9.949 0 0 1-5.871-1.912c-4.467-3.247-5.457-9.501-2.21-13.968 7.563-10.406 21.092-10.594 33.028-10.758 5.704-.079 11.603-.16 15.417-1.382 5.261-1.682 10.889 1.216 12.573 6.476s-1.215 10.889-6.475 12.573c-6.654 2.13-14.068 2.231-21.238 2.331-5.779.08-15.451.213-17.125 2.518a9.989 9.989 0 0 1-8.098 4.122z"/><path d="M704.882 693.224s-.536 54.584-.764 77.031c-1.618 159.293-39.772 296.589-55.306 448.893-3.296 32.315 18.437 74.399 16.628 107.379-1.512 27.554-16.627 55.4-16.628 83.639 0 79.867 48.054 74.029 47.801 99.006 286.833 1.72 521.805 3.44 808.639 5.16-28.534-230.391-5.207-460.782-33.741-691.173-4.944-39.919-11.463-83.133-40.346-111.128-34.12-33.071-159.371-40.163-206.865-38.696-63.418 1.958-150.188 14.572-238.111 16.613-80.973 1.88-163.547-6.829-215.794-4.691-37.813 1.547-65.513 7.967-65.513 7.967z" fill="#fff"/><path d="M1505.252 1524.332h-.06c-143.419-.86-276.056-1.734-404.325-2.58-128.267-.845-260.9-1.72-404.313-2.579a10.004 10.004 0 0 1-9.94-10.101c.039-3.816-2.636-6.331-10.29-12.545-14.938-12.126-37.512-30.452-37.512-86.36 0-16.357 4.494-32.09 8.839-47.305 3.679-12.879 7.153-25.043 7.803-36.882.793-14.453-3.748-32.126-8.139-49.217-5.079-19.769-10.331-40.211-8.452-58.629 6.005-58.879 15.496-116.27 24.674-171.771 14.549-87.974 29.592-178.943 30.58-276.21.228-22.445.764-77.027.764-77.028a10.002 10.002 0 0 1 7.742-9.644c1.168-.271 29.053-6.649 67.363-8.216 25.198-1.032 56.251.368 92.208 1.99 38.209 1.723 81.516 3.671 123.763 2.695 48.522-1.127 97.668-5.584 141.028-9.517 35.243-3.196 68.532-6.215 97.006-7.095 35.069-1.077 174.184 2.788 214.134 41.511 30.236 29.307 37.74 72.104 43.31 117.079 14.336 115.752 15.663 233.161 16.946 346.704 1.277 112.992 2.597 229.83 16.795 344.469a10 10 0 0 1-9.924 11.229zm-800.412-25.11c140.298.845 270.324 1.701 396.159 2.531 124.876.823 253.898 1.673 392.971 2.511-13.064-112.083-14.347-225.555-15.588-335.403-1.277-112.993-2.597-229.832-16.795-344.472-5.113-41.289-11.82-80.401-37.381-105.177-29.345-28.443-146.378-37.526-199.597-35.882-27.878.861-60.879 3.854-95.817 7.023-43.674 3.961-93.175 8.45-142.37 9.592-42.926 1.002-86.598-.972-125.127-2.71-35.496-1.601-66.15-2.981-90.49-1.986-24.896 1.018-45.449 4.237-56.002 6.182-.158 16.057-.51 51.822-.684 68.926-1.003 98.807-16.175 190.549-30.847 279.27-9.128 55.199-18.568 112.277-24.51 170.537-1.516 14.868 3.284 33.553 7.927 51.623 4.769 18.561 9.7 37.754 8.737 55.289-.772 14.079-4.722 27.906-8.542 41.279-4.15 14.53-8.07 28.254-8.07 41.812 0 46.384 16.699 59.94 30.117 70.833 6.354 5.158 12.864 10.443 15.91 18.223zm-533.5-361.881c-4.226 0-8.153-2.701-9.517-6.94-1.691-5.258 1.2-10.891 6.457-12.582 35.778-11.51 91.381-51.086 140.439-86.003 19.899-14.163 38.695-27.542 54.64-37.934 4.626-3.014 10.822-1.711 13.838 2.918 3.016 4.627 1.709 10.822-2.918 13.838-15.601 10.168-34.235 23.431-53.962 37.472-50.241 35.76-107.186 76.29-145.912 88.748-1.018.327-2.05.483-3.065.483z"/><path d="M761.356 686.357c-31.462 0-56.474 6.868-56.474 6.868-178.932-38.904-214.001 220.249-258.393 260.977-51.706 47.439-40.645 133.732-28.75 156.955 11.261 21.985 39.523 6.039 32.96-15.117-3.698-11.918-28.322-12.532-44.164-31.231-12.061-14.236-12.078-33.171-18.683-45.719-5.888-11.185-19.032-16.829-19.032-16.829s3.553-15.89-18.932-46.104c-6.353-8.537-28.013-43.66-38.419-45.887-10.258-2.195-201.149 119.34-201.149 119.34s26.194 48.511 37.006 69.494c21.269 41.277 24.017 28.235 24.017 28.235s-5.571 25.645 4.726 46.923c25.578 52.857 84.624 136.946 98.743 159.67 64.376 103.608 173.191 35.236 206.457 14.068 39.836-25.348 83.806-98.661 128.947-169.353 19.82-31.038 37.524-57.032 52.882-79.828 24.588-36.493 13.464-69.954 43.711-96.559" fill="#fff"/><path d="M367.397 1399.763c-8.628 0-17.34-.872-26.018-2.85-30.308-6.907-55.563-26.322-75.062-57.705-3.364-5.414-9.408-14.499-17.061-26-23.397-35.165-62.558-94.021-82.189-134.592-7.384-15.258-7.726-32.118-6.917-42.741-6.135-4.785-12.795-14.882-21.714-32.191-10.645-20.658-36.654-68.839-36.916-69.323a10 10 0 0 1 3.429-13.187c.478-.304 48.352-30.771 96.864-60.578 101.416-62.313 106.204-61.301 111.748-60.105 10.361 2.217 21.326 15.966 39.188 42.245 2.159 3.177 4.024 5.921 5.162 7.45 16.188 21.752 20.288 37.294 21.009 46.151 5.442 3.345 13.139 9.274 17.781 18.094 1.5 2.848 2.692 5.881 3.722 8.981 4.256-24.855 14.795-54.091 39.307-76.579 10.477-9.613 21.771-36.668 34.849-67.995 18.613-44.588 41.778-100.079 77.208-141.15 19.689-22.823 41.6-39.146 65.124-48.512 26.63-10.603 56.145-12.693 87.76-6.217 7.233-1.762 29.576-6.603 56.687-6.603 5.523 0 10 4.478 10 10s-4.477 10-10 10c-29.614 0-53.596 6.447-53.834 6.513a10.024 10.024 0 0 1-4.764.126c-53.62-11.657-98.049 3.964-135.828 47.757-33.347 38.655-55.83 92.514-73.896 135.791-14.563 34.886-26.065 62.44-39.784 75.026-29.551 27.112-36.64 68.322-35.36 100.609 6.145 5.546 13.523 8.958 20.171 12.032 9.376 4.336 19.072 8.82 22.188 18.865 5.31 17.113-4.783 31.63-16.975 36.6-11.236 4.584-26.24 2.04-34.437-13.961-4.594-8.969-8.926-25.293-10.469-45.084-8.458-10.304-11.617-21.946-14.412-32.244-1.506-5.549-2.928-10.79-4.955-14.64-3.412-6.48-11.388-11.089-14.173-12.317-4.591-2.026-7.215-6.37-5.831-11.146.114-1.751.272-14.768-17.134-38.158-1.394-1.872-3.275-4.642-5.658-8.146-4.154-6.112-9.843-14.482-15.365-21.55-5.551-7.104-8.855-10.229-10.552-11.574-18.246 7.394-106.394 61.183-186.753 112.202 7.962 14.794 24.636 45.858 32.678 61.467 6.882 13.354 11.245 19.833 13.689 22.916a9.967 9.967 0 0 1 3.532.12c5.389 1.152 8.829 6.448 7.693 11.84l-.013.062c-.042.2-4.655 22.65 3.956 40.444 19.037 39.34 57.723 97.484 80.837 132.224 7.749 11.646 13.869 20.846 17.397 26.524 16.576 26.678 37.61 43.083 62.518 48.76 51.977 11.851 108.717-24.26 130.078-37.851 34.081-21.687 74.066-84.688 112.735-145.617a9031.909 9031.909 0 0 1 13.152-20.681c17.375-27.21 33.149-50.587 47.067-71.212l5.95-8.822c10.024-14.877 13.601-29.523 17.06-43.687 4.566-18.699 9.288-38.035 28.34-54.793 4.146-3.647 10.466-3.242 14.113.904 3.647 4.147 3.243 10.466-.904 14.113-14.325 12.601-17.765 26.687-22.12 44.52-3.695 15.13-7.883 32.279-19.902 50.118l-5.958 8.834c-13.852 20.526-29.551 43.792-46.79 70.788-4.386 6.869-8.761 13.763-13.123 20.635-41.677 65.667-81.043 127.693-118.884 151.772-19.925 12.679-68.091 43.326-119.241 43.327zm53.511-311.621c1.632 8.083 3.704 14.5 5.73 18.456 2.322 4.534 5.378 6.066 9.085 4.559 3.281-1.338 7.433-5.678 5.423-12.154-.653-1.631-7.698-4.889-11.482-6.639-2.76-1.276-5.716-2.644-8.757-4.222zM312.415 920.12z"/><path d="M58.024 777.083s131.218 19.848 152.813 8.815c29.714-15.182 62.902-89.926 84.597-106.042 21.17-15.726 40.88-5.311 42.151 21.412.898 18.879-43.562 117.465-43.562 117.465s-10.325 21.816-4.147 55.56c5.024 27.443 25.302 72.847 25.302 72.847s-111.334 79.973-179.224 86.54c-25.636 2.48-77.93-26.693-77.93-26.693z" fill="#fff"/><path d="M132.86 1043.821c-28.475 0-74.339-25.106-79.708-28.101a10 10 0 0 1-5.128-8.733V777.084a10 10 0 0 1 11.496-9.888c.326.05 33.03 4.975 67.888 8.49 64.733 6.529 77.065 2.235 78.88 1.307 14.552-7.435 32.878-35.856 47.603-58.692 13.309-20.641 24.803-38.466 35.581-46.472 12.85-9.547 26.776-11.918 38.208-6.506 11.838 5.604 19.09 18.533 19.895 35.471.939 19.742-33.773 98.41-44.435 122.051l-.077.166c-.063.139-8.802 19.699-3.35 49.482 4.753 25.961 24.399 70.128 24.597 70.57a10 10 0 0 1-3.297 12.2c-4.635 3.329-114.325 81.622-184.095 88.37a41.976 41.976 0 0 1-4.057.188zm-64.835-42.804c16.769 8.785 50.453 24.302 66.967 22.71 55.276-5.347 143.152-63.232 167.765-80.117-6.081-14.365-18.746-45.826-22.717-67.516-6.499-35.499 3.873-59.307 4.882-61.506 21.364-47.38 43.165-102.535 42.674-112.846-.437-9.18-3.605-16.037-8.476-18.344-4.535-2.146-10.996-.513-17.723 4.484-7.864 5.842-19.472 23.845-30.698 41.255-17.683 27.424-35.968 55.781-55.313 65.665-4.409 2.253-16.12 8.238-90.059.774-22.729-2.294-44.542-5.176-57.304-6.955v212.395z"/><path d="M192.717 914.545a9.997 9.997 0 0 1-8.838-5.308c-8.155-15.337-10.733-40.933-6.898-68.467 1.912-13.729 8.43-47.318 27.606-62.678 4.31-3.452 10.604-2.757 14.056 1.553 3.453 4.311 2.757 10.604-1.553 14.057-9.275 7.43-17.054 26.522-20.3 49.827-3.177 22.812-1.313 44.918 4.749 56.319 2.593 4.876.741 10.931-4.135 13.523a9.948 9.948 0 0 1-4.686 1.173z"/><path d="M38.966 717.033c17.478-13.853 55.785-15.709 70.254-15.764 11.946-.045 48.41 2.127 48.321 31.572-.112 37.447-39.556 24.426-47.869 24.566-18.498.31-37.314 4.084-53.092 13.744-7.121 4.36-27.846 5.932-27.846 5.932s-20.065-36.037 10.231-60.05z" fill="#fff"/><path d="M28.733 787.083a9.996 9.996 0 0 1-8.734-5.136c-8.37-15.031-16.476-49.582 12.756-72.752 20.182-15.995 60.171-17.865 76.428-17.927 12.089-.044 34.488 1.878 47.911 15.289 6.866 6.86 10.479 15.959 10.448 26.313-.038 12.53-3.813 22.114-11.221 28.485-12.752 10.968-31.772 8.147-41.99 6.631-1.625-.241-3.85-.571-4.53-.581-19.057.32-35.22 4.45-47.998 12.273-8.518 5.216-26.885 6.964-32.311 7.376a10.15 10.15 0 0 1-.759.028zm16.445-62.213c-9.852 7.809-14.019 17.68-12.74 30.176.451 4.403 1.523 8.337 2.563 11.324 7.058-.931 14.145-2.392 16.358-3.747 15.866-9.714 35.43-14.833 58.146-15.215 2.16-.016 4.63.331 7.76.795 7.058 1.047 20.195 2.996 26.015-2.011 2.809-2.415 4.242-6.917 4.262-13.382.016-5.118-1.441-8.964-4.583-12.104-8.85-8.843-28.023-9.436-33.699-9.438-21.749.082-51.582 3.693-64.082 13.601z"/><path d="M29.36 772.926c19.625-13.853 62.639-15.709 78.885-15.764 13.414-.045 54.357 2.127 54.258 31.572-.126 37.447-44.416 24.426-53.75 24.566-20.77.31-41.898 4.084-59.614 13.744-7.996 4.36-31.267 5.932-31.267 5.932s-22.531-36.037 11.488-60.05z" fill="#fff"/><path d="M17.87 842.976a10 10 0 0 1-8.477-4.699c-.699-1.118-6.876-11.324-8.468-25.18-1.568-13.645 1.095-33.11 22.668-48.341 22.238-15.698 66.584-17.534 84.619-17.595 14.071-.019 39.72 2.021 54.121 16.421 6.687 6.687 10.204 15.396 10.171 25.185-.04 11.917-3.771 21.2-11.087 27.592-13.686 11.958-34.6 9.195-47.097 7.542-2.036-.269-4.564-.603-5.39-.603h-.028c-21.835.326-40.332 4.541-54.974 12.525-9.444 5.148-31.129 6.843-35.38 7.13-.226.015-.452.022-.676.022zm90.838-75.815h-.429c-24.758.083-58.771 3.782-73.152 13.935-19.437 13.72-15.113 32.326-11.395 41.317 8.706-.949 17.742-2.579 20.621-4.149 17.519-9.554 39.136-14.588 64.251-14.964 2.223-.018 4.925.322 8.334.773 8.542 1.126 24.444 3.229 31.319-2.776 1.042-.911 4.216-3.683 4.246-12.597.015-4.53-1.355-8.018-4.313-10.976-6.625-6.624-21.367-10.564-39.482-10.564zm-79.348 5.765h.01z"/><path d="M27.302 828.94c17.478-13.853 55.785-15.709 70.254-15.764 11.946-.045 48.41 2.127 48.321 31.572-.112 37.447-38.994 33.333-47.307 33.473-18.498.31-37.211-.638-52.988 9.023-7.121 4.36-23.363 22.619-23.363 22.619s-9.305-11.513-11.664-29.393c-2.23-16.898 2.026-39.861 16.746-51.529z" fill="#fff"/><path d="M22.221 919.862c-.08 0-.159 0-.238-.003a10.004 10.004 0 0 1-7.541-3.711c-.452-.56-11.104-13.937-13.801-34.371-2.644-20.037 2.653-46.568 20.449-60.674 20.179-15.993 60.17-17.865 76.427-17.928 12.135-.012 34.493 1.881 47.913 15.291 6.865 6.859 10.478 15.958 10.447 26.312-.039 12.905-3.954 23.259-11.638 30.771-13.573 13.272-34.355 12.869-43.228 12.695-.915-.017-1.683-.035-2.273-.025-1.984.033-3.971.052-5.957.071-15.547.148-30.231.289-41.978 7.481-4.032 2.469-14.774 13.612-21.114 20.736a9.999 9.999 0 0 1-7.47 3.354zm11.293-83.085c-11.077 8.779-14.946 27.967-13.043 42.383.708 5.363 2.171 10.068 3.744 13.881 5.371-5.524 11.776-11.649 16.147-14.325 16.465-10.082 34.646-10.256 52.23-10.424 1.937-.019 3.875-.037 5.812-.07.778-.01 1.792.005 2.998.027 6.905.139 21.276.413 28.856-6.999 3.76-3.676 5.598-9.084 5.621-16.532.016-5.118-1.441-8.964-4.583-12.104-8.848-8.842-27.993-9.463-33.7-9.438-21.748.084-51.581 3.697-64.081 13.602z"/><path d="M122.201 933.724c4.391-3.496 16.94-8.345 14.088-25.742-4.764-29.058-27.655-29.807-37.718-29.762-12.188.056-50.096 4.16-64.819 18.013-21.399 20.136-12.973 48.714-9.693 57.422l-.132.025s13.423 44.633 63.503 67.605l-9.491-79.113 44.262-8.449z" fill="#fff"/><path d="M87.438 1031.288c-.817 0-1.646-.101-2.475-.312-59.102-15.048-70.151-71.432-70.869-75.476-4.024-11.575-11.839-43.359 12.806-66.551 20.853-19.622 71.128-20.729 71.626-20.73 7.098-.027 16.403.513 25.389 5.035 8.361 4.209 19.008 13.37 22.244 33.108 3.473 21.183-10.174 30.168-16.001 34.005-.665.438-1.418.934-1.727 1.179-4.319 3.442-10.611 2.728-14.052-1.595-3.439-4.321-2.726-10.612 1.595-14.052 1.014-.807 2.068-1.502 3.185-2.237 5.516-3.632 8.573-6.075 7.264-14.063-2.898-17.678-13.052-21.381-27.424-21.381h-.381c-15.058.068-47.322 5.239-58.01 15.297-16.491 15.517-10.52 37.768-7.188 46.613a10 10 0 0 1 .637 3.194c1.744 7.875 12.544 47.246 55.843 58.271 5.352 1.362 8.586 6.806 7.224 12.158-1.152 4.523-5.22 7.534-9.684 7.534z"/><path d="M125.336 931.807c-11.161 8.113-27.932 4.719-32.024 4.8-10.043.2-15.365 1.839-24.874 5.566" fill="#fff"/><path d="M68.441 952.176c-3.994 0-7.768-2.41-9.313-6.354-2.015-5.142.52-10.943 5.662-12.959 10.787-4.228 17.106-6.03 28.324-6.253 1.25-.016 2.619.091 4.348.237 5.535.469 15.841 1.343 21.995-3.129 4.467-3.246 10.721-2.259 13.968 2.209s2.258 10.722-2.209 13.969c-12.179 8.853-27.893 7.519-35.444 6.88-.874-.074-1.961-.166-2.311-.17-8.59.171-12.688 1.474-21.374 4.878a9.967 9.967 0 0 1-3.646.692z"/><path d="M1147.265 191.186c-9.568-114.38-93.719-177.934-247.898-119.087-54.78 20.908-65.919 58.623-70.531 76.977-7.388 29.402-2.182 145.195.503 180.184 4.224 55.056 1.755 125.134 5.978 180.189 1.479 19.269 12.201 75.727 68.989 101.084l-.582 126.454 54.693-27.68 27.773 113.594 31.735-107.792 122.659-29.044V496.032c.63-5.177 6.918-77.539 5.653-119.309-.356-11.743 37.787-18.186 38.029-30.974.929-49.027-33.247-109.681-37.001-154.562z" fill="#fff"/><path d="M986.192 832.9c-.079 0-.156 0-.235-.003a9.997 9.997 0 0 1-9.481-7.622l-24.782-101.357-43.455 21.992a10 10 0 0 1-14.516-8.969l.553-120.115c-60.083-30.541-67.954-93.877-68.931-106.612-2.136-27.839-2.584-59.805-3.018-90.719-.429-30.605-.873-62.254-2.961-89.47-2.389-31.136-8.294-151.296-.231-183.386 4.152-16.523 15.18-60.416 76.664-83.883 79.253-30.249 146.041-30.582 193.14-.964 39.729 24.983 63.344 69.439 68.29 128.56 1.575 18.832 9.017 41.128 16.895 64.733 10.169 30.471 20.686 61.979 20.139 90.853-.238 12.591-13.535 19.12-25.266 24.881-4.01 1.969-10.463 5.138-12.722 7.184 1.076 42.038-4.791 109.941-5.692 118.574v189.488a10 10 0 0 1-7.696 9.731l-117.01 27.706-30.096 102.222a10 10 0 0 1-9.59 7.176zm-27.775-133.593a9.999 9.999 0 0 1 9.714 7.625l18.954 77.521 21.248-72.169a10 10 0 0 1 7.289-6.907l114.963-27.221V496.031c0-.403.024-.807.073-1.208.5-4.114 6.843-76.255 5.584-117.798-.37-12.221 11.989-18.29 23.941-24.159 4.28-2.103 12.042-5.914 14.098-8.25.223-25.223-9.612-54.69-19.127-83.2-8.269-24.774-16.079-48.176-17.854-69.396-4.401-52.612-24.805-91.79-59.006-113.297-41.57-26.14-102.209-25.2-175.361 2.719-51.756 19.754-60.615 55.014-64.398 70.07-6.793 27.034-2.14 138.992.775 176.983 2.136 27.84 2.584 59.806 3.018 90.719.429 30.606.873 62.254 2.961 89.47.856 11.16 7.923 68.081 63.096 92.718a10 10 0 0 1 5.923 9.177l-.507 110.102 40.102-20.296a10.004 10.004 0 0 1 4.516-1.077z"/><path d="M963.504 632.452c-18.472 0-40.141-3.108-63.056-12.693-5.095-2.131-7.498-7.989-5.367-13.084s7.988-7.497 13.084-5.367c62.938 26.326 119.186.585 136.565-16.006 3.995-3.813 10.325-3.665 14.138.328 3.813 3.995 3.667 10.325-.329 14.139-14.233 13.586-37.971 24.669-63.499 29.646a165.27 165.27 0 0 1-31.538 3.038zm-22.571-44.83a9.971 9.971 0 0 1-7.208-3.067c-3.829-3.979-3.707-10.31.273-14.139 4.48-4.311 14.107-14.996 19.606-22.605 3.234-4.476 9.486-5.483 13.962-2.247 4.477 3.234 5.482 9.485 2.248 13.962-6.478 8.963-16.91 20.454-21.95 25.303a9.967 9.967 0 0 1-6.932 2.794z"/><path d="M832.441 136.725c7.742-4.323 15.792 27.795 32.252 23.941 60.204-14.098 167.436-58.983 189.836-43.826 30.844 20.871 49.758 55.973 58.582 92.154s15.617 80.797 26.357 60.269c22.203-42.435 56.499-34.419 56.499-34.419s10.695-129.927-75.017-193.674c-41.035-30.52-96.655-36.577-146.827-26.675C868.69 35.304 832.44 136.725 832.44 136.725z" fill="#fff"/><path d="M1136.45 287.045a10 10 0 0 1-9.994-10.327c.01-.316.883-32.95-9.899-68.809-14.001-46.563-40.163-76.506-77.759-88.996-5.241-1.741-8.079-7.401-6.337-12.643s7.401-8.077 12.643-6.338c43.675 14.51 75.063 50.046 90.771 102.768 6.39 21.447 8.962 41.501 9.975 55.422l40.384-28.636c.369-10.114.507-36.005-5.546-66.151-10.225-50.917-32.331-89.319-65.705-114.141-35.624-26.495-86.239-35.57-138.872-24.899-50.789 10.298-89.477 35.434-114.986 74.711-19.206 29.569-23.414 56.584-23.454 56.854-.815 5.452-5.889 9.223-11.348 8.427-5.456-.804-9.233-5.86-8.442-11.317.181-1.247 4.67-30.92 25.949-64.049 19.61-30.531 57.788-69.929 128.307-84.227 58.193-11.795 114.608-1.426 154.782 28.452 37.067 27.568 62.48 71.421 73.491 126.817 8.219 41.348 5.639 74.318 5.525 75.701a10 10 0 0 1-4.182 7.337l-59.516 42.201a9.99 9.99 0 0 1-5.785 1.843z"/><path d="M1136.452 277.045c19.067-55.588 62.443-42.242 70.24-36.733 26.46 18.696 18.865 70.592-4.286 95.293-17.879 19.076-32.089 25.492-56.692 34.338" fill="#fff"/><path d="M1145.714 379.945c-4.1 0-7.944-2.54-9.411-6.619-1.869-5.197.83-10.926 6.027-12.794 24.126-8.675 36.41-14.301 52.779-31.766 12.369-13.196 19.939-36.613 18-55.68-.799-7.862-3.563-18.513-12.188-24.607-2.295-1.605-14.313-6.006-26.706-1.965-12.491 4.072-22.015 15.437-28.305 33.775-1.792 5.223-7.476 8.008-12.704 6.215-5.224-1.792-8.006-7.479-6.214-12.703 10.536-30.716 28.194-42.156 41.153-46.344 18.837-6.092 37.181-.356 44.318 4.688 11.691 8.261 18.796 21.719 20.544 38.918 2.552 25.099-6.813 53.785-23.305 71.381-19.935 21.268-36.195 28.132-60.605 36.908a9.981 9.981 0 0 1-3.383.593zM886.352 112.962a9.96 9.96 0 0 1-5.131-1.424c-4.737-2.839-6.276-8.98-3.438-13.718 14.107-23.543 42.003-45.981 61.087-55.142 4.979-2.389 10.953-.291 13.342 4.688 2.39 4.979.291 10.953-4.688 13.343-13.693 6.571-39.875 26.178-52.586 47.39a9.994 9.994 0 0 1-8.587 4.862zm54.658-12.092a9.972 9.972 0 0 1-7.345-3.211c-3.749-4.056-3.501-10.383.554-14.132 31.021-28.681 71.164-47.583 113.034-53.225 5.474-.74 10.509 3.103 11.246 8.574.737 5.474-3.102 10.509-8.575 11.246-37.83 5.098-74.1 22.177-102.127 48.09a9.965 9.965 0 0 1-6.786 2.657zm61.578-2.6a10.003 10.003 0 0 1-9.18-6.025c-2.197-5.067.13-10.956 5.197-13.152 35.946-15.584 77.01-20.523 115.622-13.903 5.444.933 9.1 6.102 8.167 11.546-.933 5.443-6.104 9.099-11.545 8.167-34.83-5.967-71.867-1.516-104.289 12.54a9.964 9.964 0 0 1-3.973.828zm1.127 232.638c-27.793 0-44.993-17.527-47.234-19.946-14.11-14.403-19.132-33.324-20.858-46.68-1.717-13.283-2.55-46.188-2.585-47.582a10 10 0 0 1 8.376-10.116c.691-.113 17.009-2.79 24.998-3.878 6.305-.858 12.626-1.257 18.739-1.644 6.028-.381 11.721-.74 17.312-1.501 12.6-1.716 25.176-1.63 37.333-1.546 11.991.079 23.311.158 34.499-1.363a9.974 9.974 0 0 1 7.656 2.148 9.995 9.995 0 0 1 3.667 7.056c1.586 22.479 2.84 40.232-4.497 63.716-8.071 25.836-26.776 46.724-50.036 55.873-9.974 3.924-19.14 5.463-27.371 5.463zm-50.42-105.983c.361 10.716 1.089 28.492 2.163 36.792 1.338 10.351 5.096 24.885 15.401 35.34.118.119.232.242.343.367.784.853 20.637 21.965 52.563 9.409 17.679-6.955 31.984-23.114 38.267-43.226 5.162-16.524 5.288-29.882 4.325-46.078-9.017.604-17.964.546-26.697.484-11.988-.076-23.31-.159-34.499 1.363-6.307.859-12.631 1.259-18.748 1.645-6.024.381-11.714.74-17.302 1.501-4.05.551-10.538 1.562-15.815 2.402z"/><path d="M834.016 336.392c-20.739-5.196-29.954-19.938-39.596-40.523-9.46-20.196-11.04-36.357-13.1-58.703 22.213-.24 35.346-9.304 57.559-9.544 11.107-.12 22.28-2.021 33.388-2.103 8.434-.063 34.526-2.004 30.416-2.076 0 0 4.303 35.996 4.8 49 .581 15.215-9.171 30.561-17.236 42.831 0 0-18.049 30.684-56.23 21.118z" fill="#fff"/><path d="M848.153 348.204c-5.188 0-10.717-.646-16.567-2.112-25.827-6.471-36.601-25.442-46.222-45.981-10.314-22.02-11.941-39.675-14.002-62.026a10 10 0 0 1 9.85-10.917c9.867-.107 17.869-2.214 26.341-4.443 9.278-2.442 18.872-4.968 31.218-5.101 5.1-.056 10.263-.52 15.729-1.011 5.736-.516 11.668-1.049 17.693-1.094 6.444-.048 22.584-1.188 27.711-1.683a9.979 9.979 0 0 1 2.955-.392c6.697.117 10.285 5.287 10.26 10.093 0 .212-.019.809-.165 1.612 1.042 8.917 4.094 35.706 4.522 46.911.718 18.794-10.944 36.644-18.747 48.515-6.441 10.765-24.079 27.629-50.575 27.629zm-11.707-21.512c30.166 7.56 44.615-15.56 45.216-16.548.084-.144.136-.225.227-.363 6.402-9.739 16.077-24.459 15.6-36.956-.318-8.335-2.312-26.935-3.609-38.437-.834.061-1.693.121-2.567.182-3.088.212-13.584.909-18.972.949-5.202.038-10.471.512-16.051 1.014-5.611.504-11.414 1.025-17.303 1.089-9.868.106-17.871 2.213-26.343 4.443-6.385 1.681-12.918 3.4-20.396 4.354 1.663 16.247 3.871 29.503 11.228 45.208 9.638 20.576 17.03 31.071 32.971 35.065z"/><path d="M906.777 270.465c-.385 0-.774-.022-1.166-.067-5.486-.638-9.417-5.602-8.779-11.087 1.196-10.297 5.696-16.031 15.532-19.793 11.833-4.528 30.759-.089 39.707 9.315 3.807 4.001 3.649 10.33-.352 14.138-4.001 3.805-10.331 3.649-14.138-.352-3.4-3.574-13.702-6.096-18.071-4.422-1.443.552-2.123.939-2.4 1.122-.091.292-.256.956-.412 2.298-.591 5.095-4.914 8.848-9.921 8.848zm244.794-10.511c-.852 0-1.717-.11-2.58-.34-9.349-2.489-21.015-11.25-31.307-18.979-3.979-2.988-9.419-7.073-11.146-7.869-9.337-3.559-32.9-15.957-35.563-17.362-4.884-2.578-6.753-8.627-4.176-13.512 2.579-4.884 8.627-6.755 13.512-4.176 6.951 3.669 26.5 13.763 33.391 16.377 3.753 1.424 8.065 4.597 15.992 10.55 7.506 5.637 18.85 14.156 24.443 15.646 5.337 1.421 8.511 6.899 7.09 12.236-1.191 4.475-5.236 7.429-9.657 7.43zm-44.962-27.162h.01z"/><ellipse cx="847.596" cy="283.569" rx="12.619" ry="19.893" transform="matrix(.99805185 -.06238988 .06238988 .99805185 -16.041 53.434)"/><ellipse cx="986.189" cy="274.905" rx="12.619" ry="19.893" transform="matrix(.99805185 -.06238988 .06238988 .99805185 -15.23 62.064)"/><path d="M906.765 260.464c1.446 12.731 1.14 21.842-4.454 29.775-16.349 23.187-75.713 37.485-95.293 50.16-20.86 13.504-20.319 39.095-7.142 53.388 11.444 12.413 33.522 16.576 57.156 10.021 24.092-6.682 73.34-27.743 90.558-37.485" fill="#fff"/><path d="M835.186 416.914c-17.485 0-32.806-5.66-42.661-16.349-8.932-9.688-13.272-23.324-11.61-36.476 1.66-13.137 9.001-24.531 20.669-32.085 7.737-5.009 19.75-9.745 33.66-15.229 22.289-8.789 50.029-19.727 58.894-32.3 3.364-4.771 4.068-10.759 2.69-22.883-.624-5.487 3.32-10.441 8.807-11.065 5.489-.609 10.442 3.319 11.065 8.808 1.318 11.604 2.034 24.965-6.217 36.666-12.312 17.461-41.846 29.105-67.904 39.38-12.376 4.88-24.066 9.489-30.127 13.413-8.503 5.504-11.054 12.72-11.696 17.804-.932 7.374 1.487 15.005 6.472 20.411 9.026 9.788 27.526 12.599 47.13 7.163 22.45-6.228 71.037-26.781 88.307-36.553 4.807-2.724 10.908-1.029 13.628 3.778 2.72 4.808 1.027 10.908-3.779 13.628-18.378 10.398-68.569 31.694-92.81 38.418-8.408 2.333-16.682 3.471-24.52 3.471zm110.72 67.953c-3.507 0-7.018-.224-10.513-.68-5.476-.716-9.335-5.735-8.62-11.212s5.737-9.342 11.211-8.62c24.025 3.139 50.134-8.796 63.478-29.025 3.041-4.612 9.244-5.882 13.854-2.842 4.61 3.041 5.882 9.244 2.841 13.854-15.734 23.854-43.82 38.525-72.252 38.525z"/><path d="M958.417 709.307s-32.118 85.544-40.581 109.426c-10.153-14.922-18.13-38.079-33.133-60.67-24.244-36.507-49.763-72.521-49.763-72.521s13.285-17.919 20.662-28.33c5.416-7.644 11.586-30.221 19.756-34.991 3.315-1.936 24.226 35.346 46.976 58.573 16.747 17.098 36.083 28.513 36.083 28.513z" fill="#fff"/><path d="M917.834 828.733a10.001 10.001 0 0 1-8.266-4.374c-5.066-7.445-9.513-16.534-14.222-26.157-5.262-10.753-11.226-22.941-18.973-34.606-23.878-35.955-49.338-71.913-49.592-72.272a9.999 9.999 0 0 1 .126-11.736c.132-.179 13.306-17.953 20.536-28.156 1.401-1.978 3.51-6.854 5.37-11.158 4.682-10.83 9.523-22.028 17.503-26.688 8.519-4.979 15.26 3.51 17.797 6.702 2.627 3.307 5.923 7.968 9.738 13.365 8.422 11.913 19.957 28.229 31.627 40.145 15.561 15.887 33.846 26.795 34.028 26.903a10.006 10.006 0 0 1 4.272 12.122c-.321.854-32.181 85.729-40.517 109.252a10.001 10.001 0 0 1-9.428 6.659zm-70.565-143.052c8.256 11.758 27.467 39.298 45.764 66.85 8.474 12.76 14.744 25.574 20.277 36.88.892 1.823 1.76 3.598 2.612 5.319 9.72-26.417 24.22-65.161 30.296-81.373-7.503-5.066-19.758-14.061-31.028-25.566-12.79-13.059-24.858-30.129-33.67-42.594-1.756-2.483-3.693-5.224-5.47-7.673-1.81 3.584-3.631 7.796-4.88 10.685-2.575 5.957-4.799 11.102-7.41 14.785-4.796 6.769-11.946 16.519-16.491 22.688z"/><path d="M1061.717 818.951c25.326-25.835 52.379-42.906 77.705-68.74 20.917-21.337 40.109-51.439 61.006-72.796 6.057-6.19 23.872-11.408 23.872-11.408s-24.9-25.999-31.661-33.682c-15.537-17.656-23.445-38.315-40.104-54.917.267 12.072.404 24.732-5.163 35.447-4.079 7.852-10.854 13.901-17.481 19.763-19.583 17.324-26.125 30.21-45.707 47.535-10.962 9.698-35.426 24.178-49.583 28.829-4.423 1.453-16.677 6.127-16.677 6.127s3.644 12.678 6.014 17.154c7.382 13.942 8.809 29.758 15.112 44.22 2.005 4.599 25.399 39.681 22.666 42.469z" fill="#fff"/><path d="M1061.716 828.951a9.967 9.967 0 0 1-7-2.859 9.973 9.973 0 0 1-2.99-7.568c-2.083-5.213-10.966-19.711-14.916-26.157-4.194-6.847-6.084-9.954-6.927-11.888-3.112-7.14-5.082-14.346-6.987-21.315-2.179-7.971-4.236-15.5-7.795-22.221-2.719-5.134-6.131-16.787-6.787-19.071a9.999 9.999 0 0 1 6.047-12.105c.509-.194 12.526-4.774 17.12-6.283 12.421-4.082 35.676-17.616 46.078-26.818 9.291-8.22 15.423-15.312 21.916-22.819 6.637-7.675 13.5-15.611 23.792-24.717 5.878-5.199 11.956-10.576 15.234-16.884 4.523-8.706 4.266-20.346 4.039-30.614a10 10 0 0 1 17.057-7.305c9.835 9.803 16.734 20.695 23.405 31.23 5.434 8.58 10.565 16.684 17.147 24.163 6.544 7.438 31.128 33.113 31.375 33.371a10.001 10.001 0 0 1-4.412 16.514c-7.402 2.178-17.021 6.236-19.534 8.805-10.033 10.254-20.028 23.077-29.693 35.479-10.05 12.895-20.442 26.229-31.32 37.325-13.045 13.307-26.574 24.389-39.657 35.105-13.251 10.854-25.768 21.106-38.048 33.634a9.97 9.97 0 0 1-7.141 2.999zm-13.528-56.532c.583 1.184 3.404 5.79 5.676 9.497 3.623 5.913 8.104 13.228 11.584 19.503 9.593-8.854 19.306-16.811 28.784-24.575 13.251-10.854 25.768-21.106 38.048-33.634 10.083-10.286 20.121-23.164 29.828-35.619 10.006-12.837 20.352-26.112 31.172-37.171 3.246-3.317 8.326-6.2 13.321-8.484-7.714-8.12-17.507-18.502-21.47-23.005-7.622-8.662-13.421-17.819-19.029-26.676-1.737-2.742-3.446-5.442-5.183-8.087-.963 4.508-2.438 8.994-4.673 13.296-4.99 9.605-12.821 16.532-19.729 22.644-9.291 8.219-15.423 15.311-21.916 22.818-6.637 7.675-13.5 15.611-23.792 24.717-12.383 10.954-38.182 25.941-53.087 30.839-1.594.523-4.47 1.567-7.432 2.663.977 2.879 1.897 5.328 2.485 6.438 4.593 8.675 7.043 17.639 9.413 26.307 1.79 6.548 3.481 12.734 5.999 18.53z"/><path d="M861.773 1304.013c-6.787 9.044-25.136 51.517 60.721 49.812 54.205-1.077 187.81 65.948 187.81 65.948l10.302-77.12s-72.894-38.136-164.372-52.994c-22.624-3.675-76.408-9.704-94.461 14.354z" fill="#fff"/><path d="M1110.303 1429.773a9.995 9.995 0 0 1-4.483-1.062c-1.304-.654-129.999-64.9-181.93-64.9-.406 0-.801.004-1.197.012-39.91.776-64.726-7.775-73.79-25.467-8.152-15.912-.378-33.348 4.872-40.345 9.661-12.875 27.477-20.128 52.954-21.559 18.772-1.059 38.155 1.232 51.108 3.336 92.018 14.945 164.37 52.416 167.405 54.004a9.998 9.998 0 0 1 5.276 10.185l-10.303 77.12a10.003 10.003 0 0 1-9.912 8.676zm-186.573-85.96c47.131 0 143.811 44.248 178.499 60.887l7.516-56.256c-19.335-9.252-81.444-36.948-155.113-48.913-42.973-6.98-74.695-3.062-84.859 10.484-1.622 2.161-6.894 11.755-3.068 19.222 2.393 4.671 12.595 15.435 55.592 14.59.472-.01.952-.014 1.435-.014zm-61.957-39.8h.01z"/><path d="M1127.344 1545.167s10.137-45.277 10.63-60.746c.914-28.694 1.667-58.357-9.053-84.989-4.047-10.054-9.787-19.513-12.518-30.069-1.842-7.118-82.652-33.337-82.652-33.337s-132.543 26.36-179.814 14.927c-14.122-3.415-55.1 6.032-58.022 35.837-2.385 24.325 12.892 35.908 12.892 35.908s-22.121 11.534-22.121 30.704c0 43.997 54.751 43.861 54.751 43.861s-25.73 10.077-24.361 24.591c3.143 33.312 60.068 20.788 60.068 20.788s-20.065 8.809-17.803 24.694c4.939 34.689 90.713 12.866 124.323 7.504 64.021-10.215 122.939-29.674 122.939-29.674h20.741z" fill="#fff"/><path d="M910.271 1599.373c-20.607 0-37.887-2.973-48.868-11.064-6.708-4.942-10.844-11.707-11.962-19.563-.89-6.252.386-11.806 2.854-16.59-10.74-1.398-22.692-4.688-31.546-11.936-7.457-6.104-11.879-14.418-12.787-24.045-.802-8.505 3.001-15.862 7.943-21.676a99.695 99.695 0 0 1-6.91-2.399c-26.704-10.423-32.31-26.797-32.31-38.698 0-14.987 9.519-26.037 17.363-32.599-4.863-7.414-9.649-19.036-8.085-34.989 1.645-16.783 12.592-29.023 30.825-34.466 13.665-4.077 28.482-3.616 36.096-2.977 15.31 1.282 61.9 5.193 128.111-10.747 5.371-1.287 10.77 2.013 12.063 7.382s-2.012 10.771-7.381 12.063c-69.35 16.697-118.36 12.583-134.464 11.231-10.109-.846-43.246-1.95-45.345 19.464-1.722 17.568 8.078 26.205 9.033 27.001 2.797 2.023 4.239 5.265 3.999 8.713-.242 3.469-2.385 6.478-5.468 8.086-.132.07-16.745 9.263-16.745 21.837 0 20.989 42.407 25.662 42.835 25.703 4.396.423 8 3.681 8.858 8.013s-1.221 8.714-5.124 10.78c-6.573 3.523-15.854 11.402-15.382 16.398.412 4.361 2.167 7.676 5.523 10.431 10.973 9.005 34.553 8.806 42.715 7.969 4.898-.503 9.44 2.634 10.696 7.396s-1.133 9.728-5.642 11.707c-.085.039-13.042 6.267-11.923 14.129.364 2.56 1.606 4.497 4.026 6.28 19.101 14.074 83.471 3.735 107.703-.157l3.3-.529c61.955-9.885 117.61-35.19 118.165-35.444a9.994 9.994 0 0 1 4.168-.91h20.741c5.523 0 10 4.478 10 10s-4.477 10-10 10h-18.604c-10.907 4.815-62.71 26.753-121.319 36.104l-3.279.525c-26.002 4.177-51.838 7.576-73.872 7.576z"/><path d="M864.012 1432.874c-23.809 0-45.023-1.29-58.278-2.333-5.506-.433-9.618-5.247-9.185-10.753.433-5.507 5.256-9.625 10.753-9.185 24.557 1.93 108.288 6.93 154.689-9.842 5.193-1.882 10.926.812 12.804 6.005 1.877 5.194-.811 10.927-6.005 12.804-29.062 10.505-69.726 13.304-104.779 13.304zm-8.207 67.152c-6.983 0-13.306-.328-18.597-1.059-5.471-.756-9.294-5.803-8.539-11.274s5.806-9.289 11.274-8.538c26.206 3.618 88.583-4.427 116.013-13.072 5.268-1.661 10.883 1.264 12.544 6.531 1.66 5.267-1.264 10.883-6.531 12.543-22.435 7.071-72.139 14.869-106.165 14.869zm17.197 52.9c-4.751 0-8.966-3.4-9.832-8.241-.972-5.437 2.647-10.633 8.083-11.604 7.141-1.277 19.943-2.382 33.498-3.552 16.096-1.39 36.128-3.119 42.683-5.016 5.305-1.533 10.85 1.52 12.386 6.825 1.535 5.306-1.521 10.851-6.826 12.386-7.852 2.272-23.519 3.744-46.523 5.73-12.513 1.08-25.451 2.196-31.697 3.313-.595.106-1.188.158-1.772.158z"/><path d="M1106.603 1313.242h68.509v231.925h-68.509z" fill="#d3cfff"/><path d="M1175.112 1555.167h-68.509c-5.523 0-10-4.478-10-10v-231.925c0-5.522 4.477-10 10-10h68.509c5.523 0 10 4.478 10 10v231.925c0 5.522-4.477 10-10 10zm-58.509-20h48.509v-211.925h-48.509z"/><circle cx="1133.943" cy="1434.233" fill="#fff" r="68.195"/><path d="M1133.943 1512.428c-43.117 0-78.195-35.078-78.195-78.195s35.078-78.194 78.195-78.194 78.195 35.078 78.195 78.194-35.078 78.195-78.195 78.195zm0-136.39c-32.089 0-58.195 26.105-58.195 58.194s26.106 58.195 58.195 58.195 58.195-26.106 58.195-58.195-26.106-58.194-58.195-58.194z"/><path d="M1287.605 1530.803c9.242-54.093-13.28-167.617-19.645-232.929 0 0-12.449-10.495-49.635-4.52-10.507 1.688-51.664 4.662-58.448 12.861-6.687 8.082 12.859 233.533 12.859 233.533s55.125-.807 78.73-.697c46.434.217 36.139-8.248 36.139-8.248z" fill="#fff"/><path d="M1172.734 1549.748a10 10 0 0 1-9.96-9.137c-.049-.563-4.94-57.099-8.95-113.895-8.383-118.74-5.264-122.511-1.651-126.877 6.755-8.163 24.016-11.532 55.578-15.225 3.813-.446 7.107-.832 8.989-1.134 39.701-6.379 55.002 4.501 57.666 6.747a9.996 9.996 0 0 1 3.507 6.676c1.807 18.534 4.955 41.188 8.289 65.171 8.252 59.373 17.576 126.444 11.798 166.979.75 2.328.848 4.979-.131 7.69-3.332 9.23-15.475 12.407-46.448 12.308-23.241-.111-77.987.687-78.537.695h-.149zm108.509-11.23.011.01-.011-.01zm-112.515-226.439c-1.902 19.402 5.063 122.575 13.175 217.543 16.799-.224 52.047-.65 69.611-.569 14.82.066 22.578-.781 26.493-1.518 5.806-37.366-3.442-103.904-11.615-162.706-3.048-21.932-5.943-42.761-7.833-60.575-5.208-1.898-17.057-4.492-38.647-1.025-2.305.37-5.629.76-9.837 1.252-8.63 1.01-33.586 3.93-41.348 7.599z"/><path d="M1298.45 988.809c12.497 93.114 33.284 169.163 26.186 228.988-3.556 29.976 36.411 86.843 62.502 87.028 24.701.175 22.952-29.004 9.68-32.214-12.129-2.933-32.056 15.322-55.959 20.728-18.199 4.116-34.998-4.621-49.178-4.563-12.64.052-23.72 9.098-23.72 9.098s-12.449-10.495-49.635-4.52c-10.507 1.688-51.664 4.662-58.448 12.861-6.687 8.082 12.859 233.533 12.859 233.533s55.125-.807 78.73-.697c46.434.217 36.139-8.248 36.139-8.248s194.644 12.916 231.025 3.731c118.871-30.012 97.651-145.636 94.255-184.919-8.71-100.761-3.198-140.554-11.908-241.315-2.439-28.218-19.101-117.405-21.54-145.623-5.966-69.018-13.149-141.546-52.594-198.494-46.494-67.124-113.597-91.027-214.176-86.877" fill="#fff"/><path d="M1172.734 1549.748a10 10 0 0 1-9.96-9.137c-.049-.563-4.94-57.099-8.95-113.895-8.383-118.74-5.264-122.511-1.651-126.877 6.755-8.163 24.016-11.532 55.578-15.225 3.813-.446 7.107-.832 8.989-1.134 26.773-4.302 42.449-.755 50.637 2.699 5.481-3.28 14.297-7.364 24.263-7.405 6.581-.005 13.202 1.428 19.629 2.835 9.023 1.976 18.352 4.02 27.384 1.975a55.936 55.936 0 0 0 1.63-.394c-14.847-19.189-28.009-46.09-25.578-66.573 4.735-39.911-3.589-88.479-13.229-144.717-4.452-25.973-9.055-52.829-12.938-81.763-.734-5.474 3.107-10.507 8.581-11.241 5.476-.738 10.507 3.107 11.241 8.581 3.835 28.573 8.407 55.248 12.828 81.044 9.902 57.771 18.454 107.662 13.376 150.453-1.603 13.507 9.412 38.071 25.223 56.514 2.349-1.161 4.638-2.342 6.849-3.482 12.027-6.204 22.413-11.567 32.531-9.116 11.324 2.738 18.627 14.86 16.99 28.196-1.355 11.036-9.802 23.895-29.091 23.737-11.626-.082-22.836-7.202-31.917-15.416-3.859 1.461-7.884 2.734-12.084 3.685-13.372 3.021-25.431.385-36.072-1.945-5.574-1.22-10.841-2.372-15.173-2.372h-.099c-8.708.035-17.353 6.776-17.436 6.845-3.917 3.198-8.994 3.512-12.617.05-1.499-.911-12.967-7.066-41.756-2.442-2.305.37-5.629.76-9.837 1.252-7.34.858-17.392 2.035-26.212 3.665-8.867 1.64-13.166 3.126-15.143 4.008-1.876 19.598 5.081 122.626 13.182 217.469 16.8-.224 52.055-.646 69.611-.569 15.033.083 22.79-.805 26.651-1.548a10.01 10.01 0 0 1 10.103-6.68c53.702 3.565 199.331 11.232 227.916 4.015 102.149-25.791 92.375-119.725 87.678-164.866-.356-3.424-.692-6.658-.938-9.497-4.382-50.696-5.199-86.585-5.989-121.291-.783-34.395-1.592-69.959-5.92-120.023-1.187-13.734-6.011-43.388-10.677-72.065-4.942-30.379-9.611-59.074-10.863-73.558-5.567-64.399-11.877-137.392-50.853-193.661-42.981-62.054-104.451-86.739-205.543-82.58-5.511.226-10.176-4.061-10.404-9.579s4.062-10.176 9.58-10.403c53.153-2.196 96.152 3.498 131.446 17.397 37.254 14.673 67.139 38.805 91.362 73.776 42.002 60.641 48.841 139.757 54.337 203.327 1.187 13.735 6.012 43.391 10.677 72.069 4.942 30.378 9.61 59.071 10.862 73.554 4.382 50.696 5.199 86.585 5.989 121.291.783 34.395 1.592 69.96 5.92 120.023.23 2.665.558 5.815.905 9.149 2.405 23.116 6.431 61.805-4.73 98.435-13.835 45.406-46.789 74.978-97.945 87.893-33.559 8.477-188.286-.564-226.061-2.931-5.67 5.759-18.43 7.866-43.598 7.753-23.241-.11-77.987.687-78.537.695h-.149zm202.663-259.755c5.014 3.402 9.077 4.813 11.812 4.832 8.025.057 8.784-4.305 9.034-5.737.639-3.665-1.105-6.521-1.776-6.757-2.873-.694-12.372 4.208-18.66 7.452l-.409.21z"/><path d="M1287.617 1540.805c-.56 0-1.125-.048-1.696-.145-5.444-.931-9.103-6.098-8.173-11.542 6.33-37.046-3.066-104.646-11.356-164.29-3.362-24.191-6.539-47.042-8.384-65.984-.536-5.497 3.486-10.387 8.983-10.923 5.491-.539 10.387 3.486 10.922 8.983 1.807 18.534 4.955 41.188 8.289 65.171 8.49 61.081 18.112 130.312 11.261 170.412-.833 4.873-5.062 8.317-9.845 8.317z"/><path d="M929.496 1245.179c5.445 4.688 98.669-4.471 129.573-3.213 4.531-25.091-5.743-60.837-7.434-96.435-2.602-54.752.468-107.86-5.087-111.214-7.445-4.496-121.863-5.176-120.825 11.902 3.773 62.081-2.826 193.278 3.773 198.96z" fill="#fff"/><path d="M942.918 1256.519c-12.937 0-16.972-1.201-19.947-3.762-6.175-5.317-7.107-12.495-6.3-99.306.345-37.132.736-79.218-.929-106.626-.2-3.283.634-9.5 8.462-14.236 12.693-7.681 44.157-10.102 68.316-10.779 12.682-.355 25.521-.271 36.154.239 18.367.883 21.181 2.582 23.043 3.706 7.923 4.786 8.272 14.536 8.618 59.81.138 18.075.294 38.561 1.289 59.491.641 13.478 2.575 27.124 4.445 40.322 3.026 21.35 5.884 41.517 2.841 58.365-.887 4.912-5.244 8.385-10.248 8.215-13.015-.539-38.278.9-62.708 2.285-26.271 1.488-42.569 2.275-53.038 2.275zm-4.735-15.977zm-.703-4.067c10.904.433 37.282-1.063 57.344-2.199 20.083-1.138 40.721-2.308 55.295-2.419.568-12.481-1.591-27.72-3.852-43.672-1.935-13.652-3.936-27.77-4.621-42.18-1.013-21.329-1.171-42.026-1.311-60.287-.126-16.517-.266-34.898-1.293-42.851-8.063-.949-27.197-1.806-50.987-.899-31.822 1.21-47.015 4.703-52.16 7.003 1.487 28.058 1.109 68.67.774 104.666-.291 31.313-.645 69.363.81 82.838zm100.915-196.821z"/><path d="M988.994 1043.829a10 10 0 0 1-9.4-6.586l-.963-2.647c-7.617-20.923-25.453-69.918-37.05-119.733-6.042-25.953-10.371-52.28-13.85-73.434-3.39-20.612-6.317-38.414-9.311-46.654-1.885-5.191.794-10.928 5.985-12.813 5.188-1.881 10.928.795 12.813 5.985 3.627 9.988 6.548 27.75 10.247 50.236 3.61 21.952 7.702 46.832 13.595 72.145 8.607 36.975 20.81 73.692 29.46 98.221 3.149-10.888 5.564-24.934 8.184-40.164 2.525-14.688 5.388-31.336 9.477-49.023 5.351-23.145 11.6-39.01 17.114-53.007 8.309-21.095 14.872-37.757 14.872-71.285 0-5.522 4.477-10 10-10s10 4.478 10 10c0 37.326-7.537 56.46-16.264 78.615-5.259 13.35-11.219 28.481-16.236 50.183-3.961 17.133-6.772 33.481-9.253 47.906-5.567 32.374-9.589 55.766-22.188 68.962a9.999 9.999 0 0 1-7.233 3.095z"/></svg></g><g transform="translate(211.2 945.5999999999999) rotate(0.0 447.5999999999999 568.2) scale(1.6055843918257242 1.6063802869263206)"><svg width="557.554" height="707.429" viewBox="0 0 557.554 707.429"><path d="m91.586 136.12 55.078-6.3-15.866-69.535L106.549 10 56.675 21.848s5.736 13.031 7.542 16.723A279.737 279.737 0 0 1 72.62 57.49c2.502 6.247 18.967 78.63 18.967 78.63z" fill="#f283a5"/><path d="M91.577 146.121a10 10 0 0 1-9.742-7.783c-7.76-34.113-16.888-72.759-18.522-77.19a270.493 270.493 0 0 0-8.079-18.182c-1.873-3.829-7.475-16.549-7.712-17.088a10 10 0 0 1 6.841-13.758L104.237.271a10 10 0 0 1 11.319 5.386l24.248 50.285c.325.676.574 1.387.741 2.119l15.867 69.535a9.998 9.998 0 0 1-8.612 12.16l-55.078 6.3c-.385.044-.767.066-1.146.066zM70.713 28.791c1.04 2.304 1.966 4.323 2.485 5.385a290.562 290.562 0 0 1 8.704 19.595c2.248 5.613 12.27 48.814 17.44 71.396l35.087-4.013-13.131-57.544-20.264-42.023-30.322 7.203z"/><path d="M69.216 389.84c10.419 68.663 14.733 134.595 25.152 203.258 4.556 30.022 15.216 62.775 19.772 92.797 44.502 2.856 83.434 11.446 128.028 11.532 83.369.162 139.583-14.21 232.888-19.622 13.513-.784 64.819 7.538 71.405-4.287 4.725-8.484-7.313-81.478-8.914-91.056-19.112-114.38-41.526-162.976-60.639-277.356-9.776-58.505-19.297-133.753-29.073-192.258-2.452-14.677 10.571-35.215-2.443-42.43-8.105-4.493-53.778-2.531-63.032-2.034-91.226 4.9-125.443 14.468-216.67 19.368-22.581 1.213-65.043-9.907-87.624-8.694-10.387.558-70.192 4.273-68.008 14.622 9.276 43.959 27.571 101.689 35.267 145.969 8.681 49.947 16.286 100.071 23.891 150.19z" fill="#9fddff"/><path d="m243.559 707.429-1.41-.001c-26.87-.052-52.051-3.162-76.403-6.169-16.837-2.079-34.248-4.229-52.246-5.384a10 10 0 0 1-9.246-8.479c-2.213-14.58-6.028-30.321-9.718-45.543-3.791-15.64-7.711-31.812-10.054-47.254-5.241-34.537-8.997-68.854-12.63-102.041-3.61-32.984-7.345-67.091-12.522-101.217l-.018-.116c-7.464-49.193-15.182-100.06-23.839-149.862-4.289-24.681-12.048-54.065-19.551-82.482C9.967 136.329 4.343 115.029.275 95.747c-.78-3.694.102-7.438 2.482-10.54 3.48-4.536 10.641-9.245 39.212-12.957 15.404-2.001 31.113-2.936 35.562-3.175 12.32-.661 28.606 1.82 45.854 4.447 15.49 2.359 31.511 4.799 41.771 4.247 45.308-2.434 77.039-6.093 107.726-9.633 30.985-3.574 63.025-7.269 108.944-9.736 1.665-.089 16.633-.869 32.188-.869h.302c25.038.016 32.064 2 35.928 4.142 14.479 8.027 11.195 24.233 9.022 34.956-1.077 5.32-2.192 10.821-1.565 14.572 4.907 29.367 9.821 63.428 14.574 96.367 4.734 32.818 9.631 66.753 14.499 95.891 9.487 56.774 19.99 97.993 30.146 137.854 10.259 40.263 20.867 81.897 30.493 139.502 14.339 85.806 9.748 94.049 7.787 97.57-7.334 13.164-29.68 12.585-62.931 10.202-6.982-.501-13.574-.973-16.633-.796-39.789 2.308-72.547 6.229-104.226 10.021-41.302 4.945-80.343 9.618-127.851 9.618zm-120.852-30.943c15.715 1.247 30.816 3.112 45.489 4.924 24.855 3.069 48.332 5.968 73.991 6.018l1.359.001c46.33 0 84.788-4.604 125.485-9.476 31.978-3.828 65.044-7.787 105.444-10.13 4.346-.252 10.911.218 19.222.814 9.106.653 19.432 1.395 28.5 1.275 9.337-.122 13.576-1.158 15.301-1.784.839-9.594-3.192-44.387-9.814-84.017-9.487-56.777-19.99-97.998-30.147-137.86-10.259-40.261-20.866-81.894-30.492-139.496-4.905-29.357-9.817-63.404-14.567-96.331-4.737-32.831-9.635-66.779-14.506-95.927-1.235-7.396.319-15.069 1.69-21.839.988-4.878 2.469-12.185 1.003-13.41-5.368-1.877-31.585-2.283-57.769-.877-45.308 2.434-77.039 6.093-107.726 9.633-30.985 3.574-63.025 7.269-108.944 9.736-12.31.661-28.606-1.82-45.854-4.447-15.49-2.359-31.506-4.8-41.771-4.247-27.905 1.499-49.408 4.813-57.659 7.664 3.861 17.474 8.953 36.758 14.315 57.066 7.611 28.827 15.482 58.635 19.919 84.163 8.693 50.014 16.428 100.989 23.907 150.287l.018.116c5.241 34.537 8.997 68.854 12.63 102.041 3.61 32.984 7.345 67.091 12.522 101.217 2.213 14.58 6.028 30.321 9.718 45.543 3.148 12.989 6.386 26.344 8.734 39.345zm415.824-8.831z"/></svg></g><g transform="translate(615.6 1630.8) rotate(0.0 577.2 518.4) scale(1.606508418722002 1.6071328922811736)"><svg width="718.577" height="645.124" viewBox="0 0 718.577 645.124"><path d="M297.835 542.098c31.565 3.041 345.749 18.341 397.027 16.472-12.067-27.606-51.799-170.62-70.114-212.519-35.054-80.191-63.934-132.784-98.989-212.975-9.206-21.06-20.862-92.531-20.862-92.531s-69.185-5.48-95.614-7.638-111.029-15.162-137.442-12.812c-43.803 3.897-115.881 1.607-137.955-.976-18.66-2.184-46.878-12.173-64.474-8.19 8.643 34.66 32.149 75.242 46.351 108.171 14.921 34.594 165.239 383.97 182.073 422.999z" fill="#72caaf"/><path d="M683.481 568.728c-76.841 0-358.816-13.999-386.604-16.676a10.002 10.002 0 0 1-8.224-5.994c-8.688-20.146-52.956-123.009-95.765-222.485-40.673-94.509-79.089-183.777-86.308-200.514-4.427-10.265-9.76-21.254-15.405-32.888-12.448-25.65-25.319-52.174-31.467-76.823a10.002 10.002 0 0 1 7.496-12.173c13.969-3.163 31.267.608 47.993 4.254 7.3 1.591 14.195 3.094 19.852 3.756 22.232 2.602 93.238 4.743 135.907.948 19.314-1.719 65.108 3.96 101.9 8.524 15.72 1.95 29.296 3.634 37.241 4.283 26.115 2.132 94.897 7.582 95.59 7.636a10 10 0 0 1 9.079 8.359c3.188 19.536 13.021 73.813 20.156 90.136 17.454 39.927 33.664 73.595 49.342 106.154 15.755 32.722 32.047 66.557 49.647 106.82 10.336 23.645 27.18 78.26 42.042 126.447 11.771 38.169 22.891 74.222 28.071 86.072a10.006 10.006 0 0 1-.696 9.327 10.003 10.003 0 0 1-8.103 4.672c-3.066.112-7.021.165-11.745.165zm-378.844-36.113c48.289 3.488 300.214 15.852 375.822 16.12-5.98-17.162-14.327-44.224-23.618-74.348-14.705-47.68-31.372-101.722-41.256-124.33-17.454-39.927-33.664-73.595-49.342-106.154-15.755-32.721-32.047-66.557-49.647-106.82-7.831-17.916-16.918-67.802-20.263-87.184-18.854-1.496-66.979-5.319-87.863-7.024-8.364-.683-22.133-2.391-38.076-4.368-33.957-4.212-80.454-9.981-97.667-8.45-43.874 3.903-117.052 1.681-140.003-1.005-6.632-.776-13.993-2.381-21.787-4.08-9.462-2.063-19.783-4.312-28.449-4.854 6.418 19.569 16.69 40.739 26.681 61.324 5.745 11.841 11.173 23.024 15.777 33.699 7.222 16.744 45.64 106.016 86.313 200.529a966855.661 966855.661 0 0 0 93.378 216.947z"/><path d="M294.838 572.643c31.565 3.041 358.933-65.943 358.933-65.943L485.874 66.946s-53.16-1.336-79.589-3.494S295.256 48.29 268.843 50.64c-43.803 3.897-115.881 1.607-137.955-.976-18.66-2.184-51.489-9.118-51.489-9.118L41.537 77.049s236.468 456.566 253.301 495.595z" fill="#fff"/><path d="M296.684 582.709c-1.089 0-2.021-.037-2.805-.112a10.003 10.003 0 0 1-8.224-5.993C269.152 538.342 35.019 86.21 32.656 81.647a10.001 10.001 0 0 1 1.939-11.798l37.862-36.503a10 10 0 0 1 9.007-2.585c.324.068 32.601 6.865 50.585 8.97 22.234 2.602 93.24 4.743 135.907.948 19.326-1.72 65.111 3.961 101.903 8.524 15.719 1.95 29.294 3.634 37.238 4.282 25.844 2.11 78.498 3.451 79.026 3.464a10.002 10.002 0 0 1 9.092 6.43l167.896 439.754a9.999 9.999 0 0 1-7.281 13.352c-32.841 6.92-315.533 66.224-359.148 66.224zM53.845 79.071c29.087 56.185 218.382 422.04 247.417 483.579 38.202-2.304 215.618-37.46 338.988-63.327L478.917 76.76c-15.205-.435-52.352-1.619-73.445-3.342-8.363-.683-22.131-2.391-38.073-4.368-33.959-4.212-80.464-9.981-97.67-8.451-43.872 3.903-117.052 1.681-140.003-1.005-14.589-1.707-37.066-6.13-47.185-8.19L53.845 79.07z"/><path d="M530.678 353.543c32.8 81.348 117.756 265.715 117.756 265.715s19.815-13.038 24.197-16.229c19.427-14.144 16.518-20.885 35.945-35.029-8.116-31.482-24.914-77.347-33.589-105.603-16.816-54.771-32.247-98.512-55.36-154.883-32.958-80.382-79.897-183.618-114.73-266.969.387 2.321-15.199 28.231-18.188 30.314-9.713 6.767-18.146 15.317-27.859 22.084-7.385 5.145-29.389 7.853-29.389 7.853s6.091 28.738 9.124 36.26c18.007 44.66 44.852 89.721 62.859 134.381 10.262 25.452 18.973 56.655 29.235 82.107z" fill="#72caaf"/><path d="M648.434 629.258a10.001 10.001 0 0 1-9.081-5.815c-.851-1.846-85.435-185.521-117.949-266.161-5.243-13.005-10.114-27.551-14.825-41.618-4.617-13.787-9.391-28.043-14.409-40.49-8.854-21.957-20.163-44.58-31.1-66.459-11.114-22.231-22.605-45.219-31.76-67.922-3.197-7.932-8.584-32.985-9.631-37.927a10.001 10.001 0 0 1 8.561-11.999c9.448-1.17 21.708-3.913 24.894-6.133 4.479-3.12 8.714-6.695 13.198-10.48 4.432-3.74 9.007-7.602 13.977-11.122 3.107-3.713 12.82-19.778 14.75-24.387a10.005 10.005 0 0 1 7.068-7.811 9.997 9.997 0 0 1 11.997 5.753c16.026 38.348 34.96 81.691 53.27 123.607 21.474 49.158 43.678 99.99 61.487 143.424 22.489 54.851 38.097 98.517 55.667 155.742 3.125 10.179 7.356 22.787 11.836 36.136 7.796 23.229 16.631 49.558 21.877 69.906a9.999 9.999 0 0 1-3.798 10.58c-8.605 6.266-12.039 10.607-16.015 15.634-4.27 5.398-9.108 11.517-19.93 19.396-4.522 3.292-23.77 15.961-24.586 16.498a10 10 0 0 1-5.498 1.646zM539.952 349.804c27.822 69.003 94.182 214.3 112.698 254.676 5.814-3.864 12.029-8.03 14.096-9.535 8.605-6.266 12.039-10.607 16.015-15.633 3.469-4.386 7.313-9.248 14.438-15.143-5.174-18.697-12.887-41.68-19.776-62.208-4.521-13.474-8.793-26.202-11.994-36.628-17.377-56.597-32.813-99.782-55.054-154.025-17.722-43.224-39.88-93.95-61.309-143.005-15.311-35.048-31.057-71.095-45.199-104.441-7.794 12.661-10.228 14.357-11.44 15.202-4.477 3.119-8.711 6.693-13.194 10.477-4.635 3.913-9.428 7.958-14.666 11.607-5.487 3.823-15.183 6.342-23.058 7.861 2.239 9.848 4.923 20.767 6.351 24.309 8.854 21.957 20.163 44.58 31.1 66.458 11.113 22.231 22.605 45.22 31.76 67.922 5.243 13.005 10.114 27.551 14.825 41.618 4.616 13.786 9.392 28.043 14.409 40.489zM495.028 42.165l.005.027-.005-.027zm-.003-.021s0 .009.002.014l-.002-.014z"/><path d="M231.449 633.158c31.565 3.041 78.254-1.823 109.896.266 56.372 3.721 100.341.07 156.831.765 51.308.631 98.98-13.061 150.258-14.93-12.067-27.606-26.994-58.087-39.061-85.693-18.315-41.899-25.721-81.222-44.037-123.12-35.054-80.191-63.934-132.784-98.989-212.975-9.206-21.06-36.887-96.675-36.887-96.675s-53.16-1.336-79.589-3.494S238.842 82.14 212.429 84.49c-43.803 3.897-115.881 1.607-137.955-.976C55.814 81.33 27.596 71.341 10 75.324c8.643 34.66 32.149 75.242 46.351 108.171 14.921 34.594 28.176 73.729 43.096 108.323 29.841 69.188 38.88 102.5 68.721 171.688 16.833 39.029 46.447 130.624 63.281 169.653z" fill="#72caaf"/><path d="M396.845 645.127c-17.883 0-36.182-.406-56.157-1.725-14.267-.942-31.636-.425-50.026.123-20.988.625-42.688 1.271-60.171-.413a10.003 10.003 0 0 1-8.224-5.993c-8.547-19.816-20.409-53.176-31.88-85.437-11.363-31.957-23.114-65.003-31.401-84.216-15.009-34.799-24.932-60.959-34.527-86.258-9.519-25.094-19.361-51.041-34.193-85.43-7.544-17.49-14.744-36.331-21.707-54.552-6.889-18.027-14.013-36.668-21.39-53.771-4.428-10.266-9.761-21.257-15.407-32.892-12.447-25.65-25.318-52.172-31.465-76.82A10.002 10.002 0 0 1 7.793 65.57c13.971-3.163 31.265.608 47.992 4.254 7.301 1.591 14.196 3.095 19.853 3.756 22.233 2.602 93.239 4.743 135.907.948 19.326-1.719 65.11 3.96 101.901 8.524 15.719 1.95 29.295 3.634 37.239 4.282 25.851 2.111 78.499 3.451 79.027 3.464a10 10 0 0 1 9.14 6.559c.275.753 27.68 75.567 36.659 96.108 17.454 39.927 33.664 73.595 49.342 106.154 15.755 32.721 32.047 66.557 49.647 106.82 9.369 21.433 15.987 42.334 22.389 62.547 6.244 19.718 12.701 40.108 21.647 60.574 5.987 13.698 12.824 28.409 19.436 42.636 6.66 14.33 13.546 29.148 19.626 43.056a10.006 10.006 0 0 1-.696 9.327 10.003 10.003 0 0 1-8.103 4.672c-22.736.829-45.343 4.124-67.204 7.311-26.911 3.923-54.738 7.98-83.541 7.625-21.074-.259-40.555.094-59.395.435-14.08.255-27.82.504-41.814.504zm-74.751-22.239c7.022 0 13.748.151 19.911.558 34.771 2.296 64.654 1.754 96.292 1.181 18.989-.344 38.626-.7 60.003-.437 27.234.334 53.061-3.431 80.409-7.418 17.77-2.59 36.019-5.251 54.701-6.672-4.4-9.73-9.04-19.716-13.575-29.474-6.659-14.329-13.545-29.147-19.625-43.054-9.369-21.433-15.987-42.334-22.389-62.547-6.244-19.718-12.701-40.108-21.647-60.574-17.454-39.927-33.664-73.595-49.342-106.155-15.755-32.721-32.047-66.557-49.647-106.82-7.745-17.718-27.856-72.072-34.773-90.869-15.264-.437-52.303-1.62-73.354-3.339-8.363-.683-22.132-2.391-38.074-4.368-33.958-4.212-80.46-9.98-97.668-8.45-43.872 3.903-117.053 1.681-140.003-1.005-6.632-.776-13.993-2.381-21.788-4.08-9.462-2.063-19.782-4.312-28.448-4.854 6.418 19.568 16.689 40.736 26.678 61.319 5.747 11.842 11.175 23.028 15.779 33.703 7.544 17.49 14.744 36.331 21.707 54.552 6.889 18.027 14.013 36.668 21.39 53.771 15.009 34.799 24.932 60.959 34.527 86.258 9.519 25.094 19.361 51.042 34.193 85.43 8.547 19.815 20.408 53.175 31.88 85.436 10.338 29.073 20.996 59.046 29.075 78.687 15.259.954 33.779.402 51.76-.133 10.743-.32 21.705-.646 32.028-.646z"/><path d="M475.396 225.039a9.955 9.955 0 0 1-6.606-2.497c-4.145-3.651-4.544-9.97-.893-14.114 7.107-8.068 20.177-15.143 32.815-21.986 5.973-3.233 11.612-6.286 15.244-8.772 11.87-8.124 25.816-21.143 27.657-27.575a10 10 0 0 1 12.366-6.862c5.31 1.52 8.382 7.056 6.862 12.366-4.919 17.186-32.466 36.438-35.591 38.576-4.489 3.073-10.574 6.367-17.017 9.855-10.059 5.446-22.577 12.223-27.332 17.619a9.977 9.977 0 0 1-7.507 3.39zm80.915 170.068a9.954 9.954 0 0 1-4.819-1.245c-4.837-2.667-6.596-8.749-3.929-13.585 4.115-7.464 14.516-12.266 25.526-17.35 4.764-2.199 11.962-5.523 13.602-7.175 1.464-1.526 2.829-3.685 4.275-5.97 1.388-2.194 2.96-4.68 4.906-7.052.18-.219 18.852-21.889 33.165-21.889 5.522 0 10 4.477 10 10 0 5.411-4.298 9.818-9.666 9.995-3.803.942-14.24 9.952-18.036 14.58-1.165 1.42-2.283 3.187-3.467 5.059-1.823 2.881-3.889 6.147-6.75 9.129-4.155 4.33-11.333 7.645-19.645 11.482-5.451 2.517-14.536 6.712-16.51 9.047a9.996 9.996 0 0 1-8.653 4.975zm72.732-54.267h-.006z"/></svg></g><g transform="translate(1444.8 2264.4) rotate(0.0 420.6 255.5999999999999) scale(1.6080532653307007 1.6081843749410136)"><svg width="523.117" height="317.874" viewBox="0 0 523.117 317.874"><g><g><path d="M350.659 263.652s10.137-45.277 10.63-60.746c.914-28.694 1.667-58.357-9.053-84.989-4.047-10.054-9.787-19.513-12.518-30.069-1.842-7.118-82.652-33.337-82.652-33.337S124.523 80.871 77.252 69.438c-14.122-3.415-55.1 6.032-58.022 35.837-2.385 24.325 12.892 35.908 12.892 35.908s-22.121 11.534-22.121 30.704c0 43.997 54.751 43.861 54.751 43.861s-25.73 10.077-24.361 24.591c3.143 33.312 60.068 20.788 60.068 20.788s-20.065 8.809-17.803 24.694c4.939 34.689 90.713 12.866 124.323 7.504C271 283.11 329.918 263.651 329.918 263.651h20.741Z" fill="#fff"/><path d="M133.585 317.858c-20.607 0-37.886-2.973-48.867-11.064-6.708-4.942-10.844-11.706-11.962-19.562-.891-6.252.385-11.807 2.853-16.591-10.739-1.398-22.693-4.689-31.546-11.936-7.457-6.104-11.879-14.418-12.787-24.045-.803-8.504 3.001-15.861 7.943-21.676a99.677 99.677 0 0 1-6.91-2.398C5.605 200.163 0 183.789 0 171.888c0-14.988 9.519-26.038 17.363-32.6-4.863-7.414-9.649-19.036-8.085-34.989 1.646-16.783 12.593-29.023 30.826-34.466 13.666-4.078 28.482-3.615 36.096-2.977 15.309 1.287 61.892 5.196 128.111-10.746 5.369-1.287 10.771 2.013 12.063 7.382 1.292 5.37-2.012 10.771-7.382 12.063C139.635 92.25 90.631 88.136 74.528 86.785c-10.106-.845-43.246-1.95-45.345 19.464-1.722 17.568 8.078 26.205 9.033 27.001 2.797 2.023 4.239 5.265 3.999 8.713-.242 3.469-2.385 6.478-5.468 8.086-.132.07-16.745 9.263-16.745 21.838 0 20.989 42.407 25.661 42.835 25.702 4.396.423 8 3.681 8.858 8.013a9.995 9.995 0 0 1-5.124 10.78c-6.572 3.523-15.853 11.402-15.382 16.398.412 4.361 2.167 7.676 5.523 10.431 10.973 9.006 34.555 8.805 42.714 7.97a10.007 10.007 0 0 1 10.696 7.396 9.994 9.994 0 0 1-5.643 11.706c-.085.039-13.042 6.267-11.923 14.129.365 2.56 1.606 4.496 4.026 6.279 19.1 14.075 83.47 3.734 107.703-.157l3.3-.529c61.838-9.865 117.611-35.19 118.167-35.445a10 10 0 0 1 4.166-.909h20.741c5.523 0 10 4.478 10 10s-4.477 10-10 10h-18.604c-10.907 4.815-62.711 26.754-121.319 36.104l-3.28.525c-26.001 4.177-51.838 7.576-73.872 7.576Z"/><path d="M87.332 151.36c-23.808 0-45.03-1.291-58.284-2.334-5.506-.433-9.618-5.247-9.185-10.753.433-5.507 5.244-9.626 10.754-9.185 24.555 1.934 108.281 6.935 154.689-9.842 5.193-1.882 10.926.812 12.804 6.005 1.877 5.194-.811 10.927-6.005 12.804-29.066 10.507-69.722 13.305-104.774 13.305Zm-8.208 67.151c-6.986 0-13.307-.329-18.601-1.06-5.471-.756-9.293-5.804-8.538-11.274.755-5.472 5.798-9.286 11.274-8.538 26.202 3.619 88.582-4.426 116.013-13.071 5.268-1.663 10.883 1.263 12.544 6.531 1.66 5.267-1.264 10.883-6.531 12.543-22.433 7.071-72.136 14.869-106.161 14.869Zm17.193 52.9c-4.751 0-8.966-3.399-9.832-8.241-.973-5.437 2.646-10.632 8.083-11.604 7.142-1.277 19.948-2.383 33.506-3.553 16.093-1.39 36.122-3.118 42.675-5.015 5.302-1.536 10.851 1.521 12.386 6.825 1.535 5.305-1.521 10.851-6.826 12.386-7.851 2.272-23.515 3.744-46.516 5.729-12.516 1.08-25.457 2.197-31.704 3.314-.595.106-1.188.158-1.772.158Z"/></g><g><g><path fill="#d3cfff" d="M329.918 31.727h68.509v231.925h-68.509z"/><path d="M398.427 273.652h-68.509c-5.523 0-10-4.478-10-10V31.727c0-5.522 4.477-10 10-10h68.509c5.523 0 10 4.478 10 10v231.925c0 5.522-4.477 10-10 10Zm-58.509-20h48.509V41.727h-48.509v211.925Z"/></g><g><circle cx="357.259" cy="152.718" r="68.195" fill="#fff"/><path d="M357.259 230.912c-43.117 0-78.194-35.078-78.194-78.195s35.078-78.194 78.194-78.194 78.195 35.078 78.195 78.194-35.078 78.195-78.195 78.195Zm0-136.389c-32.088 0-58.194 26.105-58.194 58.194s26.106 58.195 58.194 58.195 58.195-26.106 58.195-58.195-26.106-58.194-58.195-58.194Z"/></g></g><g><path d="M510.921 249.288c9.242-54.093-13.28-167.617-19.645-232.929 0 0-12.449-10.495-49.635-4.52-10.507 1.688-51.664 4.662-58.448 12.861-6.687 8.082 12.859 233.533 12.859 233.533s55.125-.807 78.73-.697c46.434.217 36.139-8.248 36.139-8.248Z" fill="#fff"/><path d="M396.05 268.233a10 10 0 0 1-9.96-9.137c-.049-.563-4.94-57.099-8.95-113.895-8.383-118.74-5.264-122.511-1.651-126.877 6.754-8.162 24.013-11.53 55.57-15.224 3.817-.446 7.114-.832 8.997-1.135 39.7-6.384 55.002 4.501 57.667 6.747a9.996 9.996 0 0 1 3.507 6.676c1.806 18.535 4.955 41.189 8.289 65.174 8.252 59.372 17.575 126.442 11.797 166.977.75 2.328.848 4.979-.131 7.69-3.332 9.231-15.473 12.457-46.448 12.307-23.242-.1-77.986.688-78.536.695h-.149Zm108.509-11.23.011.01-.011-.01ZM392.043 30.564c-1.902 19.401 5.063 122.574 13.175 217.542 16.799-.224 52.048-.65 69.611-.569 14.82.06 22.578-.78 26.493-1.517 5.806-37.367-3.441-103.903-11.614-162.704-3.048-21.933-5.943-42.764-7.833-60.578-5.208-1.898-17.057-4.492-38.646-1.025-2.306.371-5.632.76-9.845 1.253-8.627 1.01-33.578 3.931-41.34 7.599Zm-1.514.892Z"/></g></g></svg></g><g transform="translate(202.79999999999998 1316.3999999999999) rotate(0.0 139.8 273.6) scale(1.6208413766717102 1.6093218320152698)"><svg width="172.503" height="340.019" viewBox="0 0 172.503 340.019"><g><g><path d="M38.966 25.765c17.478-13.853 55.785-15.709 70.254-15.764 11.946-.045 48.41 2.127 48.321 31.572-.112 37.447-39.556 24.426-47.869 24.566-18.498.31-37.314 4.084-53.092 13.744-7.121 4.36-27.846 5.932-27.846 5.932S8.669 49.778 38.965 25.765Z" fill="#fff"/><path d="M28.733 95.815a9.998 9.998 0 0 1-8.734-5.136c-8.37-15.031-16.476-49.582 12.756-72.752C52.937 1.933 92.927.063 109.183.001c12.103-.025 34.488 1.877 47.911 15.289 6.866 6.86 10.479 15.959 10.448 26.313-.038 12.53-3.813 22.114-11.22 28.484-12.752 10.967-31.772 8.146-41.991 6.631-1.625-.241-3.85-.571-4.531-.581-19.057.32-35.219 4.45-47.998 12.273-8.518 5.216-26.884 6.964-32.311 7.376a10.17 10.17 0 0 1-.759.028Zm16.445-62.213c-9.852 7.809-14.019 17.68-12.74 30.176.451 4.403 1.523 8.337 2.563 11.324 7.058-.931 14.145-2.392 16.358-3.747 15.866-9.714 35.429-14.833 58.146-15.215 2.159-.024 4.63.332 7.76.795 7.058 1.047 20.194 2.995 26.016-2.01 2.808-2.415 4.242-6.918 4.261-13.382.016-5.118-1.441-8.965-4.584-12.104-8.851-8.843-28.062-9.457-33.699-9.438-21.748.082-51.58 3.694-64.082 13.601Z"/></g><g><path d="M29.36 81.658c19.625-13.853 62.639-15.709 78.885-15.764 13.414-.045 54.357 2.127 54.258 31.572-.126 37.447-44.416 24.426-53.75 24.566-20.77.31-41.898 4.084-59.614 13.744-7.996 4.36-31.267 5.932-31.267 5.932s-22.531-36.037 11.488-60.05Z" fill="#fff"/><path d="M17.87 151.708a10 10 0 0 1-8.477-4.699c-.699-1.118-6.876-11.324-8.469-25.179-1.568-13.646 1.095-33.111 22.668-48.342 22.239-15.698 66.585-17.534 84.619-17.595 14.059-.012 39.724 2.023 54.122 16.423 6.686 6.686 10.202 15.394 10.169 25.183-.041 11.917-3.771 21.2-11.088 27.593-13.686 11.956-34.601 9.192-47.097 7.541-2.06-.271-4.613-.598-5.418-.603-21.834.326-40.331 4.541-54.974 12.525-9.443 5.149-31.129 6.843-35.381 7.13-.226.015-.452.022-.676.022Zm90.829-75.815h-.42c-24.758.083-58.771 3.782-73.152 13.935-10.87 7.673-15.579 17.203-14.395 29.136.473 4.769 1.827 9.043 3.09 12.173 8.678-.951 17.661-2.575 20.53-4.14 17.521-9.555 39.139-14.589 64.252-14.965 2.232-.021 4.925.322 8.334.773 8.543 1.128 24.445 3.229 31.319-2.776 1.043-.911 4.216-3.683 4.246-12.598.015-4.529-1.355-8.017-4.312-10.974-6.625-6.625-21.37-10.565-39.492-10.565ZM29.36 81.658h.01-.01Z"/></g><g><path d="M27.302 137.672c17.478-13.853 55.785-15.709 70.254-15.764 11.946-.045 48.41 2.127 48.321 31.572-.112 37.447-38.994 33.333-47.307 33.473-18.498.31-37.211-.638-52.988 9.023-7.121 4.36-23.363 22.619-23.363 22.619s-9.305-11.513-11.664-29.393c-2.23-16.898 2.026-39.861 16.746-51.529Z" fill="#fff"/><path d="M22.221 228.594c-.079 0-.158 0-.237-.003a10.004 10.004 0 0 1-7.541-3.711c-.452-.56-11.104-13.937-13.801-34.37-2.644-20.038 2.653-46.569 20.449-60.675 20.179-15.993 60.17-17.865 76.427-17.928 12.137-.045 34.493 1.881 47.913 15.291 6.865 6.859 10.478 15.958 10.447 26.312-.039 12.906-3.955 23.26-11.639 30.772-13.574 13.272-34.353 12.87-43.23 12.694-.914-.019-1.683-.037-2.271-.025-1.983.033-3.97.052-5.956.071-15.547.148-30.231.289-41.978 7.481-4.033 2.469-14.774 13.612-21.114 20.736a10 10 0 0 1-7.471 3.354Zm11.293-83.085c-11.077 8.779-14.946 27.968-13.043 42.384.708 5.363 2.171 10.067 3.744 13.88 5.371-5.523 11.776-11.649 16.147-14.325 16.465-10.082 34.646-10.256 52.23-10.424 1.937-.019 3.875-.037 5.812-.07.781-.013 1.792.005 2.995.027 6.906.136 21.277.414 28.858-6.998 3.76-3.677 5.599-9.084 5.621-16.533.016-5.118-1.441-8.964-4.583-12.104-8.848-8.843-28.008-9.46-33.7-9.438-21.749.084-51.583 3.696-64.081 13.602Z"/></g><g><path d="M122.201 242.456c4.391-3.496 16.94-8.345 14.088-25.742-4.764-29.058-27.655-29.807-37.718-29.762-12.188.056-50.096 4.16-64.819 18.013-21.399 20.136-12.973 48.714-9.693 57.422l-.132.025s13.423 44.633 63.503 67.605l-9.491-79.113 44.262-8.449Z" fill="#fff"/><path d="M87.438 340.021c-.817 0-1.646-.101-2.475-.312-59.102-15.048-70.151-71.432-70.869-75.476-4.024-11.575-11.839-43.359 12.806-66.551 20.853-19.622 71.128-20.729 71.626-20.73 7.096-.026 16.403.513 25.389 5.035 8.361 4.209 19.008 13.37 22.244 33.108 3.472 21.183-10.174 30.168-16.001 34.005-.665.438-1.418.934-1.727 1.179-4.32 3.441-10.611 2.728-14.052-1.595-3.439-4.321-2.726-10.612 1.595-14.052 1.014-.807 2.068-1.502 3.185-2.237 5.516-3.632 8.573-6.075 7.264-14.064-2.898-17.677-13.052-21.38-27.424-21.38h-.381c-15.058.068-47.322 5.239-58.01 15.297-16.491 15.517-10.52 37.768-7.188 46.613a10 10 0 0 1 .637 3.194c1.744 7.875 12.544 47.246 55.843 58.271 5.352 1.362 8.586 6.806 7.224 12.158-1.152 4.523-5.22 7.534-9.684 7.534Z"/></g><g><path d="M125.336 240.539c-11.161 8.113-27.932 4.719-32.024 4.8-10.043.2-15.365 1.839-24.874 5.566" fill="#fff"/><path d="M68.441 260.908c-3.994 0-7.768-2.41-9.313-6.354-2.015-5.142.52-10.943 5.662-12.959 10.787-4.228 17.106-6.03 28.324-6.253 1.25-.014 2.618.091 4.348.237 5.535.469 15.842 1.343 21.994-3.129 4.468-3.247 10.721-2.259 13.969 2.209 3.247 4.468 2.258 10.722-2.209 13.969-12.18 8.853-27.893 7.52-35.444 6.88-.874-.074-1.961-.166-2.311-.17-8.59.171-12.688 1.474-21.374 4.878a9.967 9.967 0 0 1-3.646.692Z"/></g></g></svg></g></svg>