<svg xmlns="http://www.w3.org/2000/svg"  viewBox="0 0 512 512" width="64px" height="64px"><g data-name="30 Year"><path fill="#f7f5fb" d="M37.87,195H474.13a0,0,0,0,1,0,0V452.25A48.75,48.75,0,0,1,425.38,501H86.62a48.75,48.75,0,0,1-48.75-48.75V195a0,0,0,0,1,0,0Z"/><path fill="#fdb876" d="M474.13,121.12V195H37.87V121.12A52.24,52.24,0,0,1,90.11,68.87h34.08V85.39a14.5,14.5,0,0,0,14.5,14.5h50.6a14.5,14.5,0,0,0,14.5-14.5V68.87H308.2V85.39a14.5,14.5,0,0,0,14.5,14.5h50.61a14.5,14.5,0,0,0,14.49-14.5V68.87h34.08A52.25,52.25,0,0,1,474.13,121.12Z"/><path fill="#cfdce5" d="M143.69,11h40.6a19.5,19.5,0,0,1,19.5,19.5V85.39a14.5,14.5,0,0,1-14.5,14.5H138.69a14.5,14.5,0,0,1-14.5-14.5V30.5A19.5,19.5,0,0,1,143.69,11Z"/><path fill="#cfdce5" d="M327.7,11h40.6a19.5,19.5,0,0,1,19.5,19.5V85.39a14.5,14.5,0,0,1-14.5,14.5H322.7a14.5,14.5,0,0,1-14.5-14.5V30.5A19.5,19.5,0,0,1,327.7,11Z"/><path fill="#e4e3e8" d="M249.32,501H86.62a48.75,48.75,0,0,1-48.75-48.76V257.66A501.85,501.85,0,0,0,249.32,501Z"/><path d="M425.37,507H86.62a54.81,54.81,0,0,1-54.75-54.76v-149a6,6,0,0,1,12,0v149A42.8,42.8,0,0,0,86.62,495H425.37a42.81,42.81,0,0,0,42.76-42.76V201H43.87v55.48a6,6,0,0,1-12,0V195a6,6,0,0,1,6-6H474.13a6,6,0,0,1,6,6V452.24A54.82,54.82,0,0,1,425.37,507Z"/><path d="M37.87,290.37a6,6,0,0,1-6-6v-9a6,6,0,0,1,12,0v9A6,6,0,0,1,37.87,290.37Z"/><path d="M474.13,201H37.87a6,6,0,0,1-6-6V121.12A58.31,58.31,0,0,1,90.11,62.87h34.08a6,6,0,0,1,6,6V85.39a8.51,8.51,0,0,0,8.5,8.5h50.6a8.51,8.51,0,0,0,8.5-8.5V68.87a6,6,0,0,1,6-6H308.2a6,6,0,0,1,6,6V85.39a8.51,8.51,0,0,0,8.5,8.5h50.61a8.5,8.5,0,0,0,8.49-8.5V68.87a6,6,0,0,1,6-6h34.08a58.31,58.31,0,0,1,58.25,58.25V195A6,6,0,0,1,474.13,201ZM43.87,189H468.13V121.12a46.31,46.31,0,0,0-46.25-46.25H393.8V85.39a20.51,20.51,0,0,1-20.49,20.5H322.7a20.52,20.52,0,0,1-20.5-20.5V74.87H209.79V85.39a20.52,20.52,0,0,1-20.5,20.5h-50.6a20.52,20.52,0,0,1-20.5-20.5V74.87H90.11a46.3,46.3,0,0,0-46.24,46.25Z"/><path d="M189.29,105.89h-50.6a20.52,20.52,0,0,1-20.5-20.5V30.5A25.53,25.53,0,0,1,143.69,5h40.6a25.53,25.53,0,0,1,25.5,25.5V85.39A20.52,20.52,0,0,1,189.29,105.89ZM143.69,17a13.51,13.51,0,0,0-13.5,13.5V85.39a8.51,8.51,0,0,0,8.5,8.5h50.6a8.51,8.51,0,0,0,8.5-8.5V30.5A13.51,13.51,0,0,0,184.29,17Z"/><path d="M373.31,105.89H322.7a20.53,20.53,0,0,1-20.5-20.5V30.5A25.53,25.53,0,0,1,327.7,5h40.61a25.53,25.53,0,0,1,25.5,25.5V85.39A20.53,20.53,0,0,1,373.31,105.89ZM327.7,17a13.51,13.51,0,0,0-13.5,13.5V85.39a8.51,8.51,0,0,0,8.5,8.5h50.61a8.51,8.51,0,0,0,8.5-8.5V30.5A13.51,13.51,0,0,0,368.31,17Z"/><path d="M341.2,414.25a6,6,0,0,1-5.64-3.95l-14.38-39.5H275.67L259,410.57a6,6,0,0,1-11.17-4.37L291.7,285.7a6,6,0,0,1,11.28,0l43.85,120.5a6,6,0,0,1-3.58,7.69A6.15,6.15,0,0,1,341.2,414.25ZM277.86,358.8h38.95l-19.47-53.51Z"/><path d="M226.3,414.25H173.37a9.93,9.93,0,0,1-9.92-9.93V291.68a9.93,9.93,0,0,1,9.92-9.93H226.3a6,6,0,0,1,0,12H175.45v108.5H226.3a6,6,0,0,1,0,12Z"/><path d="M226.3,354H169.45a6,6,0,0,1,0-12H226.3a6,6,0,0,1,0,12Z"/><path d="M366.11,414.25a6,6,0,0,1-6-6V287.75a6,6,0,0,1,12,0v120.5A6,6,0,0,1,366.11,414.25Z"/><path d="M404.81,349.69h-38.7a6,6,0,0,1-6-6V287.75a6,6,0,0,1,6-6h38.7a34,34,0,0,1,0,67.94Zm-32.7-12h32.7a22,22,0,0,0,0-43.94h-32.7Z"/><path d="M430.81,414.25a6,6,0,0,1-4.66-2.21l-52.6-64.56a6,6,0,0,1,9.3-7.58l52.6,64.56a6,6,0,0,1-4.64,9.79Z"/><path d="M110.75,414.25a6,6,0,0,1-6-6v-68a6,6,0,0,1,12,0v68A6,6,0,0,1,110.75,414.25Z"/><path d="M110.75,346.26a6,6,0,0,1-5.15-2.92l-31.52-52.5a6,6,0,0,1,10.29-6.18l31.52,52.51a6,6,0,0,1-5.14,9.09Z"/><path d="M110.74,346.26a6,6,0,0,1-5.14-9.09l31.53-52.51a6,6,0,0,1,10.29,6.18l-31.53,52.5A6,6,0,0,1,110.74,346.26Z"/></g></svg>