<svg xmlns="http://www.w3.org/2000/svg"  viewBox="0 0 512 512" width="192px" height="192px"><path fill="#FEBF10" d="M368.6 274.3c-9.1.1-20.5 3.8-27.5-3.7-5.4-5.8-8.1-13.6-10.7-21.2-7.5 8.6-14.2 18.2-19.9 28-2.1 3.6-6.5 3.4-8.9 1.3-.9.2-1.9.1-3-.3 1.5.6.8.2-.4.3-1.2.1-2.4.2-3.6.3-2.6.4-5.2.8-7.9 1.4-1.3.3-2.6.6-3.9.9 6.3 3.9 12.5 8 17.1 13.7 4 5 6.2 11.1 6.8 17.4.5 4.6.4 9.6 1.4 14.2 3.7-2.8 7.2-6.1 10.9-9 4.3-3.3 10.2-8 16-7.7 8.4.5 15 5.5 21.7 10.3-.8-5.4-2.1-10.7-1.4-16.2.7-5.5 2.2-10.5 5-15.3 3.1-5.2 7.9-8 11.8-12.6.3-.3.6-.8.8-1.3C371.6 274.4 370 274.3 368.6 274.3zM423 139.7c-2.6-.3-5.2-.2-7.8-.3-5.6 0-12.5.3-17.5-2.5-5.4-3.1-8.3-8.3-10-14-1-3.1-1.6-6.9-3-10.1-.6.8-1.1 1.5-1.5 2.1-2.4 3.6-4.6 7.3-6.8 11.1-2.6 4.4-5 8.9-7.4 13.4-.8 1.5-1.9 2.3-3.1 2.7-3.3 3.3-9.6 4.6-13.5 5.5-3.2.7-6.4 1.4-9.6 2 6.3 3.9 12.6 8.1 15.6 14.6 3.1 6.8 1.7 14.3.9 21.7 6.2-5.3 12.5-10.9 20.6-11.7 6.7-.6 12.9 1.6 18.5 5.3 2.2 1.4 4.3 3 6.6 4.5-1.9-8.5-2.4-17.9 1.1-24.7 2.4-4.8 6.7-8.2 10.7-11.5 1.9-1.6 7.5-5 8.7-7.5C424.6 139.9 423.8 139.8 423 139.7zM253.4 344.3c-43.9-25.8-84.3-65.8-101.6-114.6-8.5-24-9.4-48.6-8.3-73.8.9-20.2 2.8-40.9 8.4-60.4-1.4.9-2.8 2-4 3-6.5 5.3-12.2 11.5-17.7 17.9-9.9 11.5-19.6 23.1-25.7 36.2C83.4 198 80.1 253.9 97.2 301.3c13.9 38.5 42.4 68.4 80.2 84.1 45.8 19 102.2 21.1 143.2-9.9C298.5 364.3 274.7 356.9 253.4 344.3z"/><path fill="#D6E5E5" d="M462.7,356.7c-1.2-3.5-2.9-8.6-6.7-10.3c-2.9-1.3-6.1-1.4-9.2-2.1c-6.1-1.4-16-4.1-16.9-11.6c-0.8-6.9,3.9-13,1.6-20.2c-6.8-21.3-36-21.3-53.9-26.7c-2.1,2.1-4.4,4.1-6,5.7c-3.8,3.6-5.7,11.5-5.4,16.5c0.5,7.9,2.7,15.4,1.7,23.4c-0.4,3.5-4.8,5.5-7.8,3.9c-4.6-2.4-8.7-5.8-13-8.7c-2.9-2-8.2-6.3-12-5.7c-4.8,0.8-9.4,5.4-13,8.4c-4.3,3.6-8.4,7.5-13.4,10.1c-2.4,1.3-6.1,1.4-7.6-1.5c-3.1-5.9-4.2-11.8-4.6-18.3c-0.4-5.7-0.6-11.8-4-16.6c-6.1-8.4-16.7-13.1-25.2-18.7c-3.9-2.5-4.2-8.3,0.6-10.1c6.2-2.4,12.9-3.8,19.4-5.1c5-1,10.9-2.5,15.9-0.8c0.3-0.6,0.7-1.1,1-1.7c-9.5-16.5-36.3-17.1-50.8-7.5c-9,6-17.4,10.7-28.2,12.1c-6.6,0.9-13.2,0.7-19.4,3.5c-3.9,1.7-7.6,3.9-11.3,5.8c16.5,19.6,36.3,36.5,57.9,50.2c22.1,14,47.1,22,70.4,33.4c2.5-4.2,10.2-3.8,10.2,2.1v6c0,2-1,3.8-2.5,5c0.6,2,0.2,4.4-1.9,6c-13,10.2-28.2,17.8-44.2,22c-45.2,11.9-98,2.2-137-23.4c-20.5-13.4-36.9-31.3-48.8-51.9c-4.6,0.8-9-0.1-13.9,0.3c-5,0.4-8.9,5-11.8,8.8c-6.8,8.9-12.4,18-20.7,25.8c-6.8,6.4-17.8,13.5-20.5,23c-6.3,22.7,19.4,32.3,37.1,33.8c10.3,0.9,21.2,3.5,30.1,8.9c9.6,5.8,17.5,13.8,26.5,20.5c10.6,7.9,22.8,14,35.5,17.8c12.9,3.8,27,7.1,40.4,4.6c23.6-4.5,46.3-24,71.2-15.8c11.2,3.7,21.6,10.9,33.3,13c12.2,2.2,25.5,0.1,37.4-3c18.8-4.9,36.8-11.7,51.6-24.4c5.6-4.8,11.7-10.3,15.7-16.6c1.4-2.2,3.1-5.2,2.9-6.9c0-0.2-0.1-0.5-0.2-0.7c-1.1-0.5-2.2-1.1-3.3-1.8c-6-3.8-1.8-12.3,4.9-9.9c1.9,0.7,3.5,1.5,4.8,2.4c16,5.9,32.8-7.4,40.1-21.8C464.1,378.6,466.2,366.6,462.7,356.7z"/><path d="M435.9 136.3c-3.4-11.2-21.4-7.2-29.8-8.3-6.1-.8-7.3-6-8.9-11.2-1.8-6.3-3.6-12.5-8.7-17-1.7-1.5-4.8-2-6.7-.4-6 4.8-9.9 12.4-13.8 18.9-2.6 4.4-5.2 9-7.6 13.5-1.3.4-2.5 1.2-3.1 2.7-.9.4-1.8.7-2.8 1-3.1 1-6.3 1.7-9.4 2.4-5.8 1.3-12 2.2-17.6 4.3-3.7 1.4-5.2 6.7-1.8 9.3 7 5.4 17 9.2 22.1 16.6 2.4 3.4.9 9.8.5 13.6-.5 5.1-1.2 10.4-.5 15.5.6 4.3 4.9 6.3 8.6 4.1 4.8-2.8 9-6.4 13.3-10 3.5-3 7.2-6 12-6.4 5.6-.5 11 3.9 15.3 6.8 4.8 3.3 9.6 6.3 15.3 7.5 4 .8 7.7-3.3 6.2-7.2-3.5-9.1-7.6-24.1.1-31.9C425.2 153.9 439.4 147.4 435.9 136.3zM405.9 159.3c-3.4 6.8-2.9 16.2-1.1 24.7-2.2-1.5-4.4-3.1-6.6-4.5-5.6-3.6-11.7-5.9-18.5-5.3-8.1.7-14.3 6.4-20.6 11.7.8-7.4 2.2-14.9-.9-21.7-3-6.6-9.3-10.7-15.6-14.6 3.2-.7 6.5-1.3 9.6-2 3.9-.9 10.2-2.1 13.5-5.5 1.2-.4 2.3-1.2 3.1-2.7 2.4-4.5 4.9-9 7.4-13.4 2.2-3.8 4.4-7.5 6.8-11.1.4-.6.9-1.3 1.5-2.1 1.4 3.2 2.1 7 3 10.1 1.8 5.8 4.7 11 10 14 5.1 2.9 11.9 2.5 17.5 2.5 2.6 0 5.2 0 7.8.3.8.1 1.6.2 2.4.5-1.1 2.6-6.8 6-8.7 7.5C412.5 151 408.3 154.5 405.9 159.3zM461.8 337.1c-3.4-2.2-7.9-2.6-11.8-3.3-2.3-.4-4.4-1.2-6.6-2-.8-.3-1.6-.7-2.4-1.1.1-.5.2-.9.4-1.4.5-1.8.9-3.6 1.3-5.5.9-5.4.5-10.9-1.2-16.2-3.4-10.8-14.3-18.3-24.1-22.7-10.5-4.7-22-5.8-33.1-8.6 1-3.4.3-6.8-3.9-9.9-8.4-6.3-20-1.5-29.4-2.3-3.4-.3-6.1-7.5-7.5-10.9-2.2-5.3-3.7-10.8-5.8-16.1-1.5-4-6.4-4.8-9.3-1.8-6.4 6.6-12.4 13.8-17.7 21.5-12.7-16.3-39.2-17.9-57.1-10.2-9.9 4.3-17.1 11.8-28.1 13.6-7 1.1-13.9 1-20.7 3.2-6.2 2-11.5 5.8-17.4 8.4-13.6-18.1-24.1-38.5-29.6-60.5-3-11.9-3.4-24.1-3.6-36.3-.1-13 .4-25.9 1.7-38.9 1.4-14.4 3.6-29.1 8.2-42.9 2.3-1.4 3.7-4.3 2.4-6.8 1.5-6.1-7.4-10.3-10-4.3-9.8.6-20.1 11.6-25.8 17.5-11 11.2-21 23.8-29.8 36.9-6.2 9.2-10.2 19.8-13.8 30.1-4.7 13.7-8 27.9-9.8 42.2-3.3 25.1-1.9 50.8 3.6 75.5 2.7 12.3 6.8 24.1 12.1 35.3-4.2.2-8.6-.6-12.7.1-5.5.9-10.6 6-14.2 10-3.6 4.1-6.4 8.8-9.5 13.3-3.2 4.7-7.1 8.7-11.1 12.8-7.5 7.7-16.2 13.7-21.9 23.1-5.6 9.2-5.1 21.4-.2 30.7 4.7 8.9 13.2 14.7 22.3 18.2 10 3.9 20.5 4.3 30.9 6.3 9.7 1.9 17.7 6.2 25.4 12.2 10 7.9 19.2 16.1 30.3 22.4 22.3 12.6 51.5 20.5 76.8 14 12.1-3.1 23.2-9.2 35-13.1 5.7-1.9 11.8-3.6 17.8-3 6.1.5 11.8 3 17.3 5.5 5.3 2.4 10.4 4.9 15.9 6.9 6.1 2.2 11.9 2.9 18.3 3.2 12.7.7 25.7-2.2 37.9-5.6 12.4-3.5 24.3-8.3 35.7-14.3 5.2-2.7 9.9-6.9 14.4-10.7 6.2-5.4 20-18.5 22.5-29.6 15.9 1.5 31.8-9.2 41.2-22.5 6.8-9.7 9.9-20.7 10.1-32.5C475.4 356.1 471.3 343.3 461.8 337.1zM310.5 277.4c5.7-9.8 12.4-19.3 19.9-28 2.5 7.6 5.3 15.4 10.7 21.2 7 7.5 18.5 3.8 27.5 3.7 1.5 0 3 .1 4.4.6-.3.4-.5.9-.8 1.3-3.8 4.6-8.6 7.4-11.8 12.6-2.8 4.8-4.3 9.8-5 15.3-.7 5.5.6 10.8 1.4 16.2-6.7-4.8-13.3-9.9-21.7-10.3-5.8-.3-11.7 4.3-16 7.7-3.7 2.9-7.1 6.1-10.9 9-1-4.6-.9-9.6-1.4-14.2-.7-6.3-2.8-12.5-6.8-17.4-4.6-5.7-10.8-9.9-17.1-13.7 1.3-.3 2.6-.6 3.9-.9 2.6-.5 5.2-1 7.9-1.4 1.2-.2 2.4-.3 3.6-.3 1.1-.1 1.8.3.4-.3 1.1.4 2.1.5 3 .3C304 280.8 308.4 281 310.5 277.4zM104.6 152.6c6.1-13.1 15.8-24.8 25.7-36.2 5.4-6.3 11.2-12.6 17.7-17.9 1.2-1 2.6-2.1 4-3-5.6 19.6-7.5 40.2-8.4 60.4-1.1 25.2-.2 49.8 8.3 73.8 17.3 48.8 57.6 88.8 101.6 114.6 21.3 12.5 45.1 20 67.2 31.1-41 31.1-97.4 28.9-143.2 9.9-37.8-15.6-66.4-45.6-80.2-84.1C80.1 253.9 83.4 198 104.6 152.6zM459.5 387.8c-7.2 14.4-24.1 27.7-40.1 21.8-1.3-.9-2.9-1.7-4.8-2.4-6.7-2.4-10.9 6-4.9 9.9 1.1.7 2.2 1.3 3.3 1.8.1.2.2.4.2.7.2 1.7-1.6 4.7-2.9 6.9-4 6.3-10.1 11.8-15.7 16.6-14.8 12.7-32.8 19.5-51.6 24.4-11.9 3.1-25.2 5.2-37.4 3-11.7-2.1-22.1-9.3-33.3-13-24.9-8.2-47.6 11.3-71.2 15.8-13.4 2.5-27.5-.8-40.4-4.6-12.7-3.7-24.8-9.9-35.5-17.8-9-6.7-16.9-14.6-26.5-20.5-8.9-5.4-19.8-8-30.1-8.9-17.7-1.6-43.4-11.1-37.1-33.8 2.6-9.6 13.6-16.6 20.5-23 8.2-7.8 13.8-16.8 20.7-25.8 2.9-3.8 6.8-8.4 11.8-8.8 4.8-.4 9.3.5 13.9-.3 11.8 20.7 28.3 38.5 48.8 51.9 39.1 25.6 91.8 35.3 137 23.4 16-4.2 31.2-11.8 44.2-22 2.1-1.7 2.5-4 1.9-6 1.5-1.1 2.5-3 2.5-5v-6c0-5.9-7.6-6.3-10.2-2.1-23.4-11.4-48.3-19.4-70.4-33.4-21.6-13.7-41.4-30.6-57.9-50.2 3.8-1.9 7.4-4.1 11.3-5.8 6.2-2.7 12.8-2.6 19.4-3.5 10.8-1.4 19.2-6.2 28.2-12.1 14.5-9.7 41.4-9.1 50.8 7.5-.3.6-.7 1.1-1 1.7-5-1.7-10.9-.2-15.9.8-6.5 1.3-13.2 2.7-19.4 5.1-4.8 1.9-4.5 7.6-.6 10.1 8.5 5.6 19.1 10.2 25.2 18.7 3.5 4.8 3.7 11 4 16.6.4 6.6 1.6 12.5 4.6 18.3 1.5 2.9 5.2 2.8 7.6 1.5 4.9-2.6 9.1-6.5 13.4-10.1 3.6-3 8.2-7.7 13-8.4 3.8-.6 9.1 3.7 12 5.7 4.3 2.9 8.4 6.3 13 8.7 3 1.6 7.4-.4 7.8-3.9 1-8-1.2-15.5-1.7-23.4-.3-5 1.7-12.9 5.4-16.5 1.7-1.6 3.9-3.5 6-5.7 17.9 5.3 47.1 5.3 53.9 26.7 2.3 7.2-2.4 13.3-1.6 20.2.9 7.5 10.8 10.2 16.9 11.6 3.1.7 6.3.8 9.2 2.1 3.7 1.7 5.4 6.7 6.7 10.3C466.2 366.6 464.1 378.6 459.5 387.8z"/></svg>